<?xml version="1.0" encoding="UTF-8" standalone="no" ?>
<!DOCTYPE svg PUBLIC "-//W3C//DTD SVG 1.1//EN" "http://www.w3.org/Graphics/SVG/1.1/DTD/svg11.dtd">
<svg xmlns="http://www.w3.org/2000/svg" xmlns:xlink="http://www.w3.org/1999/xlink" version="1.1" width="1080" height="1080" viewBox="0 0 1080 1080" xml:space="preserve">
<desc>Created with Fabric.js 5.2.4</desc>
<defs>
</defs>
<g transform="matrix(1 0 0 1 540 540)" id="d5003414-7bc0-4c73-b9a9-dee693026117"  >
<rect style="stroke: none; stroke-width: 1; stroke-dasharray: none; stroke-linecap: butt; stroke-dashoffset: 0; stroke-linejoin: miter; stroke-miterlimit: 4; fill: rgb(255,255,255); fill-rule: nonzero; opacity: 1; visibility: hidden;" vector-effect="non-scaling-stroke"  x="-540" y="-540" rx="0" ry="0" width="1080" height="1080" />
</g>
<g transform="matrix(1 0 0 1 540 540)" id="76949a35-ad02-41c0-8ea0-9a2b282ab34e"  >
</g>
<g transform="matrix(17.29 0 0 17.29 540 540)"  >
<g style="" vector-effect="non-scaling-stroke"   >
		<g transform="matrix(1 0 0 1 0.87 -0.77)"  >
<path style="stroke: none; stroke-width: 1; stroke-dasharray: none; stroke-linecap: butt; stroke-dashoffset: 0; stroke-linejoin: miter; stroke-miterlimit: 4; fill: rgb(255,255,255); fill-rule: nonzero; opacity: 1;" vector-effect="non-scaling-stroke"  transform=" translate(-71.14, -70.11)" d="M 67.83 58.77 C 62.67 55.050000000000004 52.79 54.1 48.55 57.230000000000004 C 44.309999999999995 60.36000000000001 42.879999999999995 66.22 43.55 71.45 C 44.47 78.60000000000001 48.599999999999994 84.88 52.62 90.86 C 55.669999999999995 95.41 60.28 100.58 65.55 99.07 C 67.28 98.57 68.95 97.35 70.7 97.77 C 71.56 97.97999999999999 72.27 98.56 73.04 99 C 76.68 101.11 81.52000000000001 99.98 84.78 97.32 C 88.03999999999999 94.65999999999998 90.03 90.77999999999999 91.73 86.94 C 94 81.8 95.92 76.50999999999999 97.46000000000001 71.12 C 98.69000000000001 66.82000000000001 99.67 62.120000000000005 98.01 57.96000000000001 C 97.08 55.63000000000001 95.35000000000001 53.66000000000001 93.27000000000001 52.260000000000005 C 86.27000000000001 47.57000000000001 75.36000000000001 50.760000000000005 71.99000000000001 58.480000000000004 C 70.54 53.13 75.47000000000001 48.2 76.27000000000001 42.720000000000006 C 76.37 42.02 76.39000000000001 41.24000000000001 75.95000000000002 40.690000000000005 C 74.88000000000002 39.32000000000001 72.70000000000002 40.660000000000004 71.75000000000001 42.11000000000001 C 69.04000000000002 46.27000000000001 68.26000000000002 51.620000000000005 69.68000000000002 56.38000000000001" stroke-linecap="round" />
</g>
		<g transform="matrix(1 0 0 1 -2.99 -11.8)"  >
<path style="stroke: none; stroke-width: 1; stroke-dasharray: none; stroke-linecap: butt; stroke-dashoffset: 0; stroke-linejoin: miter; stroke-miterlimit: 4; fill: rgb(230,137,21); fill-rule: nonzero; opacity: 1;" vector-effect="non-scaling-stroke"  transform=" translate(-67.29, -59.08)" d="M 67.05 59.03 C 67.71 59.36 66.89 58.56 67.53 59.18 C 67.36 59.24 67.19 59.25 67.05 59.03 z" stroke-linecap="round" />
</g>
		<g transform="matrix(1 0 0 1 0 0.04)"  >
<path style="stroke: none; stroke-width: 1; stroke-dasharray: none; stroke-linecap: butt; stroke-dashoffset: 0; stroke-linejoin: miter; stroke-miterlimit: 4; fill: rgb(230,137,21); fill-rule: nonzero; opacity: 1;" vector-effect="non-scaling-stroke"  transform=" translate(-70.28, -70.92)" d="M 69.6 53.82 C 68.97999999999999 52.69 68.91999999999999 51.21 69.11999999999999 49.78 C 69.30999999999999 48.33 69.72999999999999 46.93 69.91 45.55 C 69.97999999999999 45.239999999999995 70.34 45.79 70.49 45.099999999999994 C 70.55 44.42999999999999 70.78999999999999 43.709999999999994 71.13 42.96999999999999 C 71.47999999999999 42.24999999999999 71.94 41.459999999999994 72.67999999999999 40.93999999999999 C 73.36999999999999 40.41999999999999 74.33999999999999 40.00999999999999 75.11999999999999 40.29999999999999 C 75.49 40.43999999999999 75.74 40.76999999999999 75.82999999999998 41.09999999999999 C 75.92999999999998 41.429999999999986 75.87999999999998 41.79999999999999 75.79999999999998 42.139999999999986 C 75.74999999999999 42.079999999999984 75.70999999999998 42.02999999999999 75.65999999999998 41.969999999999985 C 75.56999999999998 42.43999999999998 75.85999999999999 43.249999999999986 75.65999999999998 43.83999999999998 C 75.56999999999998 43.81999999999998 75.57999999999998 43.61999999999998 75.41999999999999 43.719999999999985 C 75.65999999999998 43.93999999999998 75.24999999999999 44.83999999999998 75.35 45.149999999999984 C 75.16 45.34999999999999 74.96 45.249999999999986 74.74 45.509999999999984 L 74.91 45.95999999999999 C 75.25999999999999 47.19999999999999 73.88 48.20999999999999 73.66 49.62999999999999 C 73.61999999999999 49.539999999999985 73.63 49.389999999999986 73.50999999999999 49.45999999999999 C 72.99999999999999 51.66999999999999 71.71999999999998 54.29999999999998 72.00999999999999 56.76999999999999 C 71.88999999999999 56.679999999999986 71.67999999999999 56.58999999999999 71.55999999999999 56.73999999999999 C 71.72999999999999 56.79999999999999 71.85999999999999 57.01999999999999 71.94999999999999 57.289999999999985 C 72.03999999999999 57.569999999999986 72.16999999999999 57.899999999999984 72.25999999999999 58.20999999999999 C 72.21999999999998 58.259999999999984 72.19999999999999 58.329999999999984 72.19999999999999 58.399999999999984 L 71.77999999999999 58.36999999999998 C 72.02999999999999 58.069999999999986 71.92999999999999 57.179999999999986 72.43999999999998 56.66999999999998 L 72.46999999999998 56.76999999999998 C 72.49999999999999 56.06999999999998 73.13999999999999 56.15999999999998 73.06999999999998 55.49999999999998 C 73.20999999999998 55.44999999999998 73.37999999999998 55.41999999999998 73.52999999999997 55.369999999999976 C 73.32999999999997 54.85999999999998 74.28999999999998 54.879999999999974 74.42999999999998 54.35999999999998 L 74.34999999999998 54.299999999999976 C 74.60999999999999 53.89999999999998 74.95999999999998 53.909999999999975 75.21999999999998 53.559999999999974 L 75.28999999999998 53.56999999999997 C 75.97999999999998 52.809999999999974 76.64999999999998 52.72999999999997 76.39999999999998 52.41999999999997 C 76.85999999999997 52.45999999999997 75.68999999999998 53.10999999999997 76.39999999999998 53.14999999999997 C 77.57999999999998 52.02999999999997 79.05999999999997 51.15999999999997 80.64999999999998 50.62999999999997 C 82.23999999999998 50.08999999999997 83.90999999999998 49.76999999999997 85.57999999999998 49.779999999999966 C 85.95999999999998 49.90999999999997 86.18999999999998 49.98999999999997 86.26999999999998 50.139999999999965 C 86.59999999999998 50.099999999999966 87.49999999999999 50.109999999999964 87.81999999999998 49.999999999999964 C 87.71 50 88 50.24 88.17 50.29 C 88.72 50.55 88.91 49.949999999999996 89.51 50.32 C 89.23 50.34 89.12 50.44 89.17 50.6 C 89.77 50.480000000000004 90.51 50.68 91.14 50.89 C 91.02 50.910000000000004 90.86 50.88 90.84 51 C 91.64 50.97 92.03 51.57 92.66 51.72 L 92.35 51.79 C 93.08 52.53 92.85 51.53 93.53 52.14 C 93.31 52.08 93.33 52.19 93.25 52.25 C 94.17 52.36 95.15 53.34 95.81 53.86 C 95.75 53.839999999999996 95.72 53.9 95.72 53.9 C 96.39 54.53 96.88 55.339999999999996 97.56 56.11 C 97.65 56.48 97.05 56.28 97.57000000000001 57.07 C 97.98 56.82 98.39 58.48 98.64 57.76 C 98.91 58.58 99.05 59.9 99.27 60.42 C 99.05 60.08 98.8 60.9 98.64999999999999 60.24 C 98.6 60.42 98.52 60.6 98.46 60.78 C 98.27 60.730000000000004 98.44999999999999 60.27 98.25 60.46 C 98.33 60.77 98.61 61.7 98.55 62 C 98.84 62.59 99.38 63.17 99.36 64.21 C 99.22 63.71999999999999 98.85 64.44999999999999 98.8 64.11999999999999 C 99.06 64.6 99.28 65.10999999999999 99.50999999999999 65.61999999999999 C 99.47999999999999 65.96 99.14999999999999 65.64999999999999 99.19999999999999 66.14999999999999 C 99.32 66.13999999999999 99.35999999999999 66.36999999999999 99.42999999999999 66.52999999999999 C 99.36 66.64999999999999 99.27999999999999 67.96 98.80999999999999 68.00999999999999 C 98.60999999999999 68.11999999999999 98.82999999999998 67.44999999999999 98.60999999999999 67.78999999999999 C 98.47999999999999 68.39999999999999 98.61999999999999 68.46 98.47999999999999 69.07 L 98.41999999999999 69.07 C 98.25999999999999 69.44999999999999 98.29999999999998 70.28999999999999 98.64999999999999 69.91999999999999 C 98.74 69.63999999999999 98.36999999999999 69.96 98.6 69.57999999999998 C 98.77 69.91999999999999 98.66 70.64999999999998 98.49 71.24999999999999 C 98.47999999999999 71.02999999999999 98.36 71.01999999999998 98.25999999999999 70.89999999999999 C 98.36999999999999 71.8 98.21999999999998 72.67999999999999 98.07999999999998 73.61999999999999 C 98.27999999999999 73.68999999999998 97.81999999999998 73.16999999999999 97.95999999999998 73.07999999999998 C 97.33999999999997 74.13999999999999 97.61999999999998 75.56999999999998 96.89999999999998 76.37999999999998 C 96.91999999999997 76.20999999999998 97.20999999999998 76.38999999999999 97.14999999999998 76.37999999999998 C 96.93999999999998 76.91999999999999 96.65999999999998 76.79999999999998 96.64999999999998 77.18999999999998 C 96.46999999999997 77.16999999999999 96.54999999999998 77.65999999999998 96.46999999999997 78.03999999999998 C 96.51999999999997 78.26999999999998 96.35999999999997 78.10999999999997 96.44999999999997 77.77999999999997 C 96.41999999999997 78.33999999999997 95.94999999999997 80.46999999999997 95.24999999999997 81.54999999999997 C 95.36999999999998 81.56999999999996 95.36999999999998 82.41999999999997 95.25999999999998 82.67999999999996 L 95.04999999999998 82.47999999999996 C 94.79999999999998 82.65999999999997 94.71999999999998 83.37999999999997 94.47999999999999 83.33999999999996 C 94.57 84.02999999999996 95.07999999999998 81.03999999999996 95.00999999999999 81.90999999999995 C 94.71999999999998 82.02999999999996 94.99999999999999 83.14999999999995 94.71 82.83999999999996 C 94.50999999999999 83.37999999999997 94.58 84.00999999999996 94.14 84.42999999999996 C 94.24 84.29999999999997 93.96 83.84999999999997 93.81 84.28999999999996 C 93.54 85.05999999999996 93.84 84.54999999999997 93.67 85.19999999999996 L 93.61 85.62999999999997 C 93.85 85.75999999999996 93.29 86.28999999999996 93.67999999999999 86.12999999999997 C 93.44 86.13999999999997 93.33 87.27999999999997 92.96 87.02999999999997 L 92.69 86.78999999999998 C 92.57 87.11999999999998 92.8 87.46999999999998 92.82 87.78999999999998 C 92.77 87.81999999999998 92.66999999999999 87.87999999999998 92.63 87.83999999999997 C 93.1 88.10999999999997 92.24 88.59999999999998 92.42999999999999 89.15999999999997 C 91.94999999999999 89.75999999999996 91.57 90.87999999999997 91.11 91.04999999999997 C 90.98 91.63999999999997 90.89 92.20999999999997 90.44 92.72999999999998 C 90.47 92.58999999999997 90.53999999999999 92.41999999999997 90.46 92.32999999999997 C 90.11999999999999 92.61999999999998 90.17999999999999 92.76999999999997 90.05 93.14999999999996 C 90.03 93.03999999999996 89.34 93.69999999999996 88.91 93.96999999999996 C 88.71 94.53999999999995 89.06 94.53999999999995 89.17 94.68999999999996 C 88.43 94.80999999999996 88.41 96.25999999999995 87.57000000000001 96.45999999999995 C 87.66000000000001 96.24999999999996 87.95 95.63999999999996 87.52000000000001 95.91999999999994 C 86.78000000000002 95.96999999999994 87.09 96.99999999999994 86.25000000000001 97.42999999999995 L 86.71000000000001 97.59999999999995 C 86.25000000000001 97.67999999999995 85.88000000000001 98.66999999999994 85.66000000000001 98.27999999999996 C 85.52000000000001 98.58999999999996 84.72000000000001 98.81999999999996 85.05000000000001 99.09999999999995 C 84.32000000000001 99.38999999999996 83.57000000000001 99.89999999999995 82.80000000000001 100.26999999999995 C 82.03000000000002 100.62999999999995 81.27000000000001 100.84999999999995 80.73000000000002 100.59999999999995 C 80.55000000000001 100.72999999999995 80.02000000000002 100.79999999999995 80.17000000000002 100.97999999999995 C 80.58000000000001 101.11999999999995 80.61000000000001 100.67999999999995 80.78000000000002 100.79999999999994 C 80.60000000000001 100.85999999999994 80.59000000000002 100.98999999999994 80.58000000000001 101.04999999999994 C 80.10000000000001 101.08999999999995 79.74000000000001 101.11999999999993 80.08000000000001 100.68999999999994 C 79.05000000000001 100.61999999999995 79.18 101.64999999999993 77.78000000000002 101.56999999999994 C 77.83000000000001 101.37999999999994 77.73000000000002 101.34999999999994 77.34000000000002 101.35999999999994 C 77.09000000000002 101.44999999999995 76.83000000000001 101.55999999999995 76.57000000000002 101.63999999999994 C 75.67000000000002 101.47999999999995 76.11000000000003 101.18999999999994 76.12000000000002 100.88999999999994 C 75.66000000000003 100.88999999999994 75.12000000000002 100.75999999999995 74.86000000000001 100.91999999999994 L 74.43 100.39999999999995 C 74.74000000000001 100.77999999999994 74.01 100.46999999999994 73.79 100.43999999999996 L 74.02000000000001 100.44999999999996 C 73.99000000000001 100.28999999999996 73.46000000000001 100.19999999999996 73.21000000000001 100.08999999999996 C 73.18 100.29999999999995 73.67 100.57999999999996 73.94000000000001 100.73999999999997 C 73.67000000000002 100.76999999999997 73.31000000000002 100.61999999999996 72.96000000000001 100.59999999999997 C 73.19000000000001 100.38999999999997 72.33000000000001 100.05999999999996 72.07000000000001 99.82999999999997 C 71.77000000000001 99.55999999999997 71.57000000000001 99.81999999999996 71.48 99.75999999999998 C 71.55 99.61999999999998 71.03 99.45999999999998 71.36 99.39999999999998 C 71.48 99.41999999999997 71.51 99.65999999999998 71.75 99.65999999999998 C 71.61 99.43999999999998 71.76 99.20999999999998 71.27 99.14999999999998 C 70.92999999999999 99.13999999999997 71.03999999999999 99.66999999999997 70.67 99.28999999999998 C 70.81 99.26999999999998 70.88 99.17999999999998 71.03 99.12999999999998 C 70.89 98.99999999999999 70.76 98.88999999999999 70.63 98.79999999999998 L 70.53999999999999 99.04999999999998 C 70.50999999999999 98.96999999999998 70.55 98.95999999999998 70.52999999999999 98.91999999999999 C 70.35999999999999 99.14999999999999 69.87999999999998 98.91999999999999 69.78999999999999 99.26999999999998 C 69.58999999999999 99.31999999999998 69.27 99.16999999999999 68.99 99.22999999999998 L 69.03 99.18999999999997 C 68.66 99.12999999999997 68.23 99.41999999999997 67.99 99.70999999999997 L 67.97999999999999 99.64999999999996 C 67.77999999999999 99.70999999999997 67.29999999999998 99.95999999999997 67.07 100.21999999999996 C 66.41 100.24999999999996 66.52999999999999 99.34999999999995 66 99.88999999999996 C 65.4 100.05999999999996 65.1 100.58999999999996 65.41 100.70999999999995 C 64.78999999999999 100.77999999999994 64.11999999999999 100.86999999999995 63.459999999999994 100.89999999999995 C 63.129999999999995 100.88999999999994 62.8 100.87999999999995 62.489999999999995 100.82999999999996 C 62.19 100.74999999999996 61.89999999999999 100.63999999999996 61.64999999999999 100.47999999999996 C 61.44999999999999 100.53999999999996 61.53999999999999 100.64999999999996 61.169999999999995 100.59999999999997 C 59.489999999999995 99.99999999999997 57.629999999999995 99.24999999999997 56.949999999999996 97.99999999999997 C 57.38999999999999 98.20999999999997 57.13999999999999 97.80999999999997 57.23 97.68999999999997 C 56.779999999999994 97.62999999999997 57.029999999999994 97.20999999999997 56.66 97.42999999999996 C 56.529999999999994 97.63999999999996 56.419999999999995 97.69999999999996 56.72 98.06999999999996 C 55.86 97.54999999999997 54.82 96.48999999999997 54.64 95.93999999999997 C 54.730000000000004 96.20999999999997 54.54 96.10999999999997 54.35 95.99999999999997 C 54.690000000000005 95.78999999999998 54.25 95.23999999999997 53.82 94.91999999999997 L 53.59 95.00999999999998 L 53.56 94.58999999999997 C 53.370000000000005 94.47999999999998 53.03 94.72999999999998 52.89 94.16999999999997 C 52.95 94.08999999999997 53 94.00999999999998 52.99 93.89999999999998 C 52.5 93.58999999999997 51.79 93.15999999999998 51.620000000000005 92.56999999999998 L 51.63 91.97999999999998 C 51.46 91.79999999999997 51.050000000000004 91.56999999999998 51.220000000000006 91.97999999999998 C 50.85000000000001 91.05999999999997 50.53000000000001 90.53999999999998 50.61000000000001 90.10999999999997 C 49.09 89.12999999999997 47.730000000000004 87.08999999999997 46.78000000000001 85.35999999999997 L 46.96000000000001 85.31999999999996 C 46.830000000000005 84.77999999999996 46.55000000000001 85.23999999999997 46.470000000000006 84.85999999999997 C 46.7 84.92999999999996 46.59 84.32999999999997 46.970000000000006 84.58999999999997 C 46.760000000000005 83.83999999999997 46.220000000000006 83.88999999999997 45.92000000000001 83.48999999999998 C 45.68000000000001 83.52999999999999 46.24000000000001 83.76999999999998 45.94000000000001 83.82999999999998 C 45.820000000000014 83.79999999999998 45.60000000000001 82.80999999999999 45.23000000000001 82.86999999999999 C 45.26000000000001 82.63999999999999 45.56000000000001 82.64999999999999 45.73000000000001 82.67999999999999 L 45.360000000000014 82.35 C 45.460000000000015 81.66999999999999 46.610000000000014 83.14999999999999 46.780000000000015 82.39 L 46.54000000000001 82.04 C 46.680000000000014 81.52000000000001 47.420000000000016 82.82000000000001 47.04000000000001 81.84 C 46.670000000000016 81.52000000000001 46.06000000000002 81.39 46.100000000000016 81.83 C 45.59000000000002 81.01 45.15000000000001 81.81 44.72000000000001 80.84 C 44.780000000000015 80.5 45.12000000000001 81.58 45.30000000000001 81.27000000000001 C 45.33000000000001 80.71000000000001 44.74000000000001 80.44000000000001 44.640000000000015 80.00000000000001 C 44.72000000000001 80.50000000000001 44.23000000000002 80.27000000000001 44.04000000000001 80.00000000000001 C 43.98000000000001 79.44000000000001 44.48000000000001 80.19000000000001 44.22000000000001 79.47000000000001 C 43.990000000000016 79.43 43.58000000000001 78.84000000000002 43.680000000000014 79.46000000000001 C 43.15000000000001 79.37 43.48000000000001 78.68 43.01000000000001 78.4 C 43.23000000000001 78.05000000000001 43.98000000000001 78.88000000000001 43.84000000000001 78.03 C 43.60000000000001 78.27 43.09000000000001 77.2 42.81000000000001 77.77 C 42.78000000000001 77.42 43.00000000000001 77.31 43.26000000000001 77.47999999999999 C 43.280000000000015 76.97999999999999 42.360000000000014 76.54999999999998 42.90000000000001 76.21999999999998 L 42.55000000000001 76.15999999999998 C 42.60000000000001 75.98999999999998 42.62000000000001 75.75999999999998 42.72000000000001 75.47999999999998 C 42.610000000000014 75.07999999999997 41.960000000000015 74.26999999999998 42.44000000000001 74.18999999999997 C 42.360000000000014 74.06999999999996 42.180000000000014 73.11999999999998 41.94000000000001 73.54999999999997 C 41.87000000000001 74.18999999999997 42.320000000000014 74.17999999999996 41.960000000000015 74.60999999999997 C 42.22000000000001 74.10999999999997 41.73000000000002 73.76999999999997 41.530000000000015 73.43999999999997 L 41.70000000000002 73.34999999999997 C 41.58000000000002 73.15999999999997 41.55000000000002 72.66999999999996 41.33000000000002 72.56999999999996 C 41.46000000000002 72.70999999999997 41.57000000000002 72.60999999999997 41.59000000000002 72.43999999999997 L 41.280000000000015 72.25999999999996 C 41.01000000000001 71.42999999999996 41.73000000000002 71.99999999999996 41.55000000000002 71.16999999999996 C 41.65000000000002 71.36999999999996 41.73000000000002 71.57999999999996 41.84000000000002 71.77999999999996 C 41.77000000000002 71.64999999999996 42.01000000000002 71.33999999999996 41.88000000000002 70.94999999999996 C 41.610000000000014 70.81999999999996 41.27000000000002 70.54999999999995 41.070000000000014 70.42999999999996 C 40.930000000000014 69.94999999999996 41.350000000000016 70.19999999999996 41.06000000000002 69.73999999999997 L 41.40000000000002 70.33999999999996 C 41.49000000000002 70.42999999999996 41.79000000000002 69.89999999999996 41.77000000000002 69.27999999999996 C 41.680000000000014 68.88999999999996 41.31000000000002 68.24999999999996 41.170000000000016 68.88999999999996 C 41.16000000000002 68.56999999999996 41.33000000000001 68.11999999999996 41.51000000000002 68.37999999999995 C 41.46000000000002 67.64999999999995 41.23000000000002 68.46999999999996 41.10000000000002 67.82999999999996 C 41.270000000000024 67.57999999999996 41.590000000000025 66.79999999999995 41.89000000000002 66.35999999999996 L 42.25000000000002 67.03999999999996 L 42.30000000000002 66.62999999999997 C 42.58000000000002 67.19999999999996 42.59000000000002 66.38999999999997 42.920000000000016 66.72999999999996 C 43.000000000000014 66.45999999999997 42.930000000000014 66.11999999999996 42.88000000000002 65.82999999999996 C 42.170000000000016 66.56999999999995 42.240000000000016 64.76999999999995 41.70000000000002 64.89999999999995 C 41.820000000000014 63.66999999999995 43.100000000000016 64.48999999999995 42.640000000000015 63.07999999999995 C 42.45000000000002 63.239999999999945 42.23000000000002 62.54999999999995 42.170000000000016 63.31999999999995 C 42.430000000000014 62.61999999999995 41.820000000000014 62.659999999999954 42.320000000000014 61.87999999999995 C 42.30000000000001 62.579999999999956 43.06000000000002 61.409999999999954 43.04000000000001 62.409999999999954 C 42.90000000000001 62.28999999999996 42.740000000000016 62.85999999999996 42.740000000000016 62.99999999999996 C 43.030000000000015 62.77999999999996 43.23000000000002 63.219999999999956 43.47000000000001 62.52999999999996 C 43.56000000000002 62.08999999999996 43.820000000000014 61.52999999999996 43.52000000000001 61.49999999999996 C 43.23000000000001 61.399999999999956 43.27000000000001 62.159999999999954 43.110000000000014 61.76999999999996 C 43.38000000000002 60.86999999999996 43.87000000000001 60.94999999999996 43.570000000000014 60.359999999999964 C 43.33000000000001 60.89999999999996 42.990000000000016 60.90999999999996 42.81000000000002 60.80999999999997 C 42.87000000000002 60.57999999999997 42.95000000000002 60.349999999999966 43.02000000000002 60.109999999999964 L 43.140000000000015 60.32999999999996 C 43.80000000000001 59.389999999999965 42.960000000000015 59.849999999999966 43.59000000000002 58.90999999999996 C 43.80000000000002 58.82999999999996 43.990000000000016 58.749999999999964 44.210000000000015 58.68999999999996 C 44.34000000000002 59.08999999999996 43.22000000000001 59.97999999999996 43.820000000000014 60.08999999999996 C 44.20000000000002 59.50999999999996 44.06000000000002 59.13999999999996 44.58000000000001 58.679999999999964 C 44.530000000000015 58.82999999999996 44.420000000000016 58.999999999999964 44.390000000000015 59.14999999999996 C 44.55000000000001 58.93999999999996 45.280000000000015 59.169999999999966 45.54000000000001 58.14999999999996 C 45.750000000000014 57.64999999999996 45.48000000000001 57.919999999999966 45.33000000000001 57.76999999999996 C 45.670000000000016 57.30999999999996 45.890000000000015 56.99999999999996 46.08000000000001 56.71999999999996 C 46.27000000000001 56.43999999999996 46.420000000000016 56.19999999999996 46.72000000000001 55.959999999999965 C 46.860000000000014 56.36999999999996 47.780000000000015 55.15999999999997 47.390000000000015 55.999999999999964 C 46.94000000000001 56.01999999999997 45.680000000000014 57.179999999999964 45.750000000000014 57.76999999999997 C 46.38000000000002 57.779999999999966 45.110000000000014 58.37999999999997 45.38000000000002 58.889999999999965 C 45.91000000000002 58.19999999999997 46.280000000000015 58.569999999999965 46.59000000000002 58.669999999999966 C 46.76000000000002 58.51999999999997 46.79000000000002 58.249999999999964 46.86000000000002 58.12999999999997 C 46.72000000000002 57.859999999999964 46.51000000000002 58.069999999999965 46.28000000000002 57.889999999999965 C 47.00000000000002 57.23999999999997 47.590000000000025 56.539999999999964 47.90000000000002 55.97999999999997 C 48.28000000000002 55.90999999999997 48.34000000000002 56.21999999999997 48.03000000000002 56.44999999999997 C 48.97000000000002 55.669999999999966 50.17000000000002 55.22999999999997 51.22000000000002 55.01999999999997 C 50.41000000000002 54.73999999999997 52.36000000000002 54.61999999999997 51.810000000000024 54.35999999999997 C 51.22000000000002 54.36999999999997 50.61000000000002 54.20999999999997 50.880000000000024 53.89999999999997 C 51.260000000000026 53.82999999999997 50.92000000000002 54.09999999999997 51.11000000000002 54.15999999999997 C 51.52000000000002 53.79999999999997 51.93000000000002 54.39999999999997 52.30000000000002 53.89999999999997 C 51.280000000000015 54.28999999999997 52.22000000000002 54.51999999999997 52.100000000000016 54.92999999999997 C 52.780000000000015 54.56999999999997 52.12000000000002 55.17999999999997 52.820000000000014 55.059999999999974 C 53.16000000000002 54.909999999999975 53.54000000000001 54.74999999999997 53.94000000000001 54.629999999999974 C 54.34000000000001 54.519999999999975 54.76000000000001 54.42999999999997 55.16000000000001 54.369999999999976 C 56.17000000000001 54.699999999999974 57.70000000000001 54.38999999999998 58.60000000000001 54.50999999999998 C 59.040000000000006 54.74999999999998 58.68000000000001 55.13999999999998 59.16000000000001 55.269999999999975 C 59.74000000000001 55.339999999999975 58.79000000000001 54.74999999999997 59.62000000000001 55.06999999999997 L 59.52000000000001 55.13999999999997 C 59.80000000000001 55.07999999999997 61.02000000000001 55.68999999999997 61.40000000000001 55.17999999999997 L 61.04000000000001 55.56999999999997 C 61.19000000000001 55.64999999999997 61.360000000000014 55.57999999999997 61.500000000000014 55.559999999999974 C 61.47000000000001 55.70999999999997 61.62000000000001 55.879999999999974 61.350000000000016 55.91999999999997 C 61.79000000000001 56.32999999999997 62.430000000000014 56.13999999999997 62.990000000000016 56.299999999999976 L 62.710000000000015 55.939999999999976 C 63.22000000000001 55.96999999999998 63.610000000000014 56.10999999999998 63.990000000000016 56.28999999999998 C 64.37000000000002 56.45999999999998 64.74000000000001 56.62999999999998 65.19000000000001 56.78999999999998 L 65.06000000000002 57.019999999999975 L 65.65000000000002 57.10999999999998 C 65.42000000000002 57.28999999999998 65.81000000000002 57.63999999999998 66.17000000000002 57.59999999999998 C 65.65000000000002 57.54999999999998 65.10000000000002 57.57999999999998 64.59000000000002 57.57999999999998 C 64.29000000000002 57.269999999999975 65.11000000000001 57.45999999999998 64.99000000000002 57.119999999999976 C 64.89000000000003 56.799999999999976 64.02000000000002 56.56999999999998 63.810000000000024 56.75999999999998 C 64.11000000000003 56.89999999999998 64.15000000000002 56.84999999999998 64.43000000000002 56.84999999999998 C 64.40000000000002 57.22999999999998 63.93000000000002 57.04999999999998 63.61000000000002 57.19999999999998 C 63.78000000000002 57.23999999999998 63.96000000000002 57.42999999999998 64.04000000000002 57.33999999999998 C 63.66000000000002 57.399999999999984 63.34000000000002 57.289999999999985 62.810000000000024 57.13999999999998 C 63.22000000000002 57.10999999999998 62.68000000000002 56.85999999999998 62.85000000000002 56.799999999999976 C 62.71000000000002 57.09999999999997 62.18000000000002 57.02999999999997 61.54000000000002 56.77999999999997 C 61.15000000000002 56.299999999999976 60.23000000000002 56.71999999999997 59.47000000000002 56.49999999999997 C 59.84000000000002 56.22999999999997 60.30000000000002 56.02999999999997 60.810000000000024 55.99999999999997 C 60.340000000000025 55.72999999999997 60.25000000000002 55.90999999999997 59.770000000000024 55.64999999999997 C 59.480000000000025 55.84999999999997 59.25000000000002 56.17999999999997 58.590000000000025 56.25999999999997 L 58.58000000000003 56.00999999999997 C 57.97000000000003 56.06999999999997 57.940000000000026 56.40999999999997 57.21000000000003 56.30999999999997 C 55.940000000000026 56.099999999999966 54.62000000000003 56.169999999999966 53.65000000000003 56.25999999999997 L 53.55 56 C 53.089999999999996 56.58 51.8 56.47 51.209999999999994 56.95 C 50.91 56.980000000000004 50.60999999999999 57.07 50.339999999999996 57.21 C 50.06999999999999 57.34 49.8 57.47 49.589999999999996 57.65 C 49.13999999999999 57.94 48.769999999999996 58.28 48.4 58.309999999999995 C 46.93 59.87 46.1 61.519999999999996 45.29 63.559999999999995 L 45.08 63.089999999999996 C 45.19 63.559999999999995 44.8 63.269999999999996 44.71 63.669999999999995 C 45.12 63.31999999999999 44.89 64.30999999999999 45.04 64.63 C 44.51 65.52 44.62 66.86 44.81 67.72999999999999 L 44.57 67.74999999999999 C 44.96 68.64999999999999 44.57 69.67999999999999 44.6 70.79999999999998 C 44.52 70.93999999999998 44.300000000000004 71.15999999999998 44.370000000000005 71.48999999999998 C 44.870000000000005 72.03999999999998 44.85 72.35999999999999 45.290000000000006 73.16999999999999 C 45.410000000000004 73.79999999999998 45.59 74.83999999999999 45.650000000000006 75.51999999999998 C 46.900000000000006 77.67999999999998 47.63 80.08999999999997 49.18000000000001 82.20999999999998 L 49.02000000000001 82.50999999999998 C 50.76000000000001 84.39999999999998 52.00000000000001 87.29999999999998 53.49000000000001 88.95999999999998 L 52.970000000000006 89.04999999999998 C 53.230000000000004 89.70999999999998 53.95 90.28999999999998 54.14000000000001 89.93999999999998 C 54.39000000000001 90.57999999999998 55.28000000000001 91.15999999999998 55.21000000000001 91.72999999999999 C 55.55000000000001 92.32 55.89000000000001 92.24999999999999 56.290000000000006 92.63 C 57.00000000000001 93.77 57.370000000000005 94.11 58.32000000000001 94.86999999999999 L 58.120000000000005 94.63999999999999 C 57.95 94.62999999999998 57.790000000000006 94.76999999999998 58.00000000000001 94.99999999999999 C 58.42000000000001 95.22999999999999 59.190000000000005 96.17999999999999 59.20000000000001 95.44999999999999 C 59.58000000000001 95.99 60.23000000000001 96.32999999999998 60.84000000000001 96.61999999999999 C 61.47000000000001 96.86999999999999 62.05000000000001 97.07999999999998 62.51000000000001 97.38999999999999 C 62.460000000000015 97.21999999999998 62.72000000000001 97.23999999999998 62.84000000000001 97.15999999999998 C 63.69000000000001 97.32999999999998 64.67000000000002 97.48999999999998 65.32000000000001 96.98999999999998 C 65.50000000000001 97.00999999999998 65.16000000000001 97.32999999999998 65.57000000000001 97.20999999999998 C 65.79 97.05999999999997 65.50000000000001 97.00999999999998 65.77000000000001 96.80999999999997 C 66.56000000000002 96.34999999999998 67.63000000000001 95.84999999999998 69.11000000000001 95.71999999999997 C 69.85000000000001 95.65999999999997 70.68 95.75999999999998 71.42000000000002 96.01999999999997 C 72.15000000000002 96.28999999999996 72.68000000000002 96.63999999999997 73.12000000000002 96.88999999999997 C 73.94000000000001 97.31999999999998 74.38000000000002 97.53999999999998 75.01000000000002 97.72999999999998 C 75.61000000000001 97.90999999999998 76.24000000000002 98.01999999999998 76.89000000000001 98.05999999999997 C 78.19000000000001 98.11999999999998 79.56000000000002 97.87999999999997 80.77000000000001 97.34999999999998 L 80.79 97.46999999999998 C 81.12 97.08999999999999 81.62 96.98999999999998 82.10000000000001 96.80999999999999 C 82.58000000000001 96.63999999999999 83.03000000000002 96.40999999999998 83.10000000000001 95.92999999999999 C 83.33000000000001 95.91 83.76 95.47 83.78000000000002 95.74 C 84.13000000000001 95.05999999999999 85.52000000000001 94.52 85.89000000000001 93.38 C 85.82000000000002 93.44999999999999 85.80000000000001 93.50999999999999 85.77000000000001 93.63 C 86.67000000000002 92.92 86.95000000000002 91.89 87.76 90.97 C 87.74000000000001 91.1 87.65 91.31 87.74000000000001 91.4 C 88.18 91.11 87.88000000000001 90.19000000000001 88.49000000000001 90.23 C 88.62 89.99000000000001 88.33000000000001 89.92 88.27000000000001 90.08 C 89.75000000000001 87.82 90.59 84.88 91.55000000000001 82.16 C 92.63000000000001 80.35 92.49000000000001 82.39 92.69000000000001 80.71 C 92.84000000000002 80.61999999999999 92.52000000000001 80.53999999999999 92.64000000000001 80.55999999999999 C 92.72000000000001 79.90999999999998 93.58000000000001 79.85 93.46000000000001 79.33999999999999 C 93.07000000000001 79.38999999999999 93.38000000000001 78.99999999999999 93.19000000000001 78.90999999999998 C 93.84000000000002 77.78999999999998 94.22000000000001 77.64999999999998 94.30000000000001 76.60999999999999 L 94.45000000000002 76.73999999999998 C 94.35000000000002 75.45999999999998 95.03000000000002 74.24999999999999 94.75000000000001 73.11999999999998 C 95.65000000000002 69.99999999999997 96.44000000000001 66.94999999999997 96.55000000000001 64.09999999999998 C 96.61000000000001 62.67999999999998 96.48000000000002 61.32999999999998 96.14000000000001 60.08999999999998 C 95.78000000000002 58.859999999999985 95.24000000000001 57.759999999999984 94.44000000000001 56.759999999999984 C 93.70000000000002 55.749999999999986 92.72000000000001 54.83999999999998 91.63000000000001 54.18999999999998 C 90.59 53.48999999999998 89.35000000000001 53.109999999999985 88.10000000000001 52.829999999999984 C 85.57000000000001 52.33999999999998 82.80000000000001 52.649999999999984 80.24000000000001 53.61999999999998 C 79.55000000000001 53.65999999999998 79.17000000000002 53.70999999999999 78.85000000000001 53.889999999999986 C 78.52000000000001 54.05999999999999 78.18 54.259999999999984 77.68 54.77999999999999 C 77.68 54.679999999999986 77.74000000000001 54.609999999999985 77.62 54.609999999999985 C 77.80000000000001 54.969999999999985 76.82000000000001 55.22999999999998 76.99000000000001 55.62999999999999 C 75.71000000000001 56.66999999999999 74.80000000000001 57.93999999999999 74.17000000000002 59.41999999999999 L 71.19000000000001 66.39999999999999 L 69.7 59.1 C 69.60000000000001 58.61 69.45 58.08 69.41 57.53 C 69.5 58.03 69.88 58.22 69.75999999999999 57.65 L 69.46999999999998 57.059999999999995 L 69.56999999999998 56.949999999999996 C 69.46999999999998 56.55 69.29999999999998 56.10999999999999 69.16999999999997 56.529999999999994 C 69.07999999999997 54.489999999999995 69.61999999999998 52.66 70.24999999999997 51.089999999999996 C 70.88999999999997 49.519999999999996 71.63999999999997 48.15 72.30999999999997 46.849999999999994 C 72.97999999999998 45.55 73.56999999999998 44.309999999999995 73.88999999999997 43.10999999999999 C 73.94999999999997 42.82999999999999 74.04999999999997 42.47999999999999 74.08999999999997 42.239999999999995 C 74.13999999999997 42.01 74.08999999999997 41.849999999999994 74.14999999999998 41.849999999999994 C 74.44999999999997 41.779999999999994 74.63999999999997 41.699999999999996 74.71999999999997 41.64999999999999 L 74.75999999999998 41.61999999999999 L 74.76999999999998 41.61999999999999 L 74.76999999999998 41.61999999999999 L 74.76999999999998 41.61999999999999 C 74.36999999999998 41.92999999999999 74.65999999999998 41.709999999999994 74.56999999999998 41.77999999999999 L 74.57999999999998 41.77999999999999 L 74.62999999999998 41.73999999999999 C 74.68999999999998 41.69999999999999 74.78999999999998 41.57999999999999 74.79999999999998 41.569999999999986 C 74.93999999999998 41.37999999999999 74.74999999999999 41.569999999999986 74.79999999999998 42.09999999999999 C 74.79999999999998 42.16999999999999 74.80999999999999 42.22999999999999 74.81999999999998 42.29999999999999 C 74.82999999999998 42.34999999999999 74.82999999999998 42.29999999999999 74.81999999999998 42.30999999999999 C 74.79999999999998 42.30999999999999 74.78999999999998 42.29999999999999 74.76999999999998 42.29999999999999 C 74.71999999999998 42.30999999999999 74.64999999999998 42.32999999999999 74.55999999999999 42.36999999999999 C 74.37999999999998 42.459999999999994 74.16999999999999 42.61999999999999 73.99 42.80999999999999 C 73.89999999999999 42.89999999999999 73.80999999999999 43.00999999999999 73.75 43.109999999999985 C 73.67 43.22999999999998 73.66 43.259999999999984 73.55 43.45999999999999 C 73.36999999999999 43.789999999999985 73.2 44.109999999999985 73.07 44.41999999999999 C 70.75 47.649999999999984 69.80999999999999 51.929999999999986 71.33 55.89999999999999 C 71.33 55.89999999999999 71.05 55.83999999999999 70.67999999999999 55.55999999999999 C 70.3 55.27 69.84 54.74 69.6 53.82 z" stroke-linecap="round" />
</g>
		<g transform="matrix(1 0 0 1 -4.05 -12.59)"  >
<path style="stroke: none; stroke-width: 1; stroke-dasharray: none; stroke-linecap: butt; stroke-dashoffset: 0; stroke-linejoin: miter; stroke-miterlimit: 4; fill: rgb(230,137,21); fill-rule: nonzero; opacity: 1;" vector-effect="non-scaling-stroke"  transform=" translate(-66.22, -58.29)" d="M 66.29 58.6 C 66.25 58.36 65.84 58.01 66.33000000000001 57.980000000000004 C 66.29 58.17 66.42 58.48 66.29 58.6 z" stroke-linecap="round" />
</g>
		<g transform="matrix(1 0 0 1 -17.77 -16.7)"  >
<path style="stroke: none; stroke-width: 1; stroke-dasharray: none; stroke-linecap: butt; stroke-dashoffset: 0; stroke-linejoin: miter; stroke-miterlimit: 4; fill: rgb(230,137,21); fill-rule: nonzero; opacity: 1;" vector-effect="non-scaling-stroke"  transform=" translate(-52.5, -54.18)" d="M 52.54 54.29 C 52.53 54.35 52.31 54.24 52.25 54.23 C 52.44 54.169999999999995 52.59 53.989999999999995 52.76 54.07 C 52.57 54.1 52.62 54.19 52.54 54.29 z" stroke-linecap="round" />
</g>
		<g transform="matrix(1 0 0 1 -21.04 -15.88)"  >
<path style="stroke: none; stroke-width: 1; stroke-dasharray: none; stroke-linecap: butt; stroke-dashoffset: 0; stroke-linejoin: miter; stroke-miterlimit: 4; fill: rgb(230,137,21); fill-rule: nonzero; opacity: 1;" vector-effect="non-scaling-stroke"  transform=" translate(-49.24, -55)" d="M 48.61 55.47 C 48.57 55.269999999999996 49.36 54.75 49.87 54.53 C 49.43 54.82 49.01 55.14 48.61 55.47 z" stroke-linecap="round" />
</g>
		<g transform="matrix(1 0 0 1 -25.32 -13.48)"  >
<path style="stroke: none; stroke-width: 1; stroke-dasharray: none; stroke-linecap: butt; stroke-dashoffset: 0; stroke-linejoin: miter; stroke-miterlimit: 4; fill: rgb(230,137,21); fill-rule: nonzero; opacity: 1;" vector-effect="non-scaling-stroke"  transform=" translate(-44.95, -57.4)" d="M 45.07 57.52 C 44.73 57.690000000000005 44.73 57.57 45.05 57.21 C 45.14 57.24 45.07 57.39 45.07 57.52 z" stroke-linecap="round" />
</g>
		<g transform="matrix(1 0 0 1 -25.37 -12.72)"  >
<path style="stroke: none; stroke-width: 1; stroke-dasharray: none; stroke-linecap: butt; stroke-dashoffset: 0; stroke-linejoin: miter; stroke-miterlimit: 4; fill: rgb(230,137,21); fill-rule: nonzero; opacity: 1;" vector-effect="non-scaling-stroke"  transform=" translate(-44.91, -58.16)" d="M 45.19 57.99 C 44.98 58.24 44.82 58.32 44.629999999999995 58.38 C 44.76 58.46 45.03 57.71 45.19 57.99 z" stroke-linecap="round" />
</g>
		<g transform="matrix(1 0 0 1 -28.96 -5.04)"  >
<path style="stroke: none; stroke-width: 1; stroke-dasharray: none; stroke-linecap: butt; stroke-dashoffset: 0; stroke-linejoin: miter; stroke-miterlimit: 4; fill: rgb(230,137,21); fill-rule: nonzero; opacity: 1;" vector-effect="non-scaling-stroke"  transform=" translate(-41.32, -65.84)" d="M 41.4 65.45 C 41.379999999999995 65.65 41.449999999999996 66.10000000000001 41.24 66.26 C 41.4 66.07 41.18 65.25 41.4 65.45 z" stroke-linecap="round" />
</g>
		<g transform="matrix(1 0 0 1 -29.01 -1.39)"  >
<path style="stroke: none; stroke-width: 1; stroke-dasharray: none; stroke-linecap: butt; stroke-dashoffset: 0; stroke-linejoin: miter; stroke-miterlimit: 4; fill: rgb(230,137,21); fill-rule: nonzero; opacity: 1;" vector-effect="non-scaling-stroke"  transform=" translate(-41.27, -69.49)" d="M 41.37 69.29 C 41.36 69.41000000000001 41.32 69.46000000000001 41.379999999999995 69.60000000000001 C 41.309999999999995 69.83000000000001 41.169999999999995 69.59 41.15 69.4 L 41.37 69.29 z" stroke-linecap="round" />
</g>
		<g transform="matrix(1 0 0 1 16.62 26.32)"  >
<path style="stroke: none; stroke-width: 1; stroke-dasharray: none; stroke-linecap: butt; stroke-dashoffset: 0; stroke-linejoin: miter; stroke-miterlimit: 4; fill: rgb(230,137,21); fill-rule: nonzero; opacity: 1;" vector-effect="non-scaling-stroke"  transform=" translate(-86.9, -97.19)" d="M 87.05 97.02 C 86.98 97.14 86.91 97.25 86.83 97.36999999999999 L 86.75 97.21 C 86.85 97.14 86.95 97.08 87.05 97.02 z" stroke-linecap="round" />
</g>
		<g transform="matrix(1 0 0 1 28.52 0.67)"  >
<path style="stroke: none; stroke-width: 1; stroke-dasharray: none; stroke-linecap: butt; stroke-dashoffset: 0; stroke-linejoin: miter; stroke-miterlimit: 4; fill: rgb(230,137,21); fill-rule: nonzero; opacity: 1;" vector-effect="non-scaling-stroke"  transform=" translate(-98.79, -71.55)" d="M 98.66 71.68 C 98.66 71.29 98.89 71.47000000000001 98.92999999999999 71.42 C 98.86 71.75 98.76 71.24 98.66 71.68 z" stroke-linecap="round" />
</g>
		<g transform="matrix(1 0 0 1 27.52 -14.07)"  >
<polygon style="stroke: none; stroke-width: 1; stroke-dasharray: none; stroke-linecap: butt; stroke-dashoffset: 0; stroke-linejoin: miter; stroke-miterlimit: 4; fill: rgb(230,137,21); fill-rule: nonzero; opacity: 1;" vector-effect="non-scaling-stroke"  points="0.11,-0.12 0.17,-0.02 -0.17,0.12 " />
</g>
</g>
</g>
</svg>