<?xml version="1.0" encoding="utf-8"?>
<!-- Generator: Adobe Illustrator 23.0.0, SVG Export Plug-In . SVG Version: 6.00 Build 0)  -->
<svg version="1.1" id="图层_1" xmlns="http://www.w3.org/2000/svg" xmlns:xlink="http://www.w3.org/1999/xlink" x="0px" y="0px"
	 viewBox="0 0 141.73 141.73" style="enable-background:new 0 0 141.73 141.73;" xml:space="preserve">
<style type="text/css">
	.st0{fill:#E68915;}
</style>
<g>
	<g>
		<path class="st0" d="M34.21,37.03c-0.26,0.16,0.14,0.61-0.17,0.27C34.07,37.02,34.12,36.81,34.21,37.03z"/>
		<path class="st0" d="M105.08,37.6c-0.85,1.83-1.97-0.02-2.9,1.14c-0.11,0.08,0.03-1-0.22-0.76c-0.91,1.42-2.33,0.57-3.42-0.53
			l0.07-0.28c-0.21-0.2-0.47,0.73-0.69,0.6c0-0.19,0.07-0.27,0.02-0.53c-0.06,0.57-0.4,0.26-0.5,0.69
			c-0.09-0.22-0.08-0.67-0.19-0.92l-0.13,0.65c-0.36,1.53-0.86-0.11-1.34,0.68c0.02-0.15,0.07-0.27,0.03-0.41
			c-0.78,0.93-1.74,0.75-2.61,1.1c0.03-0.23,0.07-0.64,0.02-0.9c-0.04,0.68-0.31,0.85-0.54,0.98c-0.1-0.7-0.4,0.64-0.67,0.25
			l0.02-0.15c-0.2,0.73-0.3-0.42-0.46,0.45l-0.13-0.55c-0.09,0.98-0.29-0.51-0.46-0.01l0.01,0.2c-0.16,0.24-0.24-0.26-0.38-0.09
			l-0.01-0.11c-0.34,0.25-0.54-0.29-0.53,0.48c-0.12-0.62,0.33-0.28,0.14-1.18c-1.12,0.79-2.27,0.63-3.4,0.65
			c-0.13-0.31-0.21-0.4-0.24-0.7c-0.11,0.16-0.42,0.14-0.53,0.54c0.04-0.02-0.07-0.39-0.13-0.43c-0.2-0.29-0.23,0.84-0.45,0.5
			c0.09-0.2,0.12-0.45,0.09-0.74c-0.19,0.6-0.45,0.5-0.68,0.7c0.04-0.13,0.09-0.21,0.08-0.45c-0.25,0.68-0.45-0.14-0.67,0.28
			l0.08-0.44c-0.35-0.54-0.11,0.93-0.41,0.61c0.07-0.14,0.05-0.31,0.06-0.49c-0.28,0.81-0.74,0.54-1.02,0.81
			c0.02-0.06,0.01-0.18,0.01-0.18c-0.31,0.1-0.63-0.15-0.97,0.2c-0.12-0.2,0.04-1.08-0.28-0.92c0.01,0.89-0.55,0.36-0.36,1.37
			c-0.28-0.15-0.72-0.48-0.9-0.18c0.13-0.34-0.13-1.09,0.1-1.16l-0.17-0.54c0.03-0.36,0.18,0.12,0.12-0.33
			c-0.12,0.04-0.45,0.39-0.56,0.24c-0.22,0.55-0.41,1.56-0.76,1.68c0.16-0.35-0.09-0.98,0.02-1.13l-0.49,1.7
			c-0.12,0.04-0.02-0.7-0.19-0.47c0.01,0.23-0.07,0.38-0.12,0.57c-0.04-0.11-0.48,0.22-0.53-0.66c-0.05-0.34,0.19-0.18,0.06-0.49
			c-0.21,0.01-0.22,0.31-0.44,0.32l0-0.12c-0.14-0.13-0.41,0.37-0.26,0.86c0.1,0.03-0.04-0.53,0.11-0.27
			c-0.1,0.51-0.35,0.65-0.56,0.66c0.07-0.14,0.06-0.37,0.09-0.62c-0.29,0.69-0.59,0.91-0.91,1.19c-0.01,0.42,0.12-0.76,0.17-0.54
			c-0.41-0.58-0.85,0.82-1.19-0.03c0.06-0.07,0.03,0.59,0.03,0.48c-0.2-0.05-0.19-0.66-0.32-0.43c-0.01-0.35-0.16,0.11-0.29,0.22
			c-0.07,0.26-0.03-0.17,0.08-0.21c-0.19,0.3-0.92,0.84-1.35,0.32c0.01,0.23-0.26,0.86-0.36,0.83l0.04-0.55
			c-0.09-0.33-0.33,0.05-0.34-0.42c-0.21,0.67,0.81-0.57,0.52-0.05c-0.07-0.46-0.4,0.87-0.33,0.13c-0.2,0.02-0.39,0.64-0.58,0.12
			c0.05,0.09,0.16-0.76,0-0.72c-0.28,0.1-0.08,0.26-0.31,0.44l-0.14,0.22c-0.01,0.53-0.25-0.07-0.15,0.52
			c-0.03-0.44-0.41,0.27-0.38-0.61l0.04-0.7c-0.12,0.05-0.2,0.74-0.3,1.04c-0.02-0.06-0.05-0.2-0.04-0.32
			c-0.02,1.07-0.29-0.09-0.43,0.73c-0.25-0.37-0.64-0.04-0.76-0.7c-0.2,0.32-0.37,0.7-0.6,0.48c0.04-0.1,0.1-0.13,0.12-0.36
			c-0.14-0.31-0.17-0.03-0.3,0.14c0.03-0.16-0.28-0.63-0.43-1c-0.19,0.32-0.13,0.9-0.15,1.25c-0.17-1.06-0.55,0.68-0.77-0.28
			c0.07-0.15,0.28-0.52,0.12-0.78c-0.17-1.05-0.36,0.77-0.64,0.27l0.07,0.87c-0.13-0.54-0.42,0.51-0.39-0.38
			c-0.1,0.31-0.34-0.29-0.31,0.56c-0.47-0.72-1.14,0.43-1.43-1.1c-0.07,0.14-0.23,0-0.2,0.44c0.11,0.48,0.16-0.34,0.2-0.02
			c-0.06,0.03-0.07,0.26-0.08,0.38c-0.15-0.19-0.26-0.26-0.12-0.97c-0.32-0.53-0.34,1.45-0.75,1.11c0.02-0.35-0.01-0.49-0.13-0.43
			l-0.23,0.6c-0.27-0.14-0.15-0.8-0.16-1.4c-0.14,0.1-0.32,0.07-0.38,0.52l-0.17-0.75c0.13,0.54-0.12,0.36-0.19,0.51l0.07-0.15
			c-0.03-0.26-0.19-0.1-0.27-0.02c0.02,0.37,0.19,0.52,0.28,0.63c-0.07,0.26-0.19,0.2-0.28,0.51c0.03-0.59-0.23-0.42-0.34-0.48
			c-0.13-0.13-0.15,0.52-0.19,0.51c0-0.3-0.21-0.05-0.11-0.48c0.04-0.1,0.1,0.3,0.17,0.03c-0.09-0.23-0.07-0.75-0.25-0.37
			c-0.13,0.29,0.03,1.16-0.22,0.79c0.07-0.15,0.08-0.38,0.13-0.59l-0.24-0.31l-0.01,0.53c-0.03-0.14-0.01-0.18-0.02-0.25
			c-0.07,0.56-0.36,0.17-0.42,0.81c-0.12,0.06-0.25-0.37-0.37-0.43l0.02-0.05c-0.14-0.31-0.33-0.11-0.44,0.25l0.01-0.12
			c-0.08-0.04-0.26,0.04-0.35,0.36c-0.19-0.4-0.06-2.02-0.28-1.35c-0.2,0.02-0.31,0.98-0.23,1.32c-0.35-0.36-0.75,0.51-1.08-0.32
			c-0.05,0.22-0.02,0.35-0.12,0.48c-0.52-0.21-1.09,0.63-1.5-0.42c0.15-0.22,0.01-0.54,0.01-0.84c-0.13,0.48-0.15-0.5-0.19,0.32
			c0.01,0.48,0,0.72,0.14,0.91c-0.31,0.26-0.78,0.26-0.95-0.19c0.09,0.22,0.02,0.37-0.05,0.52c0.02-0.77-0.2-0.89-0.38-0.61
			l-0.03,0.47l-0.11-0.48c-0.07,0.15-0.08,0.98-0.25,0.53c-0.01-0.18-0.02-0.37-0.05-0.5c-0.18,0.38-0.43,1.03-0.62,0.64l-0.16-0.68
			c-0.08,0.07-0.22,0.49-0.08,0.68c-0.33-0.41-0.54-0.47-0.65-1.06c-0.57,1.44-1.4,1.5-2.06,1.39l0.02-0.35
			c-0.18-0.33-0.09,0.61-0.22,0.37c0.06-0.33-0.13-0.73,0.01-1.14c-0.25-0.37-0.33,0.61-0.49,0.77c-0.03,0.46,0.13-0.29,0.1,0.29
			c-0.03,0.16-0.35-0.36-0.39,0.34c-0.06-0.27-0.01-0.79,0.02-1.07l-0.16,0.34c-0.19-0.82,0.44-1.46,0.24-2.46l-0.14,0.11
			c-0.14-0.73,0.38-0.82,0.02-1.07c-0.16,0.34-0.29,1.36-0.15,1.67c-0.33,0.19-0.15,1.66-0.5,1.6c-0.09-0.41,0.28-0.1,0.21-0.67
			c-0.16-0.56-0.33,0.31-0.48,0.12c0.16,0.26,0.02,0.97-0.08,1.1c-0.18-0.33,0.12-0.66-0.13-0.73c-0.04,0.4-0.27,0.71-0.07,0.99
			c-0.09,0.91-0.26-0.25-0.4,0.45c-0.08-0.64,0.26-1.49-0.01-1.81c0.04,0.62-0.34,0.84-0.2,1.76c-0.11-0.18-0.12-0.66-0.04-1.04
			c-0.15-0.38-0.38,1.13-0.43-0.1l-0.05,0.63c-0.05-0.21-0.12-0.36-0.2-0.7c-0.14-0.01-0.44,0.86-0.43-0.1
			c-0.04,0.1-0.36,0.06-0.24,0.71c0.19,0.4,0.22-0.48,0.33,0.41c-0.14-0.73-0.28,0.1-0.39,0.34l-0.02-0.37
			c-0.07,0.15-0.22,0.06-0.26,0.46c0.05-0.21,0.03-0.46-0.03-0.55l-0.07,0.56c-0.27,0.28-0.06-0.99-0.32-0.83l0.2-0.44
			c-0.04,0.09-0.13-0.43-0.26-0.26c-0.05,0.51-0.14,1.13-0.19,1.53c-0.15,0.22-0.07-0.58-0.21-0.05l0.19-0.62
			c0.03-0.17-0.13-0.85-0.32-0.84c-0.13,0.18-0.33,0.92-0.13,1.2c-0.1,0.01-0.24-0.31-0.16-0.68c-0.23,0.18,0.03,0.55-0.17,0.87
			c-0.08-0.34-0.33-0.83-0.47-1.33l0.2-0.86l-0.13-0.01c0.18-0.69-0.09-0.52,0.01-1.25c-0.09-0.11-0.2,0.13-0.29,0.32
			c0.27,1.16-0.31,1.59-0.23,2.65c-0.37,0.29-0.22-2.58-0.61-0.92c0.06,0.28-0.12,1.08,0.11,0.78c-0.23-0.12-0.16,1.06-0.43,0.62
			c0.2-0.44-0.21-1.07,0.08-1.71c-0.02,0.35,0.16,0.27,0.21,0.17c-0.09-0.41,0.02-1.07-0.21-1.07c-0.14,0.1-0.34,0.12-0.31,0.67
			c0,0.61,0.22-0.07,0.13,0.55c-0.29,0.21-0.33-0.71-0.45,0.36c0.18-0.09,0.22,0.54,0.22,0.96l-0.21,0.25l0.04-0.4
			c-0.34-0.29-0.1,0.73-0.43,0.62l-0.15-0.8c0.08-0.69,0.47,0.31,0.42-0.81c-0.21-0.04-0.28,0.52-0.48,0.23
			c0.04-0.1,0.11-0.12,0.15-0.22c-0.08-0.04-0.15-1.52-0.45-0.65c-0.16,0.34-0.04,0.4-0.05,0.82c-0.34,0.13-0.44,0.55-0.66,0.62
			c0.05-0.82-0.39-0.08-0.14-0.91c0.11,0.48,0.6,0.43,0.72-0.34c-0.12-0.97,0.27,0.14,0.34-0.84c-0.27-0.02-0.26-0.98-0.3-1.6
			c-0.08-0.04-0.15,0.22-0.2,0.32c-0.03,0.59,0.07,0.58,0.07,1.18c-0.3-0.16-0.6,0.17-0.77,0.74c-0.1-0.29-0.07-0.88,0.05-0.93
			c-0.36,0.17-0.75,0.09-1.09-0.08c0.22,0.96-0.38,0.22-0.23,1.02c0.18,0.22,0.34,0.9,0.24,1.33c-0.11-0.06,0-0.42-0.04-0.62
			c-0.15,0.52-0.23-0.84-0.37-0.01c0.33-0.31,0.07-1.17,0.13-1.92c-0.24,0.42,0.01-0.53-0.22-0.53c-0.24,0.42-0.53,0.74-0.8,0.91
			c-0.33-0.71-0.84-0.01-1.14,0.01c-0.15-0.38-0.05-1.23-0.22-1.38c-0.2,0.02,0.14,0.91-0.15,0.53l0.03-0.17
			c-0.09,0.19-0.54-0.58-0.62,0.64l0.09-0.92c-0.05-0.08-0.11,0.13-0.15,0.22c0-0.3-0.06-0.57,0.02-0.77
			c-0.18-0.63-0.38,0.1-0.58,0.13l0.12,0.54c-0.34,0.43-0.56-0.11-0.89,0.08l0.01-0.53l-0.19,0.32c0.05-0.52-0.13-0.85-0.23-0.42
			l0.51-1.3c0.14,0.31-0.15,0.64-0.07,1.17c0.07,0.46,0.37,0.31,0.42-0.2c-0.11-0.06-0.12,0.06-0.21,0.25
			c-0.04-0.74,0.14-0.71,0.23-1.21c-0.06,0.03-0.15-0.2-0.16,0.04c0.12-0.36,0.24-0.42,0.44-0.44c-0.13,0.29,0.07,0.46,0.02,0.67
			c0.02-0.65,0.21-0.85,0.45-0.67c0.17,0.76,0.46-0.48,0.74-0.27c-0.12,0.66-0.26,1.19-0.44,1.46c0.18,0.33,0.2-0.02,0.37,0.32
			c0.09-0.49,0.15-1.25,0.38-1.55l0.01,0.49c0.21-0.25,0.21-0.97,0.48-0.83c0.46,0.24,0.93,0.24,1.28,0.3l0.01,0.49
			c0.2-1.04,0.65-0.38,0.91-0.84c0.44,0.47,0.97-0.46,1.19,0.38c0.79-0.37,1.47-0.74,2.29-0.56l-0.14,0.71
			c0.15-0.52,0.09,0.41,0.24,0.3c-0.16-0.57,0.2-0.73,0.3-1.17c0.36,0.55,0.83-0.05,1.15-0.54l0.01,0.49
			c0.33-0.91,0.71-0.11,1.12,0.04c0.05,0.2,0.12,0.66,0.24,0.6c0.22-0.79,0.34-0.73,0.66-1.22c0.23,0,0.62,0.2,0.85,0.5
			c0.89-1.1,1.79-0.39,2.71-1.06l0.06,0.57c0.89-1.22,1.99-0.11,2.75-0.73l-0.08,0.98c0.24,0.3,0.54-0.25,0.48-0.95
			c0.24,0.3,0.6-0.47,0.75,0.33c0.24,0.18,0.3-0.45,0.5-0.58c0.49,0.37,0.67,0.29,1.13,0.11l-0.11-0.06
			c-0.05,0.22-0.06,0.63,0.06,0.69c0.17-0.27,0.63,0.26,0.46-0.9c0.49,0.67,1.15-0.55,1.63,0.36c-0.04-0.32,0.08-0.38,0.13-0.59
			c0.43-0.01,0.88,0.64,1.23,0.1c0.07,0.16-0.11,0.54,0.07,0.58c0.1-0.12,0-0.42,0.13-0.6c0.7-0.59,1.41,0.62,2.05,0.46
			c1.13-0.61,2.31-0.3,3.39-0.4l-0.01,0.23c0.36-0.89,0.85,0.92,1.14-0.43c0.09,0.22,0.33,0.11,0.26,0.56
			c0.29-0.63,0.81,0.6,1.23-0.21c-0.04-0.02-0.06,0.03-0.11,0.13c0.42,0.52,0.79-0.19,1.24,0.28c-0.05,0.1-0.13,0.17-0.14,0.41
			c0.17,0.45,0.41-0.99,0.5,0.14c0.1-0.01,0.07-0.57,0.01-0.53c0.97,0.44,2.02-0.28,3.03-0.53c0.72,0.68,0.04,1.9,0.61,1.06
			c0.05,0.22,0.04-0.43,0.04-0.2c0.22-0.32,0.34,1.26,0.5,0.67c-0.06-0.69,0.1-0.39,0.11-0.81c0.44,0.45,0.53,1.08,0.88,0.55
			l-0.03,0.37c0.41-1.03,0.89-0.48,1.24-1.67c2.27-0.21,4.44-0.87,6.65-1c2.18,0.23,4.32-0.3,6.54,0.34
			c0.52,0.96,0.56,0.93,1.13,0.55c-0.02,0.15-0.06,0.19-0.02,0.34c0.03-0.79,0.4-0.07,0.46-0.82c0.82,0.15,1.58-0.07,2.42-0.07
			c-0.13,0.08-0.2,0.73-0.04,0.67l0.17-0.5l0.03,0.22c0.11-0.12,0.23-0.51,0.12-0.76c2.12-0.67,4.2,0.91,6.28,0.72
			c0.49,0.33,1.19,0.03,1.73-0.13c1.59,1.05,3.01,1.9,4.63,1.17C105.96,35.1,105.74,37.13,105.08,37.6z"/>
		<path class="st0" d="M34.53,36.95c0.06,0.39,0.24,0.61,0.09,1.13C34.6,37.72,34.51,37.31,34.53,36.95z"/>
		<path class="st0" d="M39.45,41.02c0.01-0.12,0.07,0.16,0.09,0.22c-0.06,0.03-0.12,0.36-0.17,0.16
			C39.43,41.37,39.42,41.18,39.45,41.02z"/>
		<path class="st0" d="M40.71,41.25c-0.02,0.35-0.29,0.63-0.45,0.67L40.71,41.25z"/>
		<path class="st0" d="M41.88,42.7c0.1,0.3,0.07,0.46-0.06,0.45C41.81,42.96,41.85,42.87,41.88,42.7z"/>
		<path class="st0" d="M41.96,41.9c0.1-0.01,0.15,0.2,0.19,0.4C42.15,42,41.93,42.49,41.96,41.9z"/>
		<path class="st0" d="M44.51,42.93c0.06-0.03,0.19-0.32,0.25,0.07C44.7,42.73,44.46,43.44,44.51,42.93z"/>
		<path class="st0" d="M45.7,42.4c0.04,0.02,0.05,0.09,0.1-0.01c0.07,0.16,0,0.42-0.06,0.45L45.7,42.4z"/>
		<polygon class="st0" points="67.27,41.04 67.15,41.22 67.17,40.87 		"/>
		<path class="st0" d="M76.73,41.05c0.13-0.22,0.09,0.33,0.11,0.38C76.72,41.46,76.88,41,76.73,41.05z"/>
		<polygon class="st0" points="81.83,39.31 81.79,39.32 81.8,38.6 		"/>
	</g>
	<g>
		<path class="st0" d="M35.83,69.59c-0.26,0.16,0.14,0.61-0.17,0.27C35.69,69.58,35.74,69.36,35.83,69.59z"/>
		<path class="st0" d="M105.12,69.63c-0.82,1.83-1.93-0.01-2.83,1.16c-0.11,0.08,0.02-1-0.22-0.76c-0.88,1.43-2.27,0.59-3.35-0.51
			l0.06-0.28c-0.21-0.2-0.45,0.74-0.67,0.61c0-0.19,0.07-0.27,0.02-0.53c-0.05,0.57-0.39,0.27-0.48,0.69
			c-0.09-0.22-0.08-0.67-0.19-0.92l-0.12,0.65c-0.34,1.54-0.84-0.1-1.31,0.69c0.02-0.15,0.07-0.27,0.03-0.41
			c-0.75,0.94-1.7,0.77-2.54,1.11c0.03-0.23,0.06-0.64,0.01-0.9c-0.04,0.68-0.3,0.85-0.52,0.99c-0.11-0.7-0.39,0.64-0.65,0.25
			l0.02-0.15c-0.19,0.73-0.29-0.42-0.45,0.46l-0.13-0.55c-0.08,0.98-0.29-0.51-0.45-0.01l0.01,0.2c-0.15,0.24-0.23-0.25-0.38-0.09
			l-0.01-0.11c-0.33,0.26-0.53-0.29-0.51,0.48c-0.12-0.62,0.32-0.28,0.13-1.18c-1.09,0.8-2.22,0.65-3.32,0.67
			c-0.13-0.31-0.21-0.4-0.24-0.69c-0.11,0.16-0.41,0.15-0.51,0.54c0.04-0.02-0.07-0.39-0.13-0.43c-0.2-0.29-0.21,0.84-0.44,0.5
			c0.09-0.2,0.11-0.45,0.08-0.74c-0.18,0.6-0.44,0.51-0.66,0.7c0.03-0.13,0.09-0.21,0.08-0.45c-0.24,0.68-0.44-0.14-0.65,0.29
			l0.08-0.44c-0.34-0.54-0.1,0.93-0.39,0.61c0.07-0.14,0.04-0.31,0.06-0.49c-0.27,0.81-0.72,0.54-0.99,0.82
			c0.02-0.06,0.01-0.18,0.01-0.18c-0.3,0.1-0.61-0.15-0.94,0.21c-0.12-0.2,0.03-1.08-0.28-0.92c0.02,0.89-0.54,0.37-0.34,1.38
			c-0.27-0.14-0.7-0.48-0.88-0.17c0.12-0.34-0.14-1.09,0.09-1.16l-0.17-0.54c0.02-0.36,0.18,0.12,0.12-0.34
			c-0.11,0.04-0.44,0.39-0.54,0.25c-0.21,0.55-0.39,1.57-0.73,1.68c0.16-0.35-0.1-0.98,0.01-1.13l-0.46,1.71
			c-0.11,0.04-0.03-0.7-0.19-0.47c0.01,0.23-0.06,0.38-0.11,0.57c-0.04-0.11-0.47,0.22-0.52-0.66c-0.05-0.34,0.18-0.18,0.06-0.49
			c-0.21,0.01-0.22,0.31-0.42,0.33l0-0.12c-0.14-0.13-0.4,0.37-0.25,0.86c0.1,0.03-0.04-0.53,0.1-0.27
			c-0.09,0.51-0.34,0.65-0.54,0.66c0.07-0.14,0.06-0.37,0.09-0.62c-0.28,0.69-0.57,0.91-0.88,1.2c0,0.42,0.11-0.76,0.16-0.54
			c-0.4-0.58-0.82,0.82-1.16-0.02c0.05-0.07,0.03,0.59,0.03,0.48c-0.19-0.05-0.19-0.66-0.31-0.43c-0.01-0.35-0.16,0.12-0.29,0.22
			c-0.07,0.26-0.03-0.17,0.08-0.21c-0.18,0.3-0.9,0.85-1.32,0.33c0.01,0.23-0.25,0.86-0.35,0.84l0.03-0.55
			c-0.09-0.33-0.32,0.05-0.34-0.42c-0.2,0.67,0.78-0.57,0.51-0.06c-0.07-0.46-0.38,0.88-0.33,0.13c-0.19,0.02-0.38,0.64-0.56,0.13
			c0.05,0.09,0.15-0.76,0-0.72c-0.27,0.1-0.08,0.26-0.3,0.45l-0.14,0.23c-0.01,0.53-0.24-0.07-0.14,0.53
			c-0.04-0.44-0.4,0.27-0.37-0.61l0.03-0.7c-0.12,0.05-0.19,0.74-0.28,1.04c-0.02-0.06-0.05-0.2-0.04-0.32
			c-0.01,1.07-0.28-0.09-0.42,0.74C71,73.33,70.62,73.67,70.5,73c-0.19,0.32-0.36,0.71-0.58,0.48c0.04-0.1,0.1-0.13,0.11-0.36
			c-0.14-0.31-0.17-0.03-0.29,0.14c0.03-0.16-0.28-0.62-0.43-1c-0.19,0.32-0.12,0.9-0.14,1.25c-0.18-1.05-0.53,0.68-0.75-0.27
			c0.06-0.15,0.27-0.52,0.11-0.78c-0.18-1.05-0.35,0.78-0.63,0.28l0.07,0.87c-0.13-0.54-0.41,0.51-0.38-0.38
			c-0.09,0.31-0.33-0.29-0.3,0.56c-0.46-0.72-1.11,0.44-1.4-1.09c-0.07,0.14-0.23,0-0.19,0.44c0.11,0.48,0.15-0.34,0.19-0.02
			c-0.06,0.03-0.07,0.26-0.08,0.38c-0.14-0.19-0.26-0.25-0.13-0.97c-0.32-0.53-0.32,1.45-0.73,1.12c0.02-0.35-0.01-0.49-0.13-0.43
			l-0.22,0.61c-0.26-0.14-0.15-0.8-0.16-1.4c-0.14,0.1-0.31,0.08-0.37,0.52l-0.17-0.75c0.13,0.54-0.11,0.36-0.18,0.51l0.06-0.15
			c-0.03-0.26-0.19-0.1-0.27-0.02c0.02,0.37,0.19,0.52,0.28,0.63c-0.07,0.26-0.18,0.2-0.27,0.51c0.03-0.59-0.23-0.42-0.34-0.48
			c-0.13-0.13-0.14,0.53-0.18,0.51c0-0.3-0.21-0.05-0.11-0.48c0.04-0.1,0.1,0.29,0.17,0.02c-0.08-0.22-0.08-0.75-0.25-0.37
			c-0.13,0.29,0.04,1.16-0.21,0.79c0.06-0.15,0.08-0.38,0.12-0.59l-0.23-0.3l-0.01,0.53c-0.03-0.14-0.01-0.18-0.03-0.25
			c-0.07,0.56-0.35,0.18-0.4,0.81c-0.12,0.06-0.25-0.37-0.36-0.43l0.02-0.05c-0.14-0.31-0.32-0.11-0.43,0.26l0.01-0.12
			c-0.07-0.04-0.25,0.04-0.34,0.36c-0.19-0.4-0.07-2.02-0.28-1.34c-0.19,0.02-0.3,0.98-0.22,1.32c-0.35-0.36-0.73,0.51-1.06-0.31
			c-0.05,0.22-0.02,0.35-0.12,0.48c-0.51-0.21-1.07,0.64-1.47-0.41c0.15-0.23,0.01-0.54,0-0.84c-0.12,0.48-0.15-0.5-0.19,0.32
			c0.01,0.48,0,0.72,0.15,0.91c-0.3,0.26-0.76,0.26-0.93-0.19c0.08,0.22,0.02,0.37-0.04,0.52c0.02-0.77-0.21-0.89-0.37-0.61
			l-0.02,0.47l-0.11-0.48c-0.06,0.15-0.07,0.98-0.24,0.54c-0.01-0.18-0.02-0.37-0.05-0.5c-0.17,0.39-0.41,1.04-0.61,0.64l-0.16-0.68
			c-0.08,0.08-0.21,0.49-0.07,0.68c-0.33-0.41-0.53-0.46-0.64-1.05c-0.55,1.45-1.36,1.51-2,1.41l0.02-0.35
			c-0.18-0.33-0.09,0.61-0.21,0.37c0.05-0.34-0.14-0.73,0-1.14c-0.25-0.37-0.32,0.61-0.48,0.77c-0.02,0.46,0.13-0.3,0.1,0.29
			c-0.03,0.16-0.35-0.36-0.38,0.34c-0.06-0.27-0.02-0.79,0.01-1.07l-0.15,0.34c-0.19-0.81,0.42-1.46,0.22-2.46l-0.14,0.11
			c-0.14-0.73,0.37-0.82,0.01-1.07c-0.15,0.35-0.28,1.36-0.14,1.67c-0.32,0.19-0.14,1.66-0.48,1.61c-0.1-0.41,0.27-0.1,0.2-0.67
			c-0.16-0.56-0.32,0.32-0.46,0.12c0.16,0.26,0.03,0.97-0.07,1.1c-0.18-0.33,0.11-0.66-0.14-0.73c-0.04,0.4-0.26,0.71-0.07,0.99
			c-0.08,0.91-0.26-0.25-0.39,0.46c-0.08-0.64,0.25-1.49-0.03-1.81c0.05,0.62-0.33,0.84-0.18,1.76c-0.11-0.18-0.12-0.66-0.05-1.04
			c-0.15-0.38-0.36,1.13-0.42-0.1l-0.05,0.63c-0.05-0.21-0.12-0.36-0.2-0.7c-0.13-0.01-0.42,0.86-0.42-0.1
			c-0.04,0.1-0.35,0.06-0.23,0.72c0.19,0.4,0.21-0.48,0.33,0.41c-0.14-0.73-0.27,0.1-0.38,0.34l-0.02-0.37
			c-0.06,0.15-0.21,0.06-0.25,0.47c0.05-0.21,0.02-0.46-0.03-0.55L48,75.64c-0.26,0.28-0.07-0.99-0.32-0.82l0.19-0.44
			c-0.04,0.09-0.13-0.43-0.26-0.26c-0.05,0.51-0.13,1.13-0.17,1.53c-0.14,0.23-0.07-0.58-0.21-0.05l0.18-0.62
			c0.03-0.17-0.13-0.85-0.32-0.83c-0.12,0.18-0.31,0.92-0.11,1.2c-0.1,0.01-0.23-0.3-0.16-0.68c-0.22,0.18,0.03,0.55-0.16,0.87
			c-0.08-0.34-0.32-0.83-0.47-1.32l0.19-0.86l-0.13-0.01c0.17-0.69-0.09-0.52,0-1.25c-0.09-0.11-0.2,0.13-0.28,0.32
			c0.27,1.16-0.29,1.59-0.2,2.65c-0.36,0.29-0.24-2.58-0.61-0.92c0.06,0.28-0.11,1.08,0.12,0.78c-0.22-0.11-0.15,1.06-0.41,0.63
			c0.19-0.44-0.22-1.07,0.06-1.71c-0.02,0.35,0.16,0.26,0.2,0.17c-0.09-0.41,0.01-1.07-0.22-1.07c-0.14,0.1-0.33,0.12-0.3,0.68
			c0.01,0.61,0.21-0.07,0.13,0.55c-0.28,0.21-0.33-0.71-0.44,0.37c0.18-0.09,0.22,0.54,0.22,0.96l-0.2,0.25l0.04-0.4
			c-0.33-0.29-0.09,0.73-0.41,0.63l-0.15-0.8c0.07-0.69,0.47,0.3,0.4-0.82c-0.21-0.04-0.27,0.52-0.47,0.24
			c0.04-0.1,0.1-0.13,0.14-0.22c-0.07-0.04-0.16-1.52-0.45-0.65c-0.15,0.34-0.04,0.4-0.04,0.82c-0.33,0.13-0.43,0.56-0.64,0.62
			c0.04-0.82-0.38-0.08-0.15-0.91c0.11,0.48,0.59,0.43,0.71-0.35c-0.13-0.97,0.26,0.13,0.33-0.85c-0.27-0.02-0.26-0.97-0.3-1.6
			c-0.07-0.04-0.14,0.22-0.19,0.32c-0.03,0.59,0.07,0.58,0.08,1.18c-0.3-0.16-0.58,0.17-0.74,0.74c-0.1-0.29-0.07-0.88,0.04-0.94
			c-0.35,0.18-0.73,0.1-1.07-0.08c0.22,0.96-0.37,0.23-0.22,1.02c0.18,0.21,0.34,0.9,0.24,1.33c-0.11-0.06,0-0.42-0.05-0.62
			c-0.14,0.52-0.23-0.84-0.36-0.01c0.32-0.31,0.06-1.17,0.11-1.92c-0.23,0.42,0.01-0.53-0.22-0.53c-0.23,0.42-0.51,0.75-0.77,0.91
			c-0.33-0.71-0.82-0.01-1.11,0.02c-0.15-0.38-0.06-1.23-0.22-1.37c-0.19,0.02,0.15,0.91-0.14,0.53l0.03-0.17
			c-0.09,0.2-0.53-0.57-0.61,0.65l0.08-0.92c-0.05-0.08-0.1,0.13-0.15,0.23c0-0.3-0.07-0.57,0.02-0.77
			c-0.18-0.63-0.37,0.1-0.56,0.13l0.13,0.54c-0.33,0.43-0.55-0.11-0.87,0.08l0.01-0.53l-0.19,0.32c0.04-0.52-0.13-0.85-0.23-0.42
			l0.48-1.31c0.14,0.31-0.15,0.64-0.06,1.17c0.08,0.46,0.37,0.31,0.41-0.2c-0.11-0.06-0.12,0.06-0.2,0.25
			c-0.04-0.74,0.13-0.71,0.21-1.21c-0.06,0.03-0.14-0.19-0.16,0.04c0.11-0.36,0.23-0.42,0.42-0.44c-0.13,0.29,0.07,0.46,0.03,0.67
			c0.01-0.65,0.2-0.85,0.43-0.67c0.17,0.75,0.44-0.49,0.72-0.28c-0.11,0.66-0.25,1.19-0.42,1.46c0.18,0.33,0.19-0.02,0.37,0.31
			c0.08-0.49,0.14-1.25,0.36-1.55l0.01,0.49c0.2-0.25,0.2-0.97,0.46-0.84c0.45,0.24,0.91,0.23,1.25,0.29l0.02,0.49
			c0.18-1.04,0.63-0.39,0.88-0.85c0.44,0.47,0.94-0.47,1.17,0.37C43.54,69,44.21,68.63,45,68.8l-0.13,0.71
			c0.14-0.52,0.09,0.41,0.23,0.3c-0.16-0.56,0.19-0.73,0.29-1.17c0.36,0.55,0.81-0.06,1.12-0.55l0.01,0.49
			c0.31-0.92,0.7-0.12,1.09,0.03c0.05,0.2,0.12,0.66,0.24,0.6c0.21-0.79,0.32-0.73,0.63-1.23c0.23,0,0.6,0.19,0.84,0.5
			c0.86-1.11,1.74-0.41,2.64-1.08l0.07,0.57c0.86-1.23,1.94-0.12,2.68-0.75l-0.07,0.98c0.23,0.3,0.53-0.26,0.47-0.95
			c0.24,0.3,0.58-0.48,0.73,0.33c0.24,0.18,0.29-0.45,0.49-0.59c0.48,0.37,0.66,0.28,1.11,0.1l-0.11-0.06
			c-0.05,0.22-0.05,0.63,0.06,0.69c0.17-0.28,0.62,0.26,0.45-0.91c0.48,0.67,1.12-0.55,1.59,0.35c-0.04-0.32,0.08-0.38,0.12-0.6
			c0.42-0.02,0.87,0.63,1.2,0.09c0.07,0.16-0.1,0.54,0.07,0.58c0.1-0.12,0-0.42,0.12-0.6c0.68-0.6,1.39,0.61,2.01,0.45
			c1.1-0.62,2.26-0.32,3.31-0.42l-0.01,0.23c0.35-0.9,0.84,0.91,1.11-0.44c0.08,0.22,0.32,0.1,0.26,0.56
			c0.28-0.63,0.79,0.59,1.2-0.21c-0.04-0.02-0.06,0.03-0.1,0.13c0.42,0.52,0.78-0.19,1.21,0.27c-0.04,0.1-0.12,0.17-0.14,0.41
			c0.17,0.45,0.39-0.99,0.49,0.14c0.1-0.01,0.07-0.57,0.01-0.53c0.95,0.44,1.97-0.29,2.96-0.55c0.71,0.67,0.05,1.9,0.61,1.06
			c0.05,0.22,0.03-0.43,0.04-0.2c0.22-0.32,0.34,1.26,0.49,0.67c-0.07-0.69,0.1-0.39,0.1-0.81c0.44,0.45,0.53,1.07,0.87,0.54
			l-0.02,0.37c0.4-1.03,0.87-0.48,1.2-1.67c2.22-0.23,4.34-0.9,6.5-1.05c2.14,0.22,4.23-0.33,6.4,0.29
			c0.51,0.96,0.55,0.93,1.11,0.54c-0.02,0.15-0.06,0.19-0.02,0.34c0.02-0.79,0.39-0.08,0.44-0.83c0.8,0.14,1.54-0.08,2.37-0.09
			c-0.13,0.08-0.19,0.73-0.04,0.68l0.16-0.5l0.03,0.22c0.11-0.12,0.22-0.51,0.11-0.76c2.07-0.69,4.12,0.88,6.15,0.67
			c0.48,0.33,1.17,0.02,1.69-0.14c1.56,1.04,2.96,1.88,4.54,1.14C105.97,67.12,105.77,69.15,105.12,69.63z"/>
		<path class="st0" d="M36.14,69.51c0.06,0.39,0.24,0.61,0.1,1.13C36.21,70.27,36.12,69.86,36.14,69.51z"/>
		<path class="st0" d="M40.98,73.53c0.01-0.12,0.07,0.16,0.09,0.22c-0.06,0.03-0.11,0.36-0.16,0.16
			C40.96,73.88,40.95,73.7,40.98,73.53z"/>
		<path class="st0" d="M42.21,73.76c-0.02,0.35-0.28,0.63-0.43,0.67L42.21,73.76z"/>
		<path class="st0" d="M43.37,75.2c0.1,0.29,0.07,0.46-0.06,0.45C43.3,75.46,43.34,75.37,43.37,75.2z"/>
		<path class="st0" d="M43.45,74.4c0.1-0.01,0.14,0.2,0.19,0.4C43.63,74.5,43.42,74.99,43.45,74.4z"/>
		<path class="st0" d="M45.94,75.4c0.06-0.03,0.19-0.32,0.25,0.07C46.13,75.2,45.9,75.92,45.94,75.4z"/>
		<path class="st0" d="M47.1,74.87c0.04,0.02,0.05,0.09,0.1-0.01c0.07,0.16,0,0.42-0.06,0.45L47.1,74.87z"/>
		<polygon class="st0" points="68.19,73.35 68.06,73.53 68.08,73.18 		"/>
		<path class="st0" d="M77.43,73.29c0.12-0.22,0.09,0.33,0.11,0.38C77.43,73.7,77.58,73.23,77.43,73.29z"/>
		<polygon class="st0" points="82.4,71.51 82.37,71.52 82.37,70.8 		"/>
	</g>
	<g>
		<path class="st0" d="M37.2,102.37c-0.25,0.17,0.16,0.61-0.16,0.28C37.06,102.37,37.11,102.15,37.2,102.37z"/>
		<path class="st0" d="M106.97,101.9c-0.85,1.82-1.94-0.03-2.86,1.13c-0.11,0.08,0.03-1-0.21-0.76c-0.9,1.42-2.29,0.56-3.37-0.54
			l0.07-0.28c-0.21-0.21-0.46,0.73-0.68,0.6c0-0.19,0.07-0.27,0.02-0.53c-0.06,0.57-0.4,0.26-0.49,0.68
			c-0.09-0.22-0.07-0.67-0.19-0.92l-0.13,0.65c-0.35,1.53-0.84-0.11-1.32,0.68c0.02-0.15,0.07-0.27,0.03-0.41
			c-0.76,0.93-1.72,0.75-2.57,1.09c0.03-0.23,0.07-0.64,0.02-0.9c-0.04,0.68-0.31,0.85-0.53,0.98c-0.1-0.7-0.39,0.64-0.66,0.25
			l0.02-0.15c-0.2,0.73-0.29-0.42-0.45,0.45l-0.13-0.55c-0.09,0.98-0.29-0.51-0.45-0.01l0.01,0.2c-0.15,0.24-0.23-0.26-0.38-0.09
			l-0.01-0.11c-0.33,0.26-0.53-0.29-0.52,0.48c-0.12-0.62,0.32-0.28,0.14-1.18c-1.1,0.79-2.23,0.64-3.34,0.66
			c-0.13-0.31-0.21-0.4-0.24-0.7c-0.11,0.16-0.42,0.14-0.52,0.54c0.04-0.02-0.07-0.39-0.13-0.43c-0.2-0.29-0.22,0.84-0.44,0.5
			c0.09-0.2,0.12-0.45,0.09-0.74c-0.19,0.6-0.44,0.51-0.66,0.7c0.03-0.13,0.09-0.21,0.08-0.45c-0.24,0.68-0.45-0.14-0.66,0.29
			l0.08-0.44c-0.35-0.54-0.1,0.93-0.4,0.61c0.07-0.14,0.05-0.31,0.06-0.49c-0.27,0.81-0.72,0.54-1,0.82
			c0.02-0.06,0.01-0.18,0.01-0.18c-0.3,0.1-0.62-0.15-0.95,0.21c-0.12-0.2,0.03-1.08-0.28-0.92c0.02,0.89-0.54,0.37-0.35,1.38
			c-0.27-0.14-0.71-0.48-0.89-0.17c0.12-0.34-0.14-1.09,0.09-1.16l-0.17-0.54c0.02-0.36,0.18,0.12,0.12-0.34
			c-0.11,0.04-0.44,0.39-0.55,0.25c-0.21,0.55-0.39,1.57-0.73,1.68c0.16-0.35-0.1-0.98,0.01-1.13l-0.46,1.71
			c-0.11,0.04-0.03-0.7-0.19-0.47c0.01,0.23-0.06,0.38-0.11,0.57c-0.04-0.1-0.47,0.22-0.53-0.65c-0.05-0.34,0.18-0.18,0.06-0.49
			c-0.21,0.01-0.22,0.31-0.43,0.33l-0.01-0.12c-0.14-0.13-0.4,0.38-0.25,0.86c0.1,0.03-0.04-0.53,0.1-0.27
			c-0.09,0.51-0.34,0.65-0.54,0.66c0.07-0.14,0.06-0.37,0.09-0.62c-0.28,0.69-0.57,0.91-0.88,1.2c0,0.42,0.11-0.76,0.16-0.54
			c-0.41-0.58-0.82,0.83-1.17-0.02c0.05-0.07,0.03,0.59,0.03,0.48c-0.19-0.05-0.19-0.65-0.32-0.43c-0.02-0.35-0.16,0.12-0.29,0.23
			c-0.06,0.26-0.04-0.17,0.08-0.21c-0.18,0.3-0.9,0.85-1.32,0.34c0.01,0.23-0.25,0.86-0.34,0.84l0.03-0.55
			c-0.09-0.33-0.32,0.05-0.34-0.42c-0.2,0.67,0.79-0.58,0.51-0.06c-0.08-0.46-0.38,0.88-0.33,0.13c-0.19,0.02-0.37,0.64-0.56,0.13
			c0.05,0.09,0.15-0.76-0.01-0.72c-0.27,0.1-0.08,0.26-0.3,0.45l-0.14,0.23c0,0.53-0.25-0.07-0.14,0.53
			c-0.04-0.44-0.4,0.28-0.38-0.61l0.03-0.7c-0.12,0.05-0.19,0.74-0.28,1.05c-0.02-0.06-0.05-0.2-0.04-0.32
			c-0.01,1.07-0.28-0.09-0.42,0.74c-0.25-0.37-0.63-0.03-0.76-0.69c-0.19,0.33-0.36,0.71-0.58,0.49c0.04-0.1,0.1-0.13,0.11-0.36
			c-0.14-0.31-0.17-0.03-0.29,0.14c0.03-0.16-0.28-0.62-0.44-1c-0.19,0.32-0.11,0.9-0.13,1.25c-0.19-1.05-0.53,0.69-0.76-0.27
			c0.06-0.15,0.27-0.52,0.11-0.78c-0.19-1.05-0.34,0.78-0.63,0.28l0.08,0.87c-0.13-0.54-0.41,0.51-0.39-0.38
			c-0.09,0.32-0.34-0.29-0.29,0.57c-0.47-0.72-1.11,0.45-1.42-1.07c-0.06,0.14-0.23,0-0.19,0.44c0.12,0.47,0.15-0.34,0.19-0.02
			c-0.06,0.03-0.07,0.26-0.07,0.38c-0.15-0.19-0.26-0.25-0.14-0.96c-0.33-0.52-0.31,1.46-0.72,1.13c0.01-0.35-0.02-0.48-0.14-0.43
			l-0.22,0.61c-0.26-0.14-0.16-0.8-0.18-1.4c-0.14,0.11-0.31,0.08-0.37,0.53l-0.18-0.75c0.13,0.54-0.11,0.36-0.17,0.51l0.06-0.15
			c-0.03-0.25-0.19-0.1-0.27-0.02c0.03,0.37,0.19,0.52,0.29,0.62c-0.07,0.26-0.18,0.2-0.27,0.52c0.02-0.59-0.24-0.41-0.35-0.47
			c-0.13-0.12-0.14,0.53-0.17,0.51c-0.01-0.3-0.21-0.05-0.12-0.48c0.04-0.1,0.1,0.29,0.17,0.02c-0.09-0.22-0.09-0.75-0.26-0.36
			c-0.13,0.29,0.05,1.16-0.2,0.79c0.06-0.15,0.07-0.38,0.12-0.59l-0.24-0.3l0,0.53c-0.03-0.14-0.01-0.18-0.03-0.25
			c-0.06,0.56-0.35,0.18-0.4,0.81c-0.12,0.06-0.26-0.37-0.37-0.42l0.02-0.05c-0.14-0.31-0.32-0.1-0.43,0.26l0-0.12
			c-0.08-0.04-0.25,0.05-0.34,0.36c-0.2-0.4-0.1-2.02-0.3-1.34c-0.19,0.02-0.28,0.99-0.2,1.33c-0.35-0.35-0.73,0.52-1.07-0.3
			c-0.05,0.22-0.01,0.35-0.11,0.48c-0.51-0.2-1.06,0.65-1.49-0.39c0.14-0.23,0-0.54-0.01-0.84c-0.11,0.48-0.16-0.49-0.18,0.33
			c0.02,0.48,0.01,0.72,0.16,0.91c-0.3,0.27-0.76,0.28-0.94-0.17c0.09,0.22,0.03,0.37-0.04,0.52c0.01-0.77-0.22-0.88-0.38-0.61
			l-0.01,0.47l-0.12-0.48c-0.06,0.15-0.05,0.99-0.23,0.54c-0.01-0.18-0.03-0.37-0.06-0.5c-0.17,0.39-0.4,1.04-0.6,0.65l-0.17-0.68
			c-0.08,0.08-0.21,0.49-0.06,0.69c-0.33-0.41-0.54-0.45-0.66-1.04c-0.53,1.46-1.34,1.53-1.99,1.44l0.01-0.35
			c-0.18-0.32-0.08,0.62-0.2,0.38c0.05-0.34-0.15-0.73-0.02-1.14c-0.26-0.36-0.31,0.62-0.47,0.78c-0.01,0.46,0.12-0.3,0.11,0.29
			c-0.02,0.16-0.35-0.35-0.38,0.35c-0.07-0.27-0.03-0.79-0.01-1.07l-0.14,0.34c-0.21-0.81,0.39-1.47,0.17-2.47l-0.14,0.11
			c-0.15-0.73,0.35-0.83-0.01-1.07c-0.15,0.35-0.25,1.36-0.11,1.67c-0.31,0.2-0.11,1.67-0.45,1.62c-0.1-0.41,0.27-0.11,0.19-0.68
			c-0.18-0.56-0.32,0.32-0.46,0.13c0.17,0.26,0.05,0.97-0.05,1.1c-0.18-0.33,0.1-0.66-0.15-0.73c-0.03,0.4-0.25,0.71-0.05,0.99
			c-0.07,0.92-0.26-0.25-0.38,0.46c-0.1-0.64,0.22-1.49-0.06-1.81c0.06,0.62-0.31,0.85-0.15,1.76c-0.11-0.17-0.13-0.66-0.07-1.04
			c-0.16-0.38-0.34,1.14-0.42-0.09l-0.04,0.63c-0.05-0.21-0.12-0.36-0.21-0.7c-0.13-0.01-0.41,0.87-0.42-0.09
			c-0.04,0.1-0.35,0.07-0.21,0.72c0.2,0.4,0.21-0.49,0.33,0.4c-0.15-0.72-0.27,0.1-0.37,0.35l-0.03-0.37
			c-0.06,0.15-0.21,0.07-0.24,0.47c0.04-0.21,0.01-0.46-0.04-0.55l-0.05,0.56c-0.26,0.29-0.09-0.99-0.34-0.82l0.18-0.44
			c-0.04,0.09-0.14-0.43-0.26-0.25c-0.05,0.51-0.1,1.14-0.14,1.53c-0.14,0.23-0.08-0.58-0.21-0.05l0.17-0.62
			c0.02-0.17-0.15-0.84-0.34-0.83c-0.12,0.18-0.29,0.93-0.09,1.2c-0.1,0.01-0.24-0.3-0.18-0.68c-0.22,0.18,0.04,0.55-0.14,0.88
			c-0.09-0.34-0.34-0.82-0.5-1.31l0.18-0.87l-0.13-0.01c0.15-0.69-0.1-0.52-0.02-1.25c-0.09-0.11-0.2,0.14-0.28,0.33
			c0.3,1.15-0.25,1.6-0.15,2.65c-0.35,0.3-0.3-2.57-0.63-0.9c0.07,0.27-0.09,1.09,0.13,0.77c-0.23-0.11-0.12,1.07-0.4,0.64
			c0.18-0.44-0.24-1.07,0.02-1.71c-0.01,0.35,0.17,0.26,0.21,0.16c-0.1-0.41-0.01-1.07-0.24-1.06c-0.14,0.1-0.33,0.13-0.29,0.68
			c0.02,0.61,0.21-0.07,0.14,0.54c-0.27,0.22-0.35-0.7-0.43,0.38c0.17-0.09,0.24,0.53,0.25,0.95l-0.2,0.26l0.03-0.4
			c-0.34-0.28-0.08,0.73-0.4,0.64l-0.17-0.79c0.06-0.69,0.47,0.29,0.38-0.83c-0.21-0.04-0.26,0.53-0.47,0.25
			c0.04-0.1,0.1-0.13,0.14-0.23c-0.08-0.04-0.19-1.51-0.46-0.64c-0.14,0.34-0.03,0.4-0.02,0.82c-0.33,0.14-0.42,0.57-0.63,0.64
			c0.02-0.82-0.38-0.07-0.17-0.91c0.12,0.47,0.6,0.41,0.7-0.37c-0.15-0.96,0.27,0.13,0.31-0.85c-0.27-0.02-0.28-0.97-0.34-1.59
			c-0.08-0.04-0.14,0.22-0.18,0.32c-0.01,0.59,0.08,0.58,0.11,1.18c-0.3-0.15-0.58,0.18-0.73,0.76c-0.11-0.29-0.09-0.87,0.02-0.94
			c-0.35,0.19-0.73,0.12-1.08-0.05c0.25,0.95-0.37,0.24-0.2,1.03c0.19,0.21,0.36,0.89,0.28,1.32c-0.11-0.06-0.01-0.42-0.06-0.62
			c-0.13,0.53-0.25-0.83-0.37,0c0.32-0.32,0.03-1.17,0.06-1.92c-0.22,0.43-0.01-0.53-0.24-0.53c-0.22,0.42-0.5,0.76-0.75,0.93
			c-0.35-0.7-0.83,0.01-1.12,0.05c-0.16-0.37-0.09-1.23-0.26-1.37c-0.19,0.02,0.17,0.91-0.13,0.53l0.02-0.17
			c-0.08,0.2-0.55-0.56-0.59,0.66l0.06-0.92c-0.06-0.08-0.1,0.13-0.14,0.23c-0.01-0.3-0.08-0.57,0-0.77
			c-0.2-0.63-0.37,0.11-0.56,0.15l0.14,0.54c-0.32,0.44-0.55-0.09-0.87,0.11l-0.01-0.53l-0.18,0.32c0.03-0.52-0.16-0.84-0.24-0.41
			l0.45-1.32c0.15,0.31-0.13,0.65-0.03,1.17c0.09,0.46,0.38,0.3,0.41-0.21c-0.12-0.05-0.12,0.06-0.2,0.26
			c-0.06-0.74,0.11-0.72,0.18-1.21c-0.06,0.03-0.15-0.19-0.16,0.04c0.1-0.36,0.22-0.42,0.41-0.45c-0.12,0.29,0.09,0.46,0.04,0.67
			c-0.01-0.65,0.17-0.86,0.42-0.68c0.2,0.75,0.43-0.5,0.72-0.3c-0.09,0.66-0.22,1.2-0.38,1.47c0.19,0.32,0.19-0.03,0.38,0.3
			c0.07-0.49,0.1-1.25,0.32-1.56l0.03,0.49c0.2-0.26,0.18-0.98,0.44-0.85c0.46,0.22,0.92,0.21,1.27,0.26l0.03,0.48
			c0.16-1.05,0.63-0.4,0.87-0.87c0.45,0.46,0.94-0.49,1.19,0.34c0.76-0.4,1.43-0.79,2.23-0.63l-0.11,0.71
			c0.13-0.52,0.1,0.41,0.24,0.3c-0.18-0.56,0.17-0.74,0.26-1.17c0.37,0.54,0.81-0.07,1.12-0.58l0.03,0.49
			c0.29-0.92,0.7-0.13,1.1,0.01c0.05,0.2,0.14,0.66,0.25,0.6c0.19-0.79,0.31-0.74,0.61-1.24c0.23-0.01,0.61,0.18,0.85,0.48
			c0.84-1.13,1.75-0.44,2.64-1.13l0.08,0.57c0.85-1.25,1.95-0.16,2.69-0.8l-0.05,0.98c0.24,0.29,0.53-0.27,0.45-0.96
			c0.24,0.29,0.58-0.49,0.74,0.31c0.24,0.18,0.28-0.46,0.48-0.59c0.49,0.36,0.67,0.27,1.12,0.08l-0.11-0.06
			c-0.05,0.22-0.04,0.63,0.07,0.69c0.16-0.28,0.63,0.25,0.44-0.91c0.5,0.66,1.12-0.57,1.61,0.33c-0.05-0.32,0.07-0.38,0.12-0.6
			c0.43-0.02,0.89,0.62,1.21,0.07c0.07,0.16-0.1,0.55,0.08,0.58c0.1-0.13-0.01-0.42,0.12-0.6c0.68-0.61,1.41,0.59,2.03,0.42
			c1.1-0.63,2.27-0.34,3.34-0.46l-0.01,0.23c0.34-0.9,0.85,0.9,1.12-0.45c0.09,0.22,0.32,0.1,0.27,0.55
			c0.28-0.64,0.81,0.58,1.21-0.22c-0.04-0.02-0.06,0.03-0.1,0.13c0.42,0.51,0.78-0.2,1.23,0.26c-0.04,0.1-0.12,0.18-0.13,0.41
			c0.18,0.45,0.39-0.99,0.5,0.13c0.1-0.01,0.06-0.57,0-0.53c0.97,0.43,1.98-0.3,2.98-0.57c0.72,0.67,0.06,1.9,0.62,1.05
			c0.05,0.22,0.03-0.43,0.04-0.2c0.22-0.32,0.35,1.26,0.5,0.66c-0.07-0.69,0.1-0.39,0.1-0.81c0.44,0.45,0.54,1.07,0.88,0.54
			l-0.02,0.37c0.4-1.03,0.87-0.49,1.2-1.68c2.23-0.24,4.37-0.91,6.55-1.06c2.16,0.22,4.27-0.32,6.46,0.31
			c0.51,0.96,0.55,0.93,1.11,0.54c-0.02,0.15-0.06,0.19-0.02,0.34c0.03-0.79,0.4-0.08,0.45-0.83c0.81,0.15,1.56-0.07,2.39-0.07
			c-0.13,0.08-0.2,0.73-0.04,0.67l0.16-0.5l0.03,0.22c0.11-0.12,0.22-0.51,0.11-0.76c2.09-0.67,4.15,0.91,6.2,0.73
			c0.48,0.33,1.18,0.03,1.71-0.12c1.56,1.06,2.96,1.92,4.56,1.2C107.86,99.4,107.63,101.44,106.97,101.9z"/>
		<path class="st0" d="M37.51,102.28c0.07,0.39,0.26,0.6,0.13,1.13C37.61,103.04,37.5,102.63,37.51,102.28z"/>
		<path class="st0" d="M42.48,106.17c0-0.12,0.07,0.16,0.09,0.22c-0.06,0.03-0.1,0.36-0.16,0.16
			C42.48,106.53,42.46,106.34,42.48,106.17z"/>
		<path class="st0" d="M43.73,106.37c-0.01,0.35-0.26,0.64-0.42,0.68L43.73,106.37z"/>
		<path class="st0" d="M44.93,107.78c0.11,0.29,0.09,0.45-0.05,0.45C44.86,108.05,44.9,107.95,44.93,107.78z"/>
		<path class="st0" d="M44.98,106.98c0.1-0.01,0.15,0.19,0.2,0.39C45.17,107.07,44.97,107.57,44.98,106.98z"/>
		<path class="st0" d="M47.51,107.93c0.06-0.03,0.18-0.32,0.25,0.06C47.69,107.72,47.48,108.44,47.51,107.93z"/>
		<path class="st0" d="M48.66,107.37c0.04,0.02,0.06,0.09,0.1-0.01c0.07,0.16,0.01,0.41-0.05,0.45L48.66,107.37z"/>
		<polygon class="st0" points="69.81,105.53 69.69,105.7 69.7,105.36 		"/>
		<path class="st0" d="M79.1,105.41c0.12-0.22,0.09,0.33,0.11,0.38C79.1,105.82,79.25,105.35,79.1,105.41z"/>
		<polygon class="st0" points="84.1,103.62 84.06,103.63 84.07,102.91 		"/>
	</g>
</g>
</svg>
