<?xml version="1.0" encoding="utf-8"?>
<!-- Generator: Adobe Illustrator 23.0.0, SVG Export Plug-In . SVG Version: 6.00 Build 0)  -->
<svg version="1.1" id="图层_1" xmlns="http://www.w3.org/2000/svg" xmlns:xlink="http://www.w3.org/1999/xlink" x="0px" y="0px"
	 viewBox="0 0 141.73 141.73" style="enable-background:new 0 0 141.73 141.73;" xml:space="preserve">
<style type="text/css">
	.st0{fill:#E68915;}
</style>
<g>
	<g>
		<path class="st0" d="M35.42,37.27c-0.4,0.04,0.02,0.65-0.31,0.19C35.24,37.2,35.37,37.02,35.42,37.27z"/>
		<path class="st0" d="M105.91,103.56c-2.13,0.39-1.82-1.99-3.54-2.13c-0.16-0.06,0.76-0.65,0.36-0.74
			c-1.88,0.06-2.58-1.94-2.8-3.79l0.27-0.13c-0.04-0.35-0.97,0.03-1.08-0.28c0.14-0.13,0.26-0.11,0.41-0.34
			c-0.47,0.33-0.57-0.22-0.96-0.03c0.08-0.24,0.42-0.53,0.5-0.82l-0.59,0.31c-1.45,0.69-0.72-0.93-1.75-0.88
			c0.13-0.08,0.26-0.11,0.33-0.25c-1.4-0.14-2.17-1.23-3.23-1.87c0.2-0.12,0.53-0.37,0.68-0.6c-0.54,0.42-0.91,0.27-1.23,0.12
			c0.42-0.58-0.84,0.03-0.81-0.5l0.13-0.08c-0.72,0.29,0.03-0.59-0.76-0.15l0.28-0.5c-0.8,0.58,0.11-0.64-0.42-0.47l-0.14,0.14
			c-0.32,0.01-0.03-0.41-0.29-0.45l0.07-0.09c-0.5-0.17-0.29-0.74-0.84-0.21c0.34-0.54,0.51,0.14,1-0.66
			c-1.62-0.58-2.58-1.85-3.64-2.97c0.11-0.34,0.1-0.48,0.29-0.71c-0.22-0.01-0.5-0.33-0.88-0.16c0.05,0.03,0.22-0.34,0.19-0.43
			c0.02-0.4-0.83,0.35-0.78-0.11c0.23-0.05,0.44-0.19,0.63-0.41c-0.62,0.21-0.79-0.11-1.14-0.2c0.13-0.05,0.23-0.05,0.4-0.22
			c-0.73,0.21-0.32-0.55-0.83-0.48l0.4-0.22c0.07-0.72-0.78,0.53-0.82,0.01c0.17-0.02,0.27-0.17,0.42-0.28
			c-0.85,0.26-1.08-0.38-1.55-0.47c0.06-0.02,0.15-0.11,0.15-0.11c-0.36-0.24-0.47-0.73-1.04-0.83c0.03-0.26,0.83-0.69,0.41-0.91
			c-0.64,0.62-0.78-0.31-1.34,0.57c-0.15-0.38-0.31-1.05-0.71-1.03c0.36-0.1,0.67-0.87,0.94-0.69l0.24-0.54
			c0.29-0.22,0.08,0.26,0.36-0.1c-0.13-0.09-0.71-0.19-0.69-0.39c-0.6,0.16-1.53,0.65-1.94,0.38c0.41-0.07,0.64-0.76,0.85-0.75
			l-1.7,0.67c-0.14-0.09,0.49-0.5,0.17-0.51c-0.16,0.17-0.34,0.19-0.53,0.27c0.04-0.12-0.61-0.33-0.01-0.98
			c0.2-0.28,0.31,0.07,0.42-0.28c-0.2-0.21-0.43-0.01-0.64-0.22l0.08-0.08c-0.03-0.23-0.66-0.16-0.87,0.32
			c0.07,0.12,0.35-0.4,0.3-0.08c-0.47,0.25-0.8,0.09-1-0.11c0.17-0.02,0.33-0.19,0.54-0.33c-0.77,0.18-1.21,0.02-1.72-0.1
			c-0.31,0.28,0.67-0.4,0.55-0.2c0.04-0.8-1.39-0.29-1.08-1.21c0.11,0.01-0.41,0.43-0.32,0.35c-0.15-0.23,0.31-0.63,0.02-0.61
			c0.25-0.25-0.23-0.08-0.44-0.14c-0.25,0.1,0.1-0.15,0.23-0.06c-0.39,0.02-1.48-0.35-1.49-1.13c-0.16,0.17-0.87,0.32-0.95,0.21
			l0.44-0.33c0.16-0.31-0.34-0.3-0.01-0.63c-0.68,0.24,1.16,0.42,0.53,0.49c0.27-0.38-1.01,0.2-0.4-0.25
			c-0.2-0.18-0.83,0.04-0.63-0.49c-0.01,0.12,0.71-0.36,0.53-0.49c-0.33-0.21-0.27,0.1-0.61-0.01l-0.3,0.01
			c-0.4,0.35-0.18-0.3-0.52,0.21c0.29-0.33-0.58-0.22,0.1-0.8l0.55-0.44c-0.15-0.09-0.72,0.3-1.04,0.41
			c0.03-0.06,0.11-0.19,0.19-0.26c-0.8,0.71-0.2-0.35-0.94,0.07c0.04-0.51-0.57-0.67-0.2-1.24c-0.42,0.02-0.86,0.1-0.9-0.27
			c0.12-0.02,0.19,0.02,0.37-0.13c0.1-0.35-0.14-0.2-0.38-0.21c0.14-0.08,0.2-0.71,0.33-1.12c-0.41,0.02-0.78,0.48-1.05,0.7
			c0.61-0.89-1.01-0.09-0.51-0.96c0.17-0.03,0.64-0.07,0.69-0.41c0.61-0.89-0.9,0.17-0.8-0.46l-0.58,0.66
			c0.28-0.5-0.76-0.08-0.08-0.65c-0.32,0.12-0.1-0.54-0.7,0.08c0.09-0.96-1.38-0.85-0.52-2.18c-0.17,0.03-0.22-0.24-0.51,0.09
			c-0.25,0.44,0.39-0.07,0.2,0.19c-0.08-0.04-0.26,0.1-0.35,0.18c0.01-0.28-0.05-0.44,0.59-0.78c0.09-0.68-1.38,0.65-1.51,0.01
			c0.28-0.22,0.34-0.34,0.19-0.43l-0.66,0.18c-0.14-0.36,0.45-0.7,0.88-1.11c-0.21-0.07-0.35-0.27-0.74-0.03L65,62.81
			c-0.28,0.49-0.37,0.13-0.54,0.16l0.17-0.03c0.16-0.2-0.11-0.26-0.24-0.29c-0.25,0.27-0.21,0.54-0.2,0.71
			c-0.26,0.11-0.32-0.05-0.64,0.06c0.46-0.37,0.09-0.52,0.03-0.67c-0.03-0.22-0.52,0.21-0.54,0.16c0.22-0.21-0.16-0.25,0.25-0.44
			c0.11-0.02-0.12,0.3,0.14,0.19c0.09-0.24,0.48-0.59,0.03-0.5c-0.34,0.06-0.82,0.82-0.78,0.32c0.17-0.03,0.35-0.18,0.55-0.27
			l0-0.45l-0.4,0.35c0.07-0.12,0.12-0.13,0.16-0.2c-0.48,0.31-0.46-0.25-0.98,0.13c-0.15-0.08,0.04-0.5-0.03-0.66l0.05-0.01
			c0.1-0.35-0.22-0.4-0.6-0.27l0.09-0.07c-0.04-0.1-0.27-0.23-0.59-0.11c0.11-0.47,1.41-1.45,0.72-1.2c-0.2-0.18-1,0.37-1.17,0.68
			c-0.07-0.6-1.07-0.38-0.78-1.28c-0.2,0.1-0.27,0.22-0.46,0.21c-0.33-0.66-1.47-0.62-1.11-1.75c0.3-0.01,0.39-0.37,0.61-0.58
			c-0.46,0.22,0.21-0.49-0.41,0.04c-0.33,0.35-0.51,0.5-0.51,0.78c-0.48-0.11-0.92-0.56-0.76-1.04c-0.08,0.24-0.24,0.28-0.41,0.32
			c0.57-0.52,0.43-0.82,0.07-0.79l-0.35,0.31l0.23-0.45c-0.17,0.04-0.76,0.63-0.61,0.15c0.12-0.14,0.24-0.28,0.3-0.4
			c-0.44,0.11-1.13,0.34-1.04-0.13l0.33-0.64c-0.13-0.02-0.55,0.14-0.55,0.42c-0.03-0.61-0.2-0.83,0.11-1.36
			c-1.55,0.53-2.37-0.18-2.95-0.83l0.26-0.24c0.05-0.4-0.5,0.38-0.46,0.09c0.28-0.2,0.35-0.66,0.76-0.84c0-0.5-0.73,0.16-1,0.14
			c-0.33,0.32,0.33-0.1-0.09,0.31c-0.14,0.1-0.1-0.58-0.6-0.09c0.12-0.26,0.5-0.6,0.73-0.79l-0.38,0.12
			c0.35-0.78,1.39-0.71,1.85-1.64l-0.21-0.05c0.34-0.67,0.93-0.27,0.73-0.79c-0.39,0.11-1.19,0.77-1.25,1.12
			c-0.46-0.14-1.24,1.13-1.55,0.79c0.17-0.39,0.34,0.16,0.65-0.33c0.2-0.57-0.54-0.04-0.56-0.32c-0.01,0.34-0.6,0.76-0.79,0.77
			c0.04-0.4,0.54-0.41,0.34-0.68c-0.3,0.27-0.73,0.31-0.71,0.69c-0.68,0.62-0.1-0.41-0.68,0.02c0.33-0.57,1.21-0.92,1.14-1.41
			c-0.35,0.51-0.88,0.36-1.31,1.19c0.01-0.23,0.3-0.61,0.62-0.84c0.09-0.43-1.09,0.57-0.37-0.42l-0.45,0.45
			c0.08-0.2,0.11-0.38,0.24-0.71c-0.13-0.12-0.98,0.32-0.38-0.42c-0.11,0.04-0.4-0.24-0.68,0.37c-0.05,0.47,0.52-0.2,0.08,0.59
			c0.31-0.68-0.34-0.15-0.6-0.04l0.21-0.31c-0.16,0.06-0.26-0.12-0.55,0.16c0.18-0.13,0.31-0.35,0.31-0.46l-0.41,0.39
			c-0.44,0.01,0.54-0.84,0.17-0.91l0.47-0.2c-0.1,0.04,0.12-0.45-0.12-0.4c-0.36,0.36-0.82,0.81-1.1,1.09
			c-0.28,0.07,0.28-0.51-0.19-0.2l0.56-0.35c0.13-0.11,0.37-0.78,0.16-0.92c-0.24,0.05-0.88,0.5-0.84,0.88
			c-0.11-0.07-0.07-0.43,0.23-0.67c-0.34-0.03-0.29,0.47-0.68,0.58c0.12-0.34,0.15-0.92,0.28-1.44l0.71-0.55l-0.14-0.11
			c0.58-0.43,0.21-0.5,0.73-1.01c-0.03-0.17-0.3-0.05-0.51,0.04c-0.37,1.15-1.23,1.09-1.74,2.02c-0.55-0.02,1.2-2.3-0.14-1.2
			c-0.09,0.27-0.72,0.82-0.31,0.73c-0.18-0.26-0.75,0.78-0.79,0.22c0.45-0.22,0.36-1.05,1.01-1.38c-0.21,0.28,0.03,0.34,0.13,0.29
			c0.12-0.41,0.61-0.88,0.35-1.05c-0.21-0.02-0.44-0.15-0.71,0.34c-0.32,0.51,0.27,0.1-0.16,0.55c-0.42-0.02,0.03-0.84-0.68-0.01
			c0.24,0.04-0.05,0.61-0.28,0.96l-0.35,0.07l0.26-0.31c-0.2-0.46-0.5,0.56-0.78,0.26l0.25-0.78c0.44-0.53,0.35,0.56,0.88-0.42
			c-0.21-0.18-0.58,0.26-0.65-0.11c0.1-0.05,0.18-0.04,0.28-0.09c-0.06-0.08,0.62-1.4-0.16-0.86c-0.34,0.19-0.25,0.31-0.47,0.67
			c-0.43-0.11-0.76,0.19-1.02,0.11c0.46-0.69-0.39-0.3,0.29-0.89c-0.11,0.48,0.44,0.76,0.97,0.17c0.36-0.91,0.22,0.29,0.81-0.5
			c-0.29-0.2,0.21-1.01,0.48-1.58c-0.07-0.09-0.28,0.09-0.39,0.14c-0.33,0.48-0.22,0.55-0.52,1.07c-0.26-0.34-0.75-0.27-1.23,0.14
			c0.03-0.31,0.35-0.81,0.52-0.78c-0.5-0.07-0.91-0.38-1.23-0.75c-0.19,0.99-0.54-0.04-0.73,0.77c0.11,0.3-0.03,1-0.34,1.32
			c-0.1-0.12,0.2-0.37,0.24-0.58c-0.4,0.38,0.13-0.88-0.41-0.23c0.51-0.08,0.6-1,1.01-1.63c-0.47,0.23,0.25-0.47-0.02-0.62
			c-0.47,0.24-0.96,0.37-1.34,0.38c-0.1-0.82-0.99-0.48-1.35-0.6c-0.04-0.42,0.42-1.16,0.26-1.37c-0.25-0.08-0.17,0.92-0.38,0.42
			l0.1-0.14c-0.18,0.14-0.46-0.8-1,0.3l0.44-0.81c-0.04-0.11-0.18,0.07-0.27,0.14c0.1-0.28,0.12-0.57,0.3-0.71
			c-0.01-0.68-0.52-0.09-0.77-0.17l-0.03,0.57c-0.56,0.23-0.67-0.34-1.15-0.3l0.18-0.5l-0.35,0.22c0.22-0.47,0.09-0.86-0.17-0.49
			L36.74,38c0.09,0.36-0.4,0.55-0.45,1.08c-0.05,0.47,0.38,0.45,0.62-0.01c-0.13-0.1-0.18,0.01-0.35,0.15
			c0.19-0.72,0.41-0.62,0.69-1.05c-0.09,0-0.13-0.25-0.23-0.03c0.27-0.29,0.46-0.3,0.73-0.22c-0.27,0.21-0.06,0.47-0.2,0.64
			c0.24-0.61,0.56-0.7,0.82-0.4c-0.04,0.79,0.78-0.22,1.08,0.13c-0.4,0.55-0.79,0.97-1.1,1.13c0.11,0.4,0.26,0.08,0.36,0.48
			c0.29-0.41,0.66-1.08,1.08-1.24l-0.17,0.46c0.37-0.13,0.66-0.78,0.95-0.5c0.5,0.49,1.1,0.77,1.52,1.04l-0.2,0.44
			c0.72-0.83,0.98,0.08,1.52-0.16c0.33,0.71,1.45,0.23,1.31,1.13c1.13,0.25,2.19,0.42,3.04,1.22l-0.55,0.48
			c0.46-0.32-0.11,0.41,0.11,0.44c0.12-0.6,0.64-0.46,1-0.74c0.12,0.74,1.01,0.6,1.66,0.48l-0.27,0.41
			c0.91-0.47,0.89,0.51,1.26,0.96c-0.07,0.2-0.26,0.63-0.09,0.68c0.72-0.44,0.81-0.29,1.47-0.4c0.26,0.21,0.57,0.7,0.64,1.14
			c1.67-0.06,2.21,1.3,3.61,1.67l-0.31,0.49c1.77-0.08,2.14,1.81,3.35,2.09l-0.75,0.63c0.04,0.44,0.73,0.34,1.15-0.22
			c0.03,0.45,0.93,0.25,0.52,0.97c0.12,0.37,0.62-0.03,0.91,0.08c0.23,0.74,0.46,0.87,1.04,1.2l-0.07-0.16
			c-0.2,0.1-0.5,0.39-0.44,0.55c0.36-0.02,0.43,0.81,1.1-0.17c0,0.96,1.51,0.77,1.32,1.88c0.19-0.26,0.35-0.18,0.56-0.28
			c0.43,0.43,0.39,1.33,1.11,1.3c-0.05,0.18-0.5,0.26-0.36,0.46c0.19,0.02,0.31-0.28,0.56-0.28c1.1,0.3,0.89,1.85,1.6,2.38
			c1.51,0.72,2.37,2.12,3.46,3.14l-0.18,0.15c0.99-0.24,0.12,1.48,1.38,0.85c-0.08,0.24,0.23,0.4-0.16,0.64
			c0.73-0.14,0.31,1.22,1.29,1.09c-0.02-0.05-0.07-0.04-0.19-0.02c0.01,0.78,0.88,0.67,0.95,1.43c-0.12,0.02-0.25-0.01-0.43,0.14
			c-0.17,0.48,1.1-0.26,0.36,0.6c0.1,0.09,0.48-0.31,0.4-0.35c0.58,1.28,2.08,1.83,3.21,2.68c0.18,1.19-1.36,1.34-0.2,1.34
			c-0.12,0.2,0.35-0.26,0.18-0.09c0.44,0.01-0.6,1.2-0.03,0.96c0.45-0.53,0.38-0.16,0.69-0.44c0.08,0.75-0.29,1.27,0.42,1.26
			l-0.29,0.22c1.14-0.29,1.18,0.57,2.37,0.11c2.27,2.13,4.77,3.86,6.92,5.99c1.86,2.35,4.24,4.13,5.84,6.79
			c-0.22,1.17-0.17,1.19,0.65,1.5c-0.14,0.08-0.2,0.07-0.27,0.21c0.6-0.51,0.43,0.35,1.03-0.1c0.66,0.92,1.52,1.54,2.3,2.38
			c-0.19-0.08-0.72,0.29-0.53,0.42l0.52-0.18l-0.14,0.18c0.19,0.03,0.58-0.12,0.66-0.4c2.47,1.67,3.25,4.83,5.32,6.79
			c0.22,0.72,1.09,1.22,1.71,1.65c0.71,2.31,1.41,4.32,3.45,5.44C108.56,102.74,106.87,103.91,105.91,103.56z"/>
		<path class="st0" d="M35.88,37.34c-0.04,0.4,0.14,0.69-0.2,1.12C35.76,38.1,35.75,37.66,35.88,37.34z"/>
		<path class="st0" d="M40.54,43.54c0.06-0.1,0.01,0.19,0,0.25c-0.08-0.01-0.29,0.25-0.26,0.04C40.36,43.84,40.43,43.67,40.54,43.54
			z"/>
		<path class="st0" d="M41.86,44.51c-0.19,0.29-0.62,0.38-0.82,0.32L41.86,44.51z"/>
		<path class="st0" d="M42.43,46.5c-0.04,0.32-0.16,0.44-0.3,0.34C42.22,46.68,42.31,46.63,42.43,46.5z"/>
		<path class="st0" d="M42.92,45.87c0.11,0.06,0.06,0.26,0,0.47C43.08,46.08,42.59,46.35,42.92,45.87z"/>
		<path class="st0" d="M45.08,48.46c0.08,0.02,0.39-0.13,0.22,0.23C45.39,48.43,44.74,48.85,45.08,48.46z"/>
		<path class="st0" d="M46.61,48.91c0.03,0.05,0,0.11,0.11,0.07c-0.02,0.18-0.25,0.33-0.33,0.31L46.61,48.91z"/>
		<polygon class="st0" points="68.19,67.99 67.95,67.98 68.22,67.76 		"/>
		<path class="st0" d="M76.99,77.47c0.28-0.02-0.16,0.31-0.18,0.37C76.68,77.75,77.17,77.59,76.99,77.47z"/>
		<polygon class="st0" points="83.01,81.41 82.97,81.38 83.51,80.9 		"/>
	</g>
	<g>
		<path class="st0" d="M33.77,101.83c-0.16,0.35,0.54,0.34,0.01,0.36C33.63,101.95,33.54,101.74,33.77,101.83z"/>
		<path class="st0" d="M104.99,40.62c0.35,2.12-1.98,1.69-2.15,3.38c-0.06,0.15-0.63-0.78-0.72-0.39c0.03,1.86-1.95,2.45-3.77,2.58
			l-0.12-0.27c-0.34,0.03,0.02,0.96-0.29,1.05c-0.12-0.14-0.1-0.26-0.33-0.42c0.32,0.48-0.23,0.55-0.05,0.95
			c-0.23-0.09-0.52-0.44-0.8-0.53l0.3,0.6c0.65,1.47-0.93,0.66-0.89,1.68c-0.07-0.13-0.1-0.26-0.24-0.34
			c-0.16,1.38-1.25,2.08-1.89,3.09c-0.11-0.2-0.35-0.54-0.57-0.69c0.4,0.55,0.25,0.91,0.1,1.21c-0.56-0.44,0.02,0.83-0.51,0.77
			L93,53.16c0.28,0.73-0.57-0.06-0.16,0.74l-0.49-0.3c0.56,0.82-0.63-0.13-0.46,0.39l0.14,0.15c0,0.32-0.41,0.01-0.44,0.27
			l-0.09-0.07c-0.17,0.49-0.73,0.25-0.22,0.82c-0.52-0.36,0.15-0.5-0.63-1.01c-0.6,1.57-1.86,2.45-2.97,3.44
			c-0.33-0.12-0.47-0.12-0.69-0.32c-0.01,0.22-0.33,0.48-0.17,0.86c0.03-0.05-0.33-0.23-0.41-0.21c-0.4-0.04,0.33,0.83-0.12,0.77
			c-0.04-0.23-0.18-0.45-0.39-0.64c0.2,0.62-0.12,0.77-0.22,1.11c-0.05-0.13-0.05-0.23-0.21-0.41c0.2,0.73-0.55,0.28-0.48,0.8
			l-0.21-0.41c-0.7-0.1,0.5,0.79-0.01,0.81c-0.02-0.17-0.16-0.28-0.26-0.43c0.25,0.85-0.39,1.05-0.49,1.5
			c-0.02-0.06-0.11-0.15-0.11-0.15c-0.24,0.34-0.73,0.43-0.83,0.99c-0.25-0.04-0.67-0.85-0.89-0.45c0.6,0.66-0.31,0.75,0.54,1.35
			c-0.37,0.13-1.03,0.26-1.02,0.65c-0.1-0.36-0.85-0.7-0.67-0.96l-0.53-0.26c-0.21-0.3,0.26-0.06-0.1-0.36
			c-0.09,0.13-0.2,0.69-0.4,0.67c0.14,0.6,0.61,1.54,0.34,1.93c-0.06-0.4-0.74-0.66-0.73-0.87l0.63,1.71
			c-0.09,0.13-0.48-0.51-0.5-0.19c0.16,0.17,0.19,0.34,0.26,0.53c-0.11-0.04-0.34,0.58-0.96-0.04c-0.27-0.21,0.07-0.3-0.26-0.43
			c-0.21,0.19-0.02,0.43-0.22,0.62l-0.08-0.08c-0.23,0.02-0.17,0.64,0.3,0.88c0.11-0.07-0.38-0.37-0.07-0.3
			c0.23,0.47,0.08,0.79-0.13,0.98c-0.02-0.17-0.18-0.34-0.31-0.55c0.17,0.77,0,1.2-0.13,1.69c0.27,0.32-0.38-0.68-0.19-0.55
			c-0.79-0.08-0.31,1.35-1.2,1.01c0.01-0.1,0.42,0.42,0.34,0.34c-0.23,0.13-0.62-0.33-0.6-0.05c-0.24-0.26-0.09,0.23-0.15,0.42
			c0.1,0.25-0.15-0.1-0.06-0.23c0.01,0.39-0.37,1.44-1.13,1.42c0.16,0.17,0.3,0.88,0.19,0.94l-0.32-0.45
			c-0.3-0.17-0.3,0.32-0.62-0.02c0.23,0.68,0.44-1.13,0.49-0.49c-0.37-0.28,0.18,1-0.25,0.39c-0.18,0.19,0.03,0.82-0.49,0.59
			c0.11,0.02-0.34-0.71-0.47-0.55c-0.22,0.32,0.09,0.27-0.02,0.6l0.01,0.29c0.34,0.41-0.3,0.16,0.2,0.52
			c-0.32-0.3-0.23,0.56-0.78-0.14l-0.42-0.56c-0.09,0.14,0.28,0.73,0.39,1.04c-0.06-0.03-0.18-0.11-0.25-0.2
			c0.68,0.82-0.35,0.18,0.05,0.93c-0.5-0.06-0.67,0.53-1.22,0.14c0.02,0.41,0.09,0.86-0.28,0.88c-0.02-0.11,0.02-0.19-0.12-0.37
			c-0.35-0.12-0.2,0.13-0.21,0.37c-0.08-0.15-0.69-0.23-1.09-0.38c0.02,0.41,0.46,0.79,0.67,1.07c-0.87-0.64-0.1,0.99-0.95,0.46
			c-0.03-0.17-0.06-0.64-0.39-0.7c-0.87-0.64,0.15,0.9-0.47,0.76l0.64,0.6c-0.48-0.3-0.09,0.75-0.64,0.05
			c0.11,0.32-0.53,0.07,0.06,0.69c-0.94-0.14-0.86,1.32-2.15,0.41c0.03,0.17-0.24,0.2,0.08,0.5c0.42,0.26-0.07-0.39,0.19-0.18
			c-0.04,0.07,0.1,0.26,0.17,0.35c-0.27-0.02-0.43,0.03-0.76-0.62c-0.67-0.12,0.62,1.39-0.02,1.49c-0.21-0.28-0.33-0.36-0.41-0.21
			l0.17,0.66c-0.36,0.13-0.68-0.48-1.08-0.92c-0.08,0.2-0.27,0.33-0.04,0.72L64.33,79c0.48,0.3,0.12,0.37,0.15,0.54l-0.03-0.17
			c-0.19-0.17-0.26,0.09-0.29,0.22c0.26,0.26,0.53,0.23,0.69,0.23c0.1,0.26-0.05,0.31,0.05,0.63c-0.35-0.47-0.51-0.11-0.66-0.06
			c-0.21,0.02,0.2,0.52,0.15,0.54c-0.2-0.23-0.25,0.15-0.42-0.26c-0.02-0.11,0.29,0.14,0.19-0.13c-0.23-0.1-0.57-0.5-0.5-0.06
			c0.06,0.34,0.79,0.84,0.3,0.79c-0.03-0.17-0.17-0.36-0.26-0.56l-0.44-0.02l0.34,0.41c-0.12-0.07-0.13-0.13-0.19-0.17
			c0.3,0.49-0.25,0.45,0.11,0.97c-0.08,0.15-0.5-0.06-0.65-0.01l-0.01-0.05c-0.35-0.12-0.4,0.2-0.28,0.58l-0.07-0.09
			c-0.1,0.03-0.23,0.26-0.12,0.58c-0.46-0.14-1.39-1.47-1.16-0.77c-0.18,0.18,0.33,1.01,0.64,1.2c-0.59,0.03-0.42,1.04-1.29,0.7
			c0.09,0.21,0.21,0.28,0.19,0.47c-0.66,0.29-0.68,1.43-1.78,0.99c0-0.3-0.34-0.41-0.54-0.64c0.19,0.47-0.47-0.25,0.02,0.41
			c0.33,0.35,0.47,0.54,0.74,0.56c-0.14,0.46-0.61,0.87-1.08,0.68c0.23,0.09,0.26,0.26,0.29,0.43c-0.48-0.6-0.79-0.49-0.78-0.14
			l0.28,0.38l-0.43-0.27c0.03,0.17,0.57,0.81,0.11,0.62c-0.13-0.13-0.26-0.26-0.38-0.34c0.07,0.45,0.25,1.16-0.21,1.02l-0.61-0.38
			c-0.03,0.13,0.1,0.56,0.37,0.58c-0.6-0.02-0.85,0.12-1.34-0.24c0.38,1.58-0.41,2.35-1.14,2.84l-0.21-0.28
			c-0.39-0.09,0.31,0.54,0.03,0.47c-0.16-0.3-0.61-0.43-0.74-0.86c-0.5-0.06,0.07,0.74,0.01,1.01c0.28,0.37-0.06-0.34,0.29,0.13
			c0.08,0.15-0.59,0.03-0.17,0.59c-0.24-0.15-0.53-0.58-0.68-0.83l0.07,0.39c-0.72-0.45-0.52-1.48-1.38-2.06l-0.07,0.21
			c-0.61-0.43-0.16-0.95-0.68-0.83c0.07,0.4,0.6,1.28,0.94,1.39c-0.2,0.43,0.94,1.39,0.55,1.65c-0.36-0.23,0.22-0.32-0.23-0.69
			c-0.53-0.28-0.12,0.52-0.4,0.5c0.33,0.06,0.66,0.71,0.64,0.9c-0.39-0.1-0.32-0.6-0.62-0.44c0.22,0.34,0.19,0.77,0.57,0.81
			c0.51,0.77-0.43,0.04-0.1,0.69c-0.5-0.42-0.71-1.35-1.2-1.35c0.45,0.43,0.21,0.93,0.96,1.5c-0.22-0.04-0.55-0.4-0.72-0.75
			c-0.4-0.15,0.36,1.18-0.49,0.3l0.36,0.52c-0.18-0.11-0.36-0.17-0.66-0.36c-0.14,0.11,0.12,1.03-0.49,0.3
			c0.02,0.11-0.32,0.35,0.23,0.74c0.46,0.14-0.09-0.56,0.6,0.02c-0.61-0.43-0.22,0.32-0.17,0.6L50.26,95
			c0.03,0.17-0.18,0.24,0.04,0.58c-0.09-0.2-0.28-0.37-0.39-0.39l0.3,0.49c-0.09,0.45-0.71-0.69-0.87-0.34l-0.09-0.5
			c0.02,0.11-0.42-0.21-0.43,0.03c0.29,0.43,0.6,0.98,0.82,1.31c0,0.3-0.45-0.38-0.25,0.15l-0.21-0.63
			c-0.08-0.15-0.68-0.53-0.87-0.35c-0.01,0.24,0.28,0.97,0.66,1.01c-0.09,0.09-0.44-0.02-0.61-0.37c-0.11,0.33,0.39,0.39,0.41,0.8
			c-0.3-0.19-0.87-0.34-1.35-0.59l-0.36-0.83l-0.14,0.11c-0.28-0.67-0.43-0.32-0.81-0.95c-0.17-0.01-0.12,0.28-0.08,0.5
			c1.03,0.64,0.74,1.46,1.51,2.19c-0.18,0.54-1.92-1.75-1.22-0.16c0.24,0.15,0.59,0.92,0.62,0.49c-0.3,0.11,0.54,0.94-0.02,0.84
			c-0.09-0.5-0.92-0.62-1.04-1.35c0.21,0.28,0.34,0.06,0.32-0.05c-0.36-0.23-0.68-0.82-0.92-0.62c-0.08,0.2-0.26,0.39,0.13,0.78
			c0.4,0.45,0.18-0.24,0.49,0.3c-0.15,0.41-0.8-0.25-0.21,0.67c0.12-0.22,0.58,0.21,0.85,0.53l-0.04,0.37l-0.22-0.34
			c-0.53,0.07,0.38,0.64-0.02,0.84l-0.68-0.47c-0.37-0.59,0.67-0.18-0.12-0.98c-0.24,0.15,0.06,0.64-0.33,0.6
			c-0.02-0.11,0.02-0.19,0-0.3c-0.1,0.04-1.15-1.02-0.88-0.1c0.06,0.39,0.22,0.34,0.49,0.66c-0.26,0.39-0.08,0.8-0.26,1.04
			c-0.49-0.66-0.44,0.28-0.74-0.56c0.42,0.26,0.89-0.2,0.5-0.89c-0.76-0.62,0.36-0.13-0.21-0.93c-0.29,0.22-0.9-0.51-1.35-0.94
			c-0.1,0.03-0.01,0.3,0.01,0.41c0.35,0.47,0.45,0.38,0.85,0.83c-0.41,0.14-0.49,0.64-0.28,1.22c-0.29-0.13-0.64-0.6-0.56-0.75
			c-0.25,0.45-0.69,0.72-1.15,0.89c0.85,0.53-0.24,0.5,0.44,0.97c0.33,0,0.93,0.38,1.11,0.79c-0.16,0.05-0.27-0.32-0.45-0.43
			c0.2,0.52-0.78-0.44-0.38,0.31c0.13-0.52-0.7-0.94-1.13-1.56c0.04,0.53-0.34-0.41-0.58-0.21c0.04,0.52-0.04,1.02-0.2,1.37
			c-0.8-0.25-0.85,0.72-1.13,1c-0.4-0.15-0.85-0.88-1.12-0.85c-0.19,0.18,0.75,0.56,0.2,0.53l-0.08-0.15
			c0.04,0.22-0.91,0.03-0.2,1.03l-0.51-0.77c-0.11-0.02-0.02,0.19,0,0.3c-0.2-0.22-0.44-0.37-0.48-0.6c-0.6-0.32-0.31,0.41-0.49,0.6
			l0.48,0.3c-0.06,0.61-0.64,0.4-0.84,0.83l-0.34-0.41l0.02,0.41c-0.29-0.43-0.69-0.53-0.51-0.11l-0.35-1.42
			c0.35,0.12,0.27,0.62,0.7,0.94c0.38,0.28,0.58-0.09,0.29-0.52c-0.15,0.06-0.08,0.15-0.05,0.37c-0.52-0.53-0.33-0.66-0.57-1.11
			c-0.04,0.08-0.27-0.02-0.13,0.17c-0.12-0.38-0.04-0.52,0.15-0.71c0.06,0.34,0.37,0.28,0.46,0.49c-0.41-0.51-0.35-0.82,0.01-0.9
			c0.67,0.42,0.14-0.76,0.56-0.85c0.32,0.6,0.52,1.13,0.52,1.48c0.39,0.1,0.19-0.19,0.58-0.09c-0.24-0.45-0.67-1.07-0.63-1.5
			l0.33,0.36c0.05-0.37-0.43-0.92-0.07-1.04c0.61-0.22,1.09-0.63,1.48-0.88l0.33,0.36c-0.49-0.95,0.4-0.85,0.36-1.43
			c0.75-0.03,0.66-1.19,1.44-0.75c0.54-0.96,0.99-1.84,1.92-2.41l0.33,0.65c-0.19-0.52,0.36,0.23,0.44,0.02
			c-0.53-0.28-0.28-0.73-0.47-1.14c0.72,0.1,0.79-0.76,0.79-1.41l0.33,0.36c-0.27-0.97,0.64-0.7,1.14-0.94
			c0.18,0.11,0.55,0.39,0.64,0.25c-0.3-0.79-0.14-0.84-0.15-1.49c0.24-0.2,0.74-0.39,1.18-0.36c0.16-1.6,1.53-1.85,2.01-3.15
			l0.44,0.37c0.09-1.7,1.91-1.81,2.26-2.94l0.57,0.8c0.44,0.02,0.38-0.66-0.14-1.14c0.44,0.02,0.29-0.88,0.97-0.4
			c0.36-0.08,0-0.6,0.12-0.88c0.73-0.14,0.86-0.37,1.2-0.9l-0.15,0.05c0.09,0.21,0.36,0.52,0.51,0.47
			c-0.01-0.36,0.81-0.35-0.13-1.08c0.93,0.08,0.79-1.41,1.86-1.14c-0.25-0.21-0.17-0.36-0.26-0.56c0.42-0.39,1.3-0.29,1.29-1
			c0.17,0.06,0.25,0.51,0.44,0.38c0.02-0.18-0.27-0.32-0.26-0.56c0.31-1.06,1.82-0.77,2.35-1.43c0.73-1.45,2.11-2.24,3.13-3.25
			l0.14,0.19c-0.22-0.99,1.45-0.05,0.86-1.32c0.23,0.09,0.4-0.2,0.63,0.19c-0.13-0.73,1.2-0.25,1.09-1.22
			c-0.05,0.02-0.04,0.07-0.02,0.19c0.76,0.03,0.67-0.83,1.42-0.86c0.02,0.12-0.01,0.24,0.13,0.43c0.47,0.19-0.24-1.1,0.59-0.33
			c0.09-0.09-0.3-0.49-0.34-0.41c1.26-0.51,1.83-1.96,2.68-3.04c1.17-0.12,1.29,1.4,1.31,0.26c0.19,0.12-0.25-0.36-0.09-0.19
			c0.01-0.43,1.17,0.65,0.94,0.07c-0.52-0.47-0.15-0.38-0.42-0.71c0.74-0.05,1.24,0.35,1.24-0.35l0.21,0.3
			c-0.26-1.14,0.58-1.13,0.14-2.33c2.13-2.13,3.87-4.52,5.99-6.54c2.34-1.72,4.13-3.99,6.76-5.43c1.15,0.27,1.17,0.22,1.49-0.57
			c0.08,0.14,0.07,0.2,0.2,0.27c-0.49-0.62,0.35-0.41-0.08-1.02c0.92-0.6,1.53-1.42,2.37-2.16c-0.08,0.18,0.28,0.72,0.4,0.55
			l-0.16-0.52l0.17,0.14c0.03-0.18-0.1-0.58-0.38-0.67c1.68-2.35,4.8-2.97,6.75-4.92c0.71-0.18,1.21-1.02,1.65-1.6
			c2.28-0.59,4.26-1.19,5.4-3.14C104.22,37.96,105.34,39.68,104.99,40.62z"/>
		<path class="st0" d="M34.04,101.5c0.31,0.25,0.64,0.25,0.84,0.77C34.62,102.01,34.25,101.78,34.04,101.5z"/>
		<path class="st0" d="M41.63,100.28c-0.07-0.09,0.17,0.06,0.23,0.09c-0.04,0.08,0.12,0.37-0.06,0.26
			C41.84,100.56,41.71,100.43,41.63,100.28z"/>
		<path class="st0" d="M43.04,99.36c0.21,0.28,0.12,0.73-0.01,0.9L43.04,99.36z"/>
		<path class="st0" d="M45.17,99.43c0.29,0.14,0.37,0.28,0.23,0.39C45.27,99.69,45.25,99.58,45.17,99.43z"/>
		<path class="st0" d="M44.73,98.76c0.09-0.09,0.28,0.02,0.45,0.13C44.98,98.67,45.08,99.23,44.73,98.76z"/>
		<path class="st0" d="M47.95,97.31c0.04-0.07-0.01-0.41,0.3-0.16C48,97,48.24,97.74,47.95,97.31z"/>
		<path class="st0" d="M48.79,95.88c0.05-0.02,0.11,0.02,0.09-0.09c0.17,0.06,0.27,0.32,0.23,0.39L48.79,95.88z"/>
		<polygon class="st0" points="69.46,76.09 69.45,76.34 69.24,76.06 		"/>
		<path class="st0" d="M78.91,67.87c-0.02-0.28,0.3,0.17,0.36,0.19C79.18,68.19,79.03,67.7,78.91,67.87z"/>
		<polygon class="st0" points="82.87,62.13 82.84,62.17 82.38,61.61 		"/>
	</g>
</g>
</svg>
