<?xml version="1.0" encoding="utf-8"?>
<!-- Generator: Adobe Illustrator 23.0.0, SVG Export Plug-In . SVG Version: 6.00 Build 0)  -->
<svg version="1.1" id="图层_1" xmlns="http://www.w3.org/2000/svg" xmlns:xlink="http://www.w3.org/1999/xlink" x="0px" y="0px"
	 viewBox="0 0 141.73 141.73" style="enable-background:new 0 0 141.73 141.73;" xml:space="preserve">
<style type="text/css">
	.st0{fill:#E68915;}
</style>
<g>
	<g>
		<path class="st0" d="M41.29,17.73c0.75-0.66-0.61,0.07,0.44-0.5C41.7,17.43,41.61,17.63,41.29,17.73z"/>
		<path class="st0" d="M44.52,15.41c1.17-1.21,2.86-2.11,4.63-2.88c1.77-0.78,3.62-1.43,5.22-2.3c0.38-0.18,0.06,0.5,0.92,0.09
			c1.52-0.88,3.68-1.58,6-1.89c2.32-0.27,4.77-0.21,6.87-0.02l-0.25,0.15c0.8,0.07,1.76-0.42,2.61-0.35
			c0.01,0.09-0.27,0.13-0.08,0.26c0.21-0.29,1.53-0.12,1.9-0.31c0.33,0.12,0.29,0.34,0.71,0.49l0.5-0.3
			c1.41-0.68,3.27,0.29,5.12,0.28c-0.1,0.06-0.29,0.08-0.16,0.18c3.01,0.05,6.58,1.33,9.62,2.74c-0.17,0.04-0.38,0.17-0.26,0.37
			c0.31-0.25,1.25,0.19,2.06,0.58c0.18,0.48,1.48,0.54,2.26,1.29l-0.12,0.01c0.87,0.12,0.81,0.85,1.59,0.87l0.23,0.52
			c0.59-0.19,0.72,0.9,1.37,1.12l0.05-0.09c0.54,0.31,0.64,0.68,1.1,1l0,0.08c1.05,0.8,1.42,1.52,1.66,1.23
			c0.12,0.54-1.02-0.78-0.81,0.04c3.37,2.71,6.13,6.31,8.42,10c0.13,0.5,0.26,0.79,0.19,0.96c0.29,0.33,0.84,1.39,1.21,1.64
			c-0.08-0.12-0.04,0.34,0.05,0.55c0.25,0.76,0.78,0.56,1.05,1.41c-0.26-0.26-0.42-0.3-0.49-0.14c0.65,0.5,0.98,1.44,1.42,2.2
			c-0.11-0.1-0.23-0.28-0.33-0.2c0.69,0.74,0.62,1.63,1.15,2.31l-0.33-0.21c0.27,1.33,0.62,0.19,0.84,1.35
			c-0.15-0.24-0.2-0.12-0.3-0.14c0.72,0.9,1.14,2.63,1.61,3.62c-0.05-0.05-0.1-0.02-0.1-0.02c0.32,1.15,0.46,2.39,0.92,3.63
			c-0.01,0.49-0.52-0.06-0.26,1.16c0.43-0.12,0.44,2.09,0.85,1.28c0.03,0.54,0.07,1.24,0.1,1.89c0.08,0.65,0.02,1.26,0.12,1.61
			c-0.18-0.47-0.53,0.55-0.59-0.34l-0.26,0.68c-0.18-0.09,0.05-0.69-0.18-0.46c0.03,0.44,0.23,1.72,0.17,2.11
			c0.14,0.41,0.37,0.81,0.51,1.27c0.13,0.46,0.23,1,0.21,1.67c-0.12-0.64-0.52,0.32-0.56-0.11l0.7,1.95
			c-0.03,0.45-0.32,0.06-0.32,0.71c0.12-0.02,0.14,0.27,0.2,0.48c-0.08,0.16-0.23,1.88-0.7,1.98c-0.2,0.16,0.04-0.73-0.2-0.28
			c-0.15,0.81,0.01,0.88-0.16,1.69l-0.06,0c-0.22,0.5-0.27,1.59,0.13,1.09c0.12-0.36-0.3,0.07-0.01-0.44
			c0.14,0.43-0.07,1.39-0.3,2.2c0.01-0.3-0.11-0.3-0.19-0.44c0,0.58-0.03,1.19-0.16,1.78c-0.14,0.58-0.32,1.18-0.49,1.79
			c0.19,0.1-0.17-0.58,0-0.71c-0.44,0.69-0.66,1.5-0.89,2.28c-0.24,0.77-0.59,1.46-1.08,1.96c0.07-0.21,0.32,0.03,0.26,0.02
			c-0.39,0.68-0.64,0.5-0.78,1c-0.18-0.04-0.25,0.59-0.45,1.08c-0.05,0.29-0.13,0.08,0.06-0.33c-0.08,0.37-0.54,1.16-1.07,2.05
			c-0.56,0.87-1.13,1.89-1.82,2.42c0.12,0.04-0.33,1.06-0.59,1.36l-0.11-0.29c-0.35,0.17-0.82,1.01-1.04,0.91
			c-0.28,0.85,1.82-2.62,1.3-1.6c-0.36,0.08-0.66,1.47-0.8,1.05c-0.5,0.58-0.71,1.42-1.45,1.75c0.19-0.12,0.17-0.7-0.26-0.25
			c-0.75,0.8-0.13,0.31-0.7,1l-0.32,0.47c0.16,0.22-0.73,0.66-0.23,0.59c-0.25-0.07-1.06,1.23-1.28,0.82l-0.12-0.37
			c-0.31,0.36-0.35,0.77-0.53,1.14c-0.07,0.02-0.21,0.04-0.23-0.02c0.28,0.46-0.92,0.68-1.1,1.36c-0.45,0.24-0.95,0.64-1.41,0.98
			c-0.47,0.33-0.93,0.55-1.21,0.55c-0.55,0.55-1.03,1.1-1.83,1.49c0.12-0.14,0.31-0.28,0.29-0.41c-0.54,0.17-0.58,0.36-0.96,0.71
			c0.03-0.07-0.24,0.02-0.6,0.14c-0.36,0.1-0.82,0.22-1.13,0.28c-0.59,0.5-0.22,0.63-0.2,0.82c-0.86-0.13-1.74,1.33-2.73,1.32
			c0.2-0.19,0.86-0.76,0.25-0.58c-0.83-0.13-1.1,0.93-2.23,1.17l0.43,0.29c-0.57-0.05-1.42,0.9-1.49,0.44c-0.29,0.3-1.27,0.4-1,0.74
			c-0.94,0.14-1.99,0.54-2.97,0.88c-0.49,0.17-0.97,0.32-1.4,0.4c-0.44,0.05-0.84,0.03-1.16-0.08c-0.24,0.13-0.9,0.22-0.71,0.4
			c0.49,0.13,0.55-0.31,0.76-0.19c-0.23,0.07-0.25,0.19-0.26,0.26c-0.59,0.04-1.03,0.12-0.59-0.35c-1.29,0.03-1.11,1.06-2.75,1.2
			c0.04-0.18-0.09-0.23-0.56-0.13l-0.85,0.43c-1.06,0.09-0.65-0.31-0.72-0.6c-0.55,0.13-1.22,0.22-1.45,0.48
			c-0.24-0.08-0.48-0.19-0.71-0.31c0.52,0.24-0.44,0.21-0.7,0.29l0.26-0.09c-0.11-0.12-0.75-0.01-1.08,0.05
			c0.09,0.18,0.76,0.22,1.13,0.25c-0.28,0.15-0.73,0.14-1.1,0.32c0.11-0.3-0.93-0.16-1.38-0.16c-0.51-0.03-0.57,0.29-0.73,0.29
			c-0.02-0.13-0.84-0.03-0.44-0.23c0.17-0.03,0.4,0.14,0.69-0.01c-0.34-0.1-0.3-0.33-1-0.17c-0.53,0.12,0.13,0.58-0.87,0.36
			c0.27-0.06,0.32-0.18,0.52-0.28l-0.94-0.19l-0.05,0.27c-0.13-0.07-0.04-0.09-0.09-0.13c-0.29,0.27-1.44,0.03-1.68,0.34
			c-0.48,0.03-0.99-0.25-1.44-0.35l0.09-0.01c-0.54-0.23-1.28-0.23-1.77-0.12l0.03-0.05c-0.3-0.06-1.02-0.12-1.43-0.02
			c-0.73-0.31-0.06-1.03-0.95-0.89c-0.75-0.17-1.29,0.19-1.02,0.43c-0.66-0.26-1.41-0.37-2.14-0.52c-0.73-0.14-1.41-0.44-1.96-0.84
			c-0.23,0.03-0.13,0.14-0.55,0.06c-1.94-0.7-4.17-1.47-5.42-2.63c0.59,0.16,0.16-0.22,0.23-0.36c-0.56,0-0.38-0.52-0.74-0.24
			c-0.08,0.23-0.18,0.32,0.27,0.7c-1.12-0.53-2.73-1.55-3.18-2.1c0.23,0.27-0.04,0.19-0.31,0.11c0.15-0.14,0.03-0.33-0.19-0.54
			c-0.21-0.22-0.54-0.45-0.85-0.61l-0.22,0.13l-0.21-0.47c-0.25-0.1-0.53,0.21-0.93-0.4c0.03-0.09,0.06-0.19,0-0.32
			c-0.68-0.29-1.71-0.66-2.1-1.38l-0.22-0.69c-0.26-0.2-0.8-0.45-0.46,0.03c-0.8-1.08-1.39-1.69-1.47-2.18
			c-0.99-0.62-2.02-1.58-3.02-2.65c-0.52-0.51-0.92-1.13-1.33-1.72c-0.4-0.6-0.79-1.19-1.14-1.75l0.19-0.03
			c-0.25-0.68-0.46-0.15-0.64-0.63c0.27,0.1,0.01-0.64,0.5-0.28c-0.41-0.92-0.93-0.98-1.34-1.52c-0.25,0.02,0.39,0.41,0.07,0.43
			c-0.06-0.03-0.2-0.37-0.37-0.7c-0.15-0.33-0.33-0.66-0.52-0.65c0.01-0.3,0.33-0.22,0.52-0.16l-0.43-0.49
			c0.04-0.85,1.41,1.24,1.51,0.3l-0.29-0.48c0.1-0.63,1.01,1.14,0.52-0.17c-0.42-0.46-1.11-0.73-1.01-0.17
			c-0.62-1.13-1-0.21-1.53-1.51c0.04-0.43,0.48,1.02,0.64,0.66c0-0.71-0.65-1.15-0.75-1.74c0.1,0.65-0.42,0.27-0.63-0.11
			c-0.09-0.73,0.47,0.32,0.16-0.64c-0.25-0.09-0.67-0.93-0.56-0.12c-0.55-0.21-0.2-1.04-0.7-1.47c0.21-0.4,1.02,0.77,0.84-0.33
			c-0.26,0.26-0.77-1.19-1.06-0.5c-0.03-0.45,0.19-0.55,0.46-0.3c0.02-0.64-0.94-1.31-0.38-1.66l-0.36-0.13
			c0.06-0.21,0.07-0.5,0.17-0.84c-0.13-0.52-0.76-1.63-0.29-1.67c-0.09-0.16-0.28-1.38-0.53-0.85c-0.06,0.8,0.4,0.83,0.04,1.33
			c0.26-0.61-0.27-1.09-0.45-1.51l0.17-0.1c-0.11-0.25-0.16-0.86-0.39-1c0.14,0.19,0.24,0.06,0.26-0.15l-0.32-0.24
			c-0.29-1.06,0.45-0.32,0.25-1.35l0.31,0.76c-0.07-0.17,0.15-0.55,0.01-1.04c-0.28-0.16-0.63-0.49-0.84-0.64
			c-0.17-0.58,0.26-0.29-0.05-0.85l0.37,0.73c0.09,0.11,0.38-0.55,0.31-1.33c-0.13-0.49-0.56-1.25-0.64-0.44
			c-0.04-0.4,0.09-0.96,0.29-0.66c-0.13-0.89-0.27,0.14-0.46-0.63c0.16-0.33,0.34-1.32,0.6-1.92c0.15,0.26,0.29,0.53,0.45,0.79
			c-0.01-0.18-0.01-0.35-0.01-0.53c0.35,0.67,0.26-0.35,0.62,0.02c0.05-0.36-0.07-0.79-0.17-1.14c-0.57,1.06-0.81-1.18-1.33-0.88
			c-0.1-1.48,1.3-0.88,0.53-2.43c-0.15,0.24-0.52-0.49-0.41,0.44c0.1-0.91-0.5-0.65-0.22-1.72c0.17,0.81,0.59-0.82,0.83,0.35
			c-0.17-0.09-0.17,0.63-0.13,0.81c0.23-0.36,0.53,0.1,0.58-0.82c-0.02-0.56,0.03-1.33-0.25-1.24c-0.31,0-0.03,0.86-0.31,0.48
			c-0.01-1.14,0.48-1.28-0.02-1.8c-0.03,0.72-0.35,0.87-0.56,0.83l-0.05-0.85l0.18,0.18c0.28-1.32-0.34-0.44-0.11-1.73l0.48-0.55
			c0.3,0.35-0.4,1.86,0.19,1.69c0.12-0.83-0.12-1.14,0.13-1.91c0.02,0.18,0.01,0.42,0.03,0.6c0.07-0.3,0.8-0.49,0.59-1.73
			c-0.06-0.64-0.17-0.19-0.37-0.24c0.16-1.34,0.04-1.78,0.19-2.65c0.36,0.26,0.36-1.5,0.57-0.47c-0.33,0.38-0.71,2.31-0.39,2.85
			c0.56-0.4-0.25,1.03,0.19,1.39c0.18-1.06,0.65-0.92,0.98-1.04c0.07-0.28-0.01-0.59-0.03-0.77c-0.27-0.18-0.33,0.2-0.63,0.17
			c0.28-1.16,0.38-2.31,0.24-3.03c0.24-0.36,0.49-0.16,0.41,0.3c0.13-0.7,0.3-1.41,0.49-2.11c0.21-0.69,0.46-1.37,0.69-2
			c-0.73,0.69,0.38-1.47-0.19-1.03c-0.35,0.65-0.86,1.16-0.94,0.7c0.17-0.43,0.19,0.08,0.35-0.07c-0.05-0.64,0.7-0.72,0.5-1.4
			c-0.29,1.3,0.47,0.43,0.74,0.79c0.11-0.95,0.24,0.13,0.54-0.74c0.14-0.93,0.39-2.07,0.76-3.05c0.85-1.04,1.44-2.98,2.06-3.99
			c0.48-0.43,0.63,0.15,1.03-0.38c0.39-0.66-0.69,0.24,0.08-0.62l0.01,0.14c0.12-0.34,1.38-1.58,1.13-2.19l0.15,0.55
			c0.16-0.14,0.2-0.36,0.27-0.53c0.13,0.08,0.38-0.03,0.25,0.3c0.67-0.36,0.84-1.2,1.35-1.77l-0.53,0.19
			c0.35-0.56,0.72-0.97,1.1-1.35c0.4-0.36,0.81-0.71,1.23-1.2l0.16,0.22c0.14-0.22,0.29-0.42,0.44-0.63
			c0.04,0.31,0.66-0.01,0.82-0.44c-0.34,0.6-0.7,1.16-0.98,1.77c-0.49,0.26,0.19-0.64-0.23-0.6c-0.36,0.04-1.14,0.92-1.08,1.22
			c0.33-0.29,0.31-0.35,0.48-0.66c0.37,0.16-0.12,0.62-0.17,1.02c0.15-0.17,0.46-0.32,0.41-0.44c-0.2,0.43-0.47,0.79-0.95,1.36
			c0.22-0.47-0.35,0.06-0.31-0.16c0.21,0.26-0.2,0.84-0.81,1.52c-0.35,0.15-0.57,0.52-0.78,0.97c-0.19,0.46-0.38,0.97-0.72,1.38
			c-0.04-0.54,0.06-1.15,0.32-1.77c-0.52,0.47-0.42,0.63-0.94,1.11c0.02,0.41,0.2,0.8-0.11,1.63l-0.23-0.08
			c-0.29,0.75-0.01,0.91-0.53,1.77c-0.94,1.45-1.63,3.1-2.15,4.31l-0.24-0.04c0.1,0.43-0.06,1.02-0.26,1.64
			c-0.21,0.61-0.44,1.24-0.47,1.75c-0.74,1.54-0.73,3.58-1.31,4.33c-0.42,2.96-0.58,5.55-0.85,8.61l-0.32-0.54
			c0.23,0.57-0.23,0.35-0.21,0.9c0.32-0.61,0.32,0.77,0.54,1.16c-0.32,1.36-0.01,3.13,0.3,4.32l-0.24,0.06
			c0.5,1.2,0.2,2.67,0.31,4.2c-0.08,0.18-0.28,0.49-0.2,0.94c0.51,0.77,0.54,1.2,0.98,2.35c0.08,0.43,0.17,1,0.23,1.58
			c0.09,0.57,0.16,1.15,0.18,1.61c0.67,1.54,1.17,3.12,1.79,4.67c0.59,1.56,1.27,3.1,2.24,4.47l-0.13,0.35
			c0.52,0.64,1.12,1.3,1.63,2.03c0.53,0.71,1,1.49,1.53,2.2c0.56,0.69,1.1,1.37,1.62,2.01c0.52,0.64,1.03,1.24,1.61,1.65l-0.55,0.15
			c0.53,0.73,1.53,1.33,1.61,0.92c0.26,0.36,0.69,0.71,1.07,1.04c0.37,0.34,0.77,0.6,0.85,0.94c0.65,0.63,1.01,0.51,1.63,0.91
			c0.32,0.31,0.6,0.58,0.86,0.8c0.27,0.21,0.53,0.37,0.78,0.53c0.51,0.32,1.03,0.6,1.77,1.01l-0.34-0.25
			c-0.21-0.01-0.34,0.16,0.01,0.41c0.31,0.11,0.78,0.45,1.16,0.65c0.39,0.16,0.67,0.21,0.52-0.18c0.73,0.54,1.71,0.94,2.67,1.34
			c0.96,0.4,1.97,0.64,2.72,1.17c-0.09-0.2,0.34-0.08,0.54-0.12c0.73,0.3,1.5,0.54,2.23,0.77c0.74,0.23,1.44,0.42,2.08,0.43
			c0.23,0.14-0.44,0.17,0.18,0.34c0.39,0,0.05-0.2,0.53-0.22c1.29,0.01,2.55,0.32,3.8,0.52c1.26,0.15,2.5,0.35,3.67,0.33
			c4.16-0.38,8.45-0.99,12.29-2.15l-0.01,0.13c1.12-0.87,3.15-0.55,3.91-1.59c0.33-0.02,1.13-0.44,1-0.13
			c0.84-0.73,2.91-0.88,4.06-2.04c-0.13,0.06-0.19,0.12-0.31,0.24c1.49-0.54,2.59-1.42,4.06-2.18c-0.11,0.13-0.35,0.33-0.33,0.46
			c0.66-0.17,1-1.25,1.6-0.97c0.31-0.21,0.06-0.38-0.12-0.24c1.63-0.84,2.99-2.15,4.43-3.36c0.71-0.62,1.3-1.37,1.96-2.04
			c0.63-0.7,1.3-1.35,1.84-2.12c1.97-1.83,0.83,0.49,1.87-1.41c0.2-0.07-0.09-0.23,0.02-0.18c0.42-0.7,1.27-0.65,1.36-1.3
			c-0.41-0.01,0.05-0.43-0.11-0.56c0.55-0.61,0.94-0.95,1.26-1.29c0.16-0.17,0.3-0.34,0.43-0.54c0.11-0.21,0.21-0.46,0.31-0.78
			l0.11,0.18c0.25-1.61,1.42-3,1.29-4.45c0.35-0.97,0.81-1.9,1.07-2.89c0.27-0.99,0.53-1.97,0.8-2.95c0.34-2,0.74-3.97,0.76-5.98
			c0.19-1.99-0.02-3.99-0.11-5.98l-0.42-2.96l-0.1-0.74l-0.17-0.73l-0.34-1.46c-0.31-1.96-1.07-3.81-1.64-5.7l-1.19-2.72
			c-0.2-0.45-0.38-0.91-0.6-1.36l-0.72-1.31l-1.44-2.62c-0.54-0.85-1.05-1.72-1.62-2.54c-1.1-1.69-2.31-3.31-3.57-4.91
			c-0.9-1.75-1.03-1.86-2.64-3.2c0.12,0,0.23,0.08,0.17-0.07c-0.35,0.21-1.11-0.98-1.51-0.84c-2.18-2.05-4.48-3.59-7.14-5.04
			c0.43,0.2,0.8,0.05,0.29-0.22c-0.21-0.03-0.43-0.05-0.65-0.06l-0.04-0.14c-0.38-0.12-0.84-0.14-0.54,0.16
			c-1.71-0.82-3.48-1.43-5.24-2.03c-1.8-0.51-3.57-0.98-5.46-1.26c-3.75-0.57-7.66-0.68-11.5-0.25c-0.46,0-0.97,0.04-1.5,0.09
			c-0.51,0.07-1.03,0.13-1.57,0.26c-1.07,0.21-2.15,0.55-3.08,0.84c-2.86,0.53-5.59,1.33-8.22,2.39c-2.62,1.08-5.17,2.44-7.55,4.26
			c0,0,0.02-0.32,0.29-0.83C42.95,16.87,43.48,16.15,44.52,15.41z"/>
		<path class="st0" d="M40.36,18.48c-0.29-0.03-0.89,0.36-0.63-0.21C39.89,18.36,40.31,18.3,40.36,18.48z"/>
		<path class="st0" d="M28.1,32.95c0.05,0.04-0.17,0.24-0.22,0.28c0.07-0.23-0.02-0.5,0.14-0.65C27.96,32.82,28.06,32.82,28.1,32.95
			z"/>
		<path class="st0" d="M26.52,37.68c-0.15-0.12-0.03-1.19,0.15-1.8C26.59,36.48,26.55,37.08,26.52,37.68z"/>
		<path class="st0" d="M24.84,42.1c-0.21,0.37-0.28,0.25-0.18-0.29C24.76,41.79,24.78,41.98,24.84,42.1z"/>
		<path class="st0" d="M25.18,42.49c-0.06,0.38-0.2,0.56-0.32,0.73C25,43.23,24.91,42.32,25.18,42.49z"/>
		<path class="st0" d="M23.88,52.56c0.02,0.24,0.17,0.77-0.02,1C23.98,53.3,23.62,52.37,23.88,52.56z"/>
		<path class="st0" d="M24.33,57.26c0,0.15-0.03,0.22,0.04,0.39c-0.06,0.29-0.21,0-0.24-0.23L24.33,57.26z"/>
		<polygon class="st0" points="87.27,92.82 86.84,93.11 86.84,92.92 		"/>
		<path class="st0" d="M112.16,66.27c0.04-0.52,0.26-0.29,0.3-0.36C112.35,66.36,112.3,65.68,112.16,66.27z"/>
		<polygon class="st0" points="112.78,46.42 112.8,46.57 112.44,46.58 		"/>
	</g>
	<g>
		<path class="st0" d="M83.78,92.61c-0.22-0.34-0.21,0.31-0.22-0.19C83.71,92.42,83.84,92.45,83.78,92.61z"/>
		<path class="st0" d="M89.15,87.92c1.45,0.6,1.56,2.52,2.81,3.38c0.12,0.12-0.44,0.24-0.14,0.48c1.33,0.76,2.15,2.76,2.63,4.44
			l-0.17,0c0.09,0.32,0.7,0.37,0.83,0.68c-0.08,0.06-0.17-0.01-0.23,0.12c0.28-0.09,0.45,0.42,0.71,0.42
			c-0.02,0.17-0.21,0.29-0.21,0.5l0.37-0.03c0.93,0,0.7,1.09,1.44,1.45c-0.08,0.02-0.17-0.01-0.2,0.08c1.05,0.68,1.84,1.9,2.75,2.83
			c-0.12,0.03-0.32,0.11-0.37,0.25c0.31-0.15,0.62,0.12,0.88,0.35c-0.18,0.34,0.61,0.28,0.71,0.72l-0.08,0.02
			c0.47,0.02,0.1,0.48,0.6,0.41l-0.1,0.32c0.47-0.2,0.07,0.5,0.42,0.54l0.07-0.07c0.24,0.11,0.12,0.36,0.32,0.48l-0.03,0.05
			c0.42,0.32,0.39,0.72,0.68,0.47c-0.13,0.33-0.42-0.3-0.59,0.2c1.35,1.06,2.4,2.44,3.52,3.7c0.01,0.24,0.06,0.37-0.02,0.5
			c0.17,0.08,0.48,0.42,0.73,0.4c-0.04-0.04-0.07,0.21-0.02,0.29c0.1,0.33,0.54-0.05,0.65,0.31c-0.17-0.03-0.29,0.03-0.36,0.16
			c0.42,0,0.65,0.31,0.96,0.48c-0.08,0.01-0.17-0.02-0.25,0.07c0.5,0.02,0.43,0.53,0.81,0.61l-0.24,0.07
			c0.19,0.56,0.44-0.22,0.65,0.21c-0.13-0.03-0.16,0.06-0.24,0.11c0.58,0.01,0.98,0.58,1.38,0.78c-0.04,0-0.08,0.05-0.08,0.05
			c0.37,0.28,0.62,0.71,1.11,0.94c0.06,0.2-0.42,0.35-0.02,0.63c0.3-0.33,0.72,0.45,0.87-0.11c0.25,0.34,0.59,0.94,0.9,1.03
			c-0.25-0.02-0.25,0.52-0.52,0.3l-0.01,0.38c-0.16,0.1-0.14-0.23-0.25-0.02c0.13,0.11,0.6,0.35,0.66,0.51
			c0.42,0.04,0.99-0.08,1.39,0.28c-0.29-0.07-0.28,0.43-0.45,0.35l1.13,0.01c0.13,0.12-0.25,0.25,0,0.38
			c0.08-0.08,0.21-0.04,0.34-0.04c0,0.08,0.55,0.54,0.23,0.86c-0.09,0.16-0.24-0.19-0.26,0.07c0.18,0.27,0.33,0.19,0.51,0.47
			l-0.05,0.04c0.05,0.22,0.5,0.46,0.58,0.13c-0.07-0.14-0.2,0.18-0.21-0.08c0.3,0,0.57,0.32,0.73,0.64c-0.12-0.08-0.22-0.01-0.35,0
			c0.26,0.13,0.47,0.3,0.64,0.52c0.18,0.21,0.34,0.45,0.48,0.72c0.2-0.05-0.42-0.11-0.34-0.21c-0.04,0.39,0.16,0.71,0.28,1.08
			c0.16,0.35,0.19,0.75-0.02,1.05c-0.03-0.11,0.3-0.04,0.24-0.03c-0.06,0.38-0.37,0.32-0.29,0.57c-0.18-0.01,0.02,0.31-0.02,0.56
			c0.08,0.16-0.1,0.03-0.06-0.17c0.01,0.17,0.02,0.65-0.17,1.1c-0.15,0.48-0.47,0.91-0.79,1.15c0.11,0.06,0.04,0.62-0.09,0.75
			l-0.16-0.23c-0.22,0.02-0.37,0.44-0.56,0.29c0.01,0.51,0.71-1.2,0.58-0.68c-0.25-0.06-0.12,0.81-0.33,0.48
			c-0.22,0.24-0.25,0.69-0.65,0.72c0.1-0.03-0.06-0.46-0.24-0.27c-0.31,0.33-0.01,0.18-0.24,0.49l-0.11,0.23
			c0.15,0.22-0.34,0.23-0.03,0.36c-0.17-0.13-0.46,0.5-0.68,0.11l-0.15-0.32c-0.14,0.13-0.05,0.48-0.09,0.69
			c-0.04-0.01-0.12-0.04-0.14-0.09c0.27,0.47-0.41,0.22-0.39,0.68c-0.44,0.05-0.89,0.52-1.22,0.31c-0.19,0.28-0.35,0.59-0.71,0.65
			c0.04-0.08,0.12-0.14,0.08-0.25c-0.27-0.04-0.25,0.12-0.39,0.28c0-0.09-0.53-0.09-0.83-0.16c-0.2,0.27,0.01,0.49,0.06,0.66
			c-0.46-0.36-0.64,0.67-1.17,0.37c0.07-0.11,0.31-0.41,0.03-0.43c-0.46-0.39-0.36,0.59-0.89,0.5l0.26,0.37
			c-0.29-0.19-0.57,0.47-0.66,0.03c-0.1,0.21-0.56,0.03-0.39,0.42c-0.82-0.13-1.86,0.68-2.45-0.06c-0.11,0.08-0.39,0.04-0.32,0.25
			c0.21,0.22,0.25-0.2,0.34-0.04c-0.1,0.02-0.11,0.14-0.12,0.2c-0.26-0.07-0.46-0.1-0.24-0.46c-0.54-0.27-0.55,0.77-1.32,0.52
			c0.05-0.17,0-0.24-0.22-0.24c-0.15,0.09-0.3,0.17-0.47,0.23c-0.48-0.18-0.19-0.45-0.13-0.75c-0.26,0.01-0.54-0.11-0.72,0.06
			c-0.06-0.15-0.11-0.3-0.16-0.45c0.1,0.33-0.26,0.1-0.39,0.1l0.14-0.01c0.01-0.14-0.28-0.19-0.43-0.22
			c-0.06,0.18,0.18,0.38,0.32,0.5c-0.18,0.06-0.35-0.06-0.59,0c0.18-0.22-0.27-0.4-0.43-0.54c-0.16-0.18-0.38,0.06-0.43,0.01
			c0.09-0.13-0.29-0.27-0.01-0.32c0.09,0.01,0.05,0.23,0.24,0.21c-0.06-0.19,0.12-0.38-0.24-0.43c-0.28-0.04-0.33,0.49-0.56,0.04
			c0.13,0.03,0.23-0.04,0.37-0.06c-0.08-0.13-0.14-0.26-0.21-0.4l-0.2,0.18c0.01-0.09,0.05-0.08,0.06-0.12
			c-0.3,0.12-0.51-0.4-0.8-0.27c-0.16-0.15-0.16-0.46-0.24-0.64l0.04,0.02c-0.01-0.29-0.29-0.48-0.54-0.55l0.05-0.02
			c-0.05-0.12-0.25-0.36-0.47-0.42c0.02-0.38,0.82-0.59,0.37-0.73c-0.16-0.27-0.67-0.21-0.76-0.02c-0.1-0.59-0.77-1.01-0.58-1.66
			c-0.13-0.03-0.17,0.04-0.29-0.09c-0.21-0.8-0.9-1.52-0.6-2.29c0.18,0.18,0.26-0.07,0.4-0.12c-0.29-0.11,0.17-0.29-0.25-0.23
			c-0.22,0.09-0.34,0.11-0.36,0.35c-0.28-0.41-0.49-1.1-0.35-1.41c-0.07,0.16-0.17,0.08-0.27,0.01c0.38-0.08,0.33-0.43,0.12-0.64
			l-0.23,0.03l0.18-0.23c-0.1-0.07-0.5,0.04-0.36-0.27c0.08-0.04,0.17-0.08,0.22-0.15c-0.26-0.2-0.68-0.46-0.58-0.79l0.25-0.33
			c-0.07-0.1-0.33-0.24-0.36,0c0.05-0.53-0.03-0.83,0.21-1.07c-0.95-0.58-1.36-1.6-1.71-2.5l0.17-0.04c0.04-0.31-0.34,0-0.3-0.22
			c0.19,0.01,0.25-0.33,0.52-0.22c0.02-0.42-0.47-0.33-0.65-0.52c-0.23,0.06,0.21,0.12-0.07,0.2c-0.09-0.01-0.04-0.55-0.39-0.46
			c0.09-0.14,0.35-0.18,0.5-0.19l-0.25-0.14c0.26-0.42,0.93,0.3,1.27-0.18l-0.14-0.17c0.25-0.34,0.61,0.35,0.5-0.19
			c-0.25-0.14-0.8-0.12-0.85,0.13c-0.29-0.4-0.85,0.13-1.04-0.35c0.13-0.21,0.21,0.36,0.44,0.15c0.16-0.34-0.34-0.39-0.34-0.63
			c-0.02,0.28-0.43,0.23-0.55,0.12c0.04-0.31,0.37,0.02,0.25-0.34c-0.21,0.03-0.49-0.23-0.49,0.1c-0.47,0.06-0.05-0.41-0.45-0.45
			c0.24-0.24,0.84,0.04,0.81-0.4c-0.25,0.19-0.59-0.29-0.92,0.1c0.01-0.18,0.23-0.3,0.45-0.27c0.08-0.29-0.75-0.27-0.22-0.6
			l-0.32,0.06c0.06-0.11,0.09-0.24,0.2-0.41c-0.08-0.19-0.66-0.42-0.22-0.6c-0.07-0.04-0.25-0.47-0.47-0.17
			c-0.06,0.35,0.36,0.2,0.02,0.53c0.25-0.34-0.22-0.36-0.4-0.46l0.16-0.1c-0.11-0.06-0.17-0.29-0.38-0.26
			c0.13,0.03,0.23-0.06,0.23-0.15l-0.3,0.02c-0.3-0.31,0.41-0.29,0.17-0.62l0.32,0.18c-0.07-0.04,0.11-0.27-0.05-0.41
			c-0.26,0.04-0.6,0.05-0.81,0.07c-0.2-0.15,0.22-0.21-0.11-0.3l0.4,0.13c0.09,0,0.3-0.35,0.17-0.62c-0.16-0.13-0.62-0.24-0.62,0.09
			c-0.07-0.13-0.01-0.39,0.21-0.36c-0.22-0.27-0.23,0.16-0.5-0.04c0.1-0.18,0.17-0.62,0.3-0.93l0.52,0.09L88.5,108
			c0.42,0.09,0.18-0.23,0.57-0.25c-0.01-0.15-0.19-0.25-0.33-0.33c-0.35,0.61-0.91-0.07-1.34,0.26c-0.37-0.44,1.02-0.86,0.02-1.03
			c-0.09,0.14-0.57,0.07-0.28,0.32c-0.09-0.34-0.58,0.01-0.56-0.45c0.33,0.18,0.35-0.52,0.82-0.26c-0.17,0.05-0.02,0.28,0.05,0.32
			c0.12-0.21,0.5-0.2,0.35-0.52c-0.14-0.17-0.27-0.44-0.5-0.28c-0.27,0.14,0.17,0.28-0.17,0.29c-0.28-0.35,0.11-0.61-0.45-0.54
			c0.15,0.23-0.1,0.42-0.29,0.51l-0.25-0.23l0.21-0.03c-0.08-0.52-0.39,0.02-0.55-0.45l0.26-0.38c0.36-0.04,0.16,0.71,0.63,0.4
			c-0.11-0.3-0.42-0.28-0.41-0.61c0.07,0.04,0.12,0.12,0.2,0.16c-0.03-0.11,0.59-0.53,0.01-0.76c-0.25-0.14-0.21,0.03-0.4,0.11
			c-0.27-0.44-0.53-0.49-0.7-0.78c0.4-0.11-0.21-0.55,0.32-0.39c-0.15,0.25,0.18,0.92,0.61,0.92c0.36-0.37,0.11,0.39,0.6,0.29
			c-0.16-0.38,0.28-0.56,0.53-0.75c-0.03-0.11-0.19-0.16-0.27-0.2c-0.29,0.08-0.22,0.21-0.49,0.35c-0.12-0.45-0.45-0.78-0.82-0.89
			c0.07-0.2,0.35-0.28,0.46-0.13c-0.31-0.46-0.51-1.01-0.64-1.52c-0.3,0.5-0.34-0.48-0.61-0.11c0.02,0.3-0.2,0.66-0.45,0.6
			c-0.04-0.17,0.19-0.08,0.26-0.19c-0.33-0.1,0.24-0.49-0.23-0.52c0.35,0.39,0.57-0.15,0.95-0.22c-0.34-0.24,0.25-0.09,0.1-0.42
			c-0.34-0.24-0.66-0.58-0.9-0.91c0.12-0.6-0.5-1.17-0.69-1.57c0.08-0.29,0.53-0.31,0.5-0.57c-0.12-0.27-0.33,0.38-0.33-0.1
			l0.09,0.01c-0.14-0.09-0.05-0.86-0.66-0.74l0.48-0.05c0.01-0.09-0.12-0.12-0.19-0.17c0.14-0.06,0.23-0.2,0.37-0.12
			c0.19-0.37-0.27-0.51-0.39-0.77l-0.18,0.28c-0.39-0.39-0.27-0.8-0.54-1.22l0.25-0.09l-0.26-0.21c0.27-0.03,0.32-0.34,0.07-0.4
			l0.88,0.46c-0.07,0.25-0.38-0.09-0.58,0.13c-0.17,0.19,0.07,0.58,0.33,0.55c-0.04-0.17-0.1-0.16-0.24-0.24
			c0.32-0.19,0.41,0.06,0.69,0.08c-0.05-0.08,0.01-0.24-0.11-0.21c0.23,0.1,0.33,0.25,0.45,0.52c-0.21-0.13-0.17,0.19-0.3,0.16
			c0.31-0.1,0.51,0.12,0.57,0.49c-0.25,0.39,0.49,0.54,0.56,0.97c-0.37-0.03-0.7-0.13-0.92-0.31c-0.05,0.31,0.12,0.27,0.07,0.58
			c0.28,0.02,0.66-0.04,0.93,0.22l-0.22,0.11c0.24,0.24,0.57,0.1,0.67,0.49c0.16,0.68,0.45,1.32,0.63,1.81l-0.21,0.12
			c0.59,0.05,0.57,0.81,0.94,1.07c0.06,0.7,0.81,1.22,0.57,1.71c0.66,0.99,1.26,1.85,1.7,2.99l-0.41-0.04
			c0.33,0.09-0.12,0.22,0.01,0.39c0.15-0.34,0.46,0.11,0.72,0.16c-0.02,0.61,0.55,1.11,0.98,1.45l-0.21,0.12
			c0.62,0.25,0.5,0.95,0.69,1.53c-0.06,0.11-0.22,0.3-0.12,0.45c0.5,0.13,0.54,0.3,0.97,0.64c0.15,0.32,0.3,0.88,0.31,1.28
			c1.06,0.98,1.3,2.37,2.16,3.51l-0.22,0.21c0.55,0.48,0.87,1.18,1.13,1.92c0.26,0.72,0.43,1.42,0.76,1.93l-0.5,0.05
			c-0.02,0.39,0.38,0.75,0.68,0.56c-0.03,0.4,0.5,0.8,0.19,1.14c0.02,0.38,0.35,0.36,0.5,0.64c0.04,0.75,0.16,1,0.45,1.62
			l-0.02-0.17c-0.13-0.04-0.32,0.02-0.3,0.19c0.21,0.2,0.16,0.92,0.64,0.5c-0.09,0.79,0.79,1.46,0.62,2.23
			c0.13-0.11,0.22,0.03,0.34,0.05c0.24,0.53,0.2,1.23,0.66,1.48c-0.03,0.12-0.31,0.01-0.21,0.22c0.12,0.09,0.18-0.1,0.34,0
			c0.68,0.57,0.71,1.55,1.32,1.92c0.56,0.23,1.04,0.39,1.59,0.49c0.55,0.09,1.19,0.09,1.82-0.03l0,0.12
			c0.18-0.27,0.44-0.19,0.72-0.17c0.27,0.01,0.54,0,0.61-0.37c0.14,0.07,0.42-0.09,0.41,0.15c0.25-0.41,1.13-0.11,1.5-0.71
			c-0.05,0.01-0.07,0.05-0.11,0.12c0.65-0.02,0.99-0.56,1.65-0.64c-0.03,0.07-0.12,0.16-0.08,0.28c0.32,0.08,0.28-0.71,0.66-0.27
			c0.12-0.07-0.05-0.3-0.11-0.24c1.31-0.45,2.37-1.57,3.11-2.49c0.82-0.38,0.75,0.6,0.88-0.18c0.12,0.02-0.14-0.16-0.05-0.1
			c0.01-0.28,0.74,0.03,0.6-0.29c-0.33-0.12-0.11-0.2-0.3-0.3c0.4-0.28,0.73-0.32,0.57-0.73l0.18,0.07
			c-0.22-0.27-0.24-0.47-0.33-0.67c-0.05-0.19-0.2-0.4-0.5-0.48c-0.26-1-1.22-2.17-2.27-3.22c-1.07-1.07-2.28-2.11-3.49-3.24
			c-1.13-1.18-2.35-2.3-3.54-3.53c-1.21-1.25-2.29-2.55-3.24-3.96c-0.14-0.92-0.18-0.96-0.88-1.51c0.08-0.02,0.13,0.01,0.15-0.08
			c-0.33,0.21-0.41-0.45-0.76-0.29c-0.72-1.03-1.51-1.88-2.29-2.9c0.16,0.14,0.47,0.02,0.31-0.15l-0.35-0.05l0.06-0.1
			c-0.15-0.1-0.41-0.13-0.41,0.09c-2.22-2.4-3.4-5.45-5.23-8.02c-0.28-0.71-0.99-1.52-1.5-2.16c-0.88-2.31-1.66-4.36-3.25-6.25
			C87.39,87.45,88.43,87.19,89.15,87.92z"/>
		<path class="st0" d="M83.99,93.04c-0.15,0.15-0.15,0.45-0.48,0.34C83.68,93.28,83.82,93.07,83.99,93.04z"/>
		<path class="st0" d="M85.02,100.66c0.06-0.01-0.03,0.13-0.05,0.16c-0.05-0.08-0.24-0.09-0.17-0.2
			C84.85,100.7,84.93,100.65,85.02,100.66z"/>
		<path class="st0" d="M85.7,102.44c-0.17,0.05-0.47-0.27-0.58-0.48L85.7,102.44z"/>
		<path class="st0" d="M85.78,104.35c-0.07,0.2-0.16,0.2-0.24,0.01C85.62,104.31,85.69,104.35,85.78,104.35z"/>
		<path class="st0" d="M86.2,104.3c0.07,0.13,0,0.24-0.06,0.35C86.27,104.58,85.91,104.38,86.2,104.3z"/>
		<path class="st0" d="M87.36,107.99c0.05,0.08,0.27,0.2,0.13,0.36C87.57,108.2,87.09,108.04,87.36,107.99z"/>
		<path class="st0" d="M88.35,109.49c0.01,0.06-0.01,0.09,0.07,0.13c-0.03,0.13-0.19,0.08-0.24,0.01L88.35,109.49z"/>
		<polygon class="st0" points="108.23,132.16 108.07,132.32 108.04,132.14 		"/>
		<path class="st0" d="M116.82,120.6c-0.2-0.15,0.08-0.21,0.09-0.25C117.01,120.52,116.67,120.37,116.82,120.6z"/>
		<polygon class="st0" points="111.11,114.93 111.16,114.97 110.89,115.21 		"/>
	</g>
	<g>
		<path class="st0" d="M85.45,31.84c-0.17-0.04-0.05,0.24-0.15,0.03C85.38,31.79,85.45,31.74,85.45,31.84z"/>
		<path class="st0" d="M91.72,70.81c-0.34-0.8,0.61-1.07,0.51-1.8c0.01-0.07,0.32,0.2,0.32,0.02c-0.19-0.75,0.52-1.38,1.21-1.78
			l0.07,0.09c0.13-0.08-0.1-0.39,0.01-0.49c0.06,0.03,0.07,0.09,0.17,0.11c-0.17-0.13,0.03-0.27-0.08-0.4
			c0.1-0.01,0.24,0.08,0.36,0.06l-0.18-0.19c-0.4-0.47,0.29-0.45,0.17-0.86c0.04,0.04,0.07,0.09,0.13,0.09
			c-0.09-0.6,0.26-1.1,0.37-1.64c0.07,0.06,0.2,0.14,0.3,0.16c-0.22-0.14-0.2-0.32-0.18-0.47c0.26,0.05-0.11-0.33,0.1-0.42
			l0.05,0.04c-0.19-0.23,0.22-0.1-0.03-0.33l0.22,0.01c-0.31-0.2,0.25-0.09,0.12-0.26l-0.07-0.03c-0.04-0.13,0.15-0.1,0.13-0.2
			l0.04,0.01c0-0.23,0.24-0.26-0.03-0.37c0.24,0.02,0.01,0.23,0.37,0.26c0.02-0.76,0.33-1.4,0.56-2.06
			c0.14-0.04,0.18-0.07,0.29-0.05c-0.03-0.09,0.04-0.27-0.08-0.38c0,0.02,0.15,0,0.18-0.03c0.15-0.09-0.26-0.23-0.09-0.32
			c0.05,0.08,0.14,0.12,0.25,0.14c-0.17-0.18-0.09-0.32-0.12-0.48c0.04,0.04,0.06,0.08,0.15,0.1c-0.2-0.22,0.13-0.26,0.01-0.43
			l0.15,0.09c0.25-0.16-0.32-0.16-0.15-0.31c0.04,0.06,0.11,0.06,0.17,0.09c-0.25-0.25-0.06-0.49-0.13-0.69
			c0.02,0.02,0.06,0.02,0.06,0.02c0-0.19,0.14-0.37,0.05-0.6c0.09-0.06,0.39,0.11,0.38-0.1c-0.33-0.06-0.06-0.36-0.46-0.32
			c0.1-0.15,0.25-0.4,0.16-0.53c0.11,0.1,0.42-0.02,0.42,0.13l0.22-0.08c0.13,0.04-0.06,0.1,0.11,0.1c0-0.08-0.1-0.31-0.04-0.36
			c-0.18-0.17-0.54-0.34-0.55-0.55c0.11,0.12,0.37-0.01,0.42,0.06l-0.6-0.37c-0.01-0.07,0.26,0.01,0.18-0.1
			c-0.09,0-0.14-0.05-0.21-0.09c0.04-0.02-0.06-0.3,0.27-0.3c0.13-0.02,0.06,0.12,0.18,0.05c0.01-0.13-0.1-0.15-0.1-0.28l0.04,0
			c0.06-0.08-0.12-0.26-0.31-0.18c-0.01,0.06,0.2-0.01,0.1,0.07c-0.19-0.07-0.22-0.23-0.22-0.35c0.05,0.05,0.14,0.05,0.23,0.07
			c-0.25-0.19-0.33-0.37-0.43-0.57c-0.16-0.01,0.28,0.08,0.2,0.11c0.22-0.24-0.3-0.52,0.02-0.72c0.03,0.03-0.22,0.02-0.18,0.02
			c0.02-0.12,0.25-0.11,0.17-0.19c0.13-0.01-0.05-0.1-0.09-0.18c-0.1-0.04,0.06-0.02,0.08,0.05c-0.12-0.11-0.34-0.55-0.16-0.81
			c-0.09,0.01-0.33-0.14-0.32-0.2l0.21,0.01c0.12-0.06-0.03-0.2,0.15-0.22c-0.25-0.11,0.23,0.47,0.03,0.31
			c0.17-0.06-0.34-0.22-0.06-0.2c-0.01-0.12-0.25-0.22-0.07-0.34c-0.03,0.04,0.29,0.07,0.27-0.02c-0.05-0.17-0.1-0.04-0.19-0.17
			l-0.09-0.08c-0.2,0.01,0.01-0.15-0.21-0.07c0.16-0.04-0.13-0.23,0.21-0.25l0.26,0c-0.03-0.07-0.29-0.09-0.41-0.14
			c0.02-0.01,0.07-0.04,0.12-0.04c-0.4,0.03,0.01-0.18-0.3-0.23c0.12-0.17-0.03-0.39,0.2-0.49c-0.14-0.1-0.3-0.18-0.23-0.33
			c0.04,0.02,0.06,0.05,0.14,0.05c0.1-0.1,0-0.11-0.08-0.17c0.06,0.01,0.21-0.2,0.33-0.32c-0.14-0.1-0.35-0.02-0.48-0.01
			c0.37-0.18-0.31-0.27,0.02-0.47c0.06,0.03,0.22,0.13,0.3,0.02c0.37-0.18-0.33-0.16-0.17-0.36l-0.31,0.11
			c0.18-0.12-0.24-0.2,0.09-0.26c-0.13-0.03,0.06-0.22-0.25-0.13c0.2-0.34-0.32-0.61,0.19-0.93c-0.06-0.02-0.04-0.14-0.19-0.07
			c-0.15,0.11,0.15,0.06,0.04,0.11c-0.02-0.03-0.11-0.02-0.15-0.01c0.05-0.1,0.05-0.18,0.33-0.17c0.14-0.25-0.57-0.04-0.53-0.31
			c0.13-0.03,0.17-0.06,0.13-0.12l-0.26-0.06c0-0.17,0.26-0.18,0.47-0.26c-0.06-0.07-0.09-0.17-0.26-0.16l0.23-0.19
			c-0.16,0.14-0.15-0.02-0.22-0.04l0.07,0.02c0.08-0.05-0.01-0.12-0.05-0.16c-0.13,0.06-0.14,0.17-0.16,0.24
			c-0.11-0.01-0.11-0.08-0.24-0.09c0.21-0.06,0.1-0.18,0.1-0.26c0.02-0.09-0.21-0.01-0.21-0.03c0.11-0.04-0.03-0.12,0.14-0.13
			c0.05,0.01-0.08,0.1,0.03,0.1c0.06-0.08,0.25-0.15,0.07-0.19c-0.13-0.03-0.39,0.18-0.32-0.01c0.07,0.02,0.15-0.01,0.24-0.01
			l0.05-0.17l-0.19,0.07c0.04-0.04,0.06-0.03,0.08-0.05c-0.21,0.04-0.14-0.17-0.37-0.11c-0.05-0.06,0.07-0.19,0.06-0.26l0.02,0
			c0.07-0.12-0.05-0.19-0.2-0.2l0.04-0.02c0-0.05-0.08-0.13-0.21-0.13c0.09-0.17,0.66-0.37,0.38-0.37c-0.06-0.1-0.41,0-0.51,0.1
			c0.02-0.25-0.37-0.31-0.19-0.62c-0.09,0.01-0.12,0.05-0.19,0.02c-0.08-0.31-0.52-0.44-0.31-0.86c0.12,0.03,0.18-0.1,0.27-0.16
			c-0.19,0.03,0.11-0.17-0.16-0.04c-0.15,0.1-0.23,0.14-0.25,0.25c-0.18-0.11-0.33-0.35-0.24-0.52c-0.04,0.09-0.11,0.08-0.18,0.08
			c0.25-0.14,0.21-0.28,0.07-0.32l-0.16,0.08l0.11-0.16c-0.07,0-0.33,0.16-0.25-0.02c0.05-0.04,0.11-0.09,0.14-0.13
			c-0.18-0.01-0.47,0-0.41-0.19l0.16-0.22c-0.05-0.03-0.23-0.01-0.24,0.1c0.01-0.25-0.04-0.37,0.1-0.55
			c-0.64,0.01-0.95-0.39-1.16-0.76l0.12-0.06c0.04-0.16-0.22,0.08-0.19-0.03c0.12-0.04,0.18-0.23,0.35-0.24
			c0.02-0.21-0.3-0.04-0.41-0.09c-0.15,0.09,0.14,0.01-0.05,0.11c-0.06,0.02-0.01-0.25-0.24-0.12c0.06-0.09,0.24-0.18,0.34-0.22
			l-0.16,0c0.18-0.27,0.6-0.11,0.84-0.42l-0.08-0.05c0.17-0.23,0.39,0.01,0.34-0.22c-0.16-0.01-0.52,0.15-0.56,0.29
			c-0.17-0.12-0.56,0.29-0.66,0.11c0.09-0.14,0.13,0.11,0.28-0.05c0.11-0.2-0.21-0.09-0.2-0.2c-0.02,0.14-0.28,0.23-0.36,0.21
			c0.04-0.16,0.24-0.1,0.17-0.23c-0.14,0.07-0.31,0.04-0.32,0.19c-0.3,0.17-0.02-0.18-0.27-0.08c0.16-0.19,0.53-0.22,0.53-0.43
			c-0.17,0.16-0.37,0.04-0.59,0.32c0.01-0.09,0.15-0.21,0.29-0.26c0.05-0.16-0.47,0.1-0.13-0.21l-0.2,0.13
			c0.04-0.07,0.06-0.14,0.13-0.26c-0.05-0.07-0.41,0.02-0.13-0.21c-0.04,0-0.15-0.14-0.29,0.07c-0.04,0.18,0.22-0.02,0.01,0.24
			c0.16-0.24-0.13-0.1-0.24-0.08l0.1-0.1c-0.07,0.01-0.1-0.08-0.23,0c0.08-0.03,0.14-0.11,0.14-0.15l-0.18,0.11
			c-0.18-0.04,0.25-0.28,0.1-0.34l0.2-0.03c-0.04,0.01,0.07-0.17-0.03-0.18c-0.16,0.11-0.36,0.23-0.49,0.32
			c-0.12,0,0.13-0.18-0.07-0.1l0.24-0.08c0.06-0.03,0.18-0.27,0.1-0.35c-0.1-0.01-0.38,0.11-0.37,0.26
			c-0.04-0.04-0.02-0.18,0.12-0.24c-0.14-0.04-0.14,0.16-0.3,0.16c0.06-0.12,0.09-0.35,0.15-0.55l0.31-0.15l-0.05-0.06
			c0.25-0.11,0.1-0.18,0.33-0.33c-0.01-0.07-0.12-0.05-0.21-0.04c-0.18,0.42-0.54,0.31-0.78,0.63c-0.23-0.06,0.56-0.8-0.03-0.5
			c-0.04,0.1-0.32,0.25-0.15,0.26c-0.07-0.12-0.33,0.24-0.34,0.01c0.2-0.05,0.17-0.38,0.46-0.45c-0.1,0.09,0.01,0.14,0.05,0.13
			c0.06-0.15,0.28-0.29,0.17-0.38c-0.09-0.03-0.18-0.1-0.31,0.07c-0.15,0.17,0.11,0.07-0.08,0.2c-0.18-0.05,0.03-0.33-0.29-0.07
			c0.1,0.05-0.03,0.24-0.14,0.36l-0.15-0.01l0.12-0.1c-0.08-0.21-0.22,0.17-0.34,0.02l0.12-0.29c0.2-0.17,0.14,0.26,0.38-0.08
			c-0.09-0.09-0.25,0.04-0.28-0.11c0.04-0.01,0.08,0,0.12-0.01c-0.02-0.04,0.29-0.5-0.05-0.36c-0.15,0.04-0.11,0.1-0.21,0.22
			c-0.19-0.09-0.34,0-0.45-0.06c0.21-0.22-0.16-0.17,0.14-0.32c-0.06,0.18,0.18,0.35,0.42,0.17c0.17-0.33,0.09,0.14,0.36-0.11
			c-0.12-0.11,0.11-0.38,0.24-0.58c-0.03-0.04-0.12,0.01-0.17,0.02c-0.15,0.16-0.1,0.19-0.24,0.37c-0.11-0.16-0.32-0.18-0.54-0.07
			c0.02-0.12,0.17-0.29,0.24-0.26c-0.21-0.09-0.39-0.25-0.51-0.43c-0.11,0.37-0.24-0.07-0.34,0.22c0.04,0.13-0.04,0.39-0.18,0.49
			c-0.04-0.06,0.1-0.12,0.12-0.2c-0.19,0.1,0.08-0.33-0.18-0.14c0.23,0.02,0.29-0.33,0.49-0.53c-0.21,0.04,0.12-0.16,0.01-0.24
			c-0.21,0.04-0.43,0.03-0.6-0.01c-0.01-0.34-0.42-0.3-0.58-0.4c0-0.17,0.24-0.4,0.18-0.5c-0.11-0.06-0.12,0.33-0.19,0.11l0.05-0.04
			c-0.09,0.03-0.15-0.37-0.46-0.02l0.24-0.25c-0.01-0.05-0.08,0-0.12,0.02c0.06-0.09,0.09-0.2,0.17-0.23
			c0.04-0.26-0.22-0.1-0.33-0.16l-0.05,0.21c-0.26,0.02-0.27-0.23-0.48-0.28l0.12-0.16l-0.17,0.03c0.13-0.15,0.11-0.31-0.03-0.21
			l0.53-0.23c0.01,0.15-0.21,0.15-0.28,0.34c-0.06,0.17,0.13,0.23,0.26,0.09c-0.05-0.06-0.07-0.02-0.16,0
			c0.13-0.24,0.22-0.17,0.37-0.3c-0.04-0.01-0.04-0.11-0.09-0.04c0.14-0.07,0.21-0.05,0.32,0.02c-0.13,0.04-0.06,0.17-0.13,0.22
			c0.14-0.2,0.29-0.19,0.37-0.05c-0.07,0.3,0.34,0.01,0.44,0.18c-0.2,0.16-0.39,0.27-0.53,0.3c0.02,0.17,0.11,0.06,0.13,0.23
			c0.15-0.12,0.34-0.33,0.53-0.34l-0.1,0.15c0.16,0,0.32-0.22,0.43-0.08c0.19,0.24,0.43,0.41,0.6,0.56l-0.1,0.15
			c0.33-0.24,0.42,0.12,0.65,0.09c0.12,0.31,0.6,0.24,0.52,0.58c0.48,0.2,0.91,0.38,1.26,0.79l-0.24,0.14
			c0.2-0.08-0.06,0.15,0.04,0.19c0.06-0.23,0.28-0.12,0.44-0.19c0.03,0.31,0.41,0.35,0.69,0.37l-0.12,0.14
			c0.4-0.09,0.36,0.3,0.5,0.54c-0.03,0.07-0.13,0.22-0.06,0.27c0.32-0.09,0.35-0.02,0.63,0.02c0.11,0.12,0.21,0.36,0.22,0.55
			c0.7,0.19,0.85,0.84,1.39,1.19l-0.15,0.16c0.69,0.2,0.75,1,1.21,1.27l-0.33,0.17c-0.01,0.19,0.27,0.23,0.47,0.06
			c-0.01,0.19,0.36,0.22,0.16,0.47c0.03,0.17,0.25,0.07,0.36,0.15c0.05,0.35,0.14,0.43,0.36,0.65l-0.02-0.08
			c-0.09,0.01-0.22,0.09-0.2,0.17c0.15,0.04,0.13,0.41,0.45,0.08c-0.05,0.4,0.56,0.56,0.42,1c0.09-0.08,0.15-0.02,0.24-0.03
			c0.14,0.26,0.06,0.64,0.35,0.76c-0.03,0.07-0.21,0.02-0.18,0.14c0.07,0.04,0.14-0.07,0.24-0.02c0.41,0.34,0.19,0.97,0.4,1.34
			c0.49,0.63,0.64,1.44,0.86,2.13l-0.09,0.01c0.4,0.15-0.2,0.64,0.34,0.71c-0.07,0.07,0.01,0.22-0.16,0.22
			c0.28,0.14-0.11,0.57,0.24,0.79c0-0.03-0.02-0.04-0.06-0.06c-0.14,0.31,0.17,0.51,0.03,0.83c-0.04-0.02-0.08-0.07-0.17-0.07
			c-0.15,0.14,0.41,0.21,0,0.33c0.01,0.06,0.22,0.02,0.2-0.02c-0.07,0.66,0.26,1.3,0.42,1.97c-0.23,0.5-0.71,0.07-0.38,0.43
			c-0.08,0.04,0.16,0.01,0.07,0.02c0.12,0.14-0.46,0.25-0.24,0.34c0.26-0.05,0.15,0.06,0.31,0.06c-0.16,0.3-0.39,0.36-0.18,0.59
			l-0.14-0.02c0.39,0.27,0.17,0.58,0.61,0.82c0.05,1.52,0.12,3.03-0.18,4.52c-0.42,1.42-0.68,2.88-1.47,4.15
			c-0.46,0.18-0.47,0.2-0.48,0.6c-0.05-0.04-0.05-0.06-0.11-0.06c0.26,0.14-0.08,0.25,0.16,0.4c-0.26,0.47-0.41,0.95-0.65,1.44
			c0.01-0.09-0.19-0.24-0.22-0.14l0.12,0.18l-0.08-0.02c0.01,0.08,0.11,0.22,0.22,0.19c-0.39,1.35-1.54,2.25-2.12,3.43
			c-0.26,0.21-0.37,0.66-0.49,0.98c-0.83,0.68-1.55,1.31-1.8,2.32C92.27,71.74,91.67,71.26,91.72,70.81z"/>
		<path class="st0" d="M85.63,31.92c-0.05,0.14,0,0.27-0.19,0.39C85.51,32.19,85.55,32.03,85.63,31.92z"/>
		<path class="st0" d="M87.3,34.92c0.03-0.03,0,0.07-0.01,0.1c-0.04-0.01-0.14,0.07-0.12-0.01C87.21,35.02,87.25,34.96,87.3,34.92z"
			/>
		<path class="st0" d="M87.86,35.45c-0.09,0.1-0.28,0.08-0.37,0.04L87.86,35.45z"/>
		<path class="st0" d="M88.07,36.31c-0.02,0.12-0.08,0.16-0.13,0.11C87.98,36.36,88.02,36.35,88.07,36.31z"/>
		<path class="st0" d="M88.3,36.11c0.05,0.03,0.02,0.11-0.01,0.19C88.36,36.21,88.14,36.27,88.3,36.11z"/>
		<path class="st0" d="M89.16,37.37c0.03,0.02,0.16-0.01,0.09,0.12C89.29,37.39,89.01,37.49,89.16,37.37z"/>
		<path class="st0" d="M89.78,37.71c0.01,0.02,0,0.05,0.04,0.04c-0.02,0.07-0.11,0.11-0.15,0.09L89.78,37.71z"/>
		<polygon class="st0" points="96.38,48.55 96.3,48.49 96.43,48.47 		"/>
		<path class="st0" d="M96.84,54.2c0.08,0.08-0.12,0.05-0.14,0.06C96.68,54.19,96.86,54.29,96.84,54.2z"/>
		<polygon class="st0" points="97.09,57.35 97.09,57.32 97.35,57.39 		"/>
	</g>
</g>
</svg>
