<?xml version="1.0" encoding="utf-8"?>
<!-- Generator: Adobe Illustrator 23.0.0, SVG Export Plug-In . SVG Version: 6.00 Build 0)  -->
<svg version="1.1" id="图层_1" xmlns="http://www.w3.org/2000/svg" xmlns:xlink="http://www.w3.org/1999/xlink" x="0px" y="0px"
	 viewBox="0 0 141.73 141.73" style="enable-background:new 0 0 141.73 141.73;" xml:space="preserve">
<style type="text/css">
	.st0{fill:#E68915;}
</style>
<g>
	<g>
		<path class="st0" d="M41.88,22.71c0.12-0.65-0.4,0.24,0-0.45C41.99,22.39,42.05,22.54,41.88,22.71z"/>
		<path class="st0" d="M82.85,128.61c-2,1.13-4.86,0.44-7.1,1.27c-0.27,0.07,0.01-0.51-0.58-0.32c-0.26,0.12-0.54,0.22-0.84,0.32
			c-0.15,0.05-0.3,0.1-0.45,0.15c-0.07,0.03-0.16,0.05-0.21,0.09c-0.03-0.06,0.04-0.03,0.13-0.03l0,0.15
			c-2.01,0.52-4.55,0.63-6.67,0.62l0.13-0.17c-0.53,0.01-1.06,0.58-1.62,0.64c-0.02-0.09,0.15-0.17-0.01-0.27
			c-0.08,0.31-0.95,0.34-1.13,0.61c-0.24-0.05-0.28-0.28-0.59-0.32l-0.23,0.41c-0.15,0.23-0.42,0.46-0.56,0.59
			c-0.22,0.1-0.51,0.11-0.79,0.12c-0.57,0.01-1.19-0.03-1.76,0.24c0.05-0.08,0.16-0.15,0.06-0.21c-1.85,0.68-4.25,0.86-6.36,1.27
			c0.07-0.12,0.13-0.34-0.01-0.45c-0.07,0.35-0.72,0.51-1.28,0.64c-0.29-0.31-0.94,0.43-1.66,0.27l0.05-0.08
			c-0.49,0.39-0.75-0.14-1.16,0.29l-0.33-0.28c-0.24,0.48-0.73-0.27-1.15-0.04l0.01,0.1c-0.41,0.06-0.59-0.21-0.97-0.18l-0.03-0.06
			c-0.89,0.01-1.29-0.47-1.38-0.07c-0.21-0.38,0.85,0.08,0.5-0.47c-1.39-0.11-2.79-0.7-3.9-1.65c-1.12-0.93-1.95-2.17-2.56-3.45
			c0.01-0.36-0.02-0.57,0.08-0.69c-0.2-0.22-0.45-0.95-0.71-1.13c0.04,0.09,0.13-0.23,0.1-0.38c-0.02-0.52-0.55-0.42-0.53-1.01
			c0.15,0.19,0.29,0.23,0.41,0.13c-0.42-0.38-0.51-1.02-0.7-1.56c0.08,0.07,0.14,0.2,0.26,0.16c-0.46-0.54-0.13-1.12-0.41-1.62
			l0.25,0.17c0.15-0.89-0.5-0.19-0.43-0.96c0.09,0.17,0.17,0.1,0.26,0.12c-0.47-0.65-0.45-1.8-0.62-2.5
			c0.03,0.04,0.09,0.03,0.09,0.03c-0.11-0.76,0.01-1.56-0.2-2.4c0.09-0.31,0.54,0.09,0.45-0.72c-0.45,0.04-0.2-1.37-0.7-0.89
			c0.08-0.69,0.24-1.78,0.1-2.24c0.16,0.31,0.55-0.33,0.58,0.24l0.28-0.43c0.18,0.07-0.07,0.44,0.16,0.31
			c-0.01-0.29-0.18-1.12-0.1-1.38c-0.26-0.54-0.76-1.04-0.79-1.9c0.16,0.41,0.5-0.22,0.57,0.06l-0.82-1.22
			c-0.01-0.29,0.35-0.05,0.25-0.47c-0.12,0.02-0.19-0.16-0.28-0.29c0.06-0.11-0.08-1.19,0.37-1.3c0.17-0.12,0.08,0.47,0.24,0.16
			c0.01-0.53-0.14-0.55-0.14-1.08l0.06-0.01c0.07-0.35-0.16-1.03-0.41-0.66c-0.02,0.24,0.27-0.09,0.13,0.27
			c-0.25-0.25-0.31-0.86-0.31-1.39c0.07,0.18,0.18,0.16,0.31,0.23c-0.33-0.71-0.44-1.46-0.58-2.24c-0.21-0.01,0.38,0.29,0.27,0.41
			c0.29-1.01-0.42-2.07-0.04-2.9c0.04,0.13-0.29,0.08-0.24,0.07c0.01-0.48,0.31-0.47,0.19-0.78c0.18-0.04-0.08-0.39-0.16-0.7
			c-0.14-0.16,0.08-0.09,0.12,0.19c-0.18-0.44-0.58-2.18-0.51-3.2c-0.07,0.03-0.28-0.22-0.41-0.45l1.81,1.18
			c-0.11,0.08-0.22,0.14-0.29,0.16l0.02-0.29c-0.24-0.11-0.72,0.22-0.83,0.01c-0.24,0.3,0.55-0.14,0.99-0.33l-1.26-0.82
			c0.09,0.26,0.13,0.4,0,0.18c0.04-0.05,0.04-0.11,0.01-0.18l1.24,0.8c-0.26,0.12-0.58,0.56-0.55,0.25
			c-0.44,0.14-0.77,0.57-1.28,0.47c0.14,0,0.24-0.48-0.11-0.34c-0.62,0.27-0.14,0.19-0.63,0.46l-0.28,0.23
			c0.07,0.26-0.58,0.18-0.24,0.37c-0.16-0.18-0.87,0.48-0.97,0.05l-0.04-0.36c-0.27,0.13-0.32,0.52-0.48,0.75
			c-0.05-0.01-0.15-0.05-0.15-0.11c0.15,0.51-0.68,0.22-0.86,0.74c-0.65,0.06-1.5,0.58-1.9,0.38c-0.4,0.33-0.75,0.67-1.33,0.75
			c0.09-0.09,0.23-0.15,0.22-0.27c-0.39-0.02-0.42,0.14-0.7,0.33c0.04-0.1-0.78-0.06-1.21-0.13c-0.43,0.29-0.19,0.52-0.18,0.71
			c-0.57-0.37-1.33,0.71-2.04,0.34c0.18-0.09,0.7-0.4,0.25-0.44c-0.54-0.44-0.88,0.56-1.73,0.33l0.22,0.43
			c-0.36-0.23-1.33,0.2-1.19-0.23c-0.16,0.05-0.44-0.04-0.65-0.09c-0.22-0.07-0.41-0.11-0.43,0.11c-0.75-0.42-1.71-1.1-2.17-1.95
			c-0.46-0.82-0.58-1.62-0.24-2.07c-0.11-0.18-0.08-0.66-0.29-0.55c-0.21,0.34,0.23,0.43,0.08,0.57c-0.04-0.17-0.16-0.2-0.22-0.21
			c0.04-0.45,0.08-0.75,0.44-0.4c0.21-0.9-0.75-0.89-0.58-1.95c0.18,0.05,0.24-0.03,0.22-0.33l-0.28-0.59
			c0.1-0.68,0.42-0.37,0.72-0.37c-0.04-0.36,0-0.8-0.21-0.98l0.4-0.41c-0.29,0.3-0.16-0.31-0.22-0.48l0.06,0.17
			c0.13-0.06,0.08-0.48,0.07-0.69c-0.19,0.03-0.3,0.45-0.37,0.68c-0.12-0.19-0.07-0.48-0.2-0.74c0.28,0.11,0.26-0.57,0.32-0.85
			c0.09-0.32-0.22-0.4-0.2-0.49c0.15,0.01,0.09-0.53,0.27-0.25c0.04,0.12-0.18,0.24-0.06,0.44c0.14-0.2,0.4-0.15,0.26-0.62
			c-0.11-0.35-0.59,0.02-0.33-0.6c0.05,0.18,0.17,0.22,0.26,0.36l0.22-0.58l-0.26-0.06c0.08-0.07,0.09-0.01,0.13-0.04
			c-0.25-0.22,0.04-0.92-0.25-1.1c0.01-0.31,0.28-0.61,0.36-0.89l0.01,0.06c0.21-0.33,0.18-0.81,0.06-1.13l0.05,0.03
			c0.06-0.19,0.1-0.64-0.01-0.91c0.29-0.44,1.02,0.03,0.8-0.56c0.09-0.48-0.33-0.86-0.53-0.7c0.36-0.83,0.16-1.92,0.76-2.63
			c-0.08-0.15-0.16-0.09-0.16-0.36c0.41-1.24,0.39-2.75,1.17-3.61c0.01,0.39,0.25,0.1,0.4,0.13c-0.15-0.36,0.34-0.29-0.02-0.51
			c-0.24-0.04-0.34-0.1-0.54,0.23c0.09-0.78,0.42-1.91,0.76-2.25c-0.17,0.17-0.19-0.01-0.21-0.19c0.35,0.16,0.57-0.36,0.57-0.81
			l-0.21-0.13l0.31-0.2c-0.02-0.18-0.42-0.32-0.08-0.66c0.09,0,0.19,0.01,0.28-0.05c-0.06-0.48-0.19-1.18,0.15-1.58l0.44-0.28
			c0.03-0.21-0.07-0.6-0.27-0.28c0.44-0.72,0.62-1.22,0.98-1.38c-0.26-1.57,0.33-3.54,0.9-5.09l0.15,0.1
			c0.29-0.37-0.22-0.31-0.01-0.57c0.11,0.19,0.45-0.21,0.54,0.19c0.37-0.54-0.04-0.87,0.02-1.29c-0.2-0.13,0.04,0.36-0.22,0.19
			c-0.06-0.09,0.44-0.78,0.14-0.98c0.18-0.11,0.38,0.09,0.49,0.22l-0.04-0.42c0.54-0.32,0.35,1.25,0.99,0.94l0.06-0.35
			c0.45-0.21,0.09,1.02,0.49,0.21c-0.04-0.42-0.42-0.89-0.67-0.62c0.16-0.8-0.67-0.62-0.37-1.43c0.27-0.16-0.17,0.67,0.15,0.61
			c0.4-0.3,0.11-0.83,0.32-1.14c-0.25,0.34-0.48-0.09-0.46-0.36c0.3-0.37,0.22,0.38,0.46-0.2c-0.16-0.16-0.12-0.76-0.41-0.33
			c-0.36-0.36,0.33-0.58,0.1-1.01c0.37-0.09,0.5,0.85,0.87,0.25c-0.33,0-0.13-0.94-0.68-0.74c0.17-0.23,0.41-0.18,0.53,0.07
			c0.3-0.3-0.23-1.06,0.39-0.99l-0.26-0.23c0.14-0.08,0.27-0.22,0.49-0.35c0.11-0.32-0.05-1.17,0.39-0.99
			c-0.01-0.12,0.26-0.84-0.15-0.67c-0.35,0.39,0.05,0.6-0.46,0.71c0.46-0.2,0.18-0.67,0.15-0.97L29,51.82
			c-0.01-0.18,0.15-0.53-0.01-0.69c0.06,0.15,0.2,0.13,0.28,0.02l-0.21-0.26c0.09-0.68,0.52,0.01,0.65-0.63l0.04,0.54
			c-0.01-0.12,0.31-0.24,0.33-0.57c-0.2-0.2-0.42-0.51-0.57-0.68c0.01-0.38,0.33-0.06,0.2-0.49l0.14,0.55
			c0.06,0.1,0.51-0.16,0.66-0.63c0.02-0.33-0.17-0.91-0.47-0.49c0.08-0.23,0.34-0.51,0.45-0.26c0.1-0.56-0.29-0.02-0.28-0.53
			c0.23-0.13,0.66-0.63,1.01-0.9l0.24,0.62l0.11-0.31c0.18,0.52,0.32-0.12,0.58,0.23c0.13-0.2,0.1-0.5,0.09-0.74
			c-0.77,0.44-0.5-0.97-1.07-0.96c0.16-0.91,1.41-0.12,0.94-1.29c-0.18,0.1-0.41-0.45-0.46,0.14c0.24-0.52-0.38-0.54,0.05-1.1
			c0.04,0.54,0.68-0.33,0.75,0.45c-0.15-0.1-0.26,0.34-0.25,0.46c0.27-0.15,0.49,0.22,0.68-0.33c0.07-0.35,0.22-0.82-0.07-0.84
			c-0.29-0.09-0.15,0.52-0.36,0.21c0.13-0.7,0.61-0.66,0.2-1.12c-0.11,0.44-0.44,0.44-0.63,0.36l0.05-0.53l0.16,0.16
			c0.41-0.74-0.26-0.35,0.05-1.1l0.5-0.23c0.26,0.29-0.53,1.06,0.05,1.11c0.19-0.49-0.02-0.75,0.28-1.17
			c0.01,0.12-0.03,0.27-0.02,0.39c0.08-0.17,0.84-0.11,0.68-0.96c-0.03-0.42-0.15-0.16-0.35-0.24c0.22-0.82,0.1-1.13,0.24-1.65
			c0.35,0.24,0.35-0.89,0.55-0.19c-0.32,0.18-0.69,1.34-0.42,1.75c0.56-0.13-0.28,0.6,0.12,0.93c0.23-0.64,0.67-0.45,1-0.45
			c0.08-0.17,0.02-0.39,0.01-0.51c-0.25-0.17-0.33,0.06-0.62-0.02c0.32-0.69,0.41-1.43,0.27-1.91c0.22-0.19,0.47-0.02,0.4,0.27
			c0.21-0.88,0.56-1.77,0.92-2.55c-0.63,0.37,0.2-0.94-0.3-0.71c-0.25,0.4-0.7,0.66-0.82,0.35c0.12-0.26,0.2,0.08,0.33,0
			c-0.13-0.43,0.58-0.4,0.31-0.87c-0.12,0.82,0.5,0.34,0.81,0.6c-0.01-0.63,0.24,0.11,0.43-0.44c-0.01-0.63,0.07-1.36,0.2-2.01
			c0.6-0.66,0.67-1.97,0.89-2.67c0.3-0.3,0.62,0.08,0.82-0.29c0.15-0.47-0.55,0.2-0.14-0.43l0.06,0.09
			c-0.02-0.24,0.7-1.17,0.18-1.57l0.37,0.36c0.08-0.12,0.02-0.27,0.01-0.39c0.14,0.04,0.32-0.07,0.35,0.17
			c0.44-0.33,0.25-0.91,0.38-1.37l-0.36,0.21c0.06-0.86,0.49-1.3,0.64-2.1l0.25,0.11l-0.01-0.51c0.21,0.19,0.5-0.18,0.37-0.48
			l0.24,1.39c-0.26,0.28-0.19-0.46-0.51-0.33c-0.27,0.11-0.43,0.84-0.23,1.03c0.12-0.26,0.07-0.29,0.04-0.53
			c0.38,0.03,0.23,0.43,0.4,0.71c0.03-0.15,0.21-0.31,0.1-0.38c0.08,0.34,0.01,0.63-0.13,1.09c-0.03-0.36-0.27,0.1-0.34-0.05
			c0.3,0.14,0.25,0.61-0.03,1.16c-0.49,0.29-0.12,1.16-0.45,1.79c-0.22-0.37-0.36-0.8-0.35-1.25c-0.29,0.37-0.15,0.47-0.44,0.83
			c0.17,0.28,0.48,0.54,0.44,1.14l-0.24-0.05c-0.05,0.53,0.3,0.65,0.02,1.25c-0.47,1.04-0.85,2.14-1.16,2.96l-0.24-0.05
			c0.34,0.63-0.34,1.58-0.33,2.27c-0.58,0.97-0.56,2.34-1.14,2.74c-0.46,1.9-0.85,3.57-1.59,5.45l-0.22-0.44
			c0.13,0.43-0.27,0.16-0.34,0.51c0.4-0.29,0.19,0.58,0.31,0.89c-0.55,0.76-0.65,1.95-0.68,2.78L33.6,48.6
			c0.17,0.91-0.52,1.69-0.92,2.61c-0.13,0.08-0.41,0.17-0.48,0.46c0.2,0.64,0.08,0.9,0.05,1.73c-0.19,0.55-0.59,1.41-0.92,1.92
			c-0.18,2.25-1.23,4.25-1.62,6.51l-0.32,0.07c-0.11,2.28-1.47,4.69-1.72,6.57l-0.41-0.32c-0.32,0.52-0.28,1.32,0.1,1.28
			c-0.32,0.52-0.21,1.47-0.7,1.72c-0.26,0.55,0,0.77-0.08,1.27c-0.53,1.1-0.62,1.54-0.84,2.65l0.11-0.26
			c-0.07-0.15-0.26-0.22-0.37,0.04c0.01,0.44-0.55,1.46,0.12,1.21c-0.65,1.07-0.47,2.77-1.18,3.79c0.18-0.06,0.14,0.23,0.22,0.38
			c-0.24,1.02-0.78,2.02-0.68,2.89c-0.11,0.15-0.21-0.31-0.31,0.1c0.01,0.26,0.2,0.04,0.23,0.37c-0.02,1.7-0.87,3.31-0.96,4.84
			c0.01,1.37-0.06,2.74-0.09,4.11c-0.03,0.67-0.03,1.38-0.03,2.01c0,0.55,0.09,1.03,0.21,1.34l-0.12,0.03
			c0.29,0.14,0.26,0.28,0.29,0.44c0.01,0.15,0.21,0.28,0.43,0c0.03,0.06,0.13,0.09,0.2,0.14c0.08,0.03,0.15,0.08,0.09,0.19
			c0.22-0.13,0.56-0.06,1-0.04c0.44,0.01,0.95-0.03,1.35-0.35c-0.08,0.01-0.13,0.05-0.21,0.12c0.97,0.03,1.7-0.58,2.77-0.72
			c-0.08,0.09-0.26,0.19-0.25,0.31c0.47,0.07,0.74-0.8,1.16-0.35c0.22-0.09,0.06-0.33-0.07-0.26c2.3-0.63,4.5-2.03,7.06-2.96
			c1.71-0.18,0.76,0.6,1.32,0.31l0.96-0.48l0.69,1.56c0.04,0.09,0.1,0.23,0.19,0.44c-0.09,0.14,0.23,0.05,0.11,0.09
			c0.25,0.56-0.48,0.98-0.15,1.34c0.33-0.2,0.22,0.24,0.43,0.23c-0.09,1.18-0.42,1.41-0.08,2.29l-0.19-0.06
			c0.57,1.02,0.33,2.24,0.93,3.11c0.14,5.74,0.05,11.14,0.32,16.41c0.03,2.6,0.34,5.13,0.98,7.4c0.34,1.12,0.76,2.16,1.29,3.06
			c0.54,0.89,1.19,1.61,1.99,2.2c0.14,0.22,0.25,0.41,0.36,0.53c0.12,0.12,0.24,0.2,0.36,0.27c0.12,0.07,0.26,0.12,0.43,0.18
			c0.18,0.04,0.41,0.05,0.69,0.08c-0.06,0.06-0.14,0.06-0.08,0.15c0.08-0.18,0.27-0.14,0.47-0.09c0.2,0.04,0.43,0.05,0.51-0.12
			c0.8,0.18,1.64,0.18,2.5,0.13c0.44-0.04,0.87-0.08,1.32-0.12c0.5-0.06,1-0.12,1.52-0.19c-0.32,0.08-0.45,0.42-0.06,0.35l0.38-0.3
			l0.08,0.1c0.26-0.09,0.53-0.31,0.24-0.41c2.58-0.47,5.23-0.64,7.76-0.79l0.42-0.03c0.04,0,0.18-0.01,0.14-0.01l-0.03,0.01l-0.01,0
			c0,0.02-0.02-0.05,0.01,0.07l0.13,0.52c0.09,0.34,0.2,0.68,0.31,1.02c0.02,0.06,0.08,0.22,0.07,0.2l-0.01,0.01l-0.01,0.03l0,0.03
			l0,0.02l0,0.01l0,0c0.25,0.34-2.16-2.97-1.14-1.57l0.15-0.1c0.1-0.07,0.21-0.12,0.32-0.17l0.33-0.14c0.11-0.04,0.13-0.04,0.2-0.06
			c0.22-0.06,0.49-0.14,0.64-0.17c0.74-0.16,1.38-0.26,2.05-0.38c1.3-0.21,2.59-0.43,3.86-0.68c1.17-0.06,2.74-0.46,4-0.77
			l0.05,4.47c-0.12-0.02-0.22-0.02-0.5-0.11c0,0-0.26-0.09-0.43-0.18c-0.09-0.05-0.18-0.1-0.26-0.16l-0.03-0.02l-0.13-0.11
			c-0.09-0.08-0.18-0.17-0.27-0.28c-0.17-0.21-0.31-0.47-0.4-0.74c-0.17-0.57-0.14-0.95,0-1.41c0.07-0.23,0.19-0.46,0.33-0.65
			c0.07-0.1,0.14-0.18,0.22-0.26c0.07-0.08,0.17-0.16,0.17-0.15c0.14-0.11,0.29-0.21,0.45-0.3c0.17-0.08,0.13-0.06,0.19-0.09
			l0.13-0.04c0.1-0.03,0.12-0.04,0.17-0.05c0.1-0.02,0.16-0.04,0.22-0.04c0.12-0.02,0.2-0.03,0.29-0.03l0.45-0.02l0.79-0.01
			c0.5,0,0.99,0.01,1.48,0.01c0.97,0.01,1.91,0.01,2.85-0.01c0.94-0.03,1.88-0.08,2.82-0.18c0.47-0.05,0.94-0.11,1.41-0.19
			c0.23-0.04,0.46-0.08,0.67-0.13c0.1-0.02,0.21-0.05,0.24-0.07c0,0.02-0.01-0.04,0,0.04l0.09,0.34l0.17,0.59
			c0.04,0.15,0.14,0.35,0.16,0.43c0.02,0.05,0.05,0.09,0.08,0.13c-0.01,0.03,0.05,0.04,0.02,0.03c0,0-0.1,0.13-0.1,0.22
			c-0.04,0.14-0.1,0.32-0.12,0.48c-0.01,0.13-0.08,0.43-0.11,0.64l-0.04,0.29l0,0c0,0,0-0.02,0-0.04c0-0.07,0.13-0.73,0.17-1.03
			c0.02-0.1,0.05-0.2,0.09-0.31c0.01-0.07,0.03-0.14,0.08-0.21c0.01-0.02,0.01-0.04,0.03-0.04c0,0-0.04-0.01-0.03-0.03
			c-0.06-0.07-0.09-0.14-0.13-0.27c-0.06-0.15-0.12-0.31-0.16-0.48c-0.03-0.12-0.07-0.24-0.1-0.36c-0.02-0.09,0-0.01-0.01-0.02
			c0.01,0.03-0.02,0.07-0.03,0.11C84.17,128.02,83.65,128.4,82.85,128.61z"/>
		<path class="st0" d="M41.68,23.47c-0.23,0.07-0.47,0.48-0.61,0.05C41.25,23.54,41.52,23.38,41.68,23.47z"/>
		<path class="st0" d="M35.9,34.44c0.05,0.03-0.13,0.14-0.17,0.17c0.03-0.15-0.08-0.33,0.06-0.42
			C35.75,34.34,35.85,34.35,35.9,34.44z"/>
		<path class="st0" d="M34.78,37.36c-0.15-0.1-0.06-0.78,0.04-1.16L34.78,37.36z"/>
		<path class="st0" d="M33.14,39.87c-0.22,0.19-0.28,0.1-0.16-0.22C33.08,39.66,33.09,39.78,33.14,39.87z"/>
		<path class="st0" d="M33.45,40.2c-0.07,0.23-0.21,0.31-0.35,0.39C33.25,40.63,33.2,40.02,33.45,40.2z"/>
		<path class="st0" d="M30.9,46c-0.04,0.15-0.01,0.51-0.24,0.58C30.84,46.47,30.69,45.81,30.9,46z"/>
		<path class="st0" d="M30.18,48.87c-0.04,0.09-0.08,0.11-0.08,0.23c-0.13,0.14-0.19-0.08-0.16-0.22L30.18,48.87z"/>
		<polygon class="st0" points="25.15,99.83 24.79,99.95 24.83,99.77 		"/>
		<path class="st0" d="M37.56,103.43c0.11,0.32-0.17,0.22-0.19,0.27C37.35,103.41,37.58,103.8,37.56,103.43z"/>
		<polygon class="st0" points="38.22,116.09 38.21,115.99 38.57,116.02 		"/>
	</g>
	<g>
		<path class="st0" d="M45.71,18.07c0.39-0.37-0.41-0.09,0.21-0.31C45.94,17.92,45.92,18.07,45.71,18.07z"/>
		<path class="st0" d="M47.45,16.74c0.55-0.83,1.5-1.3,2.49-1.69c0.99-0.39,2.03-0.69,2.86-1.3c0.21-0.11,0.11,0.49,0.56,0.21
			c1.57-1.31,4.63-1.74,7-1.72l-0.1,0.17c0.45,0,0.87-0.58,1.34-0.61c0.02,0.09-0.12,0.16,0.02,0.27c0.05-0.3,0.8-0.31,0.95-0.56
			c0.2,0.07,0.23,0.29,0.49,0.37l0.2-0.37c0.58-0.9,1.78-0.3,2.71-0.86c-0.04,0.08-0.12,0.16-0.03,0.22
			c1.53-0.75,3.57-0.98,5.36-1.39c-0.06,0.12-0.1,0.34,0.03,0.45c0.04-0.35,0.59-0.51,1.07-0.64c0.26,0.32,0.8-0.42,1.39-0.3
			l-0.04,0.08c0.38-0.41,0.65,0.14,0.95-0.34l0.3,0.24c0.13-0.51,0.64,0.19,0.96-0.1l-0.02-0.1c0.32-0.15,0.51,0.07,0.81-0.04
			l0.03,0.05c0.71-0.2,1.15,0.04,1.1-0.34c0.28,0.28-0.68,0.21-0.25,0.61c2.32-0.61,4.77-0.7,7.16-0.82
			c0.28,0.14,0.45,0.18,0.52,0.33c0.23-0.09,0.89-0.11,1.1-0.31c-0.08,0.01,0.16,0.19,0.29,0.21c0.44,0.13,0.46-0.44,0.94-0.28
			c-0.19,0.11-0.25,0.23-0.18,0.37c0.4-0.31,0.94-0.27,1.42-0.38c-0.07,0.07-0.19,0.11-0.17,0.23c0.52-0.35,0.96,0.06,1.42-0.16
			l-0.17,0.22C90.7,8.73,90.17,8,90.81,8.16c-0.15,0.07-0.1,0.16-0.13,0.25C91.28,8,92.25,8.13,92.85,8
			c-0.04,0.03-0.03,0.09-0.03,0.09c0.65-0.05,1.33,0.09,2.05-0.06c0.26,0.11-0.1,0.54,0.59,0.48c-0.01-0.45,1.17-0.14,0.79-0.66
			c0.59,0.09,1.51,0.31,1.91,0.18c-0.27,0.15,0.25,0.56-0.24,0.57l0.35,0.29c-0.07,0.18-0.37-0.08-0.27,0.15
			c0.24-0.01,0.96-0.13,1.18-0.05c0.47-0.24,0.92-0.72,1.67-0.71c-0.36,0.14,0.15,0.51-0.09,0.56l1.1-0.75
			c0.25,0.01,0.02,0.35,0.38,0.28c-0.01-0.12,0.16-0.18,0.27-0.26c0.09,0.06,1.04,0.01,1.09,0.46c0.09,0.18-0.41,0.04-0.16,0.23
			c0.45,0.05,0.49-0.1,0.94-0.04l0,0.06c0.29,0.11,0.9-0.06,0.62-0.34c-0.21-0.04,0.04,0.27-0.25,0.1c0.25-0.22,0.79-0.21,1.24-0.13
			c-0.17,0.04-0.17,0.16-0.25,0.27c0.66-0.24,1.33-0.22,2.05-0.21c0.05-0.2-0.34,0.32-0.41,0.19c0.8,0.46,1.91,0.02,2.52,0.65
			c-0.13,0,0.02-0.3,0.01-0.24c0.42,0.16,0.3,0.43,0.61,0.42c-0.03,0.18,0.36,0.07,0.66,0.12c0.19-0.06,0.04,0.1-0.21,0.03
			c0.22,0.01,0.75,0.09,1.33,0.32c0.58,0.23,1.22,0.61,1.57,1.11c0.05-0.13,0.85,0.19,1.03,0.51l-0.29,0.06
			c0.01,0.17,0.18,0.35,0.27,0.58c0.1,0.22,0.18,0.42,0.07,0.48c0.26,0.3,0.01-0.39-0.41-0.81c-0.4-0.43-0.83-0.66-0.46-0.49
			c-0.01,0.16,0.25,0.26,0.47,0.42c0.22,0.15,0.39,0.3,0.18,0.3c0.09,0.17,0.2,0.34,0.31,0.51c0.09,0.18,0.18,0.38,0.24,0.58
			l0.02,0.05l0,0.19c0,0.19-0.04,0.37-0.16,0.54c0.06-0.14-0.33-0.43-0.36-0.04c-0.05,0.68,0.12,0.21,0.1,0.78l0.01,0.37
			c0.25,0.1-0.23,0.6,0.14,0.44c-0.2,0.02-0.29,1.03-0.66,0.77l-0.27-0.24c-0.11,0.26,0.12,0.6,0.13,0.89
			c-0.05,0.02-0.15,0.04-0.19,0c0.42,0.33-0.44,0.56-0.33,1.09c-0.28,0.17-0.55,0.46-0.81,0.7c-0.26,0.24-0.53,0.39-0.74,0.36
			c-0.23,0.43-0.45,0.84-0.95,1.04c0.06-0.1,0.16-0.19,0.12-0.3c-0.35,0.06-0.33,0.22-0.53,0.46c0.01-0.09-0.71,0.08-1.1,0.09
			c-0.29,0.36-0.02,0.53,0.03,0.71c-0.6-0.27-0.94,0.88-1.6,0.67c0.11-0.12,0.45-0.51,0.08-0.47c-0.57-0.31-0.55,0.67-1.23,0.7
			l0.31,0.34c-0.36-0.13-0.77,0.58-0.87,0.15c-0.14,0.22-0.74,0.13-0.53,0.5c-1.08,0.02-2.32,1.01-3.13,0.45
			c-0.12,0.11-0.49,0.14-0.36,0.33c0.3,0.17,0.28-0.26,0.41-0.13c-0.12,0.05-0.12,0.17-0.11,0.23c-0.33-0.01-0.58,0.02-0.39-0.39
			c-0.74-0.08-0.51,0.89-1.42,0.95c0-0.18-0.09-0.23-0.33-0.14l-0.41,0.41c-0.58,0.07-0.41-0.32-0.49-0.6
			c-0.29,0.12-0.65,0.19-0.74,0.43l-0.44-0.29c0.32,0.21-0.21,0.23-0.33,0.33l0.13-0.1c-0.08-0.11-0.41,0.04-0.58,0.11
			c0.08,0.17,0.45,0.17,0.65,0.18c-0.13,0.16-0.37,0.18-0.55,0.38c0.01-0.3-0.53-0.11-0.78-0.1c-0.29-0.01-0.26,0.32-0.34,0.32
			c-0.04-0.15-0.45,0.06-0.28-0.19c0.08-0.07,0.24,0.1,0.37-0.06c-0.2-0.08-0.23-0.34-0.57-0.08c-0.26,0.2,0.18,0.56-0.39,0.47
			c0.13-0.1,0.13-0.22,0.22-0.34l-0.53-0.06l0.02,0.27c-0.08-0.06-0.04-0.09-0.07-0.12c-0.1,0.3-0.75,0.22-0.82,0.55
			c-0.25,0.07-0.57-0.1-0.81-0.09l0.04-0.03c-0.32-0.11-0.7,0.05-0.92,0.27l0-0.06c-0.17,0.01-0.54,0.1-0.73,0.28
			c-0.44-0.14-0.28-0.98-0.68-0.58c-0.41,0.07-0.59,0.57-0.4,0.72c-0.77-0.09-1.57,0.46-2.31,0.12c-0.1,0.12-0.02,0.18-0.24,0.27
			c-1.11,0.02-2.3,0.56-3.22,0.12c0.31-0.14,0-0.27-0.02-0.42c-0.24,0.26-0.34-0.22-0.4,0.2c0.05,0.24,0.03,0.36,0.35,0.43
			c-0.65,0.19-1.65,0.27-2.03,0.08c0.19,0.1,0.06,0.18-0.08,0.26c0.02-0.39-0.47-0.41-0.83-0.24l-0.03,0.24l-0.26-0.22
			c-0.14,0.09-0.12,0.5-0.5,0.3c-0.03-0.09-0.05-0.18-0.13-0.24c-0.36,0.22-0.88,0.58-1.3,0.41l-0.36-0.32
			c-0.17,0.05-0.46,0.27-0.14,0.35c-0.72-0.16-1.17-0.16-1.41-0.44c-1.17,0.79-2.88,0.93-4.34,0.94l0.04-0.18
			c-0.39-0.15-0.19,0.31-0.46,0.2c0.12-0.17-0.31-0.35-0.01-0.57c-0.55-0.16-0.7,0.33-1.05,0.42c-0.05,0.23,0.28-0.15,0.22,0.14
			c-0.06,0.08-0.76-0.16-0.84,0.19c-0.14-0.13-0.04-0.39,0.03-0.54l-0.33,0.18c-0.41-0.4,0.92-0.75,0.48-1.24l-0.3,0.06
			c-0.3-0.36,0.8-0.43,0.03-0.54c-0.33,0.18-0.6,0.69-0.31,0.84c-0.69,0.1-0.31,0.83-1.06,0.81c-0.21-0.2,0.6-0.05,0.45-0.34
			c-0.35-0.28-0.71,0.16-1.02,0.06c0.35,0.13,0.05,0.48-0.17,0.55c-0.38-0.17,0.25-0.33-0.29-0.37c-0.09,0.2-0.59,0.35-0.16,0.49
			c-0.2,0.46-0.56-0.13-0.86,0.22c-0.17-0.32,0.57-0.73-0.02-0.9c0.09,0.31-0.74,0.41-0.43,0.87c-0.23-0.09-0.25-0.34-0.08-0.52
			c-0.33-0.19-0.82,0.54-0.91-0.07l-0.12,0.31c-0.1-0.11-0.25-0.19-0.41-0.36c-0.29-0.01-0.96,0.39-0.91-0.08
			c-0.1,0.05-0.76,0-0.52,0.34c0.41,0.22,0.49-0.22,0.7,0.23c-0.28-0.38-0.6,0.03-0.85,0.14l-0.03-0.19
			c-0.15,0.07-0.47,0.01-0.57,0.2c0.12-0.1,0.06-0.23-0.05-0.28l-0.17,0.27c-0.59,0.11-0.11-0.5-0.68-0.45l0.44-0.19
			c-0.1,0.04-0.27-0.23-0.55-0.16c-0.12,0.25-0.33,0.55-0.44,0.74c-0.33,0.09-0.12-0.3-0.46-0.05l0.43-0.28
			c0.07-0.08-0.25-0.44-0.67-0.46c-0.28,0.07-0.72,0.41-0.3,0.58c-0.21-0.01-0.5-0.19-0.32-0.36c-0.49,0.05,0.04,0.28-0.38,0.41
			c-0.16-0.18-0.67-0.47-0.97-0.74l0.47-0.39l-0.29-0.03c0.4-0.31-0.17-0.28,0.07-0.62c-0.19-0.07-0.44,0.03-0.63,0.11
			c0.53,0.63-0.71,0.74-0.59,1.28c-0.8,0.07-0.38-1.32-1.27-0.58c0.12,0.15-0.3,0.51,0.21,0.41c-0.48-0.1-0.38,0.5-0.94,0.22
			c0.45-0.18-0.41-0.58,0.24-0.83c-0.06,0.17,0.33,0.17,0.43,0.13c-0.18-0.22,0.09-0.53-0.41-0.58c-0.31,0.02-0.73-0.01-0.69,0.27
			c-0.02,0.3,0.47,0.02,0.24,0.3c-0.62,0.04-0.67-0.43-0.98,0.08c0.39,0,0.45,0.32,0.42,0.53l-0.46,0.08l0.11-0.19
			c-0.7-0.22-0.25,0.34-0.94,0.21l-0.28-0.43c0.2-0.32,0.99,0.27,0.93-0.3c-0.45-0.07-0.63,0.19-1.04,0
			c0.1-0.04,0.23-0.04,0.33-0.07c-0.17-0.04-0.22-0.79-0.94-0.44c-0.37,0.12-0.12,0.18-0.15,0.39c-0.76-0.04-1.02,0.13-1.51,0.08
			c0.17-0.38-0.84-0.19-0.24-0.51c0.2,0.28,1.29,0.43,1.61,0.08c-0.21-0.52,0.59,0.15,0.79-0.33c-0.58-0.08-0.5-0.55-0.55-0.87
			c-0.16-0.04-0.33,0.07-0.43,0.1c-0.11,0.28,0.1,0.31,0.07,0.61c-0.65-0.17-1.3-0.12-1.71,0.09c-0.19-0.18-0.07-0.46,0.19-0.44
			c-0.79-0.05-1.61-0.27-2.31-0.53c0.36,0.58-0.84-0.09-0.62,0.37c0.37,0.21,0.63,0.62,0.36,0.77c-0.24-0.09,0.06-0.2-0.02-0.33
			c-0.38,0.18-0.39-0.53-0.8-0.22c0.75,0.04,0.29-0.53,0.52-0.85c-0.56,0.07,0.09-0.25-0.4-0.39c-0.55,0.06-1.21,0.03-1.79-0.09
			c-0.57-0.57-1.74-0.69-2.36-1.04c-0.22-0.35,0.21-0.59-0.07-0.85c-0.38-0.24,0.02,0.58-0.42,0.03l0.1-0.03
			c-0.26-0.03-0.74-0.97-1.33-0.83c0.17-0.02,0.34-0.05,0.5-0.1c-0.05-0.12-0.2-0.17-0.31-0.23c0.12-0.09,0.16-0.28,0.35-0.17
			c0.01-0.24-0.07-0.41-0.19-0.58l-0.17-0.29C43.03,20.5,43,20.38,43,20.27c-0.09,0.09-0.18,0.2-0.26,0.32
			c-0.14-0.44-0.04-0.86,0.13-1.16c0.17-0.32,0.38-0.57,0.59-0.88l0.19,0.19c0.05-0.14,0.1-0.3,0.17-0.43
			c0.11,0.25,0.5,0.11,0.51-0.2c-0.12,0.41-0.22,0.81-0.24,1.19c-0.3,0.12-0.06-0.43-0.37-0.46c-0.29-0.04-0.63,0.61-0.4,0.81
			c0.11-0.21,0.08-0.24,0.1-0.46c0.36,0.13,0.14,0.43,0.33,0.66c0.02-0.1,0.18-0.18,0.1-0.25c0.05,0.27,0.02,0.44-0.02,0.69
			c-0.11-0.2-0.24,0.08-0.33,0.01c0.34,0.07,0.39,0.24,0.47,0.57c-0.11,0.2,0.05,0.35,0.28,0.44c0.21,0.1,0.48,0.16,0.66,0.35
			c-0.36,0.15-0.77,0.17-1.1,0c0.13,0.39,0.29,0.28,0.48,0.65c0.3-0.09,0.61-0.32,1.06-0.22l-0.1,0.22
			c0.43,0.09,0.59-0.22,1.03,0.06c0.77,0.49,1.7,0.8,2.37,1.03l-0.04,0.24c0.53-0.38,1.34,0.17,1.93,0.07
			c0.85,0.44,2,0.18,2.39,0.67c1.62,0.08,3.09,0.02,4.78,0.29l-0.32,0.32c0.33-0.23,0.18,0.22,0.48,0.2
			c-0.32-0.32,0.45-0.32,0.68-0.52c0.73,0.34,1.74,0.12,2.42-0.07l0.01,0.25c0.71-0.41,1.49,0.05,2.34,0.17
			c0.09,0.11,0.23,0.35,0.49,0.33c0.48-0.37,0.72-0.33,1.4-0.54c0.49,0.02,1.28,0.15,1.78,0.31c1.86-0.5,3.74-0.14,5.64-0.53
			l0.15,0.28c1.8-0.67,4.15-0.27,5.74-0.68l-0.12,0.5c0.51,0.12,1.13-0.2,0.98-0.54c0.51,0.12,1.23-0.32,1.58,0.06
			c0.52,0.05,0.61-0.27,1.03-0.37c1.04,0.11,1.41,0.03,2.37-0.14l-0.24-0.01c-0.1,0.12-0.09,0.32,0.15,0.34
			c0.35-0.17,1.33,0.01,0.92-0.54c1.06,0.24,2.36-0.51,3.4-0.17c-0.1-0.15,0.14-0.21,0.24-0.33c0.89-0.11,1.87,0.09,2.55-0.28
			c0.15,0.06-0.19,0.3,0.18,0.27c0.21-0.09-0.02-0.21,0.23-0.33c1.39-0.5,2.95-0.14,4.24-0.46c2.24-0.73,4.63-1.12,6.71-1.82
			l0.01,0.12c0.56-0.64,1.79-0.09,2.09-0.94c0.2,0.04,0.62-0.18,0.59,0.07c0.41-0.5,1.61-0.34,2.14-1.09
			c-0.07,0.02-0.1,0.06-0.15,0.15c0.43-0.07,0.76-0.27,1.06-0.49c0.32-0.21,0.63-0.44,1.02-0.59c-0.04,0.09-0.14,0.21-0.1,0.32
			c0.39-0.02,0.34-0.82,0.8-0.5c0.13-0.12-0.09-0.3-0.15-0.22c0.71-0.44,1.26-1.08,1.62-1.75c0.32-0.69,0.4-1.39,0.39-2.06
			l0.13,0.36c-0.05,0.01-0.09,0.02-0.12,0.03c-0.02-0.01,0.07-0.05,0.08-0.1c0.02-0.05,0.05-0.1,0.08-0.14
			c0.06-0.09,0.13-0.15,0.19-0.19c0.12-0.08,0.18-0.09-0.22-0.2c0.02-0.12-0.18,0.13-0.11,0.04c-0.3-0.06-0.05-0.83-0.45-0.72
			c-0.08,0.35-0.25,0.08-0.36,0.26c-0.58-0.55-0.65-0.92-1.38-0.9l0.11-0.15c-0.92,0.22-1.75-0.3-2.57,0.13
			c-4.44-0.87-9.01-0.81-13.57-0.85c-4.53-0.2-8.98,0.22-13.61,0.25c-1.12-0.4-1.2-0.37-2.37-0.08c0.04-0.08,0.11-0.11,0.03-0.17
			c-0.02,0.4-0.83,0.12-0.91,0.5c-1.71,0.09-3.26,0.38-5,0.61c0.27-0.08,0.37-0.42,0.04-0.35L71.72,12l-0.07-0.1
			c-0.22,0.09-0.43,0.31-0.19,0.41c-4.3,0.93-8.7,0.93-12.83,2.11c-1.03,0.09-2.37,0.64-3.39,1.05c-1.62,0.24-3.15,0.55-4.61,1.05
			c-1.45,0.49-2.84,1.2-4.02,2.22c0,0-0.06-0.26,0.01-0.65C46.69,17.69,46.9,17.19,47.45,16.74z"/>
		<path class="st0" d="M45.23,18.47c-0.2-0.09-0.57,0.07-0.5-0.32C44.87,18.27,45.15,18.31,45.23,18.47z"/>
		<path class="st0" d="M48.61,25.55c0.03-0.05,0.13,0.12,0.15,0.16c-0.13-0.02-0.3,0.11-0.38-0.02
			C48.52,25.7,48.53,25.61,48.61,25.55z"/>
		<path class="st0" d="M51.28,26.3c-0.07,0.17-0.69,0.18-1.04,0.12L51.28,26.3z"/>
		<path class="st0" d="M53.74,27.44c0.21,0.17,0.14,0.25-0.17,0.2C53.55,27.55,53.66,27.51,53.74,27.44z"/>
		<path class="st0" d="M53.97,27.07c0.22,0.02,0.31,0.14,0.4,0.25C54.39,27.17,53.87,27.35,53.97,27.07z"/>
		<path class="st0" d="M59.37,28.13c0.13,0,0.43-0.13,0.53,0.08C59.78,28.06,59.25,28.38,59.37,28.13z"/>
		<path class="st0" d="M61.93,28.06c0.08,0.02,0.11,0.05,0.21,0.01c0.15,0.09-0.02,0.21-0.15,0.21L61.93,28.06z"/>
		<polygon class="st0" points="107.67,22.1 107.45,22.3 107.42,22.12 		"/>
		<path class="st0" d="M106.32,8.15c-0.29,0.06-0.16-0.2-0.2-0.23C106.36,7.95,105.98,8.12,106.32,8.15z"/>
		<polygon class="st0" points="95.36,8.01 95.45,8 95.41,8.36 		"/>
	</g>
	<g>
		<path class="st0" d="M114.62,15.22c-0.03-0.42-0.33,0.19-0.1-0.29C114.65,15.01,114.75,15.1,114.62,15.22z"/>
		<path class="st0" d="M120.4,126.34c-0.71-0.34-1.2-0.98-1.48-1.73c-0.3-0.74-0.57-1.51-1.15-2.06c-0.11-0.14,0.48-0.16,0.2-0.46
			c-1.16-1.07-1.62-3.36-1.51-5.19l0.17,0.06c0.01-0.34-0.56-0.6-0.59-0.96c0.09-0.03,0.16,0.07,0.26-0.04
			c-0.3-0.01-0.31-0.57-0.55-0.66c0.07-0.16,0.29-0.21,0.37-0.41l-0.36-0.12c-0.87-0.36-0.25-1.33-0.81-1.99
			c0.08,0.02,0.16,0.08,0.21,0.01c-0.76-1.09-0.92-2.63-1.34-3.96c0.12,0.03,0.34,0.05,0.45-0.05c-0.35-0.01-0.51-0.41-0.64-0.77
			c0.31-0.22-0.41-0.58-0.28-1.04l0.08,0.03c-0.41-0.26,0.14-0.5-0.33-0.69l0.24-0.24c-0.51-0.07,0.19-0.49-0.1-0.72l-0.1,0.02
			c-0.15-0.23,0.07-0.39-0.04-0.61l0.05-0.03c-0.2-0.52,0.02-0.87-0.36-0.81c0.28-0.23,0.21,0.5,0.62,0.15
			c-0.6-1.72-0.74-3.56-0.89-5.34c0.14-0.22,0.17-0.35,0.32-0.41c-0.09-0.17-0.13-0.67-0.34-0.81c0.01,0.06,0.19-0.13,0.2-0.23
			c0.12-0.34-0.45-0.32-0.31-0.69c0.11,0.13,0.24,0.17,0.38,0.11c-0.32-0.28-0.31-0.69-0.44-1.04c0.07,0.05,0.11,0.14,0.23,0.11
			c-0.37-0.37,0.03-0.72-0.21-1.05l0.23,0.11c0.24-0.57-0.47-0.13-0.34-0.62c0.08,0.11,0.16,0.06,0.25,0.08
			c-0.43-0.42-0.34-1.16-0.5-1.6c0.03,0.03,0.09,0.01,0.09,0.01c-0.08-0.49,0.01-1-0.18-1.53c0.09-0.2,0.54,0.04,0.44-0.47
			c-0.44,0.04-0.22-0.87-0.71-0.54c0.05-0.45,0.19-1.15,0.03-1.44c0.18,0.19,0.53-0.24,0.59,0.13l0.26-0.29
			c0.18,0.03-0.05,0.29,0.18,0.19c-0.03-0.18-0.22-0.71-0.16-0.88c-0.29-0.33-0.8-0.63-0.88-1.18c0.18,0.25,0.49-0.16,0.57,0.01
			l-0.87-0.74c-0.03-0.18,0.35-0.05,0.23-0.31c-0.12,0.02-0.19-0.1-0.29-0.17c0.05-0.07-0.13-0.76,0.31-0.85
			c0.17-0.09,0.1,0.3,0.25,0.09c-0.01-0.34-0.16-0.35-0.18-0.69l0.06-0.01c0.06-0.22-0.2-0.66-0.44-0.41
			c-0.01,0.16,0.26-0.06,0.14,0.17c-0.26-0.15-0.34-0.55-0.35-0.88c0.07,0.11,0.19,0.1,0.31,0.14c-0.35-0.45-0.47-0.93-0.62-1.44
			c-0.21,0,0.38,0.18,0.27,0.26c0.28-0.66-0.43-1.34-0.02-1.89c0.04,0.09-0.3,0.05-0.24,0.04c0.02-0.31,0.32-0.3,0.21-0.51
			c0.18-0.02-0.06-0.26-0.12-0.47c-0.13-0.11,0.09-0.06,0.11,0.13c-0.15-0.29-0.44-1.46-0.18-2.15c-0.12,0.01-0.43-0.41-0.42-0.57
			l0.27,0.06c0.16-0.14-0.03-0.52,0.21-0.55c-0.34-0.33,0.29,1.28,0.03,0.83c0.23-0.12-0.44-0.62-0.07-0.53
			c-0.01-0.31-0.32-0.61-0.07-0.91c-0.04,0.09,0.38,0.25,0.36,0c-0.05-0.44-0.13-0.13-0.23-0.49l-0.11-0.23
			c-0.27-0.01,0.03-0.4-0.26-0.23c0.22-0.06-0.14-0.65,0.3-0.6l0.35,0.06c-0.03-0.19-0.37-0.31-0.52-0.46
			c0.03-0.03,0.1-0.08,0.16-0.07c-0.53-0.03,0.04-0.46-0.37-0.68c0.18-0.4,0.01-1.02,0.34-1.22c-0.16-0.31-0.36-0.59-0.25-0.94
			c0.05,0.07,0.07,0.17,0.18,0.18c0.16-0.22,0.01-0.28-0.07-0.48c0.08,0.05,0.31-0.45,0.5-0.7c-0.16-0.31-0.45-0.2-0.63-0.23
			c0.53-0.29-0.35-0.87,0.13-1.23c0.07,0.11,0.26,0.45,0.39,0.19c0.52-0.29-0.39-0.57-0.14-1.02l-0.44,0.11
			c0.27-0.2-0.26-0.67,0.19-0.62c-0.16-0.15,0.14-0.54-0.28-0.49c0.36-0.75-0.22-1.82,0.55-2.28c-0.07-0.11,0-0.37-0.22-0.32
			c-0.24,0.18,0.17,0.25,0.01,0.31c-0.01-0.1-0.13-0.12-0.19-0.13c0.1-0.23,0.13-0.41,0.48-0.19c0.27-0.52-0.73-0.53-0.55-1.19
			c0.18,0.03,0.24-0.02,0.22-0.21l-0.3-0.37c0.07-0.43,0.4-0.24,0.7-0.25c-0.05-0.23-0.03-0.51-0.26-0.61l0.38-0.27
			c-0.27,0.2-0.18-0.19-0.25-0.3l0.07,0.11c0.13-0.04,0.05-0.3,0.02-0.44c-0.19,0.03-0.26,0.3-0.32,0.44
			c-0.13-0.12-0.1-0.3-0.25-0.45c0.29,0.05,0.21-0.37,0.24-0.55c0.06-0.21-0.26-0.24-0.25-0.3c0.15,0,0.03-0.34,0.24-0.17
			c0.05,0.07-0.15,0.16-0.02,0.28c0.11-0.14,0.38-0.12,0.19-0.4c-0.14-0.21-0.58,0.05-0.39-0.35c0.07,0.11,0.19,0.13,0.29,0.21
			l0.16-0.38l-0.27-0.02c0.07-0.05,0.09-0.01,0.13-0.04c-0.28-0.12-0.08-0.58-0.4-0.67c-0.03-0.19,0.19-0.4,0.22-0.58l0.02,0.04
			c0.16-0.22,0.06-0.52-0.12-0.71l0.06,0.01c0.02-0.12-0.02-0.41-0.17-0.57c0.21-0.3,1.01-0.09,0.68-0.43c0-0.31-0.48-0.5-0.65-0.38
			c0.19-0.56-0.24-1.21,0.19-1.72c-0.11-0.08-0.18-0.03-0.24-0.2c0.12-0.82-0.28-1.75,0.26-2.39c0.11,0.24,0.27,0.02,0.42,0.02
			c-0.23-0.2,0.25-0.23-0.15-0.31c-0.24,0.01-0.36-0.01-0.46,0.22c-0.12-0.5-0.1-1.24,0.13-1.51c-0.11,0.13-0.19,0.03-0.26-0.08
			c0.38,0.04,0.45-0.32,0.32-0.59l-0.23-0.04l0.25-0.17c-0.07-0.11-0.49-0.13-0.26-0.4c0.09-0.01,0.18-0.03,0.25-0.07
			c-0.18-0.29-0.5-0.7-0.29-1l0.35-0.24c-0.03-0.13-0.23-0.36-0.34-0.13c0.22-0.52,0.26-0.86,0.56-1.02
			c-0.7-0.93-0.68-2.25-0.59-3.3l0.17,0.04c0.17-0.28-0.3-0.16-0.17-0.35c0.16,0.1,0.37-0.2,0.57,0.03c0.2-0.4-0.29-0.53-0.36-0.8
			c-0.23-0.05,0.14,0.22-0.15,0.16c-0.08-0.05,0.2-0.55-0.15-0.63c0.14-0.1,0.39-0.01,0.53,0.05l-0.16-0.25
			c0.42-0.29,0.7,0.72,1.22,0.42l-0.05-0.23c0.37-0.2,0.39,0.62,0.54,0.05c-0.16-0.25-0.66-0.48-0.82-0.27
			c-0.08-0.52-0.82-0.27-0.77-0.83c0.21-0.14,0.03,0.45,0.32,0.35c0.29-0.25-0.14-0.53-0.03-0.76c-0.14,0.25-0.49,0.02-0.54-0.15
			c0.18-0.28,0.32,0.2,0.38-0.2c-0.2-0.07-0.34-0.45-0.49-0.14c-0.45-0.16,0.14-0.41-0.2-0.64c0.33-0.12,0.73,0.44,0.9,0.01
			c-0.31,0.06-0.4-0.56-0.87-0.35c0.09-0.17,0.34-0.18,0.52-0.04c0.2-0.24-0.54-0.62,0.08-0.68l-0.31-0.1
			c0.11-0.07,0.19-0.18,0.36-0.3c0.01-0.22-0.4-0.72,0.08-0.68c-0.05-0.07,0-0.57-0.34-0.39c-0.21,0.3,0.22,0.36-0.23,0.52
			c0.37-0.2-0.03-0.45-0.14-0.63l0.19-0.02c-0.07-0.11-0.02-0.35-0.21-0.43c0.1,0.09,0.23,0.05,0.28-0.03l-0.28-0.12
			c-0.12-0.44,0.5-0.08,0.44-0.5l0.2,0.33c-0.04-0.07,0.23-0.2,0.15-0.41c-0.25-0.09-0.55-0.25-0.75-0.33
			c-0.1-0.24,0.29-0.09,0.04-0.34l0.29,0.32c0.08,0.05,0.43-0.19,0.44-0.5c-0.08-0.21-0.43-0.54-0.59-0.23
			c0-0.16,0.17-0.37,0.35-0.24c-0.07-0.36-0.28,0.03-0.42-0.28c0.18-0.12,0.44-0.5,0.7-0.73l0.41,0.34l0.02-0.21
			c0.33,0.29,0.27-0.13,0.62,0.05c0.06-0.14-0.05-0.33-0.14-0.47c-0.6,0.4-0.77-0.52-1.3-0.42c-0.11-0.6,1.31-0.3,0.51-0.96
			c-0.14,0.09-0.53-0.22-0.4,0.16c0.08-0.36-0.52-0.28-0.28-0.7c0.2,0.33,0.55-0.31,0.85,0.16c-0.17-0.04-0.15,0.25-0.1,0.32
			c0.21-0.14,0.53,0.06,0.55-0.31c-0.04-0.23-0.03-0.54-0.31-0.51c-0.3-0.01,0.01,0.35-0.29,0.19c-0.08-0.46,0.39-0.51-0.14-0.73
			c0.03,0.29-0.29,0.34-0.5,0.33l-0.11-0.34l0.2,0.08c0.18-0.53-0.36-0.18-0.27-0.7l0.41-0.22c0.34,0.14-0.19,0.75,0.37,0.69
			c0.04-0.34-0.24-0.46-0.07-0.77c0.04,0.07,0.05,0.17,0.1,0.24c0.03-0.12,0.77-0.2,0.37-0.7c-0.15-0.26-0.19-0.08-0.4-0.1
			c-0.03-0.55-0.23-0.72-0.24-1.07c0.4,0.1,0.08-0.62,0.47-0.2c-0.25,0.16-0.27,0.95,0.1,1.16c0.5-0.17-0.09,0.42,0.39,0.57
			c0.04-0.43,0.51-0.38,0.83-0.43c0.03-0.12-0.1-0.24-0.14-0.32c-0.29-0.07-0.3,0.09-0.6,0.08c0.11-0.48-0.03-0.96-0.3-1.24
			c0.16-0.15,0.44-0.08,0.46,0.11c-0.05-0.58,0.03-1.2,0.15-1.74c-0.5,0.32-0.07-0.62-0.48-0.4c-0.13,0.29-0.49,0.52-0.69,0.34
			c0.04-0.18,0.21,0.02,0.32-0.05c-0.24-0.25,0.44-0.33,0.05-0.59c0.12,0.54,0.58,0.14,0.94,0.27c-0.18-0.39,0.27,0.03,0.29-0.34
			c-0.18-0.39-0.31-0.87-0.36-1.3c0.4-0.5,0.11-1.34,0.13-1.81c0.21-0.23,0.62-0.03,0.71-0.29c0.02-0.31-0.48,0.19-0.24-0.25
			l0.08,0.05c-0.09-0.15,0.36-0.83-0.23-1.02l0.44,0.18c0.05-0.08-0.05-0.17-0.09-0.25c0.15,0.01,0.29-0.08,0.38,0.07
			c0.34-0.26,0.01-0.6,0.02-0.92l-0.29,0.17c-0.16-0.55,0.15-0.88,0.1-1.41l0.26,0.04l-0.13-0.32c0.25,0.1,0.44-0.16,0.25-0.34
			l0.56,0.86c-0.18,0.2-0.29-0.27-0.57-0.16c-0.24,0.09-0.22,0.58,0.03,0.68c0.05-0.18-0.01-0.19-0.09-0.34
			c0.37-0.02,0.33,0.25,0.56,0.41c-0.01-0.1,0.12-0.22,0.01-0.25c0.16,0.21,0.17,0.39,0.15,0.71c-0.12-0.22-0.24,0.09-0.34,0
			c0.32,0.06,0.39,0.36,0.27,0.74c-0.4,0.24,0.17,0.74,0.03,1.18c-0.31-0.21-0.56-0.46-0.67-0.75c-0.19,0.27-0.02,0.31-0.21,0.58
			c0.23,0.16,0.6,0.29,0.72,0.66l-0.24,0c0.1,0.34,0.46,0.37,0.35,0.79c-0.17,0.71-0.23,1.46-0.3,2.01l-0.24,0
			c0.5,0.34,0.12,1.04,0.32,1.47c-0.28,0.69,0.13,1.54-0.31,1.88c0.11,1.26,0.23,2.35,0.07,3.64l-0.34-0.24
			c0.25,0.25-0.21,0.14-0.17,0.37c0.3-0.25,0.35,0.33,0.56,0.5c-0.31,0.56-0.04,1.31,0.18,1.83l-0.24,0.01
			c0.43,0.54,0,1.13-0.1,1.77c-0.1,0.07-0.34,0.17-0.32,0.37c0.38,0.37,0.34,0.55,0.56,1.07c-0.02,0.37-0.14,0.97-0.31,1.34
			c0.49,1.42,0.09,2.84,0.37,4.31l-0.29,0.09c0.56,1.43-0.05,3.15,0.23,4.37l-0.48-0.13c-0.16,0.37,0.1,0.87,0.45,0.78
			c-0.16,0.37,0.21,0.95-0.2,1.18c-0.1,0.38,0.21,0.48,0.27,0.8c-0.2,0.77-0.17,1.06-0.1,1.79l0.03-0.18
			c-0.11-0.08-0.31-0.09-0.35,0.09c0.13,0.28-0.15,1,0.44,0.74c-0.36,0.77,0.24,1.82-0.23,2.57c0.16-0.06,0.19,0.13,0.29,0.21
			c0,0.68-0.34,1.4-0.08,1.95c-0.08,0.11-0.27-0.18-0.29,0.1c0.06,0.17,0.21,0.01,0.29,0.21c0.28,1.11-0.34,2.24-0.27,3.25
			c0.29,1.79,0.13,3.66,0.18,5.38l-0.12-0.02c0.45,0.57-0.46,1.35,0.22,1.81c-0.11,0.14-0.05,0.52-0.28,0.42
			c0.32,0.46-0.29,1.28,0.12,1.94c0.01-0.06-0.01-0.1-0.06-0.17c-0.25,0.67,0.11,1.25-0.12,1.97c-0.05-0.07-0.09-0.2-0.21-0.22
			c-0.22,0.28,0.5,0.65-0.06,0.8c0.01,0.16,0.28,0.11,0.27,0.01c-0.21,1.56,0.16,3.21,0.3,4.82c-0.33,1.16-0.95,0.08-0.52,0.98
			c-0.11,0.08,0.22,0.05,0.1,0.07c0.16,0.35-0.63,0.55-0.33,0.8c0.35-0.1,0.2,0.16,0.41,0.17c-0.22,0.71-0.53,0.85-0.26,1.41
			l-0.18-0.04c0.52,0.65,0.26,1.4,0.86,1.94c0.15,3.59,0.6,7,0.84,10.47c0.09,3.43,0.56,6.76,0.66,10.23
			c-0.38,0.86-0.38,0.93-0.07,1.79c-0.08-0.03-0.11-0.08-0.17-0.01c0.4-0.01,0.13,0.62,0.51,0.65c0.12,1.27,0.35,2.43,0.59,3.72
			c-0.08-0.2-0.41-0.25-0.34-0.01l0.29,0.21l-0.1,0.06c0.09,0.16,0.31,0.3,0.41,0.11c0.23,0.79,0.39,1.59,0.51,2.39
			c0.14,0.8,0.27,1.59,0.38,2.39c0.18,1.61,0.53,3.16,1,4.68c0.08,0.76,0.61,1.7,0.96,2.43c0.04,0.31,0.09,0.61,0.13,0.91
			c0.07,0.29,0.14,0.57,0.21,0.85c0.15,0.56,0.31,1.12,0.5,1.67c0.16,0.57,0.47,1.04,0.76,1.54c0.3,0.49,0.65,0.97,1.03,1.43
			C122.14,126.79,121.15,127.11,120.4,126.34z"/>
		<path class="st0" d="M114.6,15.72c-0.21,0.07-0.35,0.34-0.58,0.08C114.21,15.8,114.43,15.67,114.6,15.72z"/>
		<path class="st0" d="M111.89,23.36c0.06,0.01-0.09,0.11-0.12,0.13c-0.01-0.1-0.17-0.2-0.06-0.27
			C111.72,23.32,111.81,23.31,111.89,23.36z"/>
		<path class="st0" d="M111.64,25.36c-0.17-0.04-0.28-0.48-0.29-0.74L111.64,25.36z"/>
		<path class="st0" d="M110.8,27.19c-0.16,0.15-0.24,0.1-0.22-0.11C110.68,27.06,110.72,27.14,110.8,27.19z"/>
		<path class="st0" d="M111.19,27.34c0,0.16-0.11,0.23-0.22,0.3C111.12,27.64,110.9,27.27,111.19,27.34z"/>
		<path class="st0" d="M110.46,31.38c0.01,0.1,0.14,0.32-0.05,0.4C110.54,31.68,110.21,31.29,110.46,31.38z"/>
		<path class="st0" d="M110.63,33.28c-0.01,0.06-0.05,0.08,0,0.16c-0.08,0.11-0.21-0.02-0.22-0.11L110.63,33.28z"/>
		<polygon class="st0" points="110.57,67.68 110.48,67.47 110.66,67.5 		"/>
		<path class="st0" d="M110.72,82.73c0.11,0.2-0.16,0.14-0.19,0.18C110.51,82.72,110.75,82.97,110.72,82.73z"/>
		<polygon class="st0" points="111.85,90.82 111.85,90.76 112.21,90.76 		"/>
	</g>
	<g>
		<path class="st0" d="M38.86,109.5c-0.12,0.06,0,0.31-0.1,0.12C38.8,109.48,38.84,109.38,38.86,109.5z"/>
		<path class="st0" d="M65.54,98.41c0.51,0.83-0.52,0.66-0.31,1.34c0,0.06-0.38-0.33-0.35-0.17c0.28,0.75-0.48,0.94-1.18,0.9
			l-0.08-0.12c-0.13-0.01,0.13,0.4,0.02,0.43c-0.07-0.07-0.07-0.12-0.18-0.19c0.19,0.22-0.03,0.21,0.09,0.39
			c-0.1-0.05-0.26-0.22-0.38-0.27l0.19,0.27c0.42,0.65-0.31,0.21-0.18,0.64c-0.04-0.06-0.07-0.12-0.13-0.16
			c0.07,0.56-0.29,0.8-0.47,1.17c-0.06-0.1-0.19-0.26-0.29-0.35c0.21,0.27,0.17,0.41,0.14,0.52c-0.26-0.24,0.07,0.35-0.15,0.28
			l-0.04-0.07c0.16,0.34-0.24-0.08-0.01,0.3L62,103.15c0.28,0.41-0.26-0.12-0.16,0.12l0.06,0.08c0.02,0.14-0.16-0.03-0.16,0.07
			l-0.04-0.04c-0.04,0.19-0.27,0.03-0.03,0.33c-0.23-0.21,0.03-0.2-0.31-0.5c-0.13,0.63-0.6,0.85-0.99,1.14
			c-0.14-0.09-0.19-0.11-0.29-0.22c0.01,0.09-0.11,0.16-0.03,0.35c0.01-0.02-0.14-0.14-0.17-0.14c-0.15-0.07,0.16,0.4-0.02,0.32
			c-0.03-0.11-0.09-0.22-0.18-0.33c0.1,0.3-0.02,0.32-0.04,0.46c-0.02-0.06-0.03-0.11-0.1-0.21c0.1,0.34-0.2,0.06-0.16,0.28
			l-0.09-0.2c-0.28-0.15,0.22,0.41,0.02,0.35c-0.01-0.08-0.07-0.14-0.11-0.22c0.12,0.4-0.13,0.4-0.16,0.58
			c-0.01-0.03-0.04-0.08-0.04-0.08c-0.09,0.11-0.27,0.08-0.31,0.31c-0.1-0.06-0.27-0.47-0.35-0.32c0.24,0.38-0.11,0.28,0.23,0.67
			c-0.14,0-0.39-0.04-0.38,0.13c-0.04-0.17-0.33-0.44-0.26-0.52l-0.2-0.19c-0.08-0.16,0.1,0.01-0.04-0.17
			c-0.03,0.04-0.07,0.27-0.14,0.23c0.06,0.29,0.24,0.77,0.14,0.89c-0.02-0.18-0.28-0.41-0.28-0.5l0.24,0.84
			c-0.03,0.04-0.18-0.3-0.19-0.16c0.06,0.1,0.07,0.18,0.1,0.27c-0.04-0.04-0.13,0.2-0.37-0.18c-0.1-0.14,0.03-0.12-0.1-0.23
			c-0.08,0.05-0.01,0.18-0.09,0.23l-0.03-0.05c-0.09-0.03-0.07,0.25,0.1,0.43c0.04-0.01-0.14-0.22-0.02-0.14
			c0.08,0.24,0.02,0.36-0.06,0.41c0-0.08-0.06-0.18-0.11-0.29c0.05,0.36-0.02,0.52-0.07,0.72c0.1,0.19-0.13-0.36-0.06-0.27
			c-0.29-0.17-0.14,0.54-0.47,0.24c0.01-0.04,0.15,0.26,0.12,0.21c-0.09,0.02-0.22-0.26-0.23-0.13c-0.09-0.16-0.04,0.08-0.07,0.16
			c0.03,0.13-0.05-0.07-0.01-0.11c-0.01,0.17-0.19,0.56-0.47,0.41c0.05,0.1,0.08,0.44,0.03,0.45l-0.1-0.25
			c-0.11-0.13-0.12,0.08-0.23-0.12c0.06,0.34,0.2-0.41,0.2-0.12c-0.13-0.19,0.03,0.47-0.11,0.12c-0.07,0.05-0.02,0.36-0.21,0.17
			c0.04,0.03-0.1-0.38-0.15-0.33c-0.09,0.1,0.02,0.13-0.03,0.26L55,108.45c0.11,0.24-0.12,0.02,0.05,0.27
			c-0.11-0.19-0.11,0.2-0.28-0.21l-0.13-0.33c-0.04,0.05,0.07,0.37,0.1,0.53c-0.02-0.03-0.06-0.08-0.08-0.14
			c0.21,0.49-0.13,0.01-0.03,0.42c-0.18-0.12-0.27,0.1-0.46-0.18c-0.02,0.18-0.02,0.39-0.15,0.32c0-0.05,0.02-0.08-0.02-0.19
			c-0.12-0.12-0.08,0.01-0.1,0.12c-0.02-0.08-0.24-0.24-0.37-0.39c-0.02,0.18,0.12,0.43,0.18,0.6c-0.27-0.46-0.1,0.41-0.37,0
			c0-0.08,0.02-0.29-0.1-0.38c-0.27-0.46,0,0.42-0.21,0.23l0.19,0.39c-0.15-0.23-0.08,0.31-0.23-0.11c0.02,0.16-0.19-0.08-0.02,0.31
			c-0.32-0.26-0.4,0.4-0.79-0.28c0,0.08-0.1,0.03-0.01,0.23c0.13,0.21,0.01-0.18,0.08-0.04c-0.02,0.02,0.01,0.13,0.03,0.19
			c-0.1-0.07-0.15-0.08-0.22-0.44c-0.23-0.2,0.11,0.73-0.13,0.63c-0.05-0.17-0.09-0.23-0.13-0.18l0,0.32
			c-0.14-0.03-0.2-0.36-0.3-0.64c-0.04,0.07-0.12,0.08-0.08,0.3l-0.19-0.33c0.14,0.24,0.01,0.19,0,0.27l0-0.08
			c-0.05-0.12-0.1-0.02-0.12,0.03c0.07,0.17,0.16,0.22,0.22,0.26c0.01,0.13-0.05,0.12-0.04,0.28c-0.08-0.28-0.17-0.16-0.22-0.18
			c-0.08-0.04,0.02,0.27,0,0.27c-0.05-0.14-0.1,0.01-0.12-0.21c0-0.05,0.09,0.13,0.08-0.01c-0.07-0.09-0.15-0.35-0.17-0.14
			c-0.01,0.16,0.19,0.55,0.03,0.41c0.01-0.08-0.02-0.19-0.04-0.3l-0.15-0.11l0.08,0.26c-0.03-0.06-0.03-0.09-0.05-0.12
			c0.06,0.28-0.13,0.14-0.06,0.44c-0.04,0.04-0.16-0.14-0.22-0.15l0-0.03c-0.11-0.13-0.16-0.01-0.16,0.18l-0.01-0.06
			c-0.04-0.01-0.11,0.05-0.1,0.21c-0.14-0.17-0.32-0.96-0.31-0.61c-0.08,0.03,0,0.51,0.09,0.66c-0.2-0.13-0.26,0.34-0.52-0.02
			c0.01,0.11,0.04,0.17,0.01,0.25c-0.25-0.04-0.4,0.44-0.71-0.02c0.04-0.13-0.06-0.26-0.1-0.41c0,0.25-0.12-0.22-0.04,0.18
			c0.06,0.23,0.09,0.35,0.17,0.42c-0.1,0.16-0.31,0.22-0.44,0.02c0.06,0.1,0.05,0.18,0.04,0.26c-0.08-0.38-0.19-0.41-0.24-0.26
			l0.04,0.23l-0.1-0.22c-0.01,0.08,0.08,0.49-0.05,0.28c-0.02-0.09-0.05-0.18-0.08-0.24c-0.04,0.2-0.08,0.55-0.21,0.37l-0.14-0.32
			c-0.03,0.04-0.05,0.26,0.04,0.34c-0.19-0.17-0.29-0.18-0.4-0.46c-0.11,0.76-0.49,0.87-0.8,0.88l-0.02-0.18
			c-0.11-0.15,0.01,0.31-0.07,0.2c0-0.17-0.12-0.35-0.09-0.56c-0.15-0.17-0.1,0.32-0.16,0.41c0.02,0.23,0.04-0.15,0.07,0.14
			c0,0.08-0.19-0.16-0.16,0.19c-0.05-0.13-0.07-0.39-0.07-0.53l-0.05,0.18c-0.15-0.39,0.09-0.75-0.08-1.23l-0.05,0.06
			c-0.11-0.35,0.1-0.43-0.07-0.53c-0.04,0.18-0.03,0.69,0.06,0.83c-0.13,0.11,0.06,0.83-0.11,0.82c-0.07-0.2,0.12-0.07,0.05-0.35
			c-0.11-0.27-0.13,0.18-0.21,0.09c0.09,0.12,0.08,0.48,0.04,0.55c-0.1-0.15,0.01-0.33-0.11-0.36c0.01,0.2-0.08,0.37,0.03,0.49
			c0.02,0.46-0.14-0.11-0.16,0.25c-0.08-0.31,0.03-0.75-0.12-0.9c0.06,0.3-0.1,0.44,0.02,0.88c-0.06-0.08-0.1-0.32-0.08-0.52
			c-0.09-0.18-0.11,0.58-0.2-0.02l0.01,0.32c-0.04-0.1-0.07-0.18-0.13-0.34c-0.06,0-0.16,0.45-0.2-0.02
			c-0.01,0.05-0.16,0.05-0.07,0.37c0.11,0.19,0.08-0.25,0.17,0.19c-0.1-0.35-0.12,0.06-0.17,0.19l-0.03-0.18
			c-0.02,0.08-0.1,0.04-0.1,0.25c0.01-0.11-0.01-0.23-0.04-0.27l-0.01,0.28c-0.12,0.15-0.07-0.49-0.19-0.4l0.08-0.22
			c-0.02,0.05-0.08-0.21-0.13-0.12c-0.01,0.26-0.02,0.57-0.02,0.77c-0.06,0.12-0.05-0.29-0.1-0.02l0.07-0.31
			c0.01-0.08-0.09-0.42-0.19-0.41c-0.05,0.09-0.12,0.47-0.01,0.6c-0.05,0.01-0.12-0.15-0.1-0.33c-0.1,0.09,0.03,0.28-0.05,0.44
			c-0.05-0.17-0.18-0.41-0.27-0.65l0.07-0.43l-0.06,0c0.06-0.35-0.06-0.26-0.03-0.62c-0.04-0.05-0.09,0.07-0.12,0.17
			c0.15,0.57-0.1,0.8-0.04,1.33c-0.17,0.15-0.16-1.28-0.31-0.44c0.03,0.14-0.04,0.54,0.07,0.38c-0.11-0.05-0.06,0.54-0.19,0.32
			c0.09-0.22-0.12-0.53,0.01-0.85c0,0.17,0.08,0.13,0.1,0.08c-0.05-0.2-0.01-0.53-0.12-0.53c-0.06,0.05-0.15,0.07-0.13,0.34
			c0.01,0.3,0.1-0.04,0.07,0.27c-0.13,0.11-0.16-0.35-0.21,0.19c0.08-0.05,0.11,0.26,0.11,0.47l-0.1,0.13l0.02-0.2
			c-0.16-0.14-0.04,0.37-0.2,0.32l-0.08-0.4c0.03-0.34,0.23,0.14,0.19-0.42c-0.1-0.02-0.13,0.27-0.23,0.13
			c0.02-0.05,0.05-0.06,0.07-0.11c-0.04-0.02-0.08-0.76-0.21-0.33c-0.07,0.17-0.02,0.2-0.02,0.41c-0.16,0.06-0.21,0.27-0.32,0.3
			c0.03-0.41-0.18-0.05-0.06-0.46c0.05,0.24,0.29,0.23,0.34-0.16c-0.06-0.49,0.13,0.07,0.16-0.42c-0.13-0.02-0.12-0.49-0.14-0.8
			c-0.03-0.02-0.07,0.11-0.09,0.16c-0.02,0.29,0.03,0.29,0.03,0.59c-0.14-0.08-0.27,0.07-0.36,0.36c-0.04-0.15-0.02-0.44,0.03-0.47
			c-0.17,0.08-0.34,0.03-0.5-0.06c0.08,0.48-0.18,0.11-0.13,0.51c0.08,0.11,0.14,0.45,0.08,0.67c-0.05-0.03,0.01-0.21-0.01-0.31
			c-0.08,0.26-0.09-0.42-0.18-0.01c0.16-0.15,0.06-0.58,0.11-0.96c-0.12,0.21,0.02-0.27-0.09-0.27c-0.12,0.2-0.26,0.36-0.39,0.44
			c-0.12-0.35-0.38-0.03-0.52-0.04c-0.05-0.2,0.04-0.61-0.02-0.7c-0.09,0,0.01,0.46-0.09,0.25l0.02-0.08
			c-0.05,0.09-0.2-0.32-0.32,0.28l0.1-0.45c-0.02-0.05-0.05,0.06-0.08,0.1c0.02-0.15,0.01-0.29,0.06-0.38
			c-0.04-0.32-0.17,0.03-0.26,0.03l0.02,0.28c-0.18,0.19-0.24-0.09-0.4-0.02l0.05-0.26L39,110.53c0.06-0.25,0.02-0.43-0.06-0.22
			l0.33-0.61c0.03,0.16-0.12,0.31-0.12,0.57c-0.01,0.23,0.14,0.18,0.2-0.07c-0.04-0.04-0.06,0.02-0.11,0.11
			c0.04-0.37,0.12-0.34,0.19-0.58c-0.03,0.01-0.05-0.1-0.07,0.01c0.08-0.17,0.13-0.19,0.21-0.19c-0.08,0.14,0,0.23-0.04,0.33
			c0.05-0.32,0.15-0.41,0.23-0.31c0.02,0.38,0.22-0.21,0.32-0.09c-0.08,0.32-0.18,0.58-0.27,0.7c0.06,0.17,0.09,0,0.14,0.18
			c0.07-0.24,0.13-0.61,0.25-0.75l-0.02,0.24c0.1-0.11,0.14-0.47,0.24-0.39c0.18,0.14,0.37,0.14,0.52,0.18l-0.01,0.24
			c0.11-0.52,0.28-0.18,0.4-0.41c0.18,0.24,0.4-0.22,0.49,0.21c0.33-0.16,0.61-0.36,0.95-0.29l-0.05,0.36
			c0.05-0.26,0.05,0.2,0.11,0.15c-0.08-0.28,0.07-0.37,0.1-0.59c0.16,0.27,0.34-0.04,0.46-0.3l0.02,0.24c0.1-0.46,0.29-0.07,0.46,0
			c0.03,0.1,0.08,0.33,0.13,0.3c0.06-0.39,0.11-0.38,0.21-0.64c0.1-0.01,0.26,0.06,0.38,0.2c0.29-0.6,0.7-0.29,1.03-0.67l0.07,0.28
			c0.26-0.65,0.79-0.21,1.04-0.58l0.07,0.48c0.13,0.13,0.19-0.17,0.1-0.5c0.13,0.13,0.19-0.28,0.33,0.1
			c0.12,0.07,0.07-0.25,0.14-0.33c0.24,0.14,0.3,0.09,0.46-0.06l-0.05-0.02c0.01,0.11,0.05,0.31,0.11,0.33
			c0.04-0.15,0.28,0.06,0.07-0.49c0.28,0.27,0.38-0.39,0.69,0c-0.06-0.15-0.02-0.19-0.03-0.3c0.17-0.05,0.44,0.21,0.49-0.09
			c0.05,0.07,0.03,0.27,0.11,0.27c0.02-0.07-0.06-0.2-0.03-0.3c0.19-0.35,0.64,0.12,0.87-0.04c0.34-0.44,0.85-0.45,1.25-0.64
			l0.04,0.11c-0.02-0.47,0.49,0.29,0.36-0.38c0.07,0.09,0.14,0,0.2,0.22c-0.01-0.34,0.42,0.15,0.43-0.29
			c-0.02,0-0.02,0.02-0.02,0.07c0.26,0.17,0.27-0.21,0.53-0.06c0,0.05-0.01,0.1,0.03,0.21c0.16,0.18-0.04-0.52,0.22-0.01
			c0.04-0.02-0.09-0.27-0.1-0.25c0.47,0.06,0.7-0.48,1.02-0.77c0.42,0.18,0.43,0.85,0.46,0.37c0.07,0.09-0.08-0.2-0.03-0.1
			c0.01-0.18,0.41,0.5,0.34,0.21c-0.18-0.3-0.05-0.19-0.14-0.38c0.27,0.12,0.44,0.39,0.46,0.09l0.07,0.17
			c-0.08-0.53,0.22-0.39,0.07-0.98c0.77-0.54,1.38-1.25,2.09-1.79c0.83-0.35,1.34-1.1,2.27-1.35c0.45,0.25,0.46,0.23,0.52-0.07
			c0.04,0.07,0.04,0.09,0.1,0.14c-0.23-0.32,0.1-0.13-0.11-0.44c0.3-0.15,0.47-0.42,0.73-0.64c-0.01,0.07,0.17,0.33,0.21,0.27
			l-0.11-0.23l0.08,0.08c0-0.07-0.09-0.25-0.21-0.32c0.37-0.82,1.55-0.76,2.01-1.45c0.25-0.03,0.33-0.33,0.41-0.54
			c0.8-0.11,1.47-0.34,1.57-1.05C64.74,97.4,65.52,98.05,65.54,98.41z"/>
		<path class="st0" d="M38.99,109.47c-0.01,0.2,0.05,0.31-0.06,0.56C38.96,109.85,38.95,109.65,38.99,109.47z"/>
		<path class="st0" d="M40.92,111.73c0.01-0.06,0.03,0.08,0.03,0.11c-0.03,0.01-0.07,0.18-0.08,0.08
			C40.9,111.9,40.9,111.81,40.92,111.73z"/>
		<path class="st0" d="M41.5,111.87c-0.01,0.17-0.15,0.31-0.22,0.33L41.5,111.87z"/>
		<path class="st0" d="M42.04,112.61c0.05,0.15,0.04,0.23-0.03,0.22C42.01,112.74,42.03,112.69,42.04,112.61z"/>
		<path class="st0" d="M42.08,112.21c0.05,0,0.07,0.1,0.09,0.2C42.17,112.26,42.07,112.51,42.08,112.21z"/>
		<path class="st0" d="M43.31,112.68c0.03-0.02,0.08-0.16,0.12,0.03C43.39,112.57,43.3,112.93,43.31,112.68z"/>
		<path class="st0" d="M43.85,112.38c0.02,0.01,0.03,0.04,0.05-0.01c0.04,0.08,0.01,0.21-0.01,0.22L43.85,112.38z"/>
		<polygon class="st0" points="53.25,109.37 53.23,109.48 53.17,109.31 		"/>
		<path class="st0" d="M57.1,107.57c0-0.12,0.11,0.13,0.13,0.14C57.19,107.75,57.14,107.51,57.1,107.57z"/>
		<polygon class="st0" points="58.62,105.68 58.61,105.69 58.42,105.38 		"/>
	</g>
	<g>
		<path class="st0" d="M35.19,52.89c-0.09,0.19,0.29,0.16,0,0.18C35.11,52.95,35.07,52.85,35.19,52.89z"/>
		<path class="st0" d="M35.44,53.79c0.59,0.03,0.73,0.26,0.98,0.51c0.2,0.27,0.49,0.5,0.88,0.42c0.08,0-0.26,0.43-0.05,0.4
			c0.85-0.34,1.5,0.31,2.11,1.05l-0.08,0.13c0.12,0.13,0.4-0.28,0.53-0.19c-0.02,0.09-0.08,0.12-0.07,0.25
			c0.1-0.27,0.3-0.07,0.4-0.26c0.03,0.12-0.02,0.34,0.03,0.48l0.15-0.3c0.38-0.71,0.55,0.17,0.94-0.18
			c-0.03,0.07-0.07,0.13-0.05,0.2c0.58-0.38,1.19-0.22,1.77-0.34c-0.03,0.11-0.07,0.32-0.05,0.45c0.06-0.34,0.24-0.41,0.4-0.46
			c0.04,0.35,0.28-0.3,0.44-0.09l-0.02,0.08c0.15-0.36,0.18,0.22,0.31-0.21l0.07,0.28c0.08-0.49,0.18,0.27,0.3,0.02l0-0.1
			c0.11-0.12,0.15,0.13,0.25,0.05l0.01,0.06c0.22-0.12,0.35,0.16,0.35-0.23c0.07,0.31-0.22,0.14-0.1,0.59
			c0.74-0.38,1.47-0.34,2.22-0.41c0.1,0.15,0.15,0.19,0.19,0.33c0.07-0.09,0.27-0.1,0.32-0.3c-0.02,0.01,0.07,0.19,0.11,0.21
			c0.15,0.13,0.1-0.43,0.27-0.28c-0.05,0.11-0.05,0.23-0.02,0.37c0.09-0.31,0.27-0.28,0.4-0.4c-0.02,0.07-0.05,0.11-0.03,0.23
			c0.12-0.36,0.31,0.04,0.42-0.19l-0.02,0.23c0.26,0.24,0.01-0.47,0.23-0.34C48.97,55.89,49,55.98,49,56.07
			c0.13-0.43,0.44-0.33,0.61-0.5c-0.01,0.03,0.01,0.09,0.01,0.09c0.19-0.08,0.42,0.01,0.61-0.2c0.1,0.08,0.06,0.54,0.26,0.42
			c-0.08-0.44,0.32-0.25,0.11-0.72c0.19,0.04,0.5,0.15,0.59-0.02c-0.05,0.18,0.19,0.52,0.05,0.58l0.17,0.24
			c0.02,0.18-0.13-0.04-0.05,0.18c0.07-0.03,0.26-0.25,0.34-0.2c0.08-0.3,0.1-0.82,0.31-0.92c-0.07,0.19,0.17,0.47,0.11,0.56
			l0.11-0.9c0.07-0.04,0.1,0.34,0.17,0.2c-0.03-0.11-0.01-0.2,0-0.3c0.04,0.04,0.27-0.18,0.41,0.24c0.08,0.16-0.1,0.12,0.02,0.25
			c0.13-0.04,0.1-0.18,0.23-0.23l0.02,0.06c0.11,0.04,0.21-0.25,0.05-0.46c-0.06,0,0.09,0.25-0.03,0.15
			c-0.01-0.26,0.12-0.37,0.25-0.41c-0.02,0.08,0.01,0.19,0.03,0.31c0.08-0.38,0.23-0.54,0.36-0.74c-0.06-0.2,0.05,0.38-0.01,0.29
			c0.33,0.19,0.36-0.55,0.7-0.23c-0.02,0.05-0.12-0.27-0.1-0.22c0.12-0.02,0.22,0.26,0.26,0.13c0.07,0.16,0.07-0.09,0.12-0.17
			c-0.01-0.13,0.05,0.07,0,0.12c0.06-0.17,0.32-0.6,0.65-0.48c-0.06-0.1-0.06-0.44-0.02-0.46l0.12,0.25
			c0.12,0.12,0.13-0.11,0.26,0.08c-0.06-0.34-0.24,0.47-0.24,0.17c0.16,0.18-0.03-0.49,0.13-0.15c0.09-0.07,0.01-0.38,0.23-0.21
			c-0.05-0.02,0.13,0.37,0.2,0.3c0.11-0.13-0.03-0.13,0.02-0.28l-0.01-0.14c-0.16-0.22,0.11-0.05-0.11-0.25
			c0.15,0.16,0.05-0.21,0.33,0.13l0.21,0.28c0.03-0.06-0.15-0.34-0.24-0.48c0.03,0.02,0.08,0.06,0.12,0.1
			c-0.37-0.38,0.11-0.06-0.17-0.37c0.08,0.02,0.12,0.01,0.16-0.01l-0.12,1.44c-0.02-0.08-0.05-0.15,0.11-0.29
			c-0.19,0-0.37,0.04-0.34-0.1c0.05-0.01,0.08,0,0.18-0.06c0.09-0.14-0.04-0.08-0.15-0.07c0.07-0.04,0.16-0.29,0.25-0.49
			c-0.18,0.02-0.37,0.25-0.51,0.36c0.32-0.43-0.43,0.07-0.17-0.35c0.07-0.03,0.28-0.09,0.31-0.25c0.28-0.46-0.39,0.16-0.35-0.12
			l-0.24,0.36c0.11-0.25-0.32,0.08-0.04-0.27c-0.13,0.1-0.05-0.23-0.28,0.14c-0.02-0.43-0.59-0.1-0.4-0.85
			c-0.07,0.05-0.12-0.06-0.2,0.15c-0.05,0.24,0.15-0.12,0.1,0.04c-0.04,0-0.09,0.1-0.12,0.15c-0.03-0.12-0.08-0.18,0.14-0.47
			c-0.07-0.32-0.46,0.58-0.61,0.35c0.07-0.16,0.08-0.23,0.01-0.23l-0.22,0.24c-0.11-0.12,0.05-0.41,0.15-0.69
			c-0.09,0.02-0.19-0.02-0.3,0.18l0.01-0.39c-0.01,0.28-0.12,0.15-0.18,0.21l0.06-0.06c0.02-0.13-0.1-0.08-0.16-0.06
			c-0.04,0.18,0.04,0.28,0.07,0.35c-0.08,0.11-0.13,0.07-0.23,0.2c0.1-0.28-0.07-0.24-0.13-0.29c-0.06-0.08-0.15,0.24-0.17,0.22
			c0.03-0.15-0.12-0.05-0.01-0.25c0.04-0.04,0.02,0.16,0.1,0.04c-0.02-0.12,0.05-0.38-0.1-0.21c-0.11,0.12-0.11,0.57-0.22,0.35
			c0.05-0.06,0.09-0.18,0.14-0.27l-0.11-0.18l-0.06,0.26c0-0.07,0.01-0.09,0.01-0.13c-0.1,0.27-0.23,0.03-0.32,0.34
			c-0.07,0.02-0.11-0.21-0.18-0.25l0.02-0.02c-0.06-0.17-0.19-0.09-0.28,0.08l0.01-0.06c-0.04-0.03-0.16-0.01-0.23,0.14
			c-0.09-0.21,0.1-1-0.08-0.69c-0.12-0.01-0.25,0.46-0.22,0.64c-0.19-0.2-0.47,0.2-0.63-0.22c-0.04,0.11-0.03,0.17-0.09,0.23
			c-0.31-0.13-0.67,0.27-0.91-0.26c0.1-0.11,0.01-0.27,0.02-0.42c-0.08,0.24-0.09-0.25-0.13,0.16c0,0.24-0.01,0.36,0.08,0.46
			c-0.19,0.12-0.48,0.12-0.58-0.1c0.05,0.11,0.01,0.19-0.03,0.26c0.01-0.39-0.13-0.44-0.23-0.31l-0.01,0.23l-0.07-0.24
			c-0.04,0.08-0.04,0.49-0.14,0.27c-0.01-0.09-0.02-0.18-0.04-0.25c-0.11,0.2-0.25,0.53-0.37,0.33l-0.11-0.34
			c-0.05,0.04-0.13,0.25-0.03,0.34c-0.21-0.2-0.35-0.22-0.43-0.51c-0.31,0.74-0.8,0.81-1.22,0.81l-0.01-0.18
			c-0.13-0.15-0.02,0.31-0.11,0.2c0.02-0.17-0.13-0.35-0.06-0.57c-0.18-0.17-0.17,0.33-0.26,0.42c0.01,0.23,0.06-0.16,0.08,0.14
			c-0.01,0.08-0.24-0.15-0.22,0.2c-0.06-0.13-0.06-0.39-0.06-0.53l-0.07,0.18c-0.17-0.39,0.18-0.76-0.01-1.24l-0.08,0.07
			c-0.14-0.35,0.19-0.44-0.06-0.53c-0.08,0.18-0.1,0.7,0.01,0.84c-0.19,0.12,0.02,0.84-0.2,0.84c-0.09-0.2,0.17-0.07,0.08-0.35
			c-0.14-0.27-0.18,0.18-0.29,0.1c0.12,0.11,0.09,0.48,0.03,0.55c-0.13-0.15,0.02-0.34-0.14-0.35c0.01,0.2-0.11,0.38,0.03,0.49
			c0.02,0.46-0.18-0.1-0.21,0.26c-0.1-0.31,0.04-0.76-0.16-0.89c0.08,0.3-0.14,0.45,0.03,0.89c-0.08-0.08-0.13-0.31-0.11-0.51
			c-0.13-0.17-0.13,0.6-0.27,0l0.02,0.32c-0.05-0.1-0.1-0.17-0.18-0.32c-0.09,0.01-0.19,0.47-0.27,0c-0.02,0.05-0.21,0.07-0.07,0.38
			c0.16,0.18,0.09-0.26,0.24,0.16c-0.15-0.34-0.16,0.08-0.2,0.21l-0.05-0.18c-0.03,0.08-0.13,0.06-0.11,0.26
			c0.01-0.11-0.03-0.23-0.07-0.27l0.02,0.28c-0.13,0.17-0.14-0.48-0.28-0.36l0.08-0.24c-0.02,0.05-0.13-0.19-0.19-0.09
			c0.02,0.26,0.04,0.57,0.06,0.77c-0.06,0.13-0.1-0.27-0.13,0l0.05-0.33c0-0.09-0.17-0.4-0.29-0.36c-0.06,0.1-0.09,0.49,0.06,0.6
			c-0.06,0.02-0.18-0.11-0.17-0.31c-0.11,0.12,0.08,0.26,0,0.45c-0.09-0.15-0.29-0.35-0.44-0.57l0.02-0.45l-0.08,0.02
			c0.02-0.36-0.12-0.24-0.15-0.61c-0.07-0.04-0.11,0.1-0.14,0.2c0.31,0.52,0.01,0.82,0.2,1.32c-0.18,0.2-0.47-1.21-0.49-0.34
			c0.07,0.12,0.08,0.54,0.17,0.35c-0.15-0.02,0.05,0.54-0.17,0.37c0.06-0.24-0.28-0.48-0.19-0.83c0.04,0.17,0.13,0.1,0.15,0.05
			c-0.11-0.18-0.13-0.52-0.28-0.48c-0.07,0.07-0.19,0.12-0.1,0.38c0.09,0.29,0.12-0.07,0.15,0.24c-0.14,0.15-0.3-0.28-0.22,0.25
			c0.09-0.07,0.21,0.22,0.27,0.42l-0.08,0.16l-0.03-0.2c-0.24-0.08,0.05,0.37-0.15,0.37l-0.21-0.35c-0.06-0.34,0.32,0.06,0.12-0.46
			c-0.13,0.02-0.09,0.3-0.25,0.2c0.01-0.05,0.04-0.08,0.05-0.13c-0.05,0-0.32-0.7-0.37-0.23c-0.04,0.19,0.04,0.2,0.1,0.4
			c-0.18,0.13-0.17,0.35-0.28,0.42c-0.11-0.39-0.23,0.04-0.23-0.4c0.14,0.2,0.42,0.08,0.36-0.31c-0.23-0.44,0.18,0.01,0.07-0.47
			c-0.17,0.04-0.31-0.41-0.43-0.7c-0.05-0.01-0.06,0.14-0.07,0.19c0.07,0.28,0.13,0.26,0.23,0.55c-0.21-0.01-0.33,0.2-0.33,0.51
			c-0.11-0.12-0.19-0.4-0.13-0.45c-0.19,0.15-0.42,0.21-0.66,0.2c0.31,0.4-0.18,0.19,0.05,0.53c0.15,0.06,0.36,0.34,0.38,0.56
			c-0.08,0-0.07-0.2-0.14-0.28c0.02,0.27-0.29-0.34-0.21,0.07c0.13-0.22-0.18-0.56-0.29-0.92c-0.06,0.25-0.1-0.25-0.23-0.19
			c-0.06,0.25-0.16,0.48-0.28,0.61c-0.34-0.24-0.47,0.22-0.63,0.31c-0.17-0.13-0.31-0.53-0.44-0.55c-0.11,0.07,0.29,0.36,0.04,0.28
			l-0.02-0.08c0,0.11-0.44-0.09-0.19,0.47l-0.18-0.43c-0.05-0.02-0.03,0.09-0.03,0.14c-0.08-0.13-0.18-0.22-0.18-0.34
			c-0.26-0.21-0.19,0.18-0.29,0.25l0.21,0.19c-0.07,0.29-0.33,0.14-0.44,0.34l-0.15-0.22l0,0.2c-0.13-0.22-0.33-0.29-0.25-0.08
			c-0.05-0.24-0.09-0.47-0.12-0.72c0.17,0.07,0.1,0.32,0.31,0.5c0.17,0.16,0.28-0.01,0.17-0.24c-0.08,0.02-0.05,0.07-0.04,0.18
			c-0.23-0.29-0.13-0.35-0.22-0.59c-0.03,0.04-0.14-0.02-0.08,0.08c-0.03-0.2,0.02-0.27,0.14-0.35c0,0.17,0.17,0.17,0.19,0.27
			c-0.17-0.28-0.1-0.44,0.09-0.45c0.29,0.26,0.16-0.37,0.39-0.37c0.08,0.33,0.13,0.61,0.09,0.78c0.18,0.09,0.11-0.07,0.29,0.02
			c-0.07-0.24-0.21-0.6-0.13-0.81l0.12,0.21c0.07-0.17-0.09-0.5,0.11-0.52c0.34-0.04,0.64-0.16,0.87-0.23l0.1,0.22
			c-0.08-0.54,0.34-0.35,0.42-0.62c0.37,0.1,0.55-0.45,0.83-0.11c0.44-0.35,0.84-0.67,1.4-0.73l0.01,0.37
			c0.02-0.28,0.12,0.18,0.2,0.1c-0.18-0.24,0.03-0.39,0.04-0.62c0.31,0.2,0.54-0.17,0.7-0.46l0.07,0.23
			c0.11-0.5,0.46-0.17,0.75-0.15c0.05,0.09,0.15,0.3,0.22,0.26c0.06-0.42,0.15-0.41,0.31-0.69c0.16-0.03,0.44,0.02,0.62,0.14
			c0.5-0.65,1.18-0.4,1.77-0.81l0.08,0.28c0.55-0.68,1.37-0.19,1.87-0.54l-0.02,0.49c0.17,0.14,0.37-0.14,0.31-0.49
			c0.17,0.14,0.41-0.25,0.53,0.14c0.17,0.08,0.2-0.23,0.35-0.3c0.35,0.18,0.47,0.14,0.81,0.05l-0.08-0.03
			c-0.04,0.11-0.04,0.31,0.04,0.35c0.12-0.13,0.44,0.15,0.34-0.44c0.34,0.34,0.85-0.24,1.16,0.24c-0.02-0.16,0.07-0.19,0.12-0.29
			c0.32,0.02,0.61,0.39,0.9,0.15c0.04,0.08-0.12,0.26,0.01,0.29c0.08-0.05,0.03-0.21,0.14-0.28c0.57-0.21,1,0.48,1.47,0.52
			c0.92-0.09,1.78,0.37,2.61,0.75l-0.06,0.1c0.5-0.23,0.38,0.75,0.96,0.33c0,0.14,0.21,0.22,0.03,0.37c0.41-0.1,0.37,0.66,0.91,0.64
			c-0.02-0.03-0.05-0.03-0.11-0.02c0.09,0.43,0.57,0.49,0.64,0.96c-0.07,0-0.14-0.04-0.24,0.02c-0.09,0.24,0.62,0.03,0.19,0.41
			c0.05,0.07,0.27-0.09,0.23-0.13c0.06,0.18,0.13,0.35,0.22,0.52l0.5,0.93l-0.65,0.79c-0.52,0.64-0.99,1.35-1.53,1.77
			c-0.7,0.02-0.5-0.79-0.7-0.21c-0.08-0.08,0.08,0.2,0.02,0.1c-0.09,0.22-0.52-0.45-0.49-0.13c0.19,0.29,0.01,0.21,0.1,0.4
			c-0.41-0.05-0.58-0.34-0.72,0.01l-0.05-0.18c-0.09,0.6-0.51,0.46-0.56,1.1c-1.55,0.64-2.99,1.27-4.52,1.59
			c-1.55,0.13-2.95,0.56-4.65,0.3c-0.4-0.47-0.41-0.46-0.83-0.27c0.02-0.08,0.04-0.09,0.02-0.17c-0.03,0.39-0.29,0.03-0.33,0.4
			c-0.59-0.09-1.13-0.01-1.73-0.06c0.1-0.03,0.17-0.35,0.06-0.33l-0.14,0.24l-0.01-0.11c-0.08,0.05-0.18,0.24-0.12,0.37
			c-1.58,0.19-2.96-0.82-4.5-1.2c-0.31-0.26-0.89-0.32-1.34-0.43c-0.51-0.53-0.97-1.04-1.45-1.62l-0.36-0.42l-0.36-0.5
			c-0.26-0.3-0.45-0.75-0.7-1.18C33.96,53.43,35.03,53.45,35.44,53.79z"/>
		<path class="st0" d="M35.34,52.7c0.16,0.12,0.32,0.12,0.41,0.39C35.63,52.96,35.45,52.85,35.34,52.7z"/>
		<path class="st0" d="M39.12,52.88c-0.02-0.06,0.07,0.06,0.09,0.08c-0.03,0.03,0,0.2-0.06,0.11
			C39.18,53.04,39.14,52.96,39.12,52.88z"/>
		<path class="st0" d="M39.89,52.7c0.05,0.17-0.06,0.36-0.14,0.41L39.89,52.7z"/>
		<path class="st0" d="M40.8,53.15c0.1,0.12,0.11,0.2,0.03,0.22C40.8,53.29,40.81,53.24,40.8,53.15z"/>
		<path class="st0" d="M40.72,52.76c0.06-0.02,0.12,0.07,0.17,0.15C40.85,52.77,40.8,53.04,40.72,52.76z"/>
		<path class="st0" d="M42.36,52.81c0.03-0.02,0.08-0.18,0.16,0C42.45,52.68,42.4,53.06,42.36,52.81z"/>
		<path class="st0" d="M43.01,52.38c0.03,0.01,0.04,0.04,0.06-0.02c0.06,0.07,0.04,0.2,0.01,0.23L43.01,52.38z"/>
		<polygon class="st0" points="55.5,52.55 55.39,52.58 55.51,52.45 		"/>
		<path class="st0" d="M53.33,53.82c-0.04,0.13-0.1-0.14-0.12-0.16C53.28,53.62,53.25,53.87,53.33,53.82z"/>
		<polygon class="st0" points="50.36,55.4 50.39,55.39 50.44,55.75 		"/>
	</g>
</g>
</svg>
