<?xml version="1.0" encoding="utf-8"?>
<!-- Generator: Adobe Illustrator 23.0.0, SVG Export Plug-In . SVG Version: 6.00 Build 0)  -->
<svg version="1.1" id="图层_1" xmlns="http://www.w3.org/2000/svg" xmlns:xlink="http://www.w3.org/1999/xlink" x="0px" y="0px"
	 viewBox="0 0 141.73 141.73" style="enable-background:new 0 0 141.73 141.73;" xml:space="preserve">
<style type="text/css">
	.st0{fill:#E68915;}
</style>
<g>
	<g>
		<path class="st0" d="M17.75,41.78c0.17-1.09-0.43,0.51,0.03-0.73C17.89,41.23,17.95,41.46,17.75,41.78z"/>
		<path class="st0" d="M100.15,125.19c-3.2,1.77-7.96,1.74-11.67,2.9c-0.44,0.11,0.04-0.51-0.95-0.24
			c-1.79,0.64-4.18,1.05-6.68,1.28c-2.5,0.27-5.15,0.25-7.36-0.18l0.28-0.13c-0.83-0.14-1.91,0.22-2.79-0.03
			c0.01-0.09,0.31-0.07,0.13-0.24c-0.28,0.26-1.59-0.23-2-0.19c-0.29-0.23-0.18-0.42-0.5-0.72c-0.19,0.03-0.38,0.05-0.58,0.05
			c-0.77-0.02-1.56-0.65-1.82-1.55c-0.31-0.9-0.08-1.87,0.06-2.85c0.04,0.12,0.03,0.31,0.15,0.19c0.25-1.56,1.29-3.14,2.44-4.58
			c1.2-1.42,2.55-2.78,3.32-4.36c0.03,0.17,0.14,0.39,0.36,0.28c-0.2-0.32,0.25-1.32,0.36-2.24c0.23-0.16,0.21-0.59,0.14-1.06
			c-0.08-0.48-0.23-1.01-0.23-1.55l0.09,0.08c-0.5-0.69-0.07-1.22-0.7-1.69l0.06-0.57c-0.57-0.13-0.26-1.18-0.82-1.67l-0.08,0.07
			c-0.42-0.49-0.37-0.91-0.77-1.33l0.01-0.08c-0.92-0.99-1.4-1.67-1.61-1.38c-0.14-0.57,1.06,0.81,0.83-0.04
			c-1.82-1.46-3.9-2.58-6.09-3.33c-1.1-0.36-2.24-0.62-3.37-0.66c-0.57,0-1.15,0.07-1.72,0.1c-0.57,0.07-1.12,0.22-1.69,0.32
			c-0.54-0.01-0.87,0.08-1.03-0.03c-0.44,0.18-1.6,0.76-1.87,1.12c0.13-0.08-0.37-0.05-0.58,0.09c-0.78,0.38-0.56,0.81-1.34,1.29
			c0.21-0.32,0.23-0.5,0.05-0.53c-0.21,0.38-0.51,0.73-0.85,1.07c-0.29,0.38-0.61,0.76-0.88,1.14c0.04-0.15,0.16-0.34,0.05-0.39
			c-0.23,0.47-0.46,0.87-0.76,1.22c-0.3,0.34-0.54,0.71-0.64,1.16l-0.05-0.4c-0.45,0.59-0.4,0.74-0.31,0.87
			c0.08,0.13,0.18,0.23-0.09,0.78c0.03-0.3-0.08-0.24-0.15-0.32c-0.11,1.21-0.47,3-0.33,4.14c-0.04-0.07-0.09-0.05-0.09-0.05
			c0.15,1.21,0.21,2.56,0.96,3.73c0.13,0.48-0.6,0.09,0.09,1.25c0.35-0.24,1.37,1.8,1.35,0.86c0.55,0.89,1.83,2.22,2.49,2.63
			c-0.5-0.23,0.05,0.78-0.69,0.16l0.35,0.69c-0.2,0.06-0.5-0.55-0.49-0.22c0.37,0.3,1.49,1.13,1.7,1.5
			c0.39,0.23,0.81,0.42,1.22,0.77c0.39,0.34,0.85,0.88,0.84,1.78c-0.08-0.41-0.21-0.27-0.31-0.15c-0.11,0.13-0.23,0.26-0.25,0.04
			c0.27,0.65,0.14,1.55-0.22,2.29c-0.38,0.4-0.32-0.15-0.82,0.42c0.1,0.07-0.12,0.32-0.25,0.53c-0.09,0.04-0.53,0.35-1.01,0.59
			c-0.46,0.24-1.02,0.39-1.19,0.23c-0.26-0.06,0.71-0.42,0.14-0.33c-0.83,0.35-0.83,0.5-1.71,0.75l-0.03-0.05
			c-0.58,0.1-1.69,0.53-1.01,0.66c0.42-0.07-0.21-0.23,0.43-0.23c-0.36,0.35-1.42,0.59-2.33,0.68c0.3-0.1,0.25-0.21,0.36-0.35
			c-1.17,0.48-2.47,0.65-3.82,0.82c-0.02,0.21,0.5-0.39,0.7-0.29c-1.73-0.25-3.54,0.44-4.97,0c0.23-0.03,0.12,0.3,0.11,0.24
			c-0.83-0.04-0.78-0.35-1.32-0.25c-0.05-0.18-0.68,0.04-1.23,0.07c-0.29,0.12-0.14-0.09,0.34-0.09c-0.77,0.13-3.88,0.25-5.65-0.18
			c0.03,0.12-1.14,0.33-1.55,0.27l0.19-0.25c-0.36-0.2-1.38-0.14-1.42-0.38c-0.91,0.24,3.41,0.1,2.19,0.22
			c-0.28-0.25-1.7,0.26-1.4-0.08c-0.81-0.08-1.71,0.1-2.44-0.3c0.22,0.08,0.73-0.26,0.07-0.35c-1.17-0.17-0.35,0.07-1.31-0.02
			l-0.61-0.01c-0.09,0.26-1.03-0.26-0.66,0.13c-0.09-0.24-1.72-0.26-1.49-0.66l0.24-0.3c-0.5-0.1-0.9,0.16-1.33,0.19
			c-0.06-0.05-0.17-0.15-0.13-0.2c-0.23,0.5-1.17-0.38-1.91-0.21c-0.51-0.29-1.18-0.53-1.85-0.95c-0.18-0.12-0.36-0.26-0.52-0.39
			c-0.13-0.13-0.24-0.26-0.35-0.39c-0.21-0.25-0.29-0.46-0.33-0.63c-0.71-0.65-1.28-1.3-1.6-2.26c0.12,0.16,0.27,0.4,0.39,0.4
			c-0.14-0.63-0.31-0.7-0.62-1.19c0.11,0.08-0.17-1.25-0.18-1.93c-0.41-0.73-0.59-0.38-0.79-0.41c0.27-0.87-0.97-2.19-0.69-3.25
			c0.12,0.28,0.52,1.13,0.49,0.43c0.36-0.82-0.7-1.45-0.59-2.7l-0.4,0.35c0.2-0.57-0.45-1.75,0.01-1.67
			c-0.2-0.39,0.02-1.42-0.39-1.25c0.2-2-0.56-4.7,0.07-5.93c-0.1-0.27-0.1-0.95-0.31-0.79c-0.18,0.48,0.24,0.61,0.1,0.8
			c-0.04-0.24-0.16-0.28-0.22-0.3c0.03-0.6,0-1.06,0.42-0.55c0.05-0.68-0.18-0.97-0.42-1.35c-0.25-0.38-0.51-0.83-0.5-1.73
			c0.18,0.07,0.23-0.07,0.18-0.59l-0.35-0.97c0.04-1.15,0.39-0.66,0.68-0.7c-0.07-0.6-0.04-1.34-0.26-1.62l0.4-0.72
			c-0.29,0.53-0.17-0.5-0.22-0.79l0.06,0.29c0.13-0.1,0.09-0.81,0.09-1.17c-0.2,0.07-0.32,0.78-0.39,1.17
			c-0.11-0.32-0.06-0.8-0.18-1.23c0.28,0.16,0.29-0.98,0.39-1.46c0.13-0.55-0.18-0.67-0.14-0.83c0.15,0.01,0.17-0.91,0.31-0.44
			c0.02,0.2-0.22,0.41-0.13,0.75c0.17-0.35,0.42-0.27,0.36-1.06c-0.03-0.6-0.61,0.04-0.19-1.03c0,0.31,0.1,0.38,0.16,0.63
			c0.11-0.33,0.25-0.66,0.38-0.99l-0.25-0.11c0.1-0.12,0.1-0.02,0.15-0.07c-0.21-0.38,0.41-1.6,0.24-1.96
			c0.22-0.55,0.71-1.05,1.13-1.52l-0.06,0.11c0.53-0.51,1.31-1.31,2.09-1.7l-0.02,0.07c0.26-0.05,0.68-0.17,1.13-0.17
			c0.45-0.04,0.87,0.04,1.18,0.03c0.99,0.59-0.02,1.03,1.06,1.23c0.77,0.49,1.45,0.48,1.27,0.11c0.63,0.63,1.18,1.1,1.78,1.6
			c0.58,0.5,1.12,0.99,1.48,1.58c0.22,0.05,0.17-0.08,0.53,0.14c0.74,0.71,1.63,1.3,2.45,1.77c0.83,0.47,1.58,0.87,2.18,1.28
			c-0.53-0.04-0.11,0.25-0.14,0.4c0.48-0.09,0.48,0.36,0.71,0c0-0.25,0.06-0.34-0.39-0.54c1.03,0.21,2.43,0.01,3.06,0.06
			c-0.31-0.06-0.11-0.14,0.08-0.3c0.04,0.38,0.81,0.22,1.31-0.22l-0.03-0.25c0.16,0.01,0.31,0.01,0.47,0.01
			c0.17-0.2-0.02-0.54,0.62-0.7c0.08,0.06,0.16,0.11,0.3,0.1c0.44-0.54,0.95-1.36,1.6-1.73c0.22-0.06,0.45-0.1,0.67-0.17
			c0.19-0.26,0.4-0.78-0.05-0.45c1-0.77,1.48-1.41,1.95-1.57c0.32-1.09,0.76-2.31,0.99-3.48c0.08-0.29,0.08-0.57,0.13-0.86
			c-0.01-0.29,0.04-0.49,0.02-0.87c-0.02-0.68,0-1.37-0.06-1.98l0.18,0.06c0.1-0.69-0.34-0.32-0.26-0.79
			c0.19,0.2,0.31-0.56,0.57-0.05c0.02-0.98-0.48-1.19-0.72-1.74c-0.25-0.03,0.27,0.43-0.05,0.38c-0.11-0.07-0.15-1.27-0.54-1.28
			c0.05-0.25,0.35-0.18,0.53-0.11l-0.37-0.45c0.06-0.39,0.37-0.11,0.7,0.2c0.33,0.3,0.61,0.67,0.76,0.21
			c-0.06-0.18-0.15-0.35-0.24-0.52c0.07-0.32,0.31-0.01,0.47,0.23c0.13,0.24,0.25,0.38,0.06-0.34c-0.41-0.55-1.05-0.81-1-0.25
			c-0.26-0.57-0.57-0.57-0.79-0.61c-0.26-0.03-0.43-0.11-0.77-0.6c-0.01-0.19,0.14-0.01,0.31,0.19c0.14,0.22,0.3,0.44,0.37,0.26
			c-0.01-0.16-0.06-0.31-0.13-0.44c-0.09-0.12-0.2-0.22-0.3-0.32c-0.23-0.19-0.42-0.38-0.58-0.59c0.28,0.5-0.31,0.36-0.59,0.17
			c-0.29-0.54,0.51,0.06-0.05-0.59c-0.25,0.04-0.94-0.3-0.52,0.21c-0.51,0.17-0.57-0.64-1.17-0.57c-0.08-0.43,1.16-0.16,0.42-0.8
			c-0.02,0.18-0.32,0.1-0.6,0.09c-0.29,0-0.53,0.05-0.41,0.36c-0.28-0.23-0.23-0.47,0.1-0.53c-0.41-0.44-1.42,0.04-1.39-0.61
			l-0.27,0.24c-0.14-0.15-0.36-0.28-0.61-0.51c-0.48-0.16-1.69,0.13-1.57-0.35c-0.16-0.01-1.36-0.1-0.93,0.26
			c0.71,0.25,0.87-0.14,1.2,0.36c-0.44-0.46-1.04-0.09-1.46,0l-0.05-0.19c-0.25,0.04-0.83-0.03-1,0.17c0.2-0.1,0.1-0.23-0.1-0.28
			l-0.28,0.27c-1,0.12-0.34-0.52-1.05-0.4c0.18-0.08,0.29-0.18,0.57-0.24c-0.1,0.02-0.21-0.04-0.32-0.07
			c-0.12-0.05-0.29-0.08-0.45,0c-0.1,0.26-0.24,0.64-0.27,0.85c-0.28,0.24-0.26-0.23-0.49,0.18c0.1-0.18,0.21-0.32,0.33-0.48
			c0.06-0.1-0.48-0.31-1.03,0.04c-0.31,0.29-0.57,0.97,0.01,0.71c-0.24,0.17-0.7,0.35-0.61,0.04c-0.52,0.57,0.25,0.14-0.13,0.69
			c-0.31,0.05-1.12,0.53-1.7,0.82l0.22-0.88l-0.36,0.39c0.21-0.74-0.43,0.09-0.44-0.45c-0.29,0.24-0.5,0.67-0.67,1.01
			c1.17-0.47-0.21,1.46,0.39,1.58c-0.48,0.66-0.91,0.64-1.27,0.68c-0.39,0.04-0.61,0.11-1.14,1.06c0.35-0.1-0.17,0.84,0.72-0.09
			c-0.48,0.38-0.61,0.61-0.77,0.86c-0.19,0.23-0.38,0.54-1.45,0.77c0.71-0.35,0.25-0.33-0.08-0.38c-0.18-0.03-0.33-0.08-0.31-0.16
			c0.01-0.09,0.22-0.19,0.61-0.44c-0.02,0.23,0.97-0.32,1.1-0.52c-0.57,0.1-0.15-0.44-1.31,0.12c-0.36,0.19-0.89,0.29-1.29,0.34
			c-0.4,0.02-0.68,0.04-0.62,0.19c-0.01,0.15,0.38,0.2,0.68,0.19c0.3-0.02,0.52-0.05,0.2,0.13c-1.06,0.08-1.61-0.28-1.93-0.46
			c-0.36-0.2-0.52-0.31-0.99-0.28c0.23,0.14,0.42,0.27,0.56,0.39c0.16,0.11,0.28,0.21,0.37,0.31c0.17,0.19,0.2,0.34,0.15,0.43
			c-0.25-0.08-0.49-0.17-0.73-0.27c-0.22-0.1-0.42-0.21-0.63-0.32l0.34-0.02c-0.46-0.33-0.62-0.51-0.79-0.6
			c-0.16-0.09-0.24-0.1-0.32-0.11c-0.08-0.01-0.16-0.01-0.3-0.1c-0.14-0.09-0.34-0.23-0.66-0.66c-0.1-0.34-0.19-0.67-0.21-0.98
			c0.23,0.08,0.64,0.7,1.02,1.12c0.36,0.39,0.74,0.69,0.8,0.37c-0.42-0.4-0.69-0.56-0.99-0.87c-0.14-0.14-0.29-0.28-0.42-0.46
			c-0.12-0.17-0.23-0.37-0.33-0.63c0.17,0.18,0.33,0.46,0.52,0.63c-0.22-0.38,0.15-1.05-0.76-2.2c-0.4-0.64-0.25-0.12-0.46-0.07
			c-0.56-1.54-0.83-1.95-1.03-2.94c0.42,0.13-0.19-1.72,0.36-0.71c-0.09,0.26-0.05,0.94,0.12,1.61c0.15,0.68,0.46,1.35,0.72,1.56
			c0.27-0.7,0.34,1.23,0.98,1.34c-0.27-0.59-0.26-0.91-0.16-1.12c0.1-0.21,0.27-0.3,0.39-0.44c-0.09-0.31-0.28-0.58-0.38-0.75
			c-0.32-0.06-0.2,0.35-0.49,0.46c-0.29-1.33-0.62-2.55-0.98-3.25c0.1-0.46,0.4-0.34,0.49,0.16c-0.28-1.54-0.3-3.19-0.23-4.63
			c-0.47,0.94-0.13-1.61-0.52-0.97c-0.11,0.77-0.43,1.46-0.66,1.02c0.02-0.49,0.21,0.01,0.31-0.19c-0.27-0.62,0.41-0.97,0-1.57
			c0.15,1.38,0.58,0.27,0.96,0.52c-0.21-0.99,0.27,0.04,0.27-0.94c-0.21-0.98-0.35-2.23-0.37-3.35c0.43-1.38,0.31-3.54,0.49-4.78
			c0.29-0.62,0.64-0.12,0.82-0.8c0.13-0.81-0.55,0.53-0.16-0.64l0.06,0.13c-0.04-0.39,0.68-2.15,0.16-2.62l0.38,0.46
			c0.09-0.22,0.03-0.44,0.01-0.64c0.15,0.02,0.33-0.21,0.36,0.17c0.46-0.67,0.27-1.55,0.44-2.35l-0.38,0.45
			c0.1-1.41,0.57-2.26,0.79-3.6l0.25,0.1l0.03-0.82c0.21,0.25,0.54-0.43,0.43-0.89l0.15,2.18c-0.29,0.53-0.17-0.69-0.51-0.4
			c-0.3,0.25-0.51,1.48-0.31,1.73c0.14-0.46,0.09-0.49,0.08-0.88c0.4-0.07,0.22,0.63,0.38,1.04c0.04-0.25,0.23-0.57,0.13-0.65
			c0.06,0.52-0.02,1.01-0.19,1.8c-0.02-0.57-0.29,0.24-0.35,0.02c0.3,0.14,0.23,0.92-0.07,1.88c-0.51,0.63-0.14,1.9-0.44,3.02
			c-0.25-0.52-0.4-1.16-0.4-1.89c-0.3,0.69-0.15,0.8-0.44,1.5c0.19,0.4,0.5,0.71,0.51,1.67l-0.25,0.01
			c-0.01,0.87,0.36,0.92,0.15,1.99c-0.34,1.84-0.44,3.77-0.48,5.19l-0.24,0.05c0.51,0.8,0.18,2.68,0.44,3.74
			c-0.21,1.84,0.46,3.88,0.22,4.83c0.35,1.52,0.86,2.93,1.66,3.9c0.37,0.46,0.96,0.96,1.42,1.17c0.49,0.21,0.82,0.23,1.39-0.06
			c-0.06,0.18-0.13,0.34-0.23,0.5c0.31-0.41,0.37,0.08,0.79-0.26c-0.33,0.05-0.22-0.13-0.04-0.36c0.18-0.25,0.44-0.59,0.5-0.81
			c1.18-0.79,2.14-2.55,3-3.73l0.21,0.13c0.69-1.33,2.54-2.34,4.57-2.55c0.24,0.05,0.65,0.25,1.16,0.23
			c0.94-0.37,1.44-0.35,2.87-0.45c0.51,0.05,1.19,0.2,1.86,0.36c0.67,0.22,1.33,0.41,1.81,0.68c1.97,0.35,3.95,1.43,5.4,3.07
			c1.48,1.64,2.28,3.71,2.88,5.72l-0.23,0.35c0.35,0.96,0.52,2.01,0.62,3.07c0.03,0.53,0.05,1.06,0.06,1.6
			c-0.03,0.62-0.09,1.25-0.23,1.82c-0.56,2.33-1.76,4.12-2.68,5.59l-0.19-0.56c-0.73,0.77-1.46,1.93-1.02,1.97
			c-0.83,0.69-1.81,2.07-2.63,2.15c-0.95,0.58-0.99,0.97-1.81,1.51c-0.55,0.23-1,0.42-1.46,0.55c-0.45,0.14-0.83,0.28-1.25,0.36
			c-0.41,0.09-0.81,0.2-1.28,0.23c-0.23,0.02-0.47,0.06-0.73,0.07c-0.26,0-0.54-0.01-0.84-0.01l0.6,0.06
			c0.27-0.1,0.28-0.3-0.29-0.36c-0.44,0.07-1.22-0.1-1.78-0.21c-0.55-0.14-0.92-0.18-0.6,0.23c-2.29-1.02-5.01-2.42-6.24-4.15
			c0.02,0.24-0.38-0.09-0.62-0.15c-0.68-0.62-1.31-1.32-1.9-1.94c-0.57-0.59-1.06-1-1.51-1.06c-0.12-0.16,0.37-0.11-0.02-0.33
			c-0.23-0.01-0.1,0.19-0.34,0.19c-0.29,0.04-0.1,0.05-0.25,0.1c-0.14,0.07-0.47,0.42-0.74,0.89c-0.55,0.94-0.98,2.21-1.13,3.41
			c-0.18,2.18-0.23,4.48-0.13,6.73c0.05,1.15,0.13,2.18,0.3,3.32c0.17,1.21,0.28,2.39,0.39,3.53l-0.12-0.04
			c0.57,1.49-0.19,3.58,0.58,4.69c-0.08,0.36,0.07,1.32-0.18,1.09c0.21,0.55,0.23,1.41,0.29,2.2c0.08,0.83,0.23,1.75,0.64,2.49
			c-0.03-0.15-0.07-0.23-0.16-0.38c0.16,1.67,0.95,2.97,1.43,4.56c-0.12-0.13-0.27-0.4-0.4-0.4c0.06,0.73,1.1,1.12,0.79,1.67
			c0.19,0.28,0.37,0.04,0.24-0.12c0.19,0.35,0.42,0.68,0.62,0.87c0.12,0.13,0.43,0.3,0.86,0.48c0.82,0.34,1.81,0.6,2.79,0.82
			c1.97,0.43,4.1,0.75,6.03,0.96c2.87,0.67,0.07,0.98,2.42,0.79c0.18,0.13,0.16-0.2,0.18-0.08c0.91-0.08,1.36,0.74,2.01,0.49
			c-0.24-0.36,0.43-0.17,0.46-0.38c1.8,0.33,2.16,0.66,3.6,0.45l-0.11,0.18c1.7-0.45,3.64-0.17,5.07-0.78
			c2.28-0.05,4.53-0.18,6.44-0.7c0.98-0.26,1.69-0.59,2.52-1.13c0.38-0.25,0.71-0.51,0.88-0.72c0.09-0.11,0.14-0.19,0.16-0.24
			c0.02-0.03,0-0.03,0.01-0.04c0.03,0.01,0.06,0.02,0.09,0.03c0.04,0.01,0.08,0.01,0.06,0.01l0,0c-0.02,0-0.08,0-0.11,0
			c-0.1,0.02-0.06,0-0.07-0.01c-0.02-0.04-0.05-0.11-0.12-0.23c-0.14-0.23-0.4-0.55-0.72-0.88c-0.65-0.67-1.5-1.38-2.4-2.19
			c-0.45-0.41-0.92-0.85-1.4-1.38c-0.52-0.56-0.87-1.17-1.24-1.74c-0.4-0.56-0.69-1.2-0.96-1.85c-0.32-0.63-0.49-1.32-0.67-2.01
			c-0.63-2.75-0.34-5.69,0.77-8.2c1.1-2.52,2.92-4.66,5.14-6.19c2.22-1.54,4.88-2.45,7.58-2.61l1.01-0.06
			c0.36,0.01,0.75,0.02,1.11,0.07c0.72,0.09,1.4,0.22,2.05,0.4c1.3,0.36,2.51,0.87,3.66,1.5c0.98,0.76,1.45,1.23,2,1.62
			c0.53,0.43,1.15,0.76,2.23,1.64c-0.14-0.02-0.27-0.12-0.19,0.06c0.19-0.11,0.54,0.24,0.9,0.61c0.35,0.39,0.7,0.8,0.93,0.82
			l0.45,0.68l0.34,0.61c0.23,0.39,0.45,0.81,0.66,1.23c0.43,0.83,0.78,1.75,1.07,2.71c0.25,0.99,0.46,2.06,0.39,3.21
			c-0.06,1.14-0.35,2.29-0.82,3.33c0.25-0.68,0.05-1.13-0.22-0.33l-0.15,0.89l-0.16,0.07c-0.22,0.49-0.38,1.12,0.03,0.69
			c-0.68,1.19-1.48,2.16-2.27,3.04l-1.07,1.17c-0.32,0.37-0.65,0.74-0.93,1.11c-0.6,0.74-1.09,1.5-1.4,2.17
			c-0.34,0.7-0.35,1.18-0.32,1.38c0.01,0.19,0.26,0.58,0.93,0.94c0.64,0.35,1.5,0.64,2.42,0.81c1.85,0.36,3.89,0.4,5.89,0.2
			c0.93,0.01,2.17-0.16,3.41-0.35c1.24-0.19,2.49-0.42,3.58-0.61c6.51-0.42,12.47-0.99,18.64-3.21c0,0-0.13,0.3-0.58,0.73
			C102.24,124.19,101.46,124.74,100.15,125.19z"/>
		<path class="st0" d="M17.49,43.08c-0.25,0.18-0.53,0.9-0.64,0.25C17.05,43.29,17.34,42.96,17.49,43.08z"/>
		<path class="st0" d="M12.36,63.07c0.06,0.03-0.08,0.29-0.11,0.36c-0.01-0.25-0.18-0.49-0.08-0.69
			C12.19,63,12.28,62.96,12.36,63.07z"/>
		<path class="st0" d="M12.39,68.42c-0.18-0.07-0.4-1.22-0.44-1.91C12.08,67.15,12.23,67.79,12.39,68.42z"/>
		<path class="st0" d="M12.65,73.79c0.03,0.53-0.09,0.43-0.32-0.23C12.41,73.49,12.53,73.69,12.65,73.79z"/>
		<path class="st0" d="M13.17,74.05c0.17,0.44,0.2,0.71,0.21,0.98C13.49,74.95,12.81,74,13.17,74.05z"/>
		<path class="st0" d="M24.33,75.33c0.16-0.2,0.39-0.71,0.69-0.74C24.75,74.67,24.4,75.64,24.33,75.33z"/>
		<path class="st0" d="M27.19,72.19c0.1-0.05,0.16-0.05,0.25-0.15c0.21-0.01,0.09,0.17-0.05,0.29L27.19,72.19z"/>
		<polygon class="st0" points="13.55,115.47 13.38,114.92 13.56,114.98 		"/>
		<path class="st0" d="M46.89,129.9c0.54-0.16,0.4,0.13,0.49,0.15C46.89,130.11,47.55,129.81,46.89,129.9z"/>
		<polygon class="st0" points="49.47,115.49 49.56,115.62 49.21,115.75 		"/>
	</g>
	<g>
		<path class="st0" d="M18.12,38.64c-0.54-0.06,0.2,0.37-0.38,0.04C17.85,38.57,17.98,38.49,18.12,38.64z"/>
		<path class="st0" d="M101.04,39.76c-1.47,1.32-3.91,0.88-5.68,1.76c-0.22,0.07-0.03-0.5-0.5-0.31c-1.71,1-4.68,0.95-6.96,0.66
			l0.12-0.16c-0.44-0.05-0.9,0.47-1.36,0.46c-0.01-0.09,0.13-0.15,0.01-0.27c-0.08,0.3-0.8,0.22-0.97,0.46
			c-0.19-0.09-0.2-0.31-0.44-0.41l-0.22,0.35c-0.63,0.84-1.75,0.15-2.68,0.66c0.04-0.08,0.13-0.15,0.04-0.21
			c-0.76,0.33-1.63,0.53-2.53,0.72c-0.88,0.2-1.86,0.32-2.76,0.32c0.08-0.11,0.16-0.31,0.06-0.45c-0.11,0.33-0.67,0.38-1.15,0.38
			c-0.16-0.37-0.87,0.21-1.4-0.1l0.06-0.07c-0.48,0.28-0.56-0.33-0.99,0.03l-0.2-0.33c-0.3,0.44-0.52-0.39-0.92-0.24l-0.02,0.1
			c-0.35,0.02-0.44-0.26-0.75-0.27l-0.01-0.06c-0.72-0.09-1-0.51-1.12-0.14c-0.12-0.37,0.69,0.1,0.48-0.45
			c-1.14-0.2-2.26-0.62-3.27-1.26c-1-0.64-1.94-1.54-2.32-2.76c0.07-0.32,0.09-0.49,0.24-0.56c-0.13-0.22-0.09-0.85-0.21-1.11
			c0,0.08,0.21-0.11,0.27-0.22c0.27-0.34-0.24-0.6,0.13-0.96c0,0.22,0.09,0.33,0.25,0.34c-0.1-0.48,0.24-0.93,0.47-1.35
			c0,0.1-0.04,0.21,0.07,0.27c0.06-0.63,0.67-0.65,0.83-1.11l0.03,0.27c0.7-0.29-0.17-0.49,0.41-0.79
			c-0.07,0.15,0.03,0.18,0.07,0.27c0.17-0.69,1-1.18,1.36-1.64c-0.01,0.05,0.04,0.09,0.04,0.09c0.46-0.43,1.05-0.74,1.43-1.33
			c0.24-0.1,0.32,0.45,0.72-0.09c-0.17-0.14-0.04-0.38,0.06-0.59c0.09-0.22,0.13-0.4-0.18-0.39c0.36-0.36,0.84-1.08,0.79-1.47
			c0.08,0.28,0.61-0.1,0.49,0.36c0.12-0.08,0.25-0.17,0.37-0.27c0.17,0.11-0.17,0.35,0.08,0.3c0.08-0.25,0.06-0.99,0.16-1.19
			c-0.21-0.5-0.66-0.93-0.72-1.6c0.17,0.32,0.49-0.19,0.57,0.03c-0.29-0.33-0.58-0.64-0.9-0.92c-0.04-0.22,0.35-0.08,0.19-0.39
			c-0.11,0.03-0.21-0.1-0.31-0.18c0.05-0.09-0.26-0.88,0.14-1.08c0.14-0.14,0.17,0.35,0.27,0.07c-0.09-0.42-0.26-0.4-0.37-0.79
			l0.05-0.03c-0.02-0.29-0.45-0.7-0.57-0.33c0.05,0.18,0.22-0.16,0.2,0.14c-0.3-0.1-0.53-0.49-0.71-0.84
			c0.12,0.09,0.22,0.03,0.35,0.02c-0.54-0.35-0.92-0.77-1.37-1.18c-0.18,0.11,0.44-0.03,0.4,0.11c-0.19-0.83-1.26-1.03-1.38-1.78
			c0.1,0.06-0.18,0.24-0.14,0.2c-0.24-0.28-0.01-0.48-0.26-0.58c0.11-0.15-0.26-0.18-0.48-0.3c-0.18,0.01,0.01-0.11,0.18,0.03
			c-0.35-0.16-1.58-0.82-2.12-1.44c-0.05,0.1-0.64,0.12-0.78,0.02l0.2-0.2c-0.06-0.23-0.54-0.26-0.46-0.49
			c-0.25,0.06,0.11,0.17,0.47,0.27c0.35,0.11,0.7,0.22,0.4,0.19c-0.01-0.28-0.85,0.01-0.58-0.26c-0.33-0.17-0.78-0.03-0.98-0.41
			c0.07,0.08,0.42-0.22,0.14-0.33c-0.49-0.12-0.18,0.07-0.58,0.03l-0.27,0.04c-0.08,0.26-0.41-0.14-0.3,0.19
			c-0.01-0.24-0.72,0.01-0.6-0.42l0.12-0.33c-0.23-0.02-0.42,0.32-0.6,0.45c-0.03-0.03-0.08-0.11-0.06-0.17
			c-0.07,0.52-0.54-0.08-0.82,0.32c-0.47-0.2-1.2,0-1.45-0.31c-0.36,0.2-0.68,0.41-1.11,0.36c0.08-0.06,0.19-0.09,0.2-0.21
			c-0.29-0.12-0.34,0.03-0.57,0.15c0.04-0.09-0.58-0.22-0.92-0.35c-0.34,0.24-0.15,0.49-0.15,0.67c-0.45-0.45-0.93,0.56-1.45,0.23
			c0.1-0.11,0.45-0.4,0.11-0.44c-0.49-0.41-0.55,0.57-1.14,0.51l0.28,0.37c-0.33-0.18-0.61,0.52-0.74,0.09
			c-0.09,0.21-0.61,0.13-0.37,0.48c-0.92,0.05-1.53,1.25-2.41,1.05c-0.05,0.13-0.32,0.31-0.12,0.42c0.31,0.02,0.09-0.33,0.26-0.26
			c-0.08,0.08-0.01,0.18,0.02,0.23c-0.25,0.12-0.43,0.25-0.5-0.19c-0.63,0.26,0.08,0.95-0.53,1.41c-0.11-0.14-0.2-0.13-0.32,0.06
			c-0.01,0.18-0.02,0.34-0.02,0.52c-0.33,0.36-0.49,0-0.74-0.16c-0.12,0.25-0.31,0.53-0.18,0.75l-0.5,0.09
			c0.36-0.07,0.04,0.28,0.05,0.43l0-0.15c-0.13-0.02-0.22,0.3-0.26,0.46c0.18,0.05,0.4-0.19,0.53-0.32
			c0.05,0.18-0.08,0.35-0.02,0.58c-0.24-0.19-0.37,0.3-0.49,0.47c-0.16,0.19,0.14,0.35,0.1,0.41c-0.14-0.05-0.16,0.35-0.3,0.1
			c-0.02-0.09,0.2-0.12,0.13-0.3c-0.16,0.1-0.4-0.01-0.34,0.37c0.05,0.28,0.55,0.14,0.24,0.51c-0.03-0.14-0.14-0.2-0.21-0.32
			l-0.28,0.37l0.25,0.1c-0.08,0.04-0.09-0.01-0.13,0.01c0.22,0.2-0.09,0.67,0.2,0.83c-0.03,0.21-0.26,0.4-0.33,0.6l-0.02-0.04
			c-0.21,0.22-0.12,0.58,0.04,0.79l-0.06-0.01c-0.04,0.14,0.03,0.38,0.18,0.5c-0.16,0.3-0.98,0.22-0.6,0.53
			c0.08,0.34,0.61,0.38,0.73,0.21c-0.02,0.6,0.65,1.05,0.58,1.75c0.14,0.03,0.17-0.06,0.31,0.07c0.39,0.87,1.39,1.48,1.49,2.43
			c-0.27-0.16-0.22,0.16-0.33,0.26c0.34,0.03,0,0.39,0.37,0.19c0.17-0.17,0.27-0.23,0.17-0.51c0.48,0.38,1.09,1.06,1.16,1.47
			c-0.03-0.2,0.11-0.15,0.25-0.1c-0.32,0.23-0.05,0.6,0.29,0.76l0.2-0.13l-0.02,0.33c0.15,0.05,0.46-0.23,0.53,0.17
			c-0.05,0.08-0.11,0.16-0.11,0.25c0.37,0.11,1.02,0.3,1.19,0.83l-0.02,0.53c0.15,0.13,0.54,0.36,0.4-0.04
			c0.35,0.86,0.54,1.56,0.32,1.96c0.27,0.4,0.44,1.01,0.38,1.66c-0.07,0.64-0.33,1.23-0.65,1.72c-0.32,0.45-0.7,0.84-1.07,1.12
			c-0.18,0.15-0.37,0.29-0.6,0.43c-0.21,0.13-0.42,0.24-0.61,0.33l-0.04-0.18c-0.47,0.06-0.07,0.38-0.4,0.41
			c0.05-0.21-0.44-0.2-0.23-0.52c-0.61,0.07-0.57,0.58-0.9,0.79c0.03,0.24,0.23-0.25,0.27,0.05c-0.03,0.1-0.81,0.11-0.77,0.46
			c-0.18-0.08-0.16-0.36-0.13-0.52l-0.27,0.27c-0.51-0.26,0.65-0.99,0.08-1.33l-0.27,0.15c-0.38-0.25,0.61-0.64-0.13-0.52
			c-0.25,0.27-0.36,0.83-0.03,0.89c-0.62,0.3-0.05,0.89-0.77,1.08c-0.25-0.14,0.55-0.22,0.33-0.45c-0.41-0.17-0.62,0.35-0.94,0.34
			c0.36,0.03,0.18,0.45-0.01,0.57c-0.39-0.06,0.13-0.38-0.37-0.28c-0.02,0.22-0.49,0.5-0.01,0.52c-0.08,0.49-0.6,0.04-0.82,0.45
			c-0.25-0.27,0.38-0.85-0.25-0.87c0.17,0.28-0.64,0.58-0.22,0.96c-0.26-0.04-0.33-0.27-0.2-0.49c-0.37-0.11-0.71,0.72-0.93,0.13
			l-0.06,0.33c-0.12-0.08-0.29-0.14-0.49-0.28c-0.29,0.04-0.9,0.55-0.93,0.08c-0.09,0.06-0.76,0.11-0.47,0.41
			c0.45,0.16,0.46-0.29,0.75,0.12c-0.34-0.32-0.61,0.12-0.84,0.26l-0.06-0.18c-0.14,0.09-0.48,0.07-0.55,0.28
			c0.1-0.11,0.04-0.24-0.08-0.27l-0.13,0.29c-0.58,0.18-0.17-0.48-0.74-0.37l0.42-0.24c-0.09,0.05-0.3-0.2-0.56-0.1
			c-0.09,0.26-0.28,0.58-0.36,0.78c-0.32,0.12-0.15-0.29-0.46-0.01l0.4-0.32c0.06-0.09-0.29-0.41-0.71-0.4
			c-0.26,0.09-0.68,0.47-0.25,0.6c-0.21,0.01-0.51-0.15-0.34-0.33c-0.47,0.09,0.07,0.28-0.34,0.44c-0.17-0.17-0.69-0.41-1-0.66
			l0.42-0.43l-0.28-0.01c0.36-0.34-0.18-0.26,0.02-0.62c-0.19-0.06-0.42,0.06-0.6,0.16c0.55,0.59-0.63,0.79-0.47,1.32
			c-0.77,0.14-0.46-1.29-1.27-0.48c0.13,0.14-0.26,0.54,0.23,0.39c-0.48-0.07-0.34,0.53-0.9,0.29c0.43-0.21-0.44-0.55,0.18-0.85
			c-0.04,0.17,0.34,0.14,0.43,0.09c-0.19-0.21,0.05-0.53-0.44-0.54c-0.3,0.04-0.71,0.04-0.66,0.32c0,0.3,0.46-0.02,0.26,0.28
			c-0.61,0.09-0.69-0.38-0.96,0.14c0.39-0.02,0.47,0.29,0.45,0.5l-0.46,0.11l0.1-0.2c-0.72-0.18-0.23,0.36-0.94,0.26l-0.3-0.42
			c0.19-0.32,1.02,0.22,0.92-0.35c-0.45-0.05-0.62,0.22-1.04,0.05c0.1-0.04,0.23-0.04,0.33-0.09c-0.16-0.03-0.26-0.78-0.94-0.41
			c-0.35,0.13-0.11,0.19-0.14,0.4c-0.73-0.01-0.98,0.16-1.45,0.14c0.15-0.39-0.81-0.16-0.24-0.5c0.19,0.27,1.25,0.39,1.55,0.02
			c-0.21-0.51,0.56,0.13,0.76-0.35c-0.57-0.06-0.5-0.54-0.55-0.86c-0.15-0.04-0.32,0.08-0.42,0.11c-0.1,0.28,0.1,0.3,0.08,0.61
			c-0.63-0.15-1.25-0.08-1.65,0.16c-0.19-0.18-0.08-0.45,0.17-0.45c-0.76-0.03-1.55-0.19-2.23-0.42c0.36,0.57-0.79-0.05-0.56,0.4
			c0.35,0.18,0.61,0.59,0.37,0.76c-0.23-0.08,0.04-0.2-0.03-0.33c-0.34,0.19-0.39-0.51-0.75-0.17c0.7-0.01,0.24-0.55,0.43-0.89
			c-0.52,0.11,0.07-0.26-0.41-0.36c-0.52,0.1-1.13,0.14-1.68,0.11c-0.6-0.49-1.69-0.36-2.29-0.48c-0.27-0.25,0.03-0.62-0.29-0.77
			c-0.4-0.08,0.2,0.51-0.35,0.2l0.07-0.07c-0.2,0.07-1.01-0.52-1.32,0.02l0.28-0.4c-0.1-0.07-0.22,0.01-0.32,0.03
			c0.03-0.15-0.07-0.31,0.13-0.36c-0.29-0.4-0.76-0.15-1.15-0.24l0.19,0.33c-0.72,0.03-1.1-0.35-1.77-0.42l0.08-0.25l-0.42,0.05
			c0.16-0.23-0.15-0.48-0.41-0.32l1.15-0.37c0.24,0.22-0.38,0.23-0.27,0.53c0.09,0.26,0.71,0.35,0.86,0.12
			c-0.22-0.09-0.25-0.03-0.45,0.01c0.01-0.38,0.36-0.27,0.59-0.47c-0.12-0.02-0.26-0.17-0.32-0.06c0.28-0.11,0.52-0.08,0.91,0.01
			c-0.3,0.07,0.09,0.26-0.03,0.34c0.11-0.31,0.5-0.31,0.96-0.09c0.26,0.45,0.95,0.01,1.49,0.22c-0.3,0.27-0.65,0.48-1.02,0.51
			c0.31,0.26,0.39,0.09,0.71,0.33c0.23-0.2,0.43-0.55,0.92-0.6l-0.03,0.24c0.44-0.03,0.52-0.39,1.04-0.21
			c0.89,0.31,1.82,0.51,2.51,0.69L28,41.15c0.48-0.43,1.32,0.09,1.89-0.04c0.85,0.39,1.96,0.09,2.35,0.56
			c1.59,0.03,2.94-0.07,4.59,0.06l-0.29,0.35c0.3-0.25,0.19,0.21,0.48,0.16c-0.33-0.29,0.41-0.36,0.62-0.57
			c0.73,0.29,1.69,0,2.33-0.25l0.03,0.24c0.65-0.46,1.42-0.07,2.23-0.03c0.1,0.1,0.25,0.32,0.49,0.28c0.41-0.42,0.64-0.41,1.24-0.72
			c0.45-0.05,1.19-0.05,1.68,0.01c0.81-0.43,1.56-0.67,2.45-0.95c0.86-0.27,1.73-0.53,2.45-1l0.22,0.22
			c0.67-0.59,1.23-0.95,1.68-1.41c0.21-0.21,0.29-0.35,0.3-0.41c0.01-0.06-0.02-0.14-0.15-0.26c0.16-0.04,0.32-0.08,0.49-0.1
			c0.06-0.32-0.47-0.59-0.69-0.3c-0.07-0.38-0.74-0.54-0.69-1.06c-0.28-0.42-0.59-0.29-0.93-0.55c-0.57-0.87-0.86-1.13-1.57-1.81
			l0.14,0.2c0.15,0.01,0.31-0.12,0.18-0.32c-0.35-0.19-0.77-1.12-0.99-0.47c-0.41-1.02-1.78-1.87-1.94-3.11
			c-0.09,0.16-0.26-0.07-0.41-0.13c-0.5-0.94-0.59-2.12-1-3.03c0.05-0.2,0.31,0.26,0.26-0.22c-0.1-0.28-0.22,0.03-0.34-0.33
			c-0.37-2.07,0.7-3.51,1.16-4.92c0.71-2.59,2.52-4.79,4.51-6.43l0.05,0.11c0.41-0.93,1.91-0.78,2.23-1.67
			c0.24,0,0.75-0.28,0.7-0.01c0.53-0.58,1.84-0.37,2.64-0.97c-0.09,0.01-0.13,0.05-0.21,0.12c0.97,0.02,1.71-0.49,2.74-0.38
			c-0.09,0.06-0.27,0.12-0.28,0.24c0.4,0.17,0.84-0.6,1.11-0.06c0.22-0.03,0.13-0.3,0-0.27c1.09,0.02,2.21-0.04,3.41,0.01
			c0.6,0.02,1.22,0.09,1.87,0.22c0.32,0.07,0.67,0.17,0.98,0.27c0.28,0.11,0.58,0.21,0.85,0.33c1.34,1.11-0.36,0.87,0.98,1.16
			c0.03,0.15,0.18-0.14,0.13-0.03c0.51,0.15,0.29,0.95,0.73,0.91c0.09-0.36,0.3-0.02,0.44-0.18c0.66,0.8,0.58,1.16,1.33,1.5
			l-0.17,0.09c1.03,0.27,1.52,1.27,2.47,1.57c0.8,1.07,1.51,2.24,1.99,3.59c0.24,0.71,0.39,1.32,0.52,1.97
			c0.12,0.65,0.21,1.31,0.25,2c0.06,1.36-0.07,2.84-0.65,4.29c-0.28,0.72-0.68,1.44-1.19,2.07c-0.24,0.32-0.55,0.63-0.8,0.88
			c-0.25,0.24-0.49,0.45-0.73,0.66c-0.97,0.76-1.84,1.39-2.53,2.02c-0.69,0.62-1.15,1.24-1.3,1.68c-0.09,0.22-0.08,0.31-0.07,0.4
			c0.01,0.08,0.04,0.2,0.17,0.41c0.25,0.41,0.91,0.98,1.68,1.48c0.56,0.83,0.68,0.86,1.71,1.05c-0.07,0.06-0.14,0.05-0.09,0.15
			c0.18-0.35,0.71,0.21,0.93-0.12c1.41,0.52,2.85,0.71,4.34,0.85c-0.24,0.02-0.39,0.32-0.1,0.33c0.11-0.07,0.21-0.15,0.31-0.23
			l0.04,0.11c0.2-0.04,0.4-0.23,0.22-0.37c0.44-0.02,0.87-0.05,1.11-0.1c0.54-0.09,1.09-0.16,1.63-0.22
			c1.09-0.12,2.17-0.19,3.25-0.25c2.16-0.11,4.3-0.17,6.38-0.47c1.01,0.04,2.4-0.29,3.45-0.53c3.21,0.06,6.14-0.09,9.15-1.31
			C102.42,38.1,102.3,39.19,101.04,39.76z"/>
		<path class="st0" d="M18.76,38.77c0.06,0.22,0.4,0.42,0.04,0.6C18.81,39.18,18.67,38.93,18.76,38.77z"/>
		<path class="st0" d="M28.16,43.06c0.02-0.05,0.13,0.11,0.15,0.15c-0.13-0.01-0.27,0.13-0.35,0.01
			C28.09,43.22,28.09,43.13,28.16,43.06z"/>
		<path class="st0" d="M30.71,43.66c-0.07,0.17-0.65,0.21-0.98,0.18L30.71,43.66z"/>
		<path class="st0" d="M33.1,44.71c0.2,0.17,0.14,0.24-0.16,0.21C32.92,44.82,33.03,44.79,33.1,44.71z"/>
		<path class="st0" d="M33.31,44.33c0.21,0.01,0.3,0.13,0.4,0.24C33.72,44.42,33.22,44.61,33.31,44.33z"/>
		<path class="st0" d="M38.68,45.06c0.13-0.01,0.4-0.16,0.52,0.04C39.07,44.96,38.58,45.32,38.68,45.06z"/>
		<path class="st0" d="M41.17,44.79c0.08,0.01,0.12,0.04,0.21-0.01c0.15,0.07,0,0.21-0.13,0.23L41.17,44.79z"/>
		<polygon class="st0" points="55.89,15.79 55.69,15.95 55.67,15.77 		"/>
		<path class="st0" d="M70.89,21.06c0.21,0.15-0.07,0.21-0.08,0.26C70.7,21.14,71.04,21.29,70.89,21.06z"/>
		<polygon class="st0" points="71.23,30.01 71.28,29.96 71.53,30.21 		"/>
	</g>
	<g>
		<path class="st0" d="M103.91,39.03c0-0.57-0.34,0.26-0.09-0.38C103.95,38.74,104.04,38.87,103.91,39.03z"/>
		<path class="st0" d="M102.91,122.68c-1.23-1.55-0.87-3.97-1.78-5.76c-0.08-0.22,0.5-0.02,0.3-0.51c-1-1.71-1.24-4.68-0.97-6.99
			l0.16,0.12c0.05-0.43-0.48-0.89-0.45-1.35c0.09-0.01,0.15,0.13,0.27,0.02c-0.3-0.09-0.19-0.8-0.41-0.98
			c0.1-0.19,0.33-0.18,0.44-0.42l-0.34-0.24c-0.81-0.69-0.05-1.77-0.49-2.74c0.08,0.04,0.14,0.14,0.21,0.06
			c-0.54-1.57-0.48-3.58-0.53-5.39c0.11,0.08,0.31,0.16,0.45,0.06c-0.33-0.11-0.38-0.67-0.4-1.16c0.37-0.18-0.23-0.86,0.04-1.4
			l0.07,0.06c-0.31-0.47,0.29-0.58-0.09-0.99l0.31-0.22c-0.46-0.26,0.36-0.55,0.17-0.94l-0.1-0.01c-0.05-0.35,0.23-0.46,0.21-0.78
			l0.06-0.02c0.04-0.73,0.43-1.05,0.05-1.14c0.36-0.16-0.05,0.71,0.49,0.45c0.13-1.15,0.41-2.35,1.14-3.36
			c0.65-1.08,2.2-1.61,3.38-1.2c0.23,0.22,0.37,0.32,0.37,0.49c0.12,0.01,0.33,0.08,0.54,0.14c0.2,0.08,0.41,0.14,0.56,0.11
			c-0.07-0.03,0.03,0.24,0.12,0.33c0.26,0.36,0.64-0.09,0.9,0.35c-0.21-0.04-0.33,0.02-0.37,0.18c0.5,0,0.88,0.39,1.3,0.63
			c-0.1,0-0.21-0.05-0.28,0.05c0.61,0.09,0.64,0.69,1.11,0.85l-0.27,0.04c0.32,0.7,0.48-0.18,0.81,0.38
			c-0.16-0.06-0.18,0.04-0.26,0.08c0.7,0.13,1.26,0.91,1.76,1.22c-0.05,0-0.08,0.05-0.08,0.05c0.47,0.41,0.88,0.93,1.54,1.13
			c0.16,0.21-0.37,0.44,0.27,0.68c0.18-0.38,1.09,0.29,0.93-0.33c0.45,0.27,1.26,0.6,1.63,0.48c-0.26,0.14,0.22,0.58-0.25,0.55
			c0.11,0.11,0.22,0.21,0.34,0.31c-0.07,0.18-0.38-0.1-0.28,0.14c0.26,0.02,0.99-0.13,1.21-0.08c0.46-0.29,0.79-0.83,1.44-1.02
			c-0.29,0.24,0.28,0.44,0.08,0.56c0.27-0.34,0.51-0.7,0.73-1.06c0.21-0.09,0.15,0.32,0.43,0.11c-0.05-0.11,0.06-0.22,0.12-0.34
			c0.1,0.03,0.83-0.43,1.09-0.08c0.16,0.11-0.31,0.23-0.01,0.28c0.4-0.17,0.35-0.32,0.72-0.53l0.03,0.05
			c0.28-0.07,0.65-0.55,0.26-0.62c-0.18,0.08,0.19,0.2-0.12,0.22c0.06-0.31,0.45-0.59,0.78-0.83c-0.08,0.13,0,0.22,0.01,0.36
			c0.14-0.3,0.32-0.55,0.51-0.78c0.18-0.24,0.36-0.48,0.55-0.72c-0.13-0.17,0.07,0.43-0.07,0.41c0.4-0.13,0.65-0.47,0.85-0.81
			c0.21-0.33,0.42-0.62,0.77-0.75c-0.04,0.11-0.26-0.15-0.21-0.12c0.25-0.27,0.48-0.07,0.54-0.32c0.16,0.09,0.15-0.28,0.23-0.52
			c-0.04-0.18,0.11-0.01,0,0.19c0.09-0.38,0.56-1.65,1.03-2.31c-0.12-0.03-0.22-0.59-0.16-0.76l0.24,0.15
			c0.2-0.11,0.14-0.59,0.37-0.56c-0.11-0.23-0.14,0.15-0.16,0.52c-0.03,0.37-0.09,0.72-0.11,0.43c0.29-0.05-0.19-0.83,0.13-0.61
			c0.08-0.37-0.09-0.76,0.2-1.06c-0.06,0.09,0.32,0.38,0.35,0.07c0.04-0.54-0.1-0.18-0.12-0.62l-0.07-0.28
			c-0.26-0.05,0.07-0.46-0.24-0.3c0.22-0.05-0.08-0.76,0.36-0.68l0.34,0.09c0-0.24-0.35-0.4-0.51-0.57c0.03-0.03,0.1-0.09,0.16-0.08
			c-0.54-0.03,0.04-0.55-0.38-0.8c0.13-0.49-0.09-1.2,0.17-1.47c-0.24-0.34-0.46-0.63-0.46-1.06c0.07,0.07,0.12,0.18,0.23,0.18
			c0.08-0.3-0.07-0.33-0.22-0.54c0.09,0.04,0.17-0.6,0.25-0.95c-0.28-0.31-0.51-0.09-0.69-0.07c0.38-0.5-0.66-0.86-0.41-1.41
			c0.12,0.09,0.47,0.39,0.46,0.06c0.33-0.53-0.64-0.48-0.65-1.08l-0.33,0.32c0.13-0.35-0.62-0.55-0.2-0.73
			c-0.23-0.07-0.2-0.63-0.53-0.35c-0.07-0.47-0.46-0.84-0.74-1.24c-0.32-0.36-0.59-0.69-0.51-1.17c-0.13-0.05-0.33-0.29-0.42-0.09
			c0,0.3,0.33,0.06,0.28,0.24c-0.09-0.07-0.18-0.01-0.23,0.03c-0.14-0.24-0.28-0.4,0.15-0.5c-0.33-0.58-0.91,0.11-1.42-0.39
			c0.12-0.13,0.11-0.21-0.09-0.31l-0.49,0.04c-0.38-0.26-0.06-0.47,0.07-0.74c-0.27-0.06-0.56-0.21-0.75-0.06
			c-0.05-0.16-0.1-0.32-0.17-0.47c0.13,0.32-0.27,0.11-0.41,0.14l0.14-0.03c-0.01-0.14-0.33-0.15-0.49-0.16
			c-0.01,0.19,0.26,0.35,0.4,0.45c-0.16,0.09-0.35,0-0.55,0.1c0.06-0.13-0.02-0.21-0.15-0.27c-0.13-0.05-0.3-0.05-0.39-0.08
			c-0.22-0.1-0.29,0.22-0.36,0.2c0.01-0.15-0.36-0.08-0.16-0.27c0.08-0.04,0.16,0.17,0.3,0.06c-0.13-0.13-0.09-0.39-0.43-0.25
			c-0.25,0.14,0.02,0.58-0.41,0.39c0.12-0.07,0.14-0.19,0.24-0.29l-0.43-0.16l-0.02,0.27c-0.06-0.07-0.02-0.09-0.04-0.13
			c-0.06,0.14-0.22,0.16-0.38,0.18c-0.15,0.03-0.3,0.09-0.33,0.25c-0.2,0.05-0.46-0.13-0.66-0.13l0.03-0.03
			c-0.28-0.13-0.58,0.09-0.74,0.31l-0.01-0.06c-0.13,0.02-0.44,0.11-0.54,0.35c-0.38-0.06-0.46-0.9-0.71-0.43
			c-0.35,0.15-0.32,0.66-0.12,0.76c-0.65,0.14-1.05,0.84-1.75,0.87c-0.01,0.14,0.07,0.16-0.04,0.32c-0.43,0.21-0.72,0.65-1.07,0.97
			l-0.25,0.24c-0.06,0.07-0.13,0.12-0.2,0.18c-0.16,0.14-0.35,0.25-0.58,0.33c0.09-0.3-0.2-0.18-0.32-0.27
			c0.04,0.34-0.38,0.08-0.11,0.41c0.21,0.13,0.29,0.21,0.54,0.05c-0.26,0.55-0.89,1.37-1.31,1.52c0.21-0.08,0.17,0.08,0.13,0.25
			c-0.27-0.28-0.62,0.07-0.8,0.45l0.13,0.2l-0.36,0.03c-0.06,0.16,0.22,0.48-0.24,0.61c-0.08-0.05-0.16-0.1-0.27-0.1
			c-0.21,0.43-0.58,1.16-1.34,1.26c-0.2-0.03-0.42-0.08-0.64-0.14c-0.25,0.12-0.77,0.4-0.2,0.4c-0.68,0.02-1.26-0.12-1.64-0.32
			c-0.41-0.18-0.56-0.43-0.65-0.64c-1.82-0.36-3-1.92-3.76-3.32l0.18-0.05c-0.06-0.45-0.38-0.04-0.41-0.37
			c0.21,0.05,0.18-0.46,0.51-0.25c-0.1-0.61-0.62-0.57-0.85-0.95c-0.24,0.02,0.26,0.27-0.04,0.3c-0.11-0.04-0.16-0.94-0.51-1.02
			c0.09-0.23,0.37-0.13,0.54-0.07c-0.09-0.14-0.18-0.27-0.25-0.36c0.17-0.24,0.37-0.06,0.63,0.17c0.25,0.25,0.53,0.4,0.7,0.11
			l-0.13-0.31c0.28-0.36,0.6,0.7,0.53-0.07c-0.24-0.28-0.78-0.47-0.88-0.15c-0.22-0.67-0.88-0.18-0.97-0.95
			c0.17-0.24,0.14,0.6,0.4,0.41c0.22-0.4-0.26-0.69-0.2-1.02c-0.09,0.37-0.47,0.11-0.57-0.11c0.12-0.41,0.35,0.21,0.33-0.34
			c-0.21-0.07-0.41-0.56-0.51-0.11c-0.48-0.16,0.07-0.58-0.3-0.85c0.31-0.2,0.78,0.5,0.9-0.1c-0.31,0.12-0.47-0.71-0.91-0.36
			c0.07-0.24,0.32-0.28,0.52-0.12c0.17-0.34-0.61-0.78,0-0.92l-0.32-0.1c0.1-0.11,0.17-0.26,0.34-0.43c0-0.29-0.45-0.93,0.03-0.91
			c-0.05-0.09-0.04-0.75-0.36-0.5c-0.2,0.41,0.25,0.47-0.2,0.71c0.36-0.3-0.06-0.6-0.18-0.83l0.19-0.04
			c-0.07-0.14-0.03-0.47-0.23-0.56c0.11,0.11,0.23,0.05,0.28-0.06l-0.28-0.15c-0.14-0.58,0.49-0.13,0.42-0.69l0.21,0.42
			c-0.05-0.09,0.22-0.28,0.14-0.54c-0.25-0.11-0.56-0.31-0.76-0.4c-0.11-0.32,0.29-0.13,0.04-0.45l0.3,0.41
			c0.08,0.06,0.43-0.26,0.43-0.68c-0.08-0.27-0.44-0.69-0.59-0.27c0-0.21,0.17-0.49,0.35-0.32c-0.08-0.47-0.28,0.05-0.43-0.36
			c0.18-0.16,0.44-0.67,0.69-0.97l0.42,0.43l0.01-0.28c0.33,0.37,0.27-0.17,0.62,0.04c0.06-0.19-0.05-0.42-0.14-0.61
			c-0.6,0.55-0.77-0.67-1.3-0.53c-0.1-0.81,1.31-0.42,0.54-1.29c-0.15,0.13-0.52-0.29-0.4,0.22c0.09-0.49-0.51-0.38-0.24-0.94
			c0.18,0.45,0.57-0.41,0.84,0.23c-0.17-0.06-0.16,0.33-0.12,0.43c0.22-0.19,0.53,0.08,0.57-0.41c-0.03-0.31,0-0.72-0.28-0.69
			c-0.3-0.02-0.01,0.47-0.3,0.24c-0.05-0.62,0.43-0.67-0.09-0.98c0,0.39-0.32,0.45-0.53,0.43l-0.08-0.47l0.19,0.11
			c0.23-0.71-0.34-0.26-0.2-0.95l0.44-0.28c0.32,0.21-0.28,0.99,0.29,0.94c0.07-0.45-0.19-0.63,0.01-1.04
			c0.04,0.1,0.03,0.23,0.07,0.33c0.04-0.16,0.79-0.22,0.45-0.91c-0.12-0.35-0.18-0.12-0.39-0.15c0.04-0.72-0.13-0.97-0.09-1.44
			c0.39,0.16,0.18-0.8,0.5-0.23c-0.28,0.19-0.42,1.23-0.07,1.54c0.52-0.19-0.15,0.55,0.32,0.77c0.09-0.57,0.56-0.47,0.88-0.51
			c0.05-0.15-0.06-0.32-0.1-0.42c-0.28-0.11-0.31,0.09-0.61,0.06c0.17-0.62,0.12-1.25-0.11-1.65c0.18-0.18,0.46-0.07,0.44,0.18
			c0.04-0.76,0.23-1.55,0.45-2.23c-0.56,0.37,0.04-0.81-0.41-0.57c-0.18,0.36-0.58,0.62-0.75,0.37c0.07-0.23,0.2,0.05,0.32-0.03
			c-0.2-0.35,0.5-0.4,0.16-0.78c0.01,0.74,0.54,0.25,0.89,0.45c-0.11-0.54,0.26,0.07,0.36-0.41c-0.1-0.53-0.13-1.16-0.08-1.71
			c0.5-0.59,0.4-1.69,0.51-2.28c0.25-0.27,0.62,0.03,0.77-0.29c0.07-0.4-0.51,0.2-0.2-0.34l0.07,0.07c-0.05-0.2,0.48-1.01-0.09-1.31
			l0.42,0.27c0.06-0.11-0.03-0.23-0.06-0.33c0.15,0.02,0.31-0.08,0.37,0.11c0.38-0.31,0.1-0.78,0.16-1.18l-0.32,0.2
			c-0.07-0.72,0.29-1.13,0.32-1.8l0.26,0.07l-0.08-0.42c0.24,0.15,0.47-0.18,0.29-0.43l0.44,1.14c-0.21,0.25-0.25-0.37-0.55-0.25
			c-0.25,0.11-0.3,0.73-0.07,0.88c0.08-0.23,0.02-0.25-0.04-0.45c0.38,0,0.29,0.35,0.5,0.57c0.01-0.13,0.16-0.28,0.05-0.33
			c0.13,0.28,0.11,0.52,0.04,0.92c-0.09-0.3-0.25,0.1-0.34-0.02c0.31,0.1,0.33,0.5,0.15,0.97c-0.44,0.27,0.09,0.96-0.14,1.54
			c-0.28-0.3-0.48-0.65-0.55-1.02c-0.22,0.33-0.06,0.41-0.29,0.74c0.21,0.22,0.55,0.42,0.6,0.93l-0.24-0.03
			c0.03,0.45,0.38,0.53,0.19,1.06c-0.33,0.9-0.55,1.84-0.73,2.54l-0.24-0.03c0.42,0.5-0.08,1.32,0.05,1.9
			c-0.4,0.86-0.13,1.99-0.61,2.38c-0.08,1.62-0.08,3.01-0.3,4.64l-0.33-0.31c0.24,0.32-0.22,0.18-0.19,0.47
			c0.31-0.31,0.34,0.43,0.54,0.64c-0.32,0.71-0.05,1.68,0.18,2.35l-0.24,0.02c0.44,0.68,0.01,1.46-0.07,2.29
			c-0.1,0.09-0.33,0.24-0.31,0.49c0.39,0.45,0.36,0.68,0.61,1.33c0,0.47-0.08,1.24-0.21,1.73c0.31,0.88,0.42,1.75,0.55,2.63
			c0.06,0.44,0.13,0.87,0.23,1.29l0.08,0.32l0.08,0.2c0.07,0.14,0.16,0.3,0.27,0.45l-0.22,0.22c0.59,0.56,1.08,1.32,1.59,2.01
			c0.26,0.34,0.52,0.67,0.78,0.91c0.13,0.12,0.26,0.22,0.38,0.29c0.06,0,0.11-0.01,0.1-0.01c-0.03,0.1-0.11,0.31-0.19,0.42
			c0.04,0.08,0.12,0.09,0.17-0.02c0.03-0.08,0.03-0.25-0.01-0.42c0.07,0.17,0.25-0.37,0.65-0.2c0.34-0.16,0.2-0.48,0.38-0.76
			c0.72-0.51,0.9-0.83,1.4-1.62l-0.17,0.17c0.02,0.15,0.18,0.28,0.35,0.12c0.1-0.36,0.93-0.99,0.24-1.06
			c0.25-0.17,0.44-0.38,0.71-0.68c0.23-0.24,0.47-0.49,0.7-0.74c0.23-0.24,0.46-0.49,0.71-0.68c0.27-0.18,0.55-0.33,0.84-0.4
			c-0.17-0.07,0.04-0.27,0.08-0.43c0.87-0.59,1.98-0.82,2.67-1.36c0.18,0.01-0.15,0.35,0.25,0.21c0.21-0.15-0.07-0.2,0.19-0.4
			c0.78-0.4,1.68-0.57,2.56-0.54c0.44-0.02,0.87,0.03,1.29,0.09c0.42,0.05,0.82,0.06,1.22,0.12c1.44-0.03,2.85,0.49,4.11,1.15
			c0.61,0.37,1.22,0.74,1.73,1.21c0.55,0.42,1.01,0.91,1.46,1.39l-0.11,0.06c0.48,0.16,0.69,0.65,0.91,1.09
			c0.23,0.44,0.43,0.83,0.88,0.96c0.01,0.23,0.35,0.69,0.07,0.68c0.32,0.21,0.48,0.66,0.62,1.15c0.14,0.49,0.35,0.98,0.68,1.36
			c-0.02-0.09-0.06-0.13-0.14-0.2c0.04,0.5,0.22,0.91,0.39,1.33c0.15,0.43,0.3,0.88,0.32,1.4c-0.08-0.09-0.16-0.26-0.28-0.26
			c-0.1,0.41,0.69,0.8,0.18,1.12c0.05,0.22,0.31,0.11,0.27-0.03c0.2,2.2,0.6,4.62,0.08,7.04c-0.8,1.57-0.9-0.17-0.95,1.23
			c-0.14,0.06,0.17,0.15,0.06,0.13c-0.04,0.56-0.87,0.49-0.77,0.92c0.38,0.02,0.07,0.3,0.25,0.4c-0.33,0.42-0.61,0.61-0.83,0.81
			c-0.22,0.2-0.35,0.4-0.48,0.81l-0.11-0.16c-0.09,0.51-0.36,0.97-0.64,1.39c-0.3,0.4-0.58,0.8-0.69,1.31
			c-1.02,0.89-2.1,1.73-3.27,2.33c-1.14,0.65-2.35,1.17-3.7,1.51c-1.34,0.35-2.84,0.48-4.35,0.22c-1.52-0.26-2.99-0.95-4.16-1.9
			c-1.13-1-1.79-1.8-2.57-2.56c-0.75-0.75-1.5-1.42-2.2-1.9c-0.69-0.5-1.35-0.69-1.34-0.63c-0.02-0.03-0.02,0.01-0.04-0.02l-0.01,0
			l0,0l0,0c0.02,0.04-0.18-0.34-0.09-0.18l0,0l0,0.01l0.06,0.12c0.03,0.05,0.04,0.06,0.03,0.05l0,0c0-0.02-0.03,0-0.06,0.03
			c-0.12,0.06-0.35,0.33-0.56,0.68c-0.76,0.52-0.8,0.65-0.9,1.68c-0.06-0.06-0.06-0.13-0.15-0.08c0.36,0.15-0.15,0.73,0.19,0.92
			c-0.4,1.47-0.49,3-0.63,4.61c-0.02-0.25-0.33-0.41-0.33-0.11l0.23,0.34l-0.11,0.04c0.04,0.21,0.22,0.45,0.36,0.24
			c0.04,2.03,0,4.08-0.03,6.23c-0.01,1.06-0.04,2.2-0.01,3.14c0.04,0.99,0.16,2,0.36,3.02c0.01,1,0.44,2.38,0.73,3.47
			c0.05,1.76,0.04,3.17,0.28,4.75c0.2,1.57,0.55,3.07,0.99,4.85C104.45,124.34,103.4,123.98,102.91,122.68z"/>
		<path class="st0" d="M103.84,39.7c-0.21,0.09-0.39,0.44-0.59,0.1C103.44,39.8,103.68,39.63,103.84,39.7z"/>
		<path class="st0" d="M99.8,49.29c0.05,0.03-0.11,0.13-0.15,0.16c0.01-0.13-0.13-0.28,0-0.36C99.64,49.21,99.74,49.21,99.8,49.29z"
			/>
		<path class="st0" d="M99.19,51.87c-0.16-0.07-0.2-0.65-0.16-0.98L99.19,51.87z"/>
		<path class="st0" d="M98.08,54.2c-0.18,0.19-0.25,0.12-0.2-0.17C97.97,54.03,98,54.13,98.08,54.2z"/>
		<path class="st0" d="M98.45,54.43c-0.02,0.21-0.14,0.29-0.25,0.38C98.34,54.83,98.17,54.32,98.45,54.43z"/>
		<path class="st0" d="M97.44,59.84c0.01,0.14,0.14,0.42-0.05,0.53C97.52,60.25,97.19,59.74,97.44,59.84z"/>
		<path class="st0" d="M97.63,62.33c-0.01,0.08-0.05,0.11,0,0.21c-0.08,0.15-0.21-0.01-0.22-0.14L97.63,62.33z"/>
		<polygon class="st0" points="125.5,76.2 125.32,76.01 125.49,75.97 		"/>
		<path class="st0" d="M122.24,91.95c-0.14,0.22-0.23-0.05-0.27-0.05C122.13,91.77,122.01,92.13,122.24,91.95z"/>
		<polygon class="st0" points="113.24,94.07 113.31,94.1 113.12,94.41 		"/>
	</g>
</g>
</svg>
