<?xml version="1.0" encoding="utf-8"?>
<!-- Generator: Adobe Illustrator 23.0.0, SVG Export Plug-In . SVG Version: 6.00 Build 0)  -->
<svg version="1.1" id="图层_1" xmlns="http://www.w3.org/2000/svg" xmlns:xlink="http://www.w3.org/1999/xlink" x="0px" y="0px"
	 viewBox="0 0 141.73 141.73" style="enable-background:new 0 0 141.73 141.73;" xml:space="preserve">
<style type="text/css">
	.st0{fill:#E68915;}
</style>
<g>
	<g>
		<path class="st0" d="M9.82,88.95c-0.45,0.28,0.35,0.09-0.27,0.24C9.57,89.06,9.63,88.95,9.82,88.95z"/>
		<path class="st0" d="M53.52,100.18c1.82,0.12,3.48,1.78,5.32,2.23c0.21,0.07-0.22,0.31,0.25,0.45c1.84,0.34,4.21,1.83,6.19,2.9
			l-0.16,0.06c0.38,0.2,0.97,0.05,1.38,0.2c-0.02,0.07-0.17,0.06-0.09,0.18c0.17-0.18,0.81,0.11,1.03,0
			c0.15,0.12,0.09,0.28,0.29,0.43c0.1-0.06,0.2-0.11,0.3-0.18c0.81-0.46,1.68,0.4,2.68,0.17c-0.05,0.05-0.15,0.09-0.08,0.15
			c0.79-0.09,1.65-0.07,2.54-0.12c0.88,0,1.79-0.06,2.64-0.18c-0.06,0.09-0.12,0.25-0.01,0.34c0.07-0.26,0.59-0.34,1.04-0.44
			c0.23,0.24,0.75-0.33,1.3-0.26l-0.04,0.06c0.36-0.32,0.61,0.08,0.88-0.28l0.28,0.17c0.11-0.4,0.59,0.08,0.89-0.16l-0.02-0.07
			c0.29-0.15,0.48,0.01,0.75-0.11l0.03,0.04c0.64-0.22,1.07-0.09,0.99-0.37c0.28,0.18-0.62,0.22-0.18,0.48
			c2.09-0.77,4.32-1.29,6.48-1.87c0.27,0.04,0.44,0.03,0.53,0.12c0.2-0.12,0.79-0.31,0.93-0.51c-0.07,0.03,0.19,0.09,0.3,0.06
			c0.42-0.04,0.29-0.45,0.75-0.51c-0.13,0.14-0.15,0.25-0.05,0.32c0.26-0.35,0.72-0.55,1.07-0.84c-0.03,0.08-0.11,0.15-0.05,0.22
			c0.29-0.46,0.78-0.44,1.02-0.84l-0.02,0.23c0.67-0.3-0.07-0.39,0.44-0.7c-0.07,0.13,0.02,0.15,0.04,0.21
			c0.19-0.59,0.8-1.23,0.99-1.75c0,0.04,0.05,0.06,0.05,0.06c0.27-0.51,0.63-1.06,0.63-1.7c0.1-0.21,0.41,0.16,0.41-0.5
			c-0.16,0-0.18-0.26-0.25-0.47c-0.05-0.21-0.16-0.35-0.3-0.15c0.01-0.46-0.35-1.18-0.71-1.29c0.26,0.06,0.07-0.48,0.43-0.2
			l-0.14-0.39c0.13-0.07,0.26,0.29,0.29,0.08c-0.2-0.18-0.86-0.47-1.03-0.59c-0.5-0.03-0.98,0.2-1.62,0.08
			c0.34-0.05-0.09-0.4,0.14-0.4c-0.37,0.13-0.71,0.27-1.05,0.44c-0.22-0.02-0.01-0.27-0.34-0.23c0,0.09-0.14,0.13-0.24,0.19
			c-0.08-0.05-0.91,0-1-0.32c-0.1-0.13,0.37-0.05,0.12-0.18c-0.42-0.01-0.44,0.1-0.85,0.1l-0.01-0.04c-0.28-0.05-0.8,0.16-0.5,0.33
			c0.19,0-0.08-0.2,0.2-0.11c-0.19,0.19-0.65,0.27-1.05,0.31c0.13-0.07,0.11-0.15,0.15-0.25c-0.49,0.31-1.16,0.46-1.8,0.59
			c0,0.16,0.23-0.3,0.33-0.22c-0.84-0.16-1.73,0.35-2.41,0.02c0.11-0.02,0.06,0.22,0.05,0.18c-0.4-0.03-0.37-0.26-0.64-0.18
			c-0.02-0.13-0.33,0.03-0.6,0.05c-0.14,0.09-0.07-0.07,0.17-0.07c-0.38,0.1-1.88,0.2-2.72-0.08c0.01,0.09-0.56,0.27-0.76,0.24
			l0.1-0.2c-0.17-0.14-0.66-0.06-0.67-0.24c-0.45,0.2,1.63-0.03,1.05,0.1c-0.13-0.18-0.83,0.24-0.67-0.03
			c-0.39-0.04-0.81,0.14-1.15-0.1c0.1,0.05,0.36-0.24,0.04-0.27c-0.56-0.04-0.17,0.08-0.63,0.08l-0.3,0.04
			c-0.05,0.2-0.49-0.1-0.32,0.15c-0.04-0.17-0.83-0.03-0.72-0.35l0.12-0.25c-0.24-0.02-0.44,0.21-0.65,0.28
			c-0.03-0.03-0.08-0.09-0.06-0.13c-0.11,0.39-0.57-0.14-0.91,0.1c-0.48-0.23-1.29-0.29-1.46-0.6c-0.41,0.02-0.8,0.07-1.21-0.13
			c0.1-0.01,0.22,0.01,0.27-0.07c-0.24-0.19-0.34-0.1-0.61-0.1c0.07-0.04-0.48-0.39-0.73-0.62c-0.41,0-0.35,0.24-0.42,0.36
			c-0.22-0.47-1.15-0.11-1.45-0.61c0.15,0,0.61,0.02,0.33-0.19c-0.2-0.5-0.79,0.04-1.25-0.37l0.01,0.36
			c-0.16-0.29-0.87-0.16-0.68-0.45c-0.23,0.03-0.59-0.37-0.66-0.05c-0.38-0.34-0.92-0.55-1.41-0.79c-0.47-0.26-0.89-0.53-1-0.92
			c-0.14-0.03-0.41-0.25-0.43-0.07c0.1,0.27,0.34,0.06,0.35,0.21c-0.11-0.06-0.18,0.01-0.21,0.04c-0.22-0.22-0.4-0.36-0.03-0.44
			c-0.45-0.51-0.88,0.12-1.51-0.46c0.1-0.09,0.08-0.17-0.14-0.29l-0.52-0.07c-0.41-0.36-0.08-0.43,0.04-0.62
			c-0.26-0.14-0.53-0.35-0.74-0.29l-0.11-0.43c0.08,0.32-0.27-0.03-0.41-0.07l0.14,0.04c0.02-0.11-0.28-0.26-0.43-0.34
			c-0.05,0.13,0.18,0.38,0.31,0.53c-0.18-0.01-0.34-0.17-0.57-0.19c0.18-0.14-0.28-0.41-0.44-0.56c-0.18-0.2-0.35-0.02-0.41-0.08
			c0.06-0.09-0.32-0.28-0.06-0.28c0.09,0.03,0.09,0.21,0.27,0.22c-0.08-0.17,0.05-0.32-0.32-0.42c-0.28-0.08-0.22,0.38-0.53-0.04
			c0.14,0.04,0.21-0.02,0.34-0.01l-0.3-0.38l-0.14,0.15c-0.02-0.08,0.03-0.07,0.02-0.1c-0.24,0.08-0.61-0.4-0.84-0.27
			c-0.2-0.13-0.31-0.41-0.47-0.57l0.05,0.01c-0.15-0.26-0.48-0.43-0.75-0.46l0.04-0.03c-0.11-0.1-0.41-0.29-0.63-0.31
			c-0.21-0.35,0.35-0.69-0.14-0.73c-0.32-0.22-0.7-0.05-0.65,0.14c-0.48-0.52-1.31-0.67-1.66-1.29c-0.13,0.01-0.1,0.09-0.3,0.01
			c-0.84-0.64-1.95-1.02-2.41-1.79c0.29,0.09,0.13-0.16,0.19-0.25c-0.3,0.01-0.14-0.32-0.38-0.11c-0.08,0.16-0.15,0.22,0.05,0.44
			c-0.56-0.26-1.32-0.74-1.52-1.06c0.1,0.16-0.04,0.14-0.18,0.12c0.19-0.23-0.17-0.49-0.5-0.57l-0.13,0.13l-0.09-0.26
			c-0.14-0.01-0.3,0.25-0.5-0.05c0.02-0.07,0.03-0.14,0.01-0.21c-0.37-0.03-0.89-0.03-1.15-0.32l-0.16-0.36
			c-0.15-0.04-0.45,0-0.23,0.18c-0.49-0.38-0.85-0.54-0.96-0.8c-1.17,0.16-2.52-0.1-3.64-0.07l0.03-0.13
			c-0.31-0.11-0.15,0.23-0.36,0.16c0.09-0.14-0.26-0.25-0.03-0.43c-0.47-0.1-0.55,0.29-0.83,0.39c-0.02,0.18,0.21-0.14,0.19,0.08
			c-0.04,0.06-0.63-0.03-0.64,0.25c-0.13-0.08-0.09-0.28-0.05-0.4l-0.24,0.19c-0.42-0.22,0.65-0.7,0.22-1l-0.26,0.1
			c-0.32-0.21,0.66-0.46-0.05-0.4c-0.28,0.19-0.42,0.63-0.14,0.67c-0.58,0.23-0.11,0.67-0.73,0.83c-0.21-0.1,0.48-0.18,0.3-0.35
			c-0.36-0.12-0.55,0.29-0.83,0.31c0.32,0,0.16,0.32,0,0.44c-0.35,0,0.12-0.31-0.33-0.17c-0.02,0.17-0.38,0.43,0,0.39
			c-0.03,0.38-0.49,0.09-0.62,0.43c-0.24-0.16,0.24-0.7-0.29-0.61c0.17,0.18-0.47,0.55-0.08,0.75c-0.21,0.02-0.31-0.14-0.23-0.33
			c-0.33-0.01-0.48,0.68-0.76,0.3l0.01,0.26c-0.12-0.03-0.26-0.03-0.46-0.08c-0.24,0.11-0.64,0.66-0.78,0.32
			c-0.06,0.07-0.63,0.32-0.31,0.44c0.41-0.03,0.33-0.35,0.66-0.14c-0.36-0.13-0.49,0.27-0.65,0.45l-0.09-0.11
			c-0.1,0.11-0.39,0.21-0.4,0.38c0.06-0.12-0.03-0.18-0.14-0.16l-0.04,0.25c-0.45,0.32-0.27-0.28-0.72-0.01l0.29-0.32
			c-0.07,0.07-0.31-0.04-0.51,0.13c-0.01,0.22-0.08,0.5-0.09,0.67c-0.23,0.2-0.21-0.14-0.39,0.16l0.25-0.37
			c0.03-0.08-0.37-0.18-0.72-0.01c-0.2,0.16-0.44,0.58-0.04,0.51c-0.18,0.09-0.48,0.09-0.4-0.1c-0.38,0.25,0.14,0.16-0.16,0.43
			c-0.2-0.05-0.72-0.01-1.07-0.06l0.24-0.46l-0.25,0.11c0.21-0.38-0.24-0.11-0.17-0.44c-0.18,0.04-0.35,0.21-0.48,0.35
			c0.67,0.18-0.3,0.79,0,1.09c-0.63,0.4-0.81-0.7-1.26,0.19c0.16,0.04-0.05,0.47,0.33,0.17c-0.43,0.15-0.12,0.49-0.68,0.56
			c0.3-0.31-0.55-0.19-0.13-0.64c0.02,0.14,0.33-0.04,0.4-0.11c-0.23-0.06-0.13-0.38-0.55-0.19c-0.24,0.15-0.6,0.32-0.46,0.48
			c0.1,0.2,0.39-0.2,0.31,0.09c-0.49,0.3-0.71,0.02-0.77,0.49c0.31-0.18,0.49,0,0.55,0.15l-0.34,0.26l0.01-0.17
			c-0.66,0.17-0.07,0.33-0.68,0.56l-0.4-0.15c0.04-0.3,0.91-0.28,0.63-0.61c-0.39,0.16-0.43,0.41-0.84,0.47
			c0.07-0.07,0.17-0.13,0.24-0.2c-0.14,0.05-0.51-0.4-0.92,0.14c-0.23,0.24-0.02,0.17,0.04,0.32c-0.6,0.32-0.72,0.54-1.11,0.74
			c-0.04-0.32-0.72,0.28-0.4-0.2c0.27,0.07,1.16-0.33,1.26-0.7c-0.37-0.23,0.51-0.17,0.49-0.56c-0.5,0.21-0.62-0.13-0.79-0.31
			c-0.14,0.05-0.24,0.2-0.31,0.26c0.03,0.23,0.21,0.14,0.31,0.35c-0.58,0.19-1.06,0.54-1.28,0.87c-0.23-0.02-0.26-0.25-0.05-0.36
			c-0.63,0.35-1.35,0.63-2,0.85c0.55,0.15-0.66,0.38-0.27,0.54c0.37-0.07,0.76,0.03,0.64,0.26c-0.22,0.07-0.06-0.15-0.17-0.18
			c-0.19,0.3-0.54-0.11-0.68,0.29c0.55-0.37-0.06-0.45-0.06-0.76c-0.37,0.34-0.06-0.19-0.49,0c-0.37,0.33-0.85,0.68-1.3,0.95
			c-0.71,0.02-1.53,0.67-2.06,0.92c-0.34,0-0.28-0.38-0.61-0.29c-0.36,0.17,0.41,0.19-0.18,0.3l0.03-0.08
			c-0.13,0.14-1.06,0.24-1.03,0.73l0.02-0.39c-0.11,0.02-0.17,0.13-0.24,0.2c-0.05-0.1-0.21-0.14-0.08-0.28
			c-0.42-0.07-0.67,0.35-1.02,0.51l0.31,0.08c-0.54,0.42-1.03,0.42-1.58,0.76l-0.07-0.19l-0.3,0.27c0-0.22-0.37-0.18-0.48,0.05
			l0.7-0.86c0.3-0.01-0.17,0.35,0.07,0.45c0.21,0.09,0.72-0.21,0.73-0.42c-0.22,0.07-0.21,0.12-0.34,0.26
			c-0.18-0.22,0.14-0.36,0.21-0.6c-0.1,0.06-0.29,0.05-0.28,0.15c0.16-0.22,0.37-0.34,0.72-0.51c-0.2,0.21,0.2,0.1,0.14,0.21
			c-0.07-0.24,0.24-0.46,0.71-0.6c0.43,0.12,0.75-0.54,1.3-0.7c-0.11,0.32-0.29,0.62-0.56,0.85c0.37-0.03,0.35-0.17,0.73-0.2
			c0.08-0.24,0.08-0.55,0.45-0.84l0.1,0.16c0.34-0.26,0.23-0.5,0.74-0.67c0.87-0.29,1.72-0.67,2.37-0.92l0.1,0.16
			c0.2-0.51,1.12-0.65,1.52-1.02c0.88-0.2,1.68-0.93,2.23-0.83c1.37-0.76,2.56-1.43,4.06-2.03l-0.14,0.35
			c0.18-0.3,0.23,0.06,0.48-0.09c-0.38-0.06,0.25-0.41,0.36-0.64c0.74-0.1,1.49-0.69,1.99-1.12l0.1,0.16
			c0.44-0.58,1.27-0.62,2.02-0.91c0.11,0.03,0.32,0.13,0.53,0.01c0.27-0.45,0.48-0.53,0.98-0.96c0.42-0.19,1.14-0.46,1.63-0.55
			c1.46-1.12,3.31-1.6,5.26-2.13l0.17,0.19c0.94-0.36,2.09-0.35,3.14-0.18c1.06,0.18,2,0.53,2.81,0.7l-0.27,0.29
			c0.43,0.29,1.1,0.34,1.08,0.06c0.42,0.3,1.22,0.38,1.37,0.8c0.41,0.3,0.62,0.15,1.02,0.32c0.8,0.64,1.13,0.8,1.95,1.26l-0.18-0.15
			c-0.13,0.01-0.22,0.14-0.04,0.28c0.35,0.1,1.01,0.78,0.96,0.23c0.69,0.76,2,1.09,2.6,1.9c0-0.15,0.21-0.03,0.35-0.04
			c0.75,0.48,1.35,1.22,2.04,1.47c0.08,0.13-0.3,0.03-0.02,0.25c0.2,0.09,0.1-0.12,0.34-0.02c1.28,0.67,2.12,1.93,3.14,2.65
			c1.89,1.2,3.63,2.6,5.45,3.53l-0.06,0.07c0.74,0.04,1.28,1.04,1.99,0.81c0.11,0.14,0.55,0.28,0.37,0.39
			c0.58,0.01,1.35,0.77,2.2,0.76c-0.07-0.03-0.11-0.03-0.2-0.02c0.7,0.44,1.46,0.41,2.23,0.79c-0.09,0.01-0.25,0-0.3,0.08
			c0.28,0.25,0.86-0.16,0.92,0.29c0.19,0.04,0.18-0.17,0.07-0.19c1.76,0.65,3.82,0.7,5.77,0.85c1.37,0.42,0,0.72,1.15,0.53
			c0.08,0.09,0.08-0.15,0.09-0.07c0.44-0.07,0.63,0.53,0.95,0.34c-0.1-0.27,0.21-0.13,0.23-0.29c0.84,0.23,1.01,0.47,1.7,0.31
			l-0.06,0.13c0.81-0.35,1.73-0.13,2.37-0.6c0.53-0.02,1.04-0.07,1.54-0.14c0.6-0.08,1.22-0.14,1.82-0.16
			c1.21-0.04,2.43,0.01,3.7,0.27c0.64,0.14,1.28,0.31,1.95,0.65c0.66,0.33,1.36,0.8,1.92,1.54c0.56,0.73,0.87,1.72,0.88,2.59
			c0.02,0.89-0.2,1.66-0.47,2.34c-0.29,0.66-0.64,1.25-1.02,1.77c-0.37,0.5-0.8,1.04-1.32,1.51c-1.01,0.94-2.19,1.57-3.32,2.03
			c-1.14,0.46-2.26,0.76-3.33,1.02c-1.08,0.26-2.06,0.49-3.21,0.71c-1.12-0.1-1.18-0.05-2.29,0.33c0.04-0.07,0.1-0.09,0.02-0.13
			c0,0.3-0.8,0.18-0.86,0.48c-1.66,0.28-3.2,0.56-4.96,0.71c0.28-0.05,0.4-0.29,0.07-0.26l-0.33,0.21l-0.06-0.08
			c-0.22,0.06-0.46,0.21-0.22,0.3c-4.46,0.56-8.98-0.79-12.92-2.4c-0.46-0.24-1.02-0.48-1.59-0.73c-0.58-0.24-1.17-0.47-1.67-0.68
			c-2.71-1.77-5.01-3.43-8-4.51C51.57,100.28,52.26,99.76,53.52,100.18z"/>
		<path class="st0" d="M10.38,88.66c0.16,0.09,0.53,0,0.35,0.31C10.64,88.85,10.4,88.79,10.38,88.66z"/>
		<path class="st0" d="M19.93,86.02c-0.01-0.05,0.15,0,0.19,0.01c-0.11,0.06-0.16,0.22-0.28,0.19C19.95,86.16,19.9,86.1,19.93,86.02
			z"/>
		<path class="st0" d="M22.25,85.09c0.02,0.14-0.43,0.45-0.71,0.59L22.25,85.09z"/>
		<path class="st0" d="M24.61,84.65c0.23,0.02,0.2,0.1-0.05,0.2C24.51,84.8,24.58,84.73,24.61,84.65z"/>
		<path class="st0" d="M24.64,84.31c0.18-0.08,0.3-0.05,0.41-0.02C25,84.19,24.67,84.53,24.64,84.31z"/>
		<path class="st0" d="M29.43,82.6c0.11-0.06,0.3-0.27,0.47-0.18C29.74,82.37,29.42,82.81,29.43,82.6z"/>
		<path class="st0" d="M31.5,81.44c0.07-0.02,0.11-0.01,0.18-0.08c0.15,0,0.06,0.14-0.04,0.2L31.5,81.44z"/>
		<polygon class="st0" points="68.22,92.6 67.95,92.57 68.03,92.46 		"/>
		<path class="st0" d="M87.13,95.31c0.23-0.11,0.18,0.11,0.22,0.12C87.13,95.47,87.41,95.26,87.13,95.31z"/>
		<polygon class="st0" points="94.85,97.95 94.85,97.88 95.11,97.92 		"/>
	</g>
	<g>
		<path class="st0" d="M93.81,102.87c-0.55,0.32,0.4,0.07-0.33,0.26C93.51,103,93.59,102.88,93.81,102.87z"/>
		<path class="st0" d="M25.19,119.37c0.5-0.95,1.42-1.71,2.39-2.41c0.99-0.69,2.04-1.31,2.92-2.02c0.22-0.15,0.12,0.36,0.59,0
			c0.84-0.7,2.12-1.35,3.56-1.62c1.44-0.28,2.99-0.18,4.21,0.19c-0.06,0.03-0.11,0.05-0.16,0.08c0.45,0.17,1.11-0.1,1.59,0.11
			c-0.02,0.07-0.18,0.04-0.1,0.17c0.18-0.16,0.9,0.21,1.17,0.13c0.15,0.17,0.06,0.32,0.25,0.52l0.37-0.08
			c1.03-0.16,1.74,1.07,2.9,1.38c-0.08,0.02-0.2,0-0.15,0.09c1.78,0.64,3.76,1.84,5.65,2.72c-0.11,0.04-0.25,0.14-0.19,0.28
			c0.21-0.17,0.81,0.07,1.32,0.29c0.1,0.35,0.95,0.23,1.46,0.67l-0.08,0.02c0.55-0.02,0.56,0.47,1.06,0.36l0.18,0.32
			c0.36-0.23,0.53,0.49,0.97,0.5l0.02-0.07c0.37,0.09,0.47,0.34,0.8,0.44l0.01,0.05c0.77,0.28,1.1,0.67,1.21,0.41
			c0.15,0.33-0.75-0.26-0.5,0.24c1.27,0.47,2.52,1.01,3.75,1.59c1.24,0.58,2.46,1.2,3.7,1.68c0.24,0.22,0.41,0.33,0.43,0.46
			c0.27,0.04,0.99,0.23,1.27,0.16c-0.09-0.02,0.13,0.19,0.26,0.24c0.45,0.24,0.58-0.14,1.08,0.06c-0.22,0.04-0.32,0.12-0.27,0.24
			c0.5-0.15,1.09-0.01,1.64,0c-0.09,0.03-0.22,0.04-0.21,0.14c0.61-0.13,1.08,0.14,1.6,0.02l-0.2,0.16
			c0.83,0.25,0.26-0.33,0.98-0.18c-0.17,0.04-0.11,0.11-0.14,0.18c0.68-0.3,1.76-0.25,2.41-0.42c-0.04,0.03-0.02,0.07-0.02,0.07
			c0.71-0.15,1.49-0.11,2.25-0.43c0.3,0.01-0.01,0.42,0.73,0.19c-0.1-0.32,1.25-0.42,0.72-0.69c0.64-0.12,1.68-0.3,2.07-0.53
			c-0.25,0.2,0.44,0.3-0.08,0.48c0.15,0.03,0.31,0.05,0.46,0.06c-0.01,0.16-0.43,0.09-0.25,0.21c0.26-0.1,0.98-0.5,1.24-0.53
			c0.42-0.36,0.73-0.88,1.47-1.24c-0.31,0.27,0.34,0.26,0.12,0.41l0.82-1.03c0.25-0.12,0.16,0.22,0.49-0.02
			c-0.05-0.07,0.08-0.19,0.16-0.31c0.11-0.01,1-0.55,1.25-0.3c0.17,0.06-0.38,0.25-0.05,0.23c0.46-0.21,0.44-0.32,0.89-0.55
			l0.03,0.04c0.32-0.1,0.83-0.56,0.42-0.56c-0.21,0.09,0.17,0.14-0.19,0.2c0.13-0.28,0.64-0.58,1.09-0.81
			c-0.13,0.12-0.07,0.19-0.09,0.31c0.5-0.53,1.1-0.94,1.73-1.38c-0.06-0.14-0.12,0.38-0.26,0.36c0.97-0.25,1.65-1.21,2.52-1.31
			c-0.11,0.09-0.17-0.16-0.14-0.13c0.43-0.2,0.51,0.01,0.75-0.21c0.09,0.1,0.32-0.22,0.58-0.4c0.1-0.16,0.1,0.02-0.13,0.16
			c0.34-0.31,1.81-1.32,2.81-1.62c-0.06-0.07,0.4-0.58,0.61-0.68l0.02,0.22c0.25,0.01,0.68-0.38,0.8-0.24
			c0.32-0.45-1.6,1.09-1.09,0.6c0.23,0.07,0.68-0.73,0.68-0.41c0.41-0.23,0.7-0.64,1.19-0.68c-0.13,0.03-0.2,0.43,0.13,0.24
			c0.57-0.36,0.12-0.18,0.56-0.5l0.26-0.24c-0.08-0.19,0.54-0.26,0.21-0.34c0.15,0.1,0.8-0.56,0.9-0.24l0.05,0.27
			c0.24-0.16,0.27-0.48,0.41-0.69c0.04,0,0.14,0.01,0.14,0.05c-0.16-0.37,0.61-0.31,0.76-0.75c0.59-0.18,1.33-0.77,1.7-0.7
			c0.34-0.34,0.63-0.68,1.12-0.89c-0.07,0.09-0.19,0.17-0.17,0.26c0.34-0.07,0.36-0.21,0.58-0.42c-0.03,0.09,0.69-0.15,1.08-0.23
			c0.33-0.35,0.08-0.45,0.05-0.58c0.57,0.11,0.96-0.91,1.6-0.9c-0.1,0.14-0.46,0.53-0.08,0.4c0.57,0.1,0.55-0.71,1.23-0.93
			l-0.32-0.18c0.37,0,0.73-0.71,0.86-0.39c0.12-0.23,0.73-0.36,0.48-0.58c1.08-0.4,2.15-1.67,3.04-1.59c0.1-0.13,0.46-0.32,0.3-0.41
			c-0.32,0.01-0.23,0.32-0.38,0.28c0.11-0.09,0.09-0.18,0.07-0.22c0.32-0.14,0.56-0.28,0.45,0.13c0.75-0.29,0.34-0.91,1.21-1.38
			c0.04,0.13,0.13,0.13,0.35-0.06l0.31-0.51c0.55-0.33,0.47,0.03,0.62,0.2c0.25-0.23,0.6-0.47,0.62-0.7l0.5-0.02
			c-0.36,0.02,0.14-0.28,0.24-0.42l-0.1,0.14c0.11,0.04,0.39-0.24,0.53-0.39c-0.12-0.08-0.48,0.11-0.68,0.21
			c0.08-0.18,0.31-0.33,0.43-0.56c0.07,0.22,0.54-0.21,0.77-0.35c0.28-0.15,0.16-0.37,0.24-0.42c0.08,0.09,0.42-0.29,0.32-0.02
			c-0.06,0.09-0.26,0.06-0.34,0.25c0.21-0.06,0.31,0.12,0.57-0.26c0.19-0.28-0.33-0.3,0.24-0.55c-0.09,0.14-0.06,0.23-0.11,0.37
			l0.52-0.25l-0.1-0.17c0.09-0.01,0.06,0.04,0.1,0.04c0.01-0.27,0.65-0.58,0.61-0.85c0.21-0.19,0.56-0.26,0.79-0.41l-0.03,0.05
			c0.34-0.11,0.64-0.44,0.78-0.73l0.02,0.04c0.15-0.1,0.47-0.39,0.58-0.63c0.46-0.17,0.59,0.5,0.84-0.02
			c0.37-0.3,0.35-0.74,0.12-0.73c0.76-0.43,1.25-1.25,2.14-1.53c0.06-0.14-0.04-0.14,0.16-0.33c1.15-0.71,2.22-1.63,3.22-1.8
			c-0.25,0.25,0.09,0.18,0.15,0.28c0.15-0.3,0.4-0.03,0.32-0.34c-0.12-0.14-0.14-0.23-0.47-0.11c0.57-0.45,1.38-1.04,1.75-1.15
			c-0.19,0.05-0.12-0.08-0.05-0.21c0.16,0.25,0.55-0.04,0.7-0.37l-0.1-0.15l0.27-0.05c0.04-0.14-0.2-0.32,0.1-0.48
			c0.07,0.02,0.14,0.04,0.21,0.02c0.03-0.35-0.01-0.84,0.21-1.17c0.11-0.07,0.22-0.15,0.32-0.24c0-0.17-0.1-0.46-0.22-0.2
			c0.26-0.61,0.28-1.05,0.48-1.27c-0.55-1.16-1.12-2.54-1.96-3.1l0.1-0.09c-0.17-0.26-0.23,0.1-0.36-0.06
			c0.15-0.07-0.08-0.34,0.21-0.37c-0.17-0.17-0.33-0.18-0.48-0.13c-0.14,0.03-0.27,0.1-0.41,0.11c-0.08,0.16,0.24-0.06,0.13,0.14
			c-0.03,0.03-0.16-0.03-0.3-0.08c-0.14-0.03-0.3-0.02-0.34,0.1c-0.1-0.11-0.01-0.3,0.06-0.4c-0.09,0.03-0.19,0.08-0.28,0.12
			c-0.17-0.16,0.01-0.29,0.24-0.43c0.21-0.12,0.47-0.25,0.28-0.46c-0.11,0-0.21,0-0.31,0.01c-0.31-0.3,0.9-0.23,0.06-0.4
			c-0.39,0.12-0.64,0.51-0.35,0.62c-0.68,0.12-0.25,0.62-0.92,0.72c-0.22-0.12,0.53-0.14,0.37-0.32c-0.37-0.15-0.63,0.24-0.94,0.27
			c0.35-0.01,0.15,0.33-0.03,0.44c-0.38,0,0.14-0.32-0.36-0.16c-0.03,0.17-0.42,0.45,0,0.4c-0.03,0.38-0.53,0.12-0.68,0.5
			c-0.27-0.13,0.25-0.75-0.34-0.59c0.19,0.16-0.51,0.63-0.07,0.78c-0.23,0.05-0.35-0.09-0.27-0.3c-0.37,0.04-0.5,0.78-0.84,0.46
			l0.03,0.26c-0.13-0.01-0.3,0.03-0.52,0.02c-0.26,0.16-0.66,0.84-0.85,0.53c-0.07,0.09-0.69,0.5-0.31,0.54
			c0.47-0.14,0.34-0.45,0.74-0.33c-0.43-0.04-0.53,0.41-0.7,0.64l-0.12-0.09c-0.1,0.14-0.42,0.32-0.42,0.5
			c0.06-0.14-0.05-0.18-0.17-0.13l-0.02,0.27c-0.48,0.46-0.34-0.22-0.83,0.19l0.31-0.41c-0.07,0.09-0.36,0.05-0.57,0.27
			c0.01,0.23-0.04,0.54-0.04,0.72c-0.25,0.27-0.25-0.09-0.43,0.27l0.25-0.45c0.02-0.09-0.43-0.09-0.83,0.18
			c-0.21,0.23-0.45,0.72,0.01,0.54c-0.2,0.14-0.54,0.23-0.46,0c-0.41,0.36,0.18,0.13-0.15,0.49c-0.23,0-0.83,0.18-1.23,0.23
			l0.23-0.54l-0.27,0.18c0.21-0.45-0.29-0.04-0.24-0.4c-0.21,0.09-0.38,0.31-0.52,0.49c0.78,0-0.27,0.9,0.1,1.13
			c-0.68,0.58-1-0.5-1.43,0.53c0.18,0-0.02,0.5,0.39,0.09c-0.49,0.27-0.1,0.54-0.73,0.76c0.31-0.4-0.65-0.05-0.2-0.63
			c0.03,0.14,0.38-0.13,0.45-0.22c-0.27,0-0.18-0.36-0.65-0.05c-0.27,0.22-0.66,0.48-0.49,0.62c0.14,0.18,0.43-0.31,0.37,0.01
			c-0.54,0.44-0.82,0.21-0.84,0.71c0.35-0.26,0.57-0.13,0.65,0.01l-0.37,0.35l0-0.18c-0.74,0.35-0.05,0.36-0.74,0.75l-0.47-0.05
			c0.02-0.32,1.03-0.52,0.68-0.8c-0.44,0.26-0.47,0.53-0.93,0.7c0.07-0.09,0.19-0.18,0.26-0.26c-0.16,0.09-0.61-0.28-1.05,0.38
			c-0.25,0.31,0,0.18,0.07,0.32c-0.67,0.48-0.79,0.74-1.23,1.05c-0.07-0.32-0.81,0.47-0.48-0.11c0.32,0.01,1.32-0.63,1.41-1.04
			c-0.45-0.15,0.57-0.3,0.52-0.71c-0.56,0.34-0.72,0.03-0.94-0.11c-0.16,0.08-0.26,0.26-0.33,0.35c0.05,0.23,0.25,0.1,0.38,0.28
			c-0.65,0.34-1.19,0.81-1.42,1.21c-0.27,0.04-0.31-0.19-0.08-0.36c-0.7,0.52-1.52,0.97-2.26,1.35c0.65,0.03-0.75,0.55-0.28,0.61
			c0.42-0.16,0.88-0.14,0.76,0.13c-0.25,0.12-0.07-0.14-0.21-0.14c-0.2,0.35-0.64,0.01-0.78,0.45c0.63-0.51-0.09-0.46-0.11-0.77
			c-0.41,0.43-0.08-0.18-0.57,0.11c-0.41,0.43-0.96,0.89-1.48,1.26c-0.82,0.17-1.76,1-2.39,1.36c-0.4,0.06-0.33-0.34-0.71-0.2
			c-0.42,0.23,0.48,0.13-0.22,0.34l0.03-0.09c-0.15,0.17-1.24,0.42-1.21,0.92l0.03-0.41c-0.13,0.03-0.2,0.16-0.28,0.25
			c-0.06-0.1-0.24-0.11-0.09-0.28c-0.49-0.01-0.79,0.45-1.21,0.67l0.36,0.04c-0.64,0.52-1.22,0.58-1.89,0.98l-0.07-0.19l-0.37,0.31
			c0.02-0.23-0.42-0.15-0.57,0.1l0.87-0.96c0.35-0.04-0.22,0.38,0.05,0.46c0.24,0.08,0.86-0.29,0.88-0.51
			c-0.26,0.1-0.25,0.15-0.41,0.3c-0.2-0.21,0.18-0.38,0.28-0.64c-0.12,0.07-0.35,0.09-0.33,0.18c0.2-0.24,0.44-0.39,0.85-0.61
			c-0.23,0.24,0.23,0.07,0.16,0.2c-0.08-0.24,0.29-0.51,0.84-0.71c0.5,0.06,0.88-0.68,1.51-0.92c-0.12,0.35-0.34,0.69-0.65,0.97
			c0.43-0.09,0.41-0.23,0.85-0.32c0.09-0.26,0.09-0.57,0.52-0.94l0.11,0.15c0.39-0.33,0.26-0.56,0.84-0.83
			c1-0.46,1.97-1.02,2.7-1.42l0.12,0.14c0.2-0.58,1.26-0.91,1.7-1.39c1-0.4,1.88-1.35,2.51-1.38c1.52-1.11,2.83-2.12,4.49-3.12
			l-0.13,0.4c0.18-0.36,0.27,0,0.54-0.22c-0.45,0.04,0.25-0.49,0.36-0.76c0.84-0.3,1.64-1.11,2.17-1.69l0.13,0.13
			c0.45-0.72,1.39-0.99,2.22-1.49c0.13,0,0.38,0.04,0.6-0.14c0.27-0.54,0.5-0.68,1.03-1.27c0.45-0.31,1.28-0.8,1.85-1.01
			c0.83-0.76,1.83-1.35,3.01-1.74c1.16-0.39,2.53-0.54,3.94-0.24l0.12,0.27c1.38,0.18,2.67,1.39,3.25,2.67
			c0.61,1.3,0.73,2.62,0.81,3.7l-0.36-0.21c-0.1,0.64-0.05,1.48,0.23,1.37c-0.21,0.64-0.26,1.71-0.78,2.01
			c-0.4,0.61-0.31,0.87-0.65,1.37c-1.06,0.97-1.44,1.23-2.39,1.98l0.26-0.14c0.06-0.15-0.02-0.27-0.27-0.13
			c-0.31,0.34-1.39,0.76-0.8,0.91c-1.18,0.42-2.29,1.55-3.26,1.87c0.14,0.05-0.04,0.21-0.08,0.34c-0.81,0.65-1.82,1.14-2.34,1.81
			c-0.17,0.05,0.08-0.32-0.26-0.07c-0.17,0.19,0.09,0.13-0.11,0.37c-1.19,1.22-2.84,1.91-4.02,2.89c-2.04,1.83-4.41,3.42-6.54,4.95
			l-0.03-0.09c-0.53,0.78-1.89,0.88-2.19,1.69c-0.22,0.05-0.68,0.41-0.65,0.18c-0.46,0.58-1.75,0.9-2.45,1.69
			c0.08-0.04,0.12-0.09,0.19-0.18c-0.96,0.39-1.58,1.09-2.6,1.51c0.07-0.09,0.23-0.22,0.21-0.31c-0.44,0.07-0.65,0.84-1.06,0.59
			c-0.2,0.13-0.04,0.27,0.08,0.18c-2.1,1.08-4.16,2.55-6.29,3.8c-1.68,0.6-0.43-0.58-1.51,0.35c-0.14-0.02,0,0.18-0.05,0.11
			c-0.41,0.35-0.95-0.04-1.17,0.33c0.26,0.16-0.15,0.24-0.09,0.39c-1.02,0.34-1.32,0.24-1.97,0.81l-0.01-0.15
			c-0.69,0.8-1.8,1.15-2.34,1.94c-2.41,1.3-4.81,2.58-7.31,3.68c-2.5,1.1-5.13,2.03-7.95,2.5c-2.79,0.4-5.69,0.4-8.5-0.27
			c-0.69-0.2-1.39-0.37-2.07-0.6c-0.66-0.28-1.32-0.56-1.99-0.84c-1.2-0.58-2.36-1.19-3.54-1.83c-0.97-0.87-1.05-0.91-2.35-1.39
			c0.08-0.03,0.16,0,0.1-0.09c-0.19,0.24-0.88-0.41-1.12-0.22c-1.74-0.94-3.41-1.71-5.21-2.68c0.3,0.12,0.56-0.01,0.21-0.18
			l-0.44-0.02l-0.02-0.1c-0.25-0.09-0.57-0.1-0.38,0.12c-2.32-1.12-4.5-2.46-6.62-3.85l-0.79-0.52l-0.67-0.39l-0.34-0.2l-0.36-0.14
			L39.67,115c-0.99-0.26-2.04-0.41-3.11-0.27c-1.03-0.02-2.47,0.45-3.51,0.97c-3.33,0.99-6.29,2.91-8.66,5.77
			c0,0-0.05-0.22,0.01-0.59C24.47,120.51,24.66,119.97,25.19,119.37z"/>
		<path class="st0" d="M94.49,102.53c0.18,0.08,0.62-0.03,0.38,0.29C94.77,102.72,94.5,102.67,94.49,102.53z"/>
		<path class="st0" d="M105.64,98.28c-0.01-0.05,0.18-0.04,0.22-0.03c-0.12,0.08-0.18,0.26-0.32,0.26
			C105.67,98.42,105.61,98.37,105.64,98.28z"/>
		<path class="st0" d="M108.29,96.79c0.03,0.14-0.47,0.56-0.79,0.78L108.29,96.79z"/>
		<path class="st0" d="M110.98,95.75c0.27-0.04,0.24,0.05-0.04,0.22C110.89,95.92,110.96,95.84,110.98,95.75z"/>
		<path class="st0" d="M110.99,95.38c0.2-0.13,0.34-0.13,0.47-0.12C111.4,95.17,111.05,95.61,110.99,95.38z"/>
		<path class="st0" d="M116.36,92.35c0.12-0.09,0.32-0.36,0.52-0.31C116.69,92.04,116.37,92.57,116.36,92.35z"/>
		<path class="st0" d="M118.62,90.59c0.08-0.04,0.13-0.05,0.19-0.14c0.17-0.05,0.08,0.13-0.03,0.22L118.62,90.59z"/>
		<polygon class="st0" points="106.39,109.96 106.61,109.74 106.64,109.87 		"/>
		<path class="st0" d="M86.72,121.02c-0.23,0.21-0.24-0.01-0.3-0.01C86.66,120.87,86.41,121.2,86.72,121.02z"/>
		<polygon class="st0" points="75.72,125.97 75.81,125.95 75.83,126.22 		"/>
	</g>
	<g>
		<path class="st0" d="M10.76,89.24c-0.08-0.11-0.21,0.11-0.12-0.06C10.76,89.17,10.84,89.18,10.76,89.24z"/>
		<path class="st0" d="M24.02,120.15c-0.79,0.09-0.56-0.76-1.18-0.86c-0.05-0.03,0.31-0.21,0.17-0.25
			c-0.69-0.03-0.82-0.79-0.79-1.46l0.11-0.03c0.01-0.13-0.35-0.03-0.37-0.14c0.06-0.04,0.1-0.03,0.17-0.1
			c-0.19,0.1-0.19-0.1-0.35-0.05c0.04-0.08,0.19-0.17,0.23-0.27l-0.24,0.09c-0.57,0.18-0.19-0.37-0.57-0.39
			c0.05-0.02,0.1-0.03,0.14-0.07c-0.49-0.12-0.7-0.55-1.03-0.83c0.08-0.03,0.22-0.1,0.29-0.18c-0.23,0.12-0.35,0.05-0.45-0.02
			c0.19-0.18-0.31-0.03-0.25-0.22l0.05-0.02c-0.28,0.06,0.06-0.21-0.26-0.1l0.14-0.16c-0.34,0.16,0.09-0.22-0.11-0.19l-0.06,0.04
			c-0.12-0.02,0.02-0.15-0.07-0.18l0.03-0.03c-0.17-0.09-0.04-0.28-0.29-0.13c0.17-0.17,0.17,0.08,0.41-0.17
			c-0.53-0.31-0.78-0.81-1.05-1.28c0.07-0.11,0.08-0.16,0.17-0.23c-0.08-0.02-0.15-0.15-0.3-0.12c0.01,0.01,0.11-0.1,0.11-0.14
			c0.05-0.14-0.33,0.06-0.27-0.1c0.09,0,0.18-0.03,0.26-0.1c-0.24,0.03-0.27-0.09-0.39-0.15c0.05-0.01,0.09,0,0.17-0.05
			c-0.28,0.02-0.06-0.22-0.25-0.23l0.16-0.05c0.09-0.24-0.33,0.13-0.3-0.06c0.06,0,0.11-0.04,0.18-0.06
			c-0.33,0.03-0.35-0.21-0.51-0.28c0.02,0,0.06-0.03,0.06-0.03c-0.1-0.11-0.09-0.29-0.29-0.38c0.04-0.09,0.37-0.18,0.24-0.28
			c-0.29,0.16-0.25-0.17-0.54,0.09c-0.01-0.14,0-0.39-0.15-0.42c0.14-0.01,0.33-0.25,0.41-0.16l0.14-0.17c0.13-0.05,0,0.1,0.14-0.01
			c-0.04-0.04-0.23-0.12-0.21-0.19c-0.23,0-0.61,0.1-0.73-0.03c0.15,0.01,0.31-0.21,0.38-0.19l-0.68,0.08
			c-0.04-0.04,0.23-0.13,0.12-0.16c-0.08,0.04-0.14,0.04-0.22,0.05c0.03-0.04-0.18-0.17,0.11-0.34c0.1-0.08,0.1,0.05,0.18-0.06
			c-0.05-0.09-0.15-0.04-0.2-0.13l0.04-0.02c0.01-0.08-0.21-0.12-0.34,0.03c0.01,0.05,0.17-0.1,0.11,0
			c-0.19,0.04-0.29-0.04-0.34-0.13c0.06,0.01,0.14-0.03,0.23-0.06c-0.29-0.01-0.43-0.11-0.6-0.2c-0.14,0.07,0.28-0.07,0.22-0.02
			c0.11-0.27-0.46-0.24-0.25-0.52c0.04,0.01-0.19,0.11-0.16,0.09c-0.03-0.09,0.18-0.19,0.08-0.21c0.12-0.06-0.07-0.05-0.14-0.09
			c-0.1,0.01,0.05-0.04,0.09,0c-0.14-0.03-0.47-0.28-0.38-0.55c-0.08,0.04-0.35,0.02-0.36-0.03l0.19-0.07
			c0.09-0.09-0.08-0.14,0.07-0.22c-0.27,0.01,0.36,0.27,0.12,0.22c0.14-0.1-0.38-0.04-0.11-0.13c-0.05-0.08-0.3-0.07-0.16-0.24
			c-0.02,0.04,0.29-0.05,0.25-0.11c-0.09-0.11-0.11,0.01-0.21-0.07l-0.11-0.03c-0.18,0.08-0.03-0.12-0.21,0.02
			c0.14-0.08-0.18-0.14,0.13-0.26l0.25-0.09c-0.04-0.05-0.29,0.02-0.42,0.03c0.02-0.02,0.06-0.05,0.1-0.07
			c-0.37,0.15-0.03-0.14-0.34-0.08c0.07-0.17-0.12-0.29,0.09-0.45c-0.15-0.04-0.31-0.06-0.28-0.2c0.04,0.01,0.07,0.03,0.15,0
			c0.08-0.11-0.02-0.08-0.11-0.11c0.06-0.01,0.16-0.22,0.26-0.34c-0.15-0.04-0.33,0.07-0.46,0.12c0.33-0.23-0.34-0.15-0.05-0.39
			c0.06,0.01,0.23,0.05,0.29-0.06c0.33-0.23-0.34-0.05-0.21-0.25l-0.29,0.16c0.16-0.13-0.26-0.12,0.06-0.23
			c-0.13,0,0.04-0.19-0.25-0.06c0.16-0.31-0.37-0.46,0.12-0.8c-0.06-0.01-0.04-0.11-0.19-0.03c-0.15,0.12,0.15,0.02,0.04,0.09
			c-0.02-0.02-0.1,0-0.15,0.02c0.04-0.09,0.04-0.15,0.32-0.19c0.13-0.22-0.56,0.05-0.52-0.19c0.13-0.04,0.17-0.07,0.13-0.12
			l-0.25-0.02c0-0.14,0.25-0.18,0.46-0.26c-0.06-0.05-0.08-0.13-0.25-0.1l0.23-0.18c-0.17,0.13-0.15-0.01-0.21-0.02l0.06,0.01
			c0.08-0.05,0-0.1-0.04-0.13c-0.13,0.06-0.15,0.15-0.17,0.21c-0.1,0-0.1-0.06-0.23-0.06c0.21-0.06,0.11-0.16,0.11-0.22
			c0.02-0.08-0.21,0-0.21-0.02c0.11-0.04-0.02-0.1,0.15-0.11c0.04,0.01-0.09,0.08,0.02,0.08c0.06-0.07,0.25-0.13,0.08-0.16
			c-0.13-0.02-0.4,0.17-0.32,0c0.06,0.01,0.15-0.01,0.23-0.02l0.07-0.15l-0.19,0.06c0.04-0.03,0.06-0.03,0.08-0.04
			c-0.21,0.04-0.12-0.14-0.36-0.09c-0.04-0.05,0.09-0.16,0.09-0.23l0.02,0c0.09-0.1-0.01-0.16-0.16-0.17l0.04-0.01
			c0-0.04-0.06-0.11-0.18-0.12c0.11-0.14,0.7-0.28,0.43-0.3c-0.04-0.09-0.4-0.02-0.5,0.06c0.07-0.21-0.3-0.29-0.06-0.54
			c-0.08,0-0.13,0.03-0.19,0c-0.01-0.26-0.4-0.43-0.1-0.75c0.1,0.04,0.19-0.06,0.3-0.1c-0.19,0,0.15-0.13-0.15-0.05
			c-0.17,0.06-0.26,0.08-0.3,0.18c-0.14-0.11-0.21-0.33-0.07-0.47c-0.07,0.07-0.13,0.05-0.19,0.04c0.28-0.08,0.29-0.2,0.16-0.25
			l-0.17,0.04l0.16-0.11c-0.06-0.01-0.36,0.08-0.23-0.05c0.06-0.03,0.13-0.05,0.17-0.08c-0.16-0.04-0.43-0.08-0.32-0.22l0.22-0.15
			c-0.04-0.03-0.21-0.05-0.26,0.04c0.1-0.2,0.09-0.31,0.28-0.42c-0.6-0.11-0.75-0.49-0.8-0.81l0.13-0.03
			c0.09-0.12-0.23,0.02-0.16-0.06c0.13-0.01,0.24-0.14,0.41-0.12c0.1-0.16-0.26-0.09-0.34-0.15c-0.17,0.04,0.12,0.03-0.09,0.08
			c-0.06,0,0.08-0.2-0.17-0.15c0.09-0.06,0.28-0.09,0.39-0.1l-0.14-0.04c0.27-0.17,0.58,0.05,0.92-0.14l-0.06-0.06
			c0.24-0.14,0.35,0.09,0.39-0.1c-0.14-0.04-0.53,0-0.62,0.1c-0.11-0.13-0.62,0.1-0.65-0.07c0.14-0.09,0.07,0.12,0.27,0.03
			c0.18-0.13-0.16-0.12-0.11-0.21c-0.07,0.1-0.35,0.11-0.41,0.07c0.1-0.12,0.25-0.01,0.25-0.14c-0.15,0.02-0.29-0.06-0.37,0.06
			c-0.34,0.05,0.06-0.15-0.22-0.14c0.22-0.1,0.57-0.03,0.65-0.19c-0.22,0.08-0.35-0.08-0.66,0.08c0.05-0.07,0.22-0.12,0.37-0.12
			c0.12-0.11-0.46-0.07-0.02-0.21l-0.24,0.04c0.07-0.04,0.12-0.09,0.23-0.16c-0.02-0.06-0.37-0.13-0.02-0.21
			c-0.04-0.01-0.06-0.16-0.29-0.04c-0.12,0.13,0.2,0.06-0.11,0.2c0.25-0.14-0.07-0.12-0.17-0.15l0.13-0.04
			c-0.06-0.02-0.05-0.1-0.2-0.08c0.08,0,0.17-0.03,0.2-0.07L9.8,95.62c-0.13-0.1,0.35-0.12,0.26-0.23l0.18,0.05
			c-0.04-0.01,0.14-0.1,0.06-0.15c-0.19,0.02-0.43,0.04-0.58,0.06c-0.1-0.05,0.2-0.09-0.01-0.11l0.25,0.03
			c0.06,0,0.29-0.14,0.26-0.23C10.15,95,9.86,94.98,9.78,95.1c-0.02-0.05,0.08-0.14,0.23-0.14c-0.09-0.09-0.2,0.06-0.34,0
			c0.11-0.07,0.26-0.23,0.43-0.35l0.34,0.02l-0.01-0.06c0.27,0.02,0.18-0.09,0.46-0.11c0.03-0.05-0.07-0.08-0.15-0.11
			c-0.39,0.23-0.61,0-0.99,0.13c-0.15-0.15,0.91-0.34,0.26-0.37c-0.09,0.05-0.41,0.04-0.27,0.12c0.01-0.12-0.41,0.02-0.28-0.15
			c0.18,0.06,0.37-0.2,0.63-0.11c-0.13,0.02-0.08,0.1-0.04,0.11c0.14-0.08,0.39-0.08,0.36-0.19c-0.05-0.06-0.08-0.15-0.28-0.09
			c-0.22,0.05,0.05,0.1-0.19,0.11c-0.11-0.12,0.22-0.22-0.18-0.18c0.05,0.08-0.17,0.15-0.33,0.19l-0.12-0.08l0.15-0.01
			c0.07-0.19-0.28,0.01-0.27-0.15l0.28-0.14c0.26-0.02-0.06,0.25,0.34,0.13c-0.01-0.11-0.22-0.09-0.14-0.21
			c0.04,0.01,0.06,0.04,0.1,0.05c0.01-0.04,0.54-0.2,0.19-0.27c-0.14-0.05-0.15,0.01-0.3,0.05C9.58,93.11,9.41,93.1,9.36,93
			c0.3-0.04-0.01-0.19,0.32-0.14c-0.16,0.09-0.09,0.32,0.2,0.32c0.34-0.14-0.02,0.14,0.34,0.09c-0.02-0.13,0.33-0.2,0.55-0.28
			c0.01-0.04-0.1-0.05-0.14-0.07c-0.22,0.03-0.2,0.08-0.43,0.13c0.03-0.16-0.12-0.27-0.35-0.31c0.1-0.07,0.31-0.1,0.35-0.05
			c-0.1-0.16-0.11-0.35-0.08-0.53c-0.33,0.18-0.12-0.17-0.4-0.03c-0.06,0.1-0.29,0.23-0.46,0.22c0.01-0.06,0.15-0.03,0.22-0.07
			c-0.21-0.03,0.28-0.17-0.03-0.18c0.15,0.14,0.44-0.06,0.72-0.09c-0.18-0.08,0.2-0.04,0.17-0.15c-0.18-0.08-0.33-0.19-0.42-0.31
			c0.23-0.21-0.07-0.4-0.11-0.54c0.13-0.1,0.45-0.11,0.49-0.2c-0.02-0.09-0.32,0.13-0.21-0.03l0.06,0c-0.08-0.03,0.17-0.3-0.29-0.25
			l0.35-0.02c0.03-0.03-0.06-0.04-0.1-0.06c0.11-0.02,0.2-0.07,0.29-0.04c0.22-0.13-0.07-0.17-0.1-0.26l-0.19,0.1
			c-0.19-0.13-0.01-0.27-0.11-0.42l0.2-0.03l-0.13-0.07c0.2-0.01,0.3-0.12,0.13-0.14l0.53,0.15c-0.1,0.09-0.25-0.03-0.44,0.05
			c-0.16,0.07-0.08,0.2,0.11,0.19c0.01-0.06-0.03-0.05-0.11-0.08c0.27-0.07,0.28,0.02,0.47,0.03c-0.02-0.03,0.06-0.08-0.03-0.07
			c0.14,0.03,0.17,0.08,0.2,0.18c-0.12-0.04-0.16,0.07-0.25,0.06c0.24-0.04,0.33,0.04,0.29,0.17c-0.26,0.13,0.22,0.18,0.17,0.33
			c-0.25-0.01-0.46-0.04-0.57-0.1c-0.11,0.11,0.02,0.09-0.08,0.2c0.19,0.01,0.47-0.02,0.6,0.07l-0.18,0.04
			c0.11,0.08,0.38,0.03,0.35,0.16c-0.05,0.23,0,0.45,0.01,0.62l-0.18,0.04c0.4,0.01,0.21,0.27,0.4,0.36
			c-0.13,0.24,0.27,0.41-0.02,0.59c0.22,0.34,0.41,0.63,0.45,1.02l-0.27,0c0.21,0.02-0.14,0.08-0.08,0.14
			c0.19-0.13,0.29,0.03,0.46,0.04c-0.16,0.22,0.11,0.38,0.33,0.48l-0.18,0.05c0.37,0.07,0.12,0.32,0.12,0.52
			c-0.07,0.04-0.23,0.12-0.19,0.17c0.31,0.03,0.3,0.09,0.52,0.19c0.03,0.11,0,0.3-0.08,0.44c0.51,0.3,0.38,0.78,0.73,1.13l-0.2,0.09
			c0.55,0.28,0.3,0.89,0.64,1.17l-0.36,0.08c-0.07,0.14,0.17,0.22,0.41,0.11c-0.07,0.14,0.25,0.22-0.01,0.38
			c-0.03,0.13,0.2,0.08,0.28,0.16c-0.06,0.26-0.01,0.34,0.12,0.52l0.01-0.06c-0.08,0-0.23,0.05-0.24,0.11c0.12,0.05,0,0.32,0.39,0.1
			c-0.16,0.3,0.37,0.44,0.13,0.77c0.11-0.06,0.15-0.01,0.23-0.01c0.07,0.19-0.09,0.47,0.16,0.56c-0.05,0.05-0.21,0.02-0.19,0.1
			c0.06,0.03,0.15-0.05,0.23-0.02c0.32,0.24,0,0.71,0.17,0.97c0.41,0.42,0.5,0.98,0.72,1.44l-0.08,0.03
			c0.37,0.03-0.16,0.5,0.36,0.44c-0.06,0.07,0.02,0.16-0.15,0.19c0.27,0.03-0.06,0.44,0.3,0.5c0-0.02-0.02-0.02-0.06-0.03
			c-0.1,0.26,0.21,0.32,0.13,0.58c-0.04,0-0.08-0.03-0.17,0c-0.12,0.14,0.42,0.03,0.04,0.24c0.02,0.04,0.21-0.05,0.19-0.08
			c0.03,0.49,0.49,0.83,0.77,1.22c-0.09,0.42-0.64,0.32-0.24,0.43c-0.06,0.05,0.15-0.05,0.08-0.01c0.15,0.05-0.36,0.35-0.13,0.32
			c0.22-0.14,0.15-0.02,0.3-0.08c-0.06,0.26-0.26,0.4-0.01,0.47l-0.13,0.05c0.44,0.01,0.35,0.3,0.82,0.25
			c0.54,0.93,1.23,1.72,1.76,2.61c0.42,0.94,1.08,1.72,1.42,2.73c-0.18,0.39-0.16,0.41,0.1,0.56c-0.06,0.02-0.08,0.01-0.11,0.06
			c0.26-0.14,0.12,0.15,0.38,0.02c0.16,0.36,0.4,0.62,0.62,0.95c-0.06-0.04-0.28,0.07-0.22,0.12l0.2-0.04l-0.06,0.06
			c0.07,0.02,0.22-0.01,0.27-0.11c0.75,0.69,0.79,1.84,1.43,2.6c0.03,0.26,0.31,0.47,0.51,0.64c0.12,0.83,0.28,1.57,0.95,2.01
			C25.02,119.92,24.36,120.3,24.02,120.15z"/>
		<path class="st0" d="M10.82,89.38c-0.14,0.05-0.2,0.15-0.41,0.12C10.55,89.47,10.69,89.39,10.82,89.38z"/>
		<path class="st0" d="M9.78,92.01c0.04-0.01-0.05,0.05-0.07,0.06C9.69,92.04,9.56,92.04,9.63,92C9.65,92.03,9.72,92.01,9.78,92.01z
			"/>
		<path class="st0" d="M9.82,92.63c-0.13,0.02-0.26-0.09-0.29-0.16L9.82,92.63z"/>
		<path class="st0" d="M9.42,93.31c-0.1,0.07-0.16,0.07-0.17,0.01C9.31,93.3,9.35,93.31,9.42,93.31z"/>
		<path class="st0" d="M9.72,93.28c0.01,0.05-0.06,0.09-0.13,0.13C9.7,93.38,9.5,93.32,9.72,93.28z"/>
		<path class="st0" d="M9.64,94.59c0.02,0.03,0.14,0.06,0,0.13C9.73,94.66,9.44,94.62,9.64,94.59z"/>
		<path class="st0" d="M9.97,95.11c0,0.02-0.03,0.03,0.02,0.05c-0.05,0.05-0.15,0.04-0.17,0.01L9.97,95.11z"/>
		<polygon class="st0" points="13.8,104.98 13.72,104.94 13.84,104.9 		"/>
		<path class="st0" d="M15.72,109.18c0.1,0.02-0.09,0.09-0.1,0.11C15.57,109.25,15.77,109.24,15.72,109.18z"/>
		<polygon class="st0" points="17.43,111.09 17.42,111.07 17.66,110.95 		"/>
	</g>
	<g>
		<path class="st0" d="M57.94,85.55c-0.02,0.1,0.18,0.15,0.03,0.11C57.91,85.57,57.87,85.5,57.94,85.55z"/>
		<path class="st0" d="M77.09,79.11c-0.21,0.3-0.34,0.29-0.48,0.23c-0.14-0.04-0.3-0.12-0.43,0.11c-0.03,0.03,0-0.38-0.07-0.28
			c-0.24,0.53-0.63,0.27-1.05-0.08l0-0.11c-0.08-0.06-0.08,0.3-0.16,0.26c-0.02-0.07,0-0.1-0.03-0.19c0.03,0.21-0.1,0.12-0.09,0.28
			c-0.04-0.08-0.08-0.24-0.13-0.32l0.02,0.24c0.04,0.58-0.25,0.03-0.32,0.35c-0.01-0.06-0.01-0.1-0.03-0.15
			c-0.12,0.4-0.4,0.41-0.59,0.62c-0.02-0.08-0.06-0.23-0.11-0.32c0.07,0.25,0.02,0.33-0.02,0.4c-0.12-0.24-0.02,0.26-0.14,0.16
			l-0.01-0.06c0.05,0.28-0.14-0.12-0.06,0.21l-0.11-0.18c0.11,0.35-0.15-0.15-0.12,0.04l0.03,0.07c-0.01,0.1-0.1-0.06-0.11,0.01
			l-0.02-0.04c-0.05,0.13-0.18-0.04-0.07,0.22c-0.12-0.2,0.04-0.13-0.14-0.42c-0.18,0.4-0.49,0.48-0.77,0.64
			c-0.09-0.09-0.12-0.11-0.18-0.2c0,0.07-0.08,0.1-0.04,0.25c0.01-0.01-0.09-0.12-0.11-0.12c-0.11-0.06,0.1,0.31-0.02,0.23
			c-0.02-0.08-0.06-0.16-0.12-0.25c0.07,0.22-0.01,0.23-0.03,0.32c-0.02-0.05-0.02-0.08-0.07-0.16c0.07,0.25-0.14,0.02-0.11,0.19
			l-0.07-0.15c-0.19-0.12,0.16,0.31,0.02,0.26c-0.01-0.06-0.05-0.11-0.08-0.17c0.09,0.3-0.07,0.28-0.09,0.41
			c-0.01-0.02-0.03-0.06-0.03-0.06c-0.05,0.08-0.18,0.05-0.19,0.21c-0.07-0.04-0.21-0.35-0.26-0.25c0.18,0.28-0.06,0.2,0.19,0.49
			c-0.1,0-0.27-0.04-0.25,0.08c-0.04-0.13-0.26-0.32-0.22-0.38l-0.15-0.14c-0.07-0.12,0.07,0.01-0.04-0.13
			c-0.02,0.03-0.03,0.19-0.08,0.17c0.06,0.21,0.23,0.55,0.17,0.64c-0.03-0.13-0.23-0.29-0.23-0.36l0.24,0.61
			c-0.02,0.03-0.15-0.21-0.14-0.11c0.05,0.07,0.07,0.13,0.09,0.2c-0.03-0.03-0.06,0.14-0.26-0.12c-0.08-0.1,0.01-0.09-0.09-0.16
			c-0.05,0.04,0.01,0.13-0.03,0.17l-0.03-0.04c-0.06-0.02-0.02,0.18,0.13,0.31c0.03-0.01-0.12-0.16-0.03-0.1
			c0.09,0.17,0.06,0.26,0.02,0.29c-0.01-0.05-0.07-0.12-0.11-0.2c0.08,0.26,0.07,0.37,0.06,0.51c0.09,0.13-0.14-0.25-0.08-0.19
			c-0.22-0.11,0,0.39-0.27,0.19c0-0.03,0.14,0.17,0.11,0.14c-0.06,0.02-0.19-0.16-0.17-0.08c-0.08-0.1-0.01,0.06-0.02,0.12
			c0.04,0.09-0.05-0.05-0.03-0.08c0.03,0.12-0.03,0.42-0.28,0.36c0.05,0.07,0.09,0.33,0.05,0.34l-0.09-0.18
			c-0.09-0.09-0.11,0.08-0.2-0.07c0.06,0.26,0.16-0.34,0.16-0.12c-0.11-0.13,0.04,0.36-0.08,0.11c-0.06,0.04-0.02,0.29-0.18,0.15
			c0.03,0.02-0.08-0.28-0.12-0.24c-0.07,0.08,0.02,0.1-0.03,0.2l-0.01,0.1c0.08,0.18-0.09,0.01,0.03,0.2
			c-0.08-0.15-0.1,0.15-0.21-0.16l-0.09-0.25c-0.03,0.03,0.04,0.28,0.06,0.4c-0.01-0.02-0.04-0.07-0.06-0.11
			c0.14,0.38-0.1,0-0.03,0.31c-0.12-0.1-0.19,0.06-0.31-0.17c0.01,0.13-0.13,0.31-0.28,0.26c0.02-0.04,0.06-0.06,0.05-0.15
			c-0.11-0.1-0.1,0.01-0.14,0.08c0-0.06-0.14-0.22-0.2-0.35c-0.06,0.13-0.01,0.34-0.01,0.47c-0.09-0.39-0.16,0.27-0.26-0.09
			c0.02-0.06,0.08-0.2,0.02-0.3c-0.08-0.39-0.09,0.3-0.19,0.11l0.04,0.33c-0.05-0.2-0.12,0.2-0.13-0.14
			c-0.03,0.12-0.11-0.1-0.09,0.21c-0.15-0.27-0.34,0.17-0.44-0.4c-0.02,0.05-0.07,0-0.06,0.16c0.04,0.18,0.04-0.13,0.06-0.01
			c-0.02,0.01-0.02,0.1-0.02,0.14c-0.04-0.07-0.08-0.1-0.04-0.36c-0.1-0.2-0.09,0.55-0.22,0.42c0-0.13,0-0.18-0.04-0.16l-0.07,0.23
			c-0.08-0.05-0.05-0.3-0.05-0.53c-0.04,0.04-0.09,0.03-0.11,0.2l-0.05-0.28c0.04,0.2-0.03,0.14-0.05,0.19L65.81,84
			c-0.01-0.1-0.06-0.04-0.08-0.01c0.01,0.14,0.05,0.2,0.08,0.24c-0.02,0.1-0.05,0.08-0.08,0.19c0.01-0.22-0.07-0.16-0.1-0.18
			c-0.04-0.05-0.04,0.2-0.05,0.19c0-0.11-0.06-0.02-0.03-0.18c0.01-0.04,0.03,0.11,0.05,0.01c-0.02-0.08-0.02-0.28-0.07-0.14
			c-0.04,0.11,0.01,0.43-0.06,0.3c0.02-0.05,0.02-0.14,0.04-0.22l-0.07-0.11l0,0.2c-0.01-0.05,0-0.07-0.01-0.09
			c-0.02,0.21-0.11,0.06-0.12,0.3c-0.03,0.02-0.07-0.14-0.11-0.16l0.01-0.02c-0.04-0.12-0.09-0.04-0.13,0.09l0-0.04
			c-0.02-0.02-0.07,0.02-0.1,0.13c-0.05-0.15-0.02-0.76-0.08-0.5c-0.06,0.01-0.09,0.37-0.07,0.5c-0.1-0.14-0.21,0.19-0.31-0.12
			c-0.01,0.08,0,0.13-0.03,0.18c-0.15-0.08-0.3,0.24-0.42-0.15c0.04-0.08,0-0.2,0-0.31c-0.03,0.18-0.05-0.19-0.05,0.12
			c0.01,0.18,0,0.27,0.05,0.34c-0.08,0.1-0.2,0.1-0.26-0.07c0.03,0.08,0.01,0.14-0.01,0.19c0-0.29-0.07-0.33-0.1-0.23l0,0.18
			l-0.04-0.18c-0.01,0.06,0,0.37-0.05,0.2c-0.01-0.07-0.01-0.14-0.02-0.19c-0.05,0.15-0.05,0.39-0.09,0.25l-0.06-0.25
			c0,0.03,0.07,0.18,0.05,0.25c0.02-0.08,0.06-0.14,0.03-0.19c-0.04-0.04-0.08-0.09-0.13-0.19c0,0.57-0.22,0.66-0.41,0.68
			l-0.03-0.13c-0.08-0.1,0.04,0.23-0.02,0.15c-0.02-0.12-0.12-0.25-0.13-0.41c-0.11-0.11-0.02,0.25-0.05,0.32
			c0.05,0.17,0-0.12,0.06,0.1c0.01,0.06-0.14-0.1-0.07,0.15c-0.05-0.09-0.09-0.28-0.12-0.38l0,0.13c-0.14-0.28-0.05-0.56-0.21-0.9
			l-0.03,0.05c-0.12-0.25,0.01-0.33-0.12-0.39c0,0.14,0.07,0.51,0.15,0.61c-0.07,0.1,0.15,0.61,0.05,0.62
			c-0.07-0.14,0.06-0.06-0.02-0.26c-0.11-0.19-0.05,0.14-0.11,0.08c0.07,0.08,0.12,0.34,0.1,0.4c-0.09-0.1-0.04-0.25-0.12-0.25
			c0.04,0.15,0.01,0.28,0.09,0.36c0.08,0.33-0.1-0.07-0.05,0.2c-0.1-0.22-0.1-0.55-0.21-0.64c0.08,0.22,0.01,0.33,0.15,0.64
			c-0.05-0.05-0.11-0.23-0.13-0.37c-0.09-0.12,0.04,0.43-0.12,0l0.06,0.23c-0.04-0.07-0.07-0.12-0.13-0.23
			c-0.04,0.01-0.01,0.34-0.12,0c0,0.04-0.09,0.05,0.03,0.27c0.1,0.13,0-0.19,0.13,0.12c-0.12-0.25-0.06,0.06-0.06,0.15l-0.05-0.13
			c0,0.06-0.05,0.04-0.01,0.19c-0.01-0.08-0.05-0.17-0.08-0.19l0.05,0.2c-0.03,0.12-0.14-0.34-0.18-0.26l-0.01-0.17
			c0,0.04-0.09-0.14-0.1-0.07c0.05,0.19,0.11,0.41,0.15,0.55c-0.01,0.09-0.09-0.2-0.06,0l-0.03-0.23c-0.01-0.06-0.14-0.29-0.19-0.26
			c-0.01,0.07,0.05,0.35,0.13,0.43c-0.02,0.01-0.09-0.09-0.13-0.22c-0.03,0.08,0.08,0.19,0.08,0.32c-0.06-0.11-0.19-0.26-0.29-0.42
			l-0.07-0.32l-0.03,0.01c-0.05-0.26-0.1-0.17-0.17-0.44c-0.04-0.03-0.03,0.07-0.03,0.14c0.23,0.38,0.16,0.58,0.34,0.94
			c-0.03,0.13-0.44-0.86-0.27-0.26c0.06,0.09,0.15,0.38,0.14,0.25c-0.07-0.02,0.14,0.38,0.02,0.25c-0.03-0.17-0.22-0.34-0.26-0.58
			c0.05,0.12,0.07,0.07,0.07,0.04c-0.08-0.13-0.16-0.37-0.22-0.34c-0.02,0.05-0.05,0.08,0.04,0.26c0.1,0.2,0.03-0.04,0.12,0.17
			c-0.02,0.1-0.19-0.21-0.03,0.17c0.02-0.05,0.13,0.16,0.2,0.3l0.01,0.1l-0.06-0.14c-0.11-0.07,0.11,0.25,0.04,0.24L60.9,85.9
			c-0.11-0.23,0.13,0.06-0.07-0.31c-0.05,0.01,0.04,0.2-0.04,0.13c-0.01-0.04-0.01-0.05-0.01-0.09c-0.02-0.01-0.31-0.48-0.21-0.16
			c0.03,0.13,0.07,0.13,0.15,0.27c-0.04,0.08,0.03,0.23,0.01,0.27c-0.16-0.26-0.08,0.02-0.21-0.27c0.12,0.14,0.19,0.07,0.06-0.19
			c-0.21-0.3,0.08,0.01-0.09-0.31c-0.06,0.02-0.24-0.29-0.37-0.48c-0.03,0,0.01,0.09,0.02,0.13c0.11,0.19,0.13,0.18,0.25,0.37
			c-0.09-0.01-0.09,0.13,0,0.33c-0.08-0.08-0.2-0.26-0.18-0.3c-0.04,0.11-0.13,0.13-0.24,0.14c0.26,0.25-0.03,0.13,0.18,0.34
			c0.09,0.04,0.27,0.22,0.34,0.36c-0.03,0-0.09-0.13-0.15-0.18c0.09,0.18-0.23-0.22-0.07,0.05c-0.01-0.14-0.25-0.36-0.41-0.59
			c0.05,0.16-0.12-0.16-0.17-0.12c0.04,0.16,0.06,0.31,0.04,0.4c-0.24-0.15-0.18,0.14-0.24,0.2c-0.13-0.08-0.31-0.34-0.38-0.35
			c-0.04,0.04,0.25,0.23,0.1,0.18l-0.03-0.05c0.03,0.07-0.26-0.06,0.02,0.3l-0.21-0.28c-0.03-0.01,0.01,0.06,0.02,0.09
			c-0.07-0.08-0.15-0.15-0.18-0.22c-0.19-0.15-0.06,0.1-0.09,0.14l0.16,0.13c0.03,0.18-0.15,0.07-0.17,0.19l-0.13-0.15l0.04,0.13
			c-0.12-0.16-0.24-0.21-0.15-0.07l-0.21-0.46c0.11,0.06,0.13,0.21,0.27,0.34c0.13,0.12,0.16,0.02,0.04-0.14
			c-0.04,0.01-0.01,0.04,0.02,0.11c-0.19-0.2-0.15-0.23-0.25-0.38c-0.01,0.02-0.08-0.03-0.02,0.04c-0.06-0.12-0.05-0.16-0.01-0.21
			c0.04,0.11,0.13,0.12,0.17,0.19c-0.16-0.19-0.17-0.28-0.07-0.28c0.22,0.18-0.02-0.23,0.1-0.22c0.14,0.21,0.23,0.39,0.26,0.5
			c0.12,0.06,0.04-0.04,0.16,0.02c-0.1-0.16-0.27-0.38-0.29-0.51l0.12,0.14c-0.01-0.11-0.19-0.32-0.09-0.33
			c0.16-0.02,0.27-0.11,0.37-0.16l0.12,0.14c-0.19-0.34,0.07-0.23,0.03-0.42c0.22,0.06,0.16-0.32,0.4-0.1
			c0.13-0.26,0.28-0.49,0.55-0.54l0.07,0.26c-0.04-0.2,0.09,0.13,0.11,0.07c-0.14-0.17-0.06-0.28-0.09-0.44
			c0.19,0.14,0.23-0.12,0.26-0.33l0.07,0.17c-0.03-0.36,0.2-0.12,0.33-0.11c0.04,0.07,0.12,0.22,0.14,0.19
			c-0.04-0.3,0-0.29,0.04-0.5c0.07-0.02,0.2,0.01,0.3,0.1c0.12-0.48,0.46-0.31,0.64-0.62l0.08,0.2c0.11-0.52,0.54-0.21,0.68-0.5
			l0.09,0.36c0.08,0.09,0.31-0.17,0.21-0.41c0.17,0.09,0.25-0.21,0.35,0.09c0.08,0.06,0.09-0.17,0.16-0.23
			c0.18,0.13,0.22,0.1,0.36,0.03l-0.04-0.02c-0.01,0.08-0.01,0.24,0.02,0.26c0.05-0.1,0.19,0.1,0.14-0.34
			c0.15,0.25,0.34-0.21,0.49,0.13c-0.01-0.12,0.02-0.14,0.04-0.22c0.13-0.01,0.26,0.24,0.36,0.04c0.02,0.06-0.03,0.2,0.02,0.22
			c0.03-0.05,0-0.16,0.04-0.22c0.2-0.22,0.41,0.23,0.59,0.17c0.32-0.23,0.65-0.11,0.95-0.16l0,0.09c0.09-0.34,0.24,0.34,0.3-0.17
			c0.02,0.08,0.08,0.04,0.07,0.21c0.06-0.24,0.22,0.22,0.29-0.09c-0.01-0.01-0.01,0.01-0.02,0.05c0.12,0.19,0.17-0.09,0.21,0.09
			c0.02,0.04,0.02,0.06,0.03,0.15c0.02,0.04,0.02,0.04,0.01,0.02c0-0.01-0.01-0.02-0.02-0.04l-0.01-0.02l0.01,0.08
			c0.05,0.24,0.12,0.45,0.16,0.57c0.01,0.02,0.02,0.06,0.05,0.13c-0.07-0.22-0.17-0.5-0.27-0.77l-0.01-0.03l0,0l0,0l0.29,0.83
			l0-0.01l-0.01-0.02c-0.02-0.06-0.03-0.08-0.04-0.09l0.05,0.11l0,0l-0.3-0.87h0l0,0l0,0l0,0l0.01,0l0.03,0l0.05,0
			c0.03,0,0.07-0.01,0.1-0.02c0.06-0.03,0.11-0.07,0.15-0.12c0.09-0.1,0.13-0.22,0.14-0.28c0.2,0.18,0.37,0.61,0.28,0.3
			c0.05,0.06-0.09-0.14-0.04-0.06c-0.04-0.12,0.33,0.35,0.23,0.15c-0.16-0.2-0.07-0.13-0.16-0.26c0.19,0.07,0.35,0.24,0.31,0.02
			l0.08,0.11c-0.14-0.38,0.1-0.3-0.08-0.72c0.52-0.49,0.94-1.06,1.47-1.46c0.54-0.25,1.16-0.87,1.92-0.94
			c0.3,0.26,0.31,0.24,0.42,0.04c0.02,0.06,0.01,0.07,0.04,0.12c-0.11-0.28,0.11-0.08,0.02-0.34c0.27-0.05,0.47-0.21,0.73-0.31
			c-0.03,0.04,0.03,0.28,0.07,0.24l-0.01-0.2l0.04,0.08c0.02-0.05,0.01-0.2-0.06-0.28c0.6-0.47,1.44-0.09,2.14-0.27
			c0.19,0.09,0.43-0.04,0.62-0.12c0.65,0.36,1.09,0.68,1.87,0.65C77.69,78.31,77.33,79,77.09,79.11z"/>
		<path class="st0" d="M57.99,85.47c0.11,0.1,0.2,0.13,0.3,0.3C58.2,85.67,58.08,85.57,57.99,85.47z"/>
		<path class="st0" d="M60.03,85.73c-0.03-0.04,0.05,0.04,0.07,0.05c-0.01,0.02,0.06,0.13,0,0.07
			C60.11,85.84,60.06,85.79,60.03,85.73z"/>
		<path class="st0" d="M60.33,85.62c0.07,0.11,0.08,0.23,0.06,0.26L60.33,85.62z"/>
		<path class="st0" d="M60.83,85.94c0.07,0.09,0.1,0.14,0.08,0.15C60.87,86.04,60.86,86,60.83,85.94z"/>
		<path class="st0" d="M60.69,85.68c0.02-0.01,0.06,0.05,0.11,0.11C60.74,85.69,60.8,85.87,60.69,85.68z"/>
		<path class="st0" d="M61.34,85.79c0.01-0.01-0.01-0.13,0.06,0C61.35,85.7,61.4,85.97,61.34,85.79z"/>
		<path class="st0" d="M61.53,85.5c0.01,0,0.02,0.03,0.02-0.01c0.04,0.05,0.05,0.15,0.04,0.16L61.53,85.5z"/>
		<polygon class="st0" points="67.15,84.28 67.11,84.35 67.11,84.22 		"/>
		<path class="st0" d="M70.09,82.97c-0.02-0.09,0.09,0.09,0.11,0.1C70.18,83.1,70.12,82.93,70.09,82.97z"/>
		<polygon class="st0" points="70.92,81.63 70.91,81.64 70.77,81.41 		"/>
	</g>
	<g>
		<path class="st0" d="M79.56,79.12c0,0.22-0.05,0.22-0.04,0.23c0,0.01,0-0.01,0.02-0.05c0.01-0.03,0.01-0.06,0.01-0.04
			c0.01,0.02-0.07,0.13-0.02,0.1C79.48,79.35,79.55,79.42,79.56,79.12z"/>
		<path class="st0" d="M101.7,97.61c-0.71-0.32-0.08-0.89-0.57-1.24c-0.04-0.04,0.37-0.04,0.27-0.14c-0.59-0.32-0.39-0.96-0.13-1.56
			l0.11,0c0.05-0.12-0.32-0.13-0.3-0.24c0.07-0.02,0.11,0,0.19-0.05c-0.21,0.04-0.15-0.15-0.31-0.14c0.07-0.06,0.23-0.11,0.3-0.19
			l-0.25,0.02c-0.59,0.03-0.08-0.38-0.45-0.48c0.06-0.01,0.11-0.01,0.15-0.04c-0.44-0.2-0.57-0.6-0.85-0.89
			c0.08-0.03,0.23-0.09,0.3-0.15c-0.23,0.1-0.35,0.03-0.44-0.03c0.2-0.17-0.29-0.03-0.23-0.2l0.05-0.02
			c-0.28,0.07,0.07-0.2-0.25-0.08l0.14-0.16c-0.33,0.17,0.09-0.21-0.11-0.16l-0.06,0.04c-0.11,0,0.02-0.14-0.07-0.15l0.03-0.03
			c-0.16-0.06-0.05-0.25-0.28-0.08c0.15-0.18,0.17,0.05,0.39-0.22c-0.53-0.22-0.82-0.61-1.18-0.94c0.04-0.12,0.04-0.18,0.1-0.27
			c-0.07,0.01-0.17-0.09-0.31,0c0.02,0.01,0.07-0.13,0.06-0.16c0-0.14-0.28,0.18-0.27,0.02c0.08-0.04,0.15-0.1,0.2-0.19
			c-0.21,0.12-0.27,0.02-0.4,0.02c0.04-0.03,0.08-0.04,0.13-0.11c-0.24,0.13-0.12-0.17-0.3-0.09l0.13-0.12
			c-0.01-0.25-0.24,0.26-0.28,0.09c0.06-0.03,0.08-0.09,0.13-0.14c-0.28,0.18-0.38-0.01-0.54,0.01c0.02-0.02,0.04-0.06,0.04-0.06
			c-0.13-0.05-0.21-0.19-0.4-0.15c-0.01-0.09,0.22-0.34,0.06-0.36c-0.16,0.3-0.28,0-0.38,0.38c-0.08-0.11-0.19-0.31-0.31-0.23
			c0.1-0.09,0.12-0.39,0.23-0.38l0.02-0.22c0.07-0.12,0.05,0.08,0.11-0.09c-0.06-0.01-0.25,0.05-0.27-0.02
			c-0.17,0.15-0.41,0.46-0.56,0.44c0.12-0.09,0.11-0.36,0.17-0.39l-0.44,0.51c-0.05,0,0.09-0.25-0.01-0.19
			c-0.03,0.08-0.08,0.12-0.13,0.18c0-0.04-0.22,0.01-0.13-0.31c0.02-0.13,0.1-0.04,0.09-0.16c-0.09-0.03-0.13,0.08-0.22,0.05
			l0.01-0.04c-0.04-0.07-0.22,0.07-0.21,0.26c0.04,0.02,0.05-0.19,0.08-0.08c-0.1,0.17-0.22,0.18-0.3,0.15
			c0.04-0.04,0.07-0.12,0.11-0.21c-0.2,0.2-0.34,0.25-0.51,0.31c-0.05,0.15,0.13-0.26,0.13-0.17c-0.11-0.26-0.44,0.19-0.49-0.16
			c0.03-0.02-0.05,0.22-0.04,0.17c-0.08-0.04-0.01-0.26-0.09-0.2c0.03-0.13-0.08,0.02-0.15,0.04c-0.06,0.08,0-0.07,0.06-0.07
			c-0.11,0.08-0.48,0.19-0.61-0.05c-0.02,0.09-0.21,0.28-0.24,0.25l0.08-0.19c0-0.13-0.15-0.03-0.1-0.2
			c-0.16,0.21,0.41-0.1,0.23,0.05c0.02-0.17-0.26,0.26-0.16,0c-0.09-0.02-0.24,0.18-0.26-0.03c0.01,0.04,0.15-0.25,0.08-0.26
			c-0.13,0-0.06,0.08-0.18,0.12L92,88.3c-0.06,0.19-0.1-0.06-0.12,0.17c0.03-0.16-0.21,0.04-0.1-0.27l0.1-0.24
			c-0.06,0-0.17,0.24-0.25,0.33c0-0.03,0-0.08,0.02-0.12c-0.13,0.38-0.12-0.07-0.28,0.2c-0.07-0.17-0.28-0.11-0.25-0.36
			c-0.12,0.08-0.25,0.19-0.32,0.08c0.03-0.03,0.06-0.03,0.1-0.11c-0.02-0.13-0.07-0.04-0.15,0c0.03-0.05-0.04-0.27-0.06-0.42
			c-0.13,0.08-0.17,0.29-0.23,0.41c0.07-0.4-0.34,0.14-0.3-0.23c0.05-0.04,0.2-0.13,0.16-0.25c0.07-0.4-0.27,0.21-0.32-0.02
			l-0.1,0.31c0.02-0.21-0.27,0.09-0.12-0.21c-0.09,0.09-0.1-0.17-0.22,0.13c-0.09-0.34-0.6-0.12-0.45-0.7
			c-0.06,0.03-0.1-0.06-0.17,0.09c-0.04,0.18,0.13-0.07,0.09,0.05c-0.03-0.01-0.08,0.07-0.11,0.1c-0.03-0.1-0.07-0.15,0.13-0.34
			c-0.03-0.25-0.44,0.37-0.56,0.13c0.08-0.1,0.1-0.15,0.03-0.17l-0.24,0.1c-0.1-0.14,0.12-0.29,0.26-0.47
			c-0.09-0.03-0.13-0.06-0.32-0.03c0.02-0.11,0.06-0.22,0.1-0.32c-0.08,0.22-0.19-0.02-0.25-0.04l0.08,0.02
			c0.06-0.07-0.03-0.14-0.08-0.19c-0.12,0.07-0.13,0.21-0.11,0.31c-0.13-0.02-0.14-0.11-0.28-0.15c0.22-0.05,0.06-0.26,0.08-0.32
			c0.03-0.09-0.21-0.04-0.21-0.06c0.11-0.03-0.01-0.14,0.16-0.11c0.04,0.02-0.09,0.09,0.02,0.11c0.07-0.07,0.26-0.11,0.1-0.18
			c-0.12-0.05-0.43,0.1-0.31-0.06c0.06,0.02,0.15,0.01,0.23,0.02l0.09-0.14l-0.2,0.03c0.05-0.03,0.07-0.02,0.09-0.03
			c-0.21,0-0.1-0.17-0.33-0.16c-0.03-0.05,0.12-0.13,0.13-0.19l0.02,0.01c0.11-0.08,0.02-0.15-0.12-0.18l0.04,0
			c0.01-0.03-0.03-0.1-0.16-0.12c0.14-0.1,0.74-0.16,0.48-0.2c-0.02-0.08-0.39-0.05-0.5,0c0.1-0.16-0.24-0.24,0.03-0.43
			c-0.08,0-0.13,0.03-0.19,0c0.03-0.22-0.34-0.28-0.02-0.56c0.1,0.02,0.19-0.07,0.29-0.11c-0.18,0.03,0.15-0.12-0.14-0.02
			c-0.17,0.07-0.25,0.1-0.29,0.18c-0.14-0.06-0.2-0.19-0.07-0.32c-0.06,0.06-0.12,0.07-0.18,0.07c0.26-0.13,0.26-0.22,0.14-0.22
			l-0.16,0.08l0.14-0.12c-0.06,0.01-0.33,0.17-0.21,0.03c0.06-0.04,0.11-0.08,0.15-0.11c-0.15,0.02-0.39,0.09-0.31-0.04l0.18-0.19
			c-0.04-0.01-0.19,0.05-0.22,0.13c0.06-0.18,0.03-0.25,0.18-0.42c-0.56,0.2-0.72,0.03-0.87-0.13l0.09-0.1
			c0.03-0.13-0.17,0.15-0.15,0.06c0.1-0.08,0.14-0.24,0.28-0.33c0.02-0.17-0.23,0.1-0.31,0.11c-0.11,0.13,0.1-0.06-0.04,0.11
			c-0.04,0.04-0.01-0.18-0.18,0.02c0.04-0.09,0.17-0.24,0.25-0.32l-0.12,0.07c0.12-0.29,0.46-0.35,0.63-0.69l-0.07,0
			c0.11-0.25,0.32-0.15,0.25-0.32c-0.14,0.06-0.4,0.34-0.42,0.47c-0.15-0.02-0.41,0.47-0.5,0.38c0.06-0.15,0.11,0.03,0.21-0.16
			c0.07-0.21-0.17,0.03-0.17-0.07c0,0.12-0.19,0.31-0.25,0.33c0.02-0.14,0.17-0.18,0.11-0.26c-0.09,0.12-0.22,0.17-0.22,0.3
			c-0.2,0.27-0.03-0.13-0.21,0.07c0.1-0.22,0.37-0.43,0.34-0.59c-0.11,0.21-0.27,0.21-0.4,0.53c0-0.07,0.09-0.24,0.18-0.35
			c0.02-0.15-0.33,0.3-0.12-0.11l-0.13,0.2c0.02-0.08,0.03-0.14,0.06-0.27c-0.04-0.03-0.29,0.21-0.12-0.11
			c-0.03,0.02-0.13-0.04-0.2,0.2c0,0.17,0.15-0.12,0.04,0.2c0.08-0.27-0.1-0.02-0.18,0.05l0.05-0.13c-0.05,0.04-0.09-0.01-0.16,0.12
			c0.05-0.06,0.08-0.15,0.08-0.19l-0.11,0.18c-0.13,0.05,0.13-0.35,0.02-0.33l0.14-0.12c-0.03,0.03,0.02-0.17-0.05-0.13
			c-0.1,0.17-0.22,0.37-0.29,0.5c-0.08,0.06,0.06-0.21-0.06-0.05l0.16-0.19c0.04-0.05,0.08-0.31,0.01-0.34
			c-0.07,0.04-0.24,0.27-0.21,0.4c-0.04-0.01-0.04-0.14,0.04-0.26c-0.1,0.03-0.07,0.2-0.18,0.28c0.02-0.13,0-0.34,0.01-0.53
			l0.19-0.27l-0.05-0.02c0.16-0.22,0.03-0.2,0.17-0.44c-0.02-0.05-0.1,0.02-0.16,0.07c-0.04,0.45-0.31,0.52-0.41,0.91
			c-0.16,0.06,0.22-0.95-0.11-0.4c-0.01,0.11-0.16,0.37-0.05,0.29c-0.07-0.07-0.17,0.36-0.22,0.18c0.12-0.14,0.04-0.41,0.21-0.61
			c-0.04,0.12,0.03,0.11,0.06,0.08c0.01-0.16,0.13-0.38,0.03-0.41c-0.07,0.02-0.15,0.01-0.19,0.21c-0.06,0.22,0.09,0-0.01,0.21
			c-0.13,0.05-0.05-0.29-0.2,0.09c0.07-0.01,0.03,0.22-0.01,0.37l-0.1,0.07l0.05-0.14c-0.09-0.14-0.1,0.26-0.2,0.19l0.02-0.3
			c0.09-0.24,0.14,0.15,0.22-0.26c-0.07-0.04-0.15,0.17-0.2,0.04c0.02-0.03,0.05-0.04,0.07-0.07c-0.02-0.02,0.07-0.57-0.12-0.28
			c-0.09,0.11-0.05,0.14-0.08,0.3c-0.13,0.02-0.2,0.17-0.28,0.18c0.07-0.3-0.14-0.05,0.01-0.35c0.01,0.19,0.19,0.2,0.3-0.08
			c0.03-0.37,0.09,0.07,0.2-0.28c-0.1-0.03-0.03-0.38,0-0.61c-0.03-0.02-0.08,0.07-0.11,0.1c-0.06,0.21-0.02,0.22-0.06,0.44
			c-0.11-0.08-0.25,0.02-0.35,0.22c-0.02-0.11,0.02-0.33,0.08-0.34c-0.16,0.04-0.3-0.01-0.44-0.09c0.05,0.37-0.16,0.07-0.13,0.37
			c0.06,0.09,0.09,0.35,0.04,0.5c-0.04-0.03,0.02-0.16,0.01-0.23c-0.07,0.19-0.06-0.32-0.14-0.02c0.13-0.1,0.06-0.43,0.11-0.71
			c-0.11,0.15,0.02-0.2-0.08-0.21c-0.11,0.15-0.24,0.26-0.35,0.32c-0.13-0.27-0.34-0.01-0.46,0c-0.07-0.14-0.03-0.46-0.11-0.51
			c-0.08,0.01,0.08,0.34-0.05,0.2l0.01-0.06c-0.03,0.07-0.24-0.2-0.25,0.26l0.01-0.35c-0.03-0.03-0.04,0.05-0.06,0.09
			c-0.01-0.11-0.05-0.21-0.01-0.29c-0.1-0.23-0.16,0.05-0.25,0.07l0.08,0.2c-0.13,0.17-0.24-0.01-0.38,0.08l-0.02-0.2l-0.07,0.13
			c-0.01-0.2-0.1-0.31-0.12-0.14l0.16-0.52c0.08,0.11-0.04,0.25,0.03,0.44c0.06,0.17,0.18,0.09,0.18-0.1
			c-0.05-0.02-0.05,0.03-0.08,0.11c-0.05-0.27,0.03-0.27,0.04-0.46c-0.03,0.01-0.08-0.06-0.07,0.02c0.04-0.14,0.09-0.17,0.18-0.19
			c-0.05,0.12,0.05,0.17,0.04,0.25c-0.02-0.24,0.06-0.33,0.18-0.27c0.1,0.28,0.2-0.2,0.34-0.13c-0.04,0.25-0.1,0.45-0.17,0.56
			c0.09,0.12,0.09-0.01,0.17,0.11c0.03-0.19,0.04-0.47,0.15-0.59l0.01,0.18c0.09-0.1,0.09-0.37,0.22-0.32
			c0.22,0.09,0.44,0.1,0.61,0.13l-0.01,0.18c0.12-0.38,0.32-0.12,0.46-0.28c0.19,0.2,0.49-0.11,0.54,0.22
			c0.39-0.07,0.75-0.13,1.11,0.05l-0.14,0.24c0.12-0.17,0,0.16,0.07,0.14c-0.01-0.23,0.17-0.24,0.27-0.37
			c0.1,0.25,0.38,0.11,0.6-0.01l-0.06,0.17c0.27-0.26,0.34,0.09,0.49,0.22c-0.01,0.08-0.05,0.25,0.01,0.25
			c0.22-0.22,0.26-0.18,0.48-0.28c0.1,0.06,0.24,0.21,0.29,0.37c0.6-0.16,0.85,0.34,1.38,0.43l-0.11,0.19
			c0.67-0.05,0.82,0.68,1.25,0.86l-0.31,0.2c-0.01,0.17,0.25,0.17,0.44,0c-0.01,0.17,0.35,0.18,0.14,0.42
			c0.01,0.15,0.23,0.06,0.33,0.13c0.02,0.31,0.08,0.38,0.26,0.6l-0.01-0.07c-0.09,0.01-0.23,0.07-0.22,0.14
			c0.14,0.05,0.05,0.35,0.42,0.11c-0.14,0.34,0.41,0.55,0.15,0.9c0.11-0.05,0.15,0.01,0.23,0.01c0.06,0.23-0.13,0.51,0.1,0.64
			c-0.05,0.04-0.21-0.02-0.21,0.07c0.05,0.04,0.15-0.03,0.23,0.02c0.28,0.31-0.12,0.7-0.03,0.83c0.03,0.01,0.07,0.07,0.08,0.03
			c-0.21,0.04-0.54,0.22-0.68,0.3c-0.05,0.02-0.1,0.05-0.14,0.09c-0.02,0.02-0.04,0.04-0.06,0.06l-0.01,0.02l0,0l0,0l0,0
			c0.32-0.36-0.72,0.81,0.72-0.81l0,0l0,0l0.01,0.01c0.03,0.02,0.06,0.03,0.08,0.05c0.11,0.08,0.26,0.19,0.43,0.26l-0.05,0.08
			c0.26-0.24,0.12,0.45,0.44,0.04c-0.01,0.09,0.1,0.09,0.01,0.23c0.19-0.17,0.21,0.33,0.47,0.11c-0.01-0.01-0.03,0-0.06,0.03
			c0.09,0.24,0.33,0.05,0.44,0.28c-0.03,0.03-0.07,0.04-0.11,0.12c0.01,0.18,0.29-0.29,0.18,0.12c0.04,0.01,0.1-0.19,0.07-0.19
			c0.33,0.29,0.84,0.17,1.29,0.2c0.23,0.33-0.19,0.69,0.14,0.46c0,0.08,0.06-0.15,0.04-0.07c0.13-0.09,0.01,0.5,0.14,0.3
			c0.05-0.26,0.08-0.13,0.13-0.28c0.14,0.22,0.11,0.45,0.32,0.31l-0.05,0.13c0.29-0.32,0.43-0.06,0.72-0.44
			c1.05,0.25,2.2,0.41,3.24,0.98c0.94,0.65,2,1.26,2.61,2.34c-0.09,0.44-0.07,0.44,0.22,0.6c-0.05,0.02-0.08,0.02-0.11,0.07
			c0.25-0.17,0.15,0.15,0.39,0.01c0.23,0.38,0.48,0.69,0.72,1.08c-0.06-0.05-0.29,0.04-0.23,0.1l0.21-0.01l-0.07,0.05
			c0.06,0.03,0.22,0.02,0.28-0.08c0.78,0.92,0.57,2.18,0.86,3.15c-0.05,0.27,0.11,0.58,0.22,0.84c-0.25,0.85-0.51,1.53-0.18,2.27
			C102.67,97.95,101.9,97.89,101.7,97.61z"/>
		<path class="st0" d="M79.62,78.87c0.04,0.14,0.13,0.21,0.09,0.42C79.68,79.15,79.62,79,79.62,78.87z"/>
		<path class="st0" d="M81.79,80.28c0.01-0.04,0.02,0.06,0.03,0.09c-0.02,0.01-0.06,0.13-0.07,0.05
			C81.77,80.41,81.77,80.34,81.79,80.28z"/>
		<path class="st0" d="M82.26,80.42c-0.03,0.13-0.14,0.22-0.2,0.23L82.26,80.42z"/>
		<path class="st0" d="M82.6,81.03c0.01,0.12-0.01,0.17-0.06,0.16C82.56,81.12,82.58,81.09,82.6,81.03z"/>
		<path class="st0" d="M82.69,80.75c0.04,0,0.04,0.08,0.04,0.16C82.76,80.8,82.64,80.96,82.69,80.75z"/>
		<path class="st0" d="M83.5,81.37c0.02,0,0.11-0.09,0.08,0.05C83.59,81.32,83.42,81.55,83.5,81.37z"/>
		<path class="st0" d="M83.98,81.34c0.01,0.01,0.01,0.04,0.04,0.01c0,0.07-0.06,0.14-0.09,0.15L83.98,81.34z"/>
		<polygon class="st0" points="90.04,87.73 89.95,87.77 90.01,87.65 		"/>
		<path class="st0" d="M94.12,89.06c0.08-0.06,0,0.13,0,0.15C94.07,89.21,94.18,89.06,94.12,89.06z"/>
		<polygon class="st0" points="96.35,89.31 96.33,89.3 96.47,89.07 		"/>
	</g>
	<g>
		<path class="st0" d="M109.27,14.47c0.33-0.08-0.2-0.22,0.21-0.12C109.45,14.46,109.39,14.55,109.27,14.47z"/>
		<path class="st0" d="M76.84,79.04c-0.89-0.9-0.6-2.44-1.38-3.44c-0.07-0.12,0.37-0.08,0.19-0.35c-0.86-0.92-1.19-2.7-1.28-4.15
			l0.13,0.04c-0.02-0.27-0.46-0.46-0.51-0.74c0.07-0.03,0.12,0.05,0.19-0.04c-0.22,0-0.26-0.44-0.45-0.5
			c0.04-0.13,0.21-0.18,0.25-0.34l-0.28-0.07c-0.69-0.24-0.29-1.04-0.74-1.54c0.06,0.01,0.12,0.06,0.16,0
			c-0.59-0.85-0.83-2.06-1.15-3.12c0.09,0.03,0.25,0.04,0.34-0.04c-0.26,0-0.39-0.33-0.49-0.61c0.24-0.17-0.31-0.46-0.22-0.83
			l0.06,0.02c-0.31-0.21,0.1-0.4-0.26-0.56l0.18-0.19c-0.38-0.06,0.15-0.39-0.07-0.58L71.43,62c-0.11-0.19,0.06-0.31-0.03-0.49
			l0.04-0.02c-0.13-0.42,0.05-0.69-0.24-0.66c0.22-0.17,0.14,0.41,0.46,0.14c-0.43-1.39-0.42-2.87-0.37-4.3
			c0.12-0.16,0.16-0.26,0.27-0.29c-0.06-0.15-0.02-0.54-0.16-0.68c0,0.05,0.15-0.08,0.17-0.16c0.13-0.25-0.3-0.31-0.15-0.58
			c0.07,0.12,0.16,0.17,0.27,0.14c-0.21-0.26-0.13-0.58-0.18-0.88c0.04,0.05,0.06,0.12,0.16,0.12c-0.22-0.34,0.11-0.56-0.01-0.86
			l0.15,0.12c0.26-0.41-0.33-0.18-0.15-0.54c0.04,0.1,0.11,0.08,0.17,0.1c-0.24-0.4-0.07-0.96-0.09-1.33
			c0.02,0.03,0.06,0.03,0.06,0.03c0.04-0.39,0.19-0.78,0.17-1.22c0.11-0.14,0.38,0.14,0.42-0.28c-0.33-0.06,0.03-0.71-0.4-0.57
			c0.13-0.34,0.42-0.84,0.37-1.1c0.08,0.19,0.44-0.05,0.39,0.24l0.25-0.16c0.12,0.07-0.11,0.2,0.08,0.18
			c0.02-0.14,0.01-0.59,0.11-0.69c-0.11-0.32-0.4-0.67-0.3-1.11c0.06,0.24,0.38,0.01,0.39,0.16l-0.4-0.79
			c0.03-0.14,0.26,0.06,0.25-0.17c-0.09-0.02-0.11-0.13-0.15-0.21c0.06-0.04,0.12-0.59,0.45-0.54c0.14-0.02-0.01,0.24,0.15,0.13
			c0.08-0.25-0.02-0.3,0.05-0.55l0.04,0.01c0.1-0.16,0-0.53-0.22-0.39c-0.04,0.11,0.2,0.01,0.06,0.15c-0.15-0.17-0.13-0.46-0.09-0.7
			c0.04,0.09,0.12,0.1,0.21,0.15c-0.18-0.39-0.22-0.72-0.31-1.09c-0.15-0.02,0.28,0.15,0.19,0.2c0.26-0.47-0.28-0.98,0.01-1.4
			c0.03,0.07-0.22,0.05-0.18,0.04c0.01-0.24,0.23-0.24,0.14-0.4c0.13-0.03-0.06-0.2-0.11-0.36c-0.1-0.08,0.06-0.05,0.09,0.09
			c-0.13-0.21-0.42-1.14-0.26-1.71c-0.09,0.02-0.34-0.32-0.34-0.45l0.21,0.04c0.12-0.12-0.04-0.43,0.14-0.45
			c-0.26-0.26,0.26,1.03,0.05,0.68c0.17-0.1-0.35-0.49-0.07-0.43c-0.02-0.25-0.26-0.49-0.07-0.75c-0.03,0.07,0.29,0.2,0.27-0.01
			c-0.05-0.36-0.1-0.1-0.17-0.39l-0.09-0.18c-0.2-0.01,0.03-0.33-0.2-0.19c0.17-0.04-0.1-0.54,0.23-0.49l0.26,0.05
			c-0.02-0.16-0.27-0.26-0.38-0.39c0.02-0.02,0.08-0.06,0.12-0.05c-0.4-0.04,0.05-0.38-0.25-0.58c0.16-0.33,0.07-0.85,0.34-0.99
			c-0.09-0.27-0.21-0.52-0.09-0.8c0.03,0.06,0.03,0.14,0.11,0.17c0.14-0.17,0.04-0.23,0-0.4c0.05,0.05,0.29-0.33,0.46-0.51
			c-0.07-0.27-0.3-0.23-0.43-0.27c0.43-0.15-0.11-0.78,0.33-0.98c0.03,0.1,0.09,0.41,0.24,0.22c0.44-0.13-0.16-0.53,0.12-0.85
			l-0.34,0c0.24-0.11-0.03-0.6,0.28-0.46c-0.07-0.16,0.25-0.39-0.07-0.45c0.44-0.51,0.4-1.51,1.08-1.62
			c-0.01-0.1,0.13-0.28-0.04-0.31c-0.22,0.06,0.03,0.24-0.1,0.24c0.02-0.08-0.05-0.13-0.09-0.16c0.15-0.15,0.23-0.28,0.39,0.01
			c0.36-0.29-0.29-0.63,0.08-1.07c0.1,0.08,0.17,0.07,0.22-0.08l-0.05-0.38c0.23-0.28,0.37-0.02,0.56,0.09
			c0.06-0.18,0.19-0.37,0.1-0.53l0.36-0.04c-0.26,0.03-0.03-0.2-0.03-0.31l0,0.1c0.1,0.02,0.16-0.2,0.2-0.3
			c-0.13-0.06-0.3,0.1-0.4,0.18c-0.03-0.13,0.06-0.25,0.04-0.42c0.16,0.16,0.31-0.16,0.41-0.27c0.14-0.11-0.05-0.27-0.01-0.31
			c0.1,0.06,0.18-0.22,0.23-0.01c0,0.07-0.17,0.04-0.14,0.18c0.13-0.04,0.29,0.08,0.31-0.19c0.02-0.21-0.38-0.22-0.07-0.41
			c-0.01,0.11,0.05,0.17,0.08,0.27c0.09-0.06,0.18-0.13,0.28-0.18l-0.15-0.13c0.07,0,0.06,0.03,0.1,0.03
			c-0.11-0.2,0.25-0.41,0.11-0.62c0.09-0.14,0.32-0.17,0.43-0.28l-0.01,0.03c0.2-0.07,0.31-0.3,0.32-0.51l0.03,0.04
			c0.08-0.06,0.22-0.26,0.22-0.44c0.28-0.09,0.61,0.45,0.62,0.08c0.16-0.2,0.02-0.54-0.15-0.56c0.43-0.23,0.58-0.84,1.11-0.91
			c0-0.1-0.07-0.11,0-0.24c0.56-0.4,0.95-1.14,1.63-1.15c-0.1,0.19,0.11,0.17,0.19,0.25c0.02-0.24,0.27,0.03,0.13-0.25
			c-0.12-0.13-0.16-0.21-0.36-0.15c0.26-0.34,0.77-0.69,1.06-0.69c-0.14,0-0.1-0.1-0.06-0.2c0.14,0.25,0.41,0.12,0.54-0.1
			l-0.07-0.16l0.22,0.07c0.04-0.09-0.12-0.36,0.16-0.34c0.05,0.05,0.1,0.1,0.16,0.12c0.12-0.25,0.27-0.63,0.57-0.64l0.31,0.11
			c0.08-0.08,0.16-0.3-0.04-0.27c0.46-0.08,0.71-0.2,0.94-0.08c0.39-0.84,1.38-1.36,2.2-1.67l0.03,0.13
			c0.26,0.02,0.02-0.26,0.21-0.25c-0.02,0.15,0.27,0.18,0.16,0.39c0.36-0.01,0.31-0.37,0.49-0.51c-0.03-0.17-0.12,0.17-0.16-0.05
			c0.01-0.07,0.48-0.05,0.43-0.31c0.12,0.06,0.13,0.27,0.12,0.38l0.14-0.19c0.34,0.19-0.32,0.72,0.06,0.97l0.16-0.11
			c0.26,0.19-0.33,0.47,0.12,0.38c0.14-0.19,0.16-0.61-0.05-0.65c0.36-0.22-0.04-0.66,0.4-0.79c0.17,0.1-0.33,0.16-0.17,0.33
			c0.27,0.13,0.36-0.25,0.57-0.25c-0.23-0.02-0.15-0.33-0.04-0.42c0.26,0.04-0.06,0.28,0.26,0.2c0-0.16,0.25-0.37-0.03-0.38
			c0-0.36,0.36-0.03,0.44-0.33c0.18,0.2-0.15,0.63,0.23,0.64c-0.13-0.2,0.33-0.44,0.04-0.7c0.16,0.02,0.23,0.19,0.17,0.36
			c0.23,0.08,0.34-0.55,0.54-0.13l0-0.25c0.08,0.06,0.19,0.08,0.32,0.18c0.17-0.04,0.46-0.47,0.55-0.12
			c0.04-0.05,0.44-0.15,0.22-0.34c-0.29-0.08-0.23,0.25-0.46-0.03c0.25,0.21,0.34-0.13,0.46-0.26l0.06,0.13
			c0.07-0.08,0.27-0.1,0.29-0.26c-0.04,0.1,0.01,0.18,0.09,0.19l0.04-0.23c0.32-0.19,0.17,0.34,0.49,0.2l-0.21,0.22
			c0.05-0.05,0.21,0.12,0.35,0.01c0.01-0.2,0.08-0.46,0.09-0.61c0.17-0.13,0.14,0.19,0.28-0.05l-0.19,0.29
			c-0.02,0.07,0.24,0.27,0.49,0.2c0.14-0.1,0.33-0.43,0.05-0.47c0.13-0.03,0.33,0.04,0.26,0.2c0.27-0.13-0.08-0.19,0.14-0.37
			c0.13,0.1,0.49,0.21,0.71,0.35l-0.19,0.37l0.17-0.03c-0.17,0.3,0.15,0.17,0.09,0.46c0.12,0.02,0.24-0.11,0.34-0.2
			c-0.43-0.36,0.26-0.66,0.09-1.03c0.45-0.2,0.48,0.89,0.85,0.19c-0.1-0.09,0.08-0.43-0.2-0.26c0.3-0.01,0.13-0.44,0.5-0.33
			c-0.23,0.2,0.35,0.35,0.02,0.65c0-0.13-0.22-0.06-0.27-0.01c0.15,0.13,0.05,0.4,0.34,0.34c0.17-0.07,0.42-0.12,0.35-0.32
			c-0.05-0.22-0.27,0.07-0.2-0.17c0.35-0.14,0.47,0.19,0.55-0.23c-0.22,0.07-0.32-0.15-0.34-0.3l0.25-0.14l-0.03,0.16
			c0.45,0.03,0.08-0.29,0.51-0.32l0.24,0.27c-0.06,0.27-0.63-0.01-0.48,0.39c0.27-0.03,0.33-0.25,0.6-0.19
			c-0.05,0.04-0.13,0.07-0.18,0.11c0.1,0,0.28,0.53,0.62,0.15c0.18-0.16,0.03-0.15,0.01-0.31c0.43-0.11,0.54-0.29,0.81-0.35
			c-0.02,0.31,0.5-0.04,0.23,0.32c-0.17-0.16-0.79-0.06-0.9,0.26c0.21,0.34-0.35,0-0.38,0.38c0.35-0.04,0.38,0.31,0.47,0.54
			c0.1,0,0.18-0.11,0.23-0.15c0.01-0.22-0.12-0.2-0.16-0.43c0.39,0,0.75-0.17,0.93-0.41c0.14,0.09,0.13,0.31-0.02,0.36
			c0.45-0.13,0.95-0.16,1.39-0.14c-0.32-0.32,0.48-0.14,0.25-0.42c-0.24-0.05-0.48-0.28-0.36-0.46c0.15,0.01,0.01,0.16,0.08,0.23
			c0.17-0.22,0.33,0.28,0.48-0.05c-0.41,0.16-0.03,0.44-0.08,0.73c0.28-0.19,0.01,0.2,0.31,0.17c0.28-0.19,0.64-0.35,0.97-0.44
			c0.45,0.22,1.07-0.1,1.44-0.14c0.21,0.12,0.1,0.45,0.32,0.49c0.25-0.03-0.22-0.33,0.17-0.21l-0.03,0.07
			c0.11-0.08,0.7,0.16,0.77-0.31l-0.09,0.35c0.07,0.03,0.13-0.06,0.18-0.1c0.01,0.11,0.1,0.21-0.01,0.29
			c0.25,0.22,0.48-0.08,0.72-0.11l-0.18-0.19c0.41-0.19,0.71-0.01,1.12-0.12l0,0.2l0.24-0.14c-0.05,0.2,0.19,0.3,0.31,0.13
			l-0.6,0.54c-0.19-0.1,0.17-0.26,0.05-0.44c-0.11-0.16-0.48-0.08-0.53,0.12c0.15,0.01,0.15-0.03,0.26-0.11
			c0.07,0.27-0.15,0.28-0.25,0.47c0.08-0.02,0.19,0.06,0.2-0.03c-0.14,0.15-0.29,0.18-0.54,0.21c0.16-0.12-0.11-0.16-0.05-0.25
			c0,0.25-0.23,0.34-0.54,0.3c-0.24-0.26-0.56,0.23-0.92,0.18c0.12-0.26,0.29-0.47,0.5-0.59c-0.23-0.1-0.25,0.03-0.48-0.08
			c-0.09,0.19-0.15,0.48-0.43,0.62l-0.03-0.18c-0.26,0.12-0.23,0.39-0.57,0.37c-0.58-0.04-1.17,0.03-1.61,0.05l-0.04-0.18
			c-0.2,0.41-0.79,0.24-1.1,0.45c-0.58-0.11-1.18,0.33-1.51,0.05c-0.96,0.28-1.78,0.55-2.8,0.66l0.12-0.29
			c-0.15,0.22-0.14-0.13-0.31-0.06c0.24,0.17-0.19,0.32-0.29,0.5c-0.48-0.12-1.01,0.22-1.36,0.49l-0.05-0.18
			c-0.32,0.42-0.85,0.23-1.35,0.31c-0.07-0.06-0.21-0.2-0.35-0.15c-0.19,0.35-0.33,0.37-0.67,0.66c-0.28,0.08-0.75,0.13-1.07,0.12
			c-0.92,0.72-2.05,0.84-2.99,1.5l-0.16-0.17c-0.81,0.84-2.18,1.04-2.87,1.71l-0.1-0.36c-0.31,0.05-0.53,0.41-0.33,0.6
			c-0.31,0.04-0.52,0.53-0.83,0.37c-0.29,0.1-0.21,0.34-0.39,0.51c-0.56,0.22-0.72,0.37-1.13,0.75l0.12-0.06
			c0-0.1-0.09-0.23-0.21-0.17c-0.1,0.21-0.66,0.39-0.23,0.61c-0.64,0.16-0.92,1.03-1.58,1.15c0.12,0.06,0.02,0.17,0.04,0.27
			c-0.35,0.36-0.94,0.55-1.06,1c-0.1,0.02-0.06-0.24-0.21-0.09c-0.05,0.12,0.11,0.11,0.06,0.27c-0.2,0.38-0.52,0.64-0.83,0.92
			c-0.32,0.26-0.65,0.52-0.84,0.85c-0.6,1.21-1.38,2.34-1.83,3.52l-0.08-0.05c0.13,0.5-0.68,0.81-0.32,1.29
			c-0.11,0.07-0.16,0.34-0.3,0.22c0.15,0.39-0.47,0.85-0.28,1.4c0.02-0.04,0-0.07-0.02-0.13c-0.3,0.44-0.11,0.92-0.35,1.41
			c-0.03-0.06-0.05-0.16-0.13-0.19c-0.19,0.18,0.31,0.52-0.13,0.59c-0.01,0.12,0.2,0.11,0.2,0.03c-0.29,1.14-0.04,2.41,0.11,3.63
			c-0.21,0.9-0.71,0.09-0.36,0.77c-0.08,0.06,0.16,0.03,0.08,0.05c0.13,0.26-0.44,0.46-0.21,0.63c0.25-0.1,0.15,0.12,0.31,0.11
			c-0.12,0.57-0.34,0.7-0.11,1.14l-0.14-0.02c0.43,0.51,0.25,1.16,0.68,1.68c0.01,0.83-0.13,1.74-0.32,2.51
			c-0.19,0.78-0.42,1.47-0.6,2.11c-0.36,1.27-0.63,2.55-0.87,3.84c-0.6,2.54-0.59,5.11-0.69,7.78c-0.33,0.64-0.31,0.7-0.11,1.38
			c-0.06-0.02-0.08-0.06-0.13-0.01c0.3,0.01,0.07,0.48,0.36,0.52c0.06,0.99,0.26,1.89,0.45,2.89c-0.06-0.15-0.31-0.19-0.26,0
			l0.22,0.16l-0.08,0.05c0.07,0.12,0.24,0.23,0.31,0.08c0.37,1.22,0.59,2.49,0.85,3.7c0.27,1.23,0.6,2.48,1.09,3.71
			c0.1,0.63,0.52,1.44,0.8,2.08c0.31,2.09,0.52,3.96,1.16,6.01C77.98,79.98,77.19,79.83,76.84,79.04z"/>
		<path class="st0" d="M108.87,14.53c-0.08-0.14-0.32-0.21-0.15-0.41C108.76,14.25,108.89,14.4,108.87,14.53z"/>
		<path class="st0" d="M102.5,13.57c0,0.04-0.1-0.05-0.12-0.07c0.08-0.02,0.13-0.15,0.21-0.08
			C102.51,13.44,102.53,13.51,102.5,13.57z"/>
		<path class="st0" d="M100.89,13.68c0.01-0.13,0.34-0.28,0.54-0.32L100.89,13.68z"/>
		<path class="st0" d="M99.31,13.35c-0.15-0.09-0.12-0.16,0.06-0.18C99.39,13.24,99.34,13.28,99.31,13.35z"/>
		<path class="st0" d="M99.25,13.66c-0.12,0.02-0.2-0.05-0.27-0.11C99,13.66,99.26,13.44,99.25,13.66z"/>
		<path class="st0" d="M95.92,13.86c-0.08,0.02-0.22,0.17-0.33,0.04C95.7,13.98,95.95,13.66,95.92,13.86z"/>
		<path class="st0" d="M94.45,14.39c-0.05,0-0.08-0.01-0.12,0.03c-0.1-0.04-0.03-0.15,0.04-0.18L94.45,14.39z"/>
		<polygon class="st0" points="73.7,32.09 73.69,31.9 73.8,31.96 		"/>
		<path class="st0" d="M73.21,44.08c0.06,0.15-0.14,0.07-0.16,0.09C73.06,44.05,73.2,44.25,73.21,44.08z"/>
		<polygon class="st0" points="72.01,50.35 72.02,50.3 72.28,50.38 		"/>
	</g>
	<g>
		<path class="st0" d="M107.46,14.64c0.21-0.21-0.26-0.1,0.1-0.19C107.58,14.56,107.58,14.66,107.46,14.64z"/>
		<path class="st0" d="M79.18,79.26c-0.92-0.73-0.65-2.15-1.44-3c-0.07-0.11,0.36-0.1,0.18-0.33c-0.85-0.77-1.21-2.35-1.37-3.66
			l0.13,0.02c-0.03-0.25-0.47-0.36-0.53-0.61c0.06-0.03,0.12,0.03,0.19-0.06c-0.22,0.03-0.27-0.37-0.46-0.41
			c0.04-0.12,0.19-0.18,0.23-0.34l-0.28-0.04c-0.69-0.15-0.33-0.9-0.79-1.31c0.06,0.01,0.12,0.04,0.16-0.02
			c-0.31-0.35-0.54-0.79-0.71-1.28c-0.16-0.49-0.27-1-0.4-1.48c0.09,0.03,0.25,0.04,0.34-0.03c-0.26-0.01-0.37-0.3-0.45-0.56
			c0.24-0.15-0.3-0.42-0.19-0.74l0.06,0.02c-0.3-0.19,0.12-0.36-0.23-0.5l0.19-0.17c-0.38-0.06,0.15-0.35-0.05-0.52l-0.07,0.01
			c-0.11-0.17,0.07-0.28-0.01-0.44l0.04-0.02c-0.13-0.38,0.05-0.62-0.24-0.58c0.22-0.16,0.14,0.36,0.46,0.12
			c-0.42-1.24-0.47-2.55-0.54-3.83c0.11-0.15,0.14-0.25,0.25-0.28c-0.07-0.13-0.06-0.48-0.2-0.6c0.01,0.04,0.15-0.08,0.17-0.15
			c0.12-0.22-0.3-0.27-0.16-0.52c0.07,0.11,0.16,0.15,0.27,0.12c-0.21-0.23-0.15-0.52-0.18-0.79c0.04,0.05,0.06,0.11,0.16,0.11
			c-0.22-0.31,0.12-0.5,0-0.77l0.15,0.12c0.26-0.36-0.32-0.17-0.15-0.49c0.04,0.09,0.11,0.07,0.17,0.1
			c-0.24-0.37-0.04-0.87-0.06-1.2c0.02,0.02,0.06,0.03,0.06,0.03c0.04-0.35,0.22-0.68,0.19-1.09c0.11-0.12,0.38,0.15,0.42-0.22
			c-0.33-0.08,0.04-0.64-0.39-0.53c0.14-0.29,0.4-0.73,0.35-0.97c0.08,0.17,0.43-0.03,0.39,0.23l0.25-0.13
			c0.12,0.07-0.1,0.18,0.08,0.17c0.02-0.13,0.01-0.53,0.1-0.61c-0.11-0.28-0.35-0.67-0.18-1.05c0.01,0.23,0.37,0.1,0.36,0.23
			c-0.09-0.26-0.17-0.54-0.24-0.81c0.06-0.12,0.24,0.12,0.27-0.09c-0.08-0.04-0.08-0.14-0.11-0.23c0.06-0.02,0.23-0.49,0.53-0.36
			c0.14,0.02-0.06,0.21,0.12,0.16c0.13-0.2,0.04-0.27,0.15-0.47l0.04,0.02c0.12-0.11,0.09-0.46-0.15-0.4
			c-0.06,0.08,0.19,0.06,0.04,0.15c-0.11-0.18-0.05-0.42,0.02-0.6c0.02,0.08,0.11,0.11,0.18,0.17c-0.14-0.33-0.15-0.67-0.09-1.12
			c-0.15-0.06,0.21,0.25,0.12,0.27c0.19-0.21,0.21-0.49,0.3-0.78c0.08-0.29,0.25-0.59,0.54-0.66c-0.04,0.08-0.19-0.12-0.15-0.1
			c0.24-0.21,0.38-0.01,0.48-0.2c0.09,0.1,0.17-0.17,0.32-0.3c0.04-0.13,0.07,0.03-0.06,0.13c0.16-0.27,1.09-0.83,1.62-0.72
			c-0.03-0.08,0.24-0.38,0.35-0.4l0,0.21c0.13,0.1,0.36-0.1,0.41,0.07c0.19-0.29-0.84,0.41-0.57,0.15c0.12,0.15,0.37-0.42,0.36-0.13
			c0.21-0.06,0.36-0.33,0.6-0.19c-0.06-0.02-0.1,0.32,0.06,0.26c0.29-0.11,0.06-0.12,0.29-0.24l0.13-0.12
			c-0.04-0.19,0.27-0.05,0.1-0.23c0.08,0.15,0.39-0.23,0.46,0.1l0.03,0.26c0.12-0.06,0.13-0.33,0.19-0.47
			c0.02,0.02,0.07,0.06,0.08,0.1c-0.1-0.39,0.31-0.05,0.36-0.4c0.3,0.04,0.66-0.22,0.87-0.03c0.16-0.18,0.28-0.4,0.53-0.41
			c-0.03,0.05-0.09,0.09-0.07,0.17c0.18,0.05,0.18-0.06,0.28-0.18c-0.01,0.07,0.37,0.1,0.59,0.16c0.14-0.2-0.01-0.37-0.05-0.49
			c0.34,0.27,0.42-0.49,0.8-0.27c-0.04,0.08-0.19,0.31,0.01,0.32c0.36,0.27,0.22-0.43,0.58-0.42l-0.22-0.25
			c0.22,0.11,0.31-0.39,0.44-0.08c0.03-0.15,0.38-0.08,0.19-0.34c0.57-0.03,0.97-0.77,1.53-0.48c0.03-0.09,0.21-0.15,0.09-0.26
			c-0.2-0.08-0.07,0.2-0.17,0.13c0.05-0.05,0.01-0.13-0.01-0.17c0.17-0.03,0.29-0.08,0.31,0.22c0.41-0.05,0-0.64,0.42-0.81
			c0.06,0.12,0.12,0.14,0.21,0.04l0.06-0.33c0.26-0.13,0.32,0.14,0.46,0.31c0.1-0.13,0.26-0.23,0.21-0.41l0.32,0.09
			c-0.24-0.07,0.01-0.19,0.03-0.28l-0.02,0.09c0.08,0.05,0.18-0.11,0.24-0.19c-0.11-0.09-0.28-0.01-0.39,0.02
			c0-0.13,0.11-0.19,0.11-0.35c0.12,0.19,0.29-0.05,0.4-0.11c0.14-0.06-0.01-0.25,0.02-0.28c0.08,0.08,0.18-0.14,0.21,0.05
			c-0.01,0.06-0.15-0.01-0.14,0.12c0.12,0,0.25,0.15,0.29-0.09c0.03-0.18-0.32-0.29-0.03-0.38c-0.02,0.09,0.04,0.16,0.05,0.26
			l0.27-0.1l-0.13-0.15c0.06,0.01,0.06,0.04,0.08,0.05c-0.09-0.21,0.24-0.32,0.12-0.53c0.07-0.11,0.29-0.1,0.39-0.17l0,0.03
			c0.19-0.03,0.28-0.23,0.26-0.41l0.03,0.03c0.07-0.05,0.18-0.21,0.16-0.37c0.25-0.06,0.61,0.45,0.58,0.11
			c0.14-0.17-0.06-0.49-0.21-0.51c0.36-0.2,0.37-0.74,0.83-0.83c-0.03-0.09-0.09-0.1-0.06-0.21c0.41-0.4,0.49-1.08,1.06-1.24
			c-0.01,0.18,0.16,0.12,0.26,0.18c-0.08-0.21,0.24-0.04,0.01-0.24c-0.16-0.09-0.23-0.14-0.37-0.05c0.09-0.34,0.36-0.75,0.59-0.83
			c-0.12,0.04-0.13-0.05-0.14-0.14c0.24,0.17,0.4-0.03,0.4-0.24l-0.14-0.11l0.22-0.02c-0.01-0.09-0.29-0.24-0.05-0.32
			c0.07,0.02,0.13,0.05,0.19,0.04c-0.04-0.24-0.14-0.59,0.09-0.71l0.31-0.04c0.01-0.09-0.06-0.3-0.19-0.19
			c0.3-0.25,0.41-0.46,0.66-0.48c-0.23-0.79,0.1-1.62,0.4-2.3l0.11,0.07c0.19-0.14-0.18-0.18-0.04-0.27c0.09,0.1,0.31-0.04,0.4,0.16
			c0.23-0.21-0.08-0.42-0.07-0.62c-0.15-0.09,0.05,0.18-0.14,0.07c-0.05-0.05,0.27-0.32,0.04-0.45c0.12-0.03,0.28,0.09,0.37,0.16
			l-0.06-0.21c0.36-0.09,0.34,0.65,0.77,0.57l0.02-0.17c0.31-0.05,0.14,0.51,0.37,0.16c-0.06-0.21-0.36-0.48-0.52-0.38
			c0.06-0.37-0.52-0.38-0.37-0.74c0.18-0.05-0.07,0.31,0.15,0.31c0.26-0.1,0.02-0.39,0.15-0.52c-0.16,0.14-0.35-0.1-0.35-0.23
			c0.19-0.15,0.19,0.21,0.31-0.05c-0.13-0.1-0.14-0.38-0.32-0.2c-0.29-0.22,0.19-0.24,0-0.48c0.26,0,0.42,0.47,0.64,0.21
			c-0.24-0.03-0.16-0.47-0.54-0.44c0.1-0.09,0.28-0.04,0.38,0.09c0.2-0.12-0.25-0.55,0.2-0.44l-0.2-0.14
			c0.09-0.03,0.17-0.08,0.32-0.12c0.06-0.14-0.12-0.58,0.21-0.45c-0.02-0.06,0.12-0.39-0.16-0.35c-0.22,0.15,0.08,0.3-0.28,0.3
			c0.31-0.05,0.08-0.31,0.04-0.47l0.14,0.03c-0.02-0.09,0.07-0.25-0.06-0.34c0.05,0.08,0.15,0.09,0.21,0.04l-0.17-0.15
			c0.02-0.33,0.37,0.06,0.43-0.24l0.07,0.27c-0.01-0.06,0.21-0.08,0.2-0.24c-0.16-0.12-0.34-0.31-0.46-0.41
			c-0.02-0.19,0.23,0.01,0.11-0.22l0.13,0.29c0.05,0.05,0.35-0.02,0.43-0.24c-0.01-0.16-0.18-0.48-0.36-0.3
			c0.04-0.11,0.21-0.22,0.31-0.08c0.04-0.27-0.21-0.05-0.23-0.3c0.15-0.04,0.43-0.24,0.67-0.32l0.21,0.34l0.06-0.14
			c0.16,0.29,0.22-0.02,0.43,0.19c0.08-0.08,0.05-0.23,0.02-0.36c-0.53,0.11-0.4-0.56-0.8-0.64c0.08-0.45,0.99,0.15,0.61-0.52
			c-0.13,0.02-0.31-0.3-0.32,0c0.15-0.23-0.28-0.34,0.01-0.56c0.04,0.29,0.47-0.06,0.54,0.36c-0.11-0.08-0.17,0.13-0.16,0.19
			c0.19-0.04,0.35,0.19,0.47-0.06c0.04-0.17,0.13-0.38-0.07-0.44c-0.21-0.09-0.09,0.24-0.25,0.04c0.08-0.34,0.41-0.23,0.11-0.54
			c-0.06,0.21-0.3,0.15-0.44,0.08l0.03-0.27l0.11,0.11c0.28-0.31-0.19-0.23,0.03-0.56l0.35-0.02c0.18,0.2-0.37,0.45,0.03,0.58
			c0.13-0.21-0.01-0.39,0.2-0.55c0.01,0.06-0.02,0.13-0.01,0.2c0.06-0.07,0.59,0.11,0.47-0.36c-0.02-0.22-0.11-0.12-0.24-0.2
			c0.16-0.38,0.09-0.56,0.21-0.81c0.23,0.21,0.27-0.39,0.38,0.03c-0.22,0.02-0.52,0.54-0.33,0.81c0.39,0.05-0.2,0.25,0.09,0.51
			c0.16-0.28,0.46-0.09,0.69-0.02c0.05-0.07,0.01-0.19,0.01-0.25c-0.17-0.14-0.23-0.04-0.43-0.15c0.24-0.28,0.31-0.63,0.23-0.92
			c0.15-0.05,0.32,0.11,0.27,0.24c0.16-0.4,0.46-0.75,0.74-1.05c-0.44,0.01,0.19-0.42-0.15-0.45c-0.2,0.13-0.51,0.14-0.57-0.05
			c0.1-0.1,0.13,0.1,0.22,0.09c-0.06-0.26,0.42-0.04,0.27-0.36c-0.15,0.39,0.31,0.32,0.49,0.55c0.04-0.32,0.15,0.13,0.32-0.09
			c0.04-0.31,0.16-0.66,0.32-0.94c0.45-0.13,0.66-0.74,0.9-1c0.23-0.03,0.37,0.28,0.55,0.18c0.16-0.16-0.36-0.12-0.02-0.26
			l0.02,0.07c0.02-0.13,0.59-0.27,0.36-0.68l0.16,0.33c0.07-0.02,0.06-0.12,0.07-0.18c0.08,0.08,0.2,0.11,0.17,0.23
			c0.31,0.04,0.3-0.32,0.46-0.47l-0.24-0.06c0.19-0.38,0.52-0.38,0.77-0.67l0.11,0.17l0.1-0.23c0.07,0.19,0.31,0.17,0.31-0.03
			l-0.16,0.73c-0.2,0-0.01-0.3-0.21-0.39c-0.17-0.08-0.41,0.17-0.33,0.36c0.11-0.07,0.09-0.1,0.13-0.22
			c0.21,0.19,0.04,0.3,0.09,0.51c0.04-0.05,0.17-0.05,0.13-0.12c-0.02,0.19-0.11,0.29-0.27,0.43c0.04-0.18-0.17-0.08-0.18-0.18
			c0.15,0.2,0.03,0.39-0.21,0.52c-0.33-0.08-0.25,0.47-0.52,0.63c-0.08-0.27-0.1-0.52-0.03-0.73c-0.23,0.05-0.16,0.16-0.39,0.21
			c0.06,0.2,0.21,0.45,0.11,0.71l-0.14-0.12c-0.1,0.23,0.1,0.42-0.14,0.6c-0.41,0.31-0.74,0.71-0.99,0.99l-0.15-0.1
			c0.17,0.41-0.32,0.66-0.33,1c-0.43,0.3-0.44,0.97-0.83,1.03c-0.33,0.81-0.55,1.55-1,2.33l-0.17-0.25
			c0.11,0.23-0.18,0.03-0.22,0.19c0.27-0.08,0.15,0.32,0.26,0.49c-0.35,0.28-0.36,0.85-0.32,1.25l-0.17-0.06
			c0.18,0.46-0.26,0.75-0.48,1.15c-0.09,0.02-0.28,0.04-0.31,0.17c0.19,0.33,0.12,0.45,0.17,0.85c-0.09,0.25-0.31,0.62-0.51,0.84
			c0.04,1.08-0.56,1.95-0.7,3.03l-0.23-0.01c0.06,1.13-0.81,2.15-0.98,3.05l-0.3-0.23c-0.21,0.21-0.18,0.61,0.08,0.66
			c-0.23,0.2-0.16,0.71-0.5,0.74c-0.19,0.23-0.02,0.39-0.09,0.63c-0.4,0.45-0.48,0.65-0.72,1.16l0.09-0.11
			c-0.04-0.09-0.17-0.18-0.26-0.07c-0.02,0.23-0.48,0.59,0,0.65c-0.54,0.35-0.61,1.27-1.25,1.52c0.12,0.03,0.05,0.16,0.08,0.26
			c-0.31,0.43-0.86,0.67-0.98,1.12c-0.1,0.02-0.07-0.23-0.21-0.08c-0.05,0.13,0.12,0.11,0.06,0.27c-0.41,0.78-1.35,1.08-1.87,1.63
			c-0.86,1.08-2.07,1.86-3.14,2.61l-0.04-0.08c-0.2,0.51-1.04,0.25-1.09,0.85c-0.13-0.02-0.37,0.16-0.38-0.03
			c-0.19,0.38-0.95,0.27-1.28,0.75c0.04-0.01,0.06-0.04,0.09-0.1c-0.53,0.05-0.84,0.47-1.4,0.51c0.04-0.06,0.12-0.12,0.1-0.21
			c-0.25-0.08-0.31,0.53-0.57,0.18c-0.11,0.04,0,0.23,0.06,0.19c-1.15,0.26-2.25,0.89-3.43,1.25c-0.87-0.06-0.21-0.68-0.76-0.24
			c-0.07-0.07,0,0.17-0.03,0.08c-0.19,0.17-0.46-0.37-0.55-0.12c0.13,0.23-0.05,0.17,0,0.32c-0.4-0.04-0.59-0.2-0.7,0.1l-0.06-0.12
			c-0.02,0.24-0.06,0.35-0.09,0.47c-0.02,0.12-0.03,0.26,0.12,0.46c-0.08,0.2-0.12,0.4-0.23,0.8c-0.13,0.45-0.31,0.83-0.49,1.18
			c-0.36,0.68-0.71,1.21-0.93,1.66c-0.11,0.22-0.19,0.42-0.23,0.58l-0.19,0.79l-0.41,1.75c-0.32,1.12-0.51,2.23-0.55,3.28
			c-0.05,0.95,0.08,2.24,0.05,3.47c-0.31,0.61-0.29,0.65-0.09,1.27c-0.06-0.02-0.08-0.06-0.13-0.01c0.3,0,0.07,0.44,0.36,0.48
			c0.04,0.91,0.21,1.74,0.35,2.64c-0.05-0.14-0.3-0.18-0.26-0.01l0.21,0.15l-0.08,0.04c0.06,0.11,0.22,0.21,0.3,0.08
			c0.12,0.49,0.24,0.98,0.36,1.47l0.43,1.58c0.3,1.06,0.69,2.16,1.22,3.23c0.12,0.57,0.56,1.28,0.85,1.85
			c0.34,1.9,0.54,3.57,1.3,5.3C80.35,79.98,79.55,79.94,79.18,79.26z"/>
		<path class="st0" d="M107.19,14.87c-0.14-0.08-0.35-0.03-0.33-0.29C106.95,14.68,107.13,14.75,107.19,14.87z"/>
		<path class="st0" d="M102.08,17.71c0.03,0.03-0.1,0.03-0.13,0.03c0.03-0.07-0.02-0.2,0.07-0.2
			C101.99,17.61,102.06,17.65,102.08,17.71z"/>
		<path class="st0" d="M101.15,18.9c-0.1-0.09,0-0.42,0.09-0.59L101.15,18.9z"/>
		<path class="st0" d="M99.96,19.83c-0.15,0.05-0.19-0.01-0.11-0.15C99.91,19.71,99.92,19.77,99.96,19.83z"/>
		<path class="st0" d="M100.17,20.07c-0.05,0.1-0.15,0.12-0.24,0.13C100.03,20.25,100,19.93,100.17,20.07z"/>
		<path class="st0" d="M98.49,22.63c-0.02,0.07,0.02,0.26-0.14,0.26C98.47,22.86,98.34,22.5,98.49,22.63z"/>
		<path class="st0" d="M98.13,23.99c-0.03,0.04-0.05,0.05-0.04,0.11c-0.09,0.05-0.14-0.06-0.13-0.13L98.13,23.99z"/>
		<polygon class="st0" points="85.34,43.07 85.44,42.94 85.48,43.07 		"/>
		<path class="st0" d="M75.86,48.41c0.04,0.13-0.14,0.02-0.16,0.03C75.72,48.36,75.84,48.54,75.86,48.41z"/>
		<polygon class="st0" points="74.07,53.85 74.08,53.81 74.33,53.9 		"/>
	</g>
	<g>
		<path class="st0" d="M42.25,26.41c-0.19-0.08-0.06,0.25-0.16,0C42.18,26.34,42.26,26.3,42.25,26.41z"/>
		<path class="st0" d="M72.04,59.94c-0.87-0.25-0.59-1.26-1.28-1.65c-0.06-0.06,0.34-0.15,0.18-0.27c-0.77-0.32-0.96-1.33-1.05-2.22
			l0.12-0.02c-0.02-0.17-0.41-0.13-0.46-0.29c0.06-0.04,0.11-0.01,0.17-0.1c-0.2,0.09-0.25-0.18-0.42-0.14
			c0.03-0.1,0.17-0.19,0.2-0.32L69.25,55c-0.61,0.14-0.34-0.52-0.79-0.59c0.05-0.02,0.11-0.03,0.13-0.08
			c-0.62-0.2-1.04-0.73-1.58-1.03c0.07-0.05,0.19-0.15,0.23-0.25c-0.19,0.17-0.37,0.1-0.53,0.03c0.11-0.25-0.36,0.02-0.42-0.21
			l0.05-0.04c-0.27,0.14-0.07-0.25-0.35-0.05l0.05-0.22c-0.25,0.27-0.06-0.27-0.26-0.18l-0.04,0.07c-0.14,0.02-0.09-0.17-0.2-0.17
			l0.01-0.04c-0.25-0.04-0.27-0.28-0.4-0.02c0.04-0.24,0.25,0.02,0.3-0.34c-0.83-0.12-1.53-0.45-2.29-0.61
			c-0.06-0.13-0.11-0.18-0.11-0.29c-0.09,0.04-0.31,0-0.4,0.14c0.03,0-0.03-0.15-0.07-0.17c-0.13-0.13-0.2,0.29-0.34,0.14
			c0.07-0.07,0.1-0.16,0.1-0.27c-0.16,0.21-0.33,0.15-0.5,0.21c0.03-0.05,0.07-0.07,0.07-0.16c-0.2,0.24-0.31-0.08-0.48,0.07
			l0.07-0.16c-0.23-0.22-0.1,0.34-0.3,0.21c0.05-0.05,0.04-0.12,0.05-0.18c-0.22,0.29-0.53,0.17-0.73,0.27
			c0.01-0.02,0.01-0.07,0.01-0.07c-0.22,0.03-0.44-0.08-0.69,0.04c-0.08-0.08,0.05-0.4-0.18-0.36c-0.01,0.34-0.4,0.11-0.29,0.5
			c-0.19-0.07-0.5-0.22-0.64-0.12c0.1-0.12-0.06-0.41,0.11-0.43l-0.1-0.21c0.03-0.13,0.12,0.06,0.1-0.12
			c-0.08,0.01-0.33,0.12-0.39,0.06c-0.17,0.19-0.35,0.56-0.6,0.57c0.13-0.12-0.02-0.37,0.06-0.42l-0.42,0.59
			c-0.08,0,0.02-0.26-0.11-0.19c-0.01,0.09-0.06,0.14-0.11,0.2c-0.03-0.04-0.36,0.03-0.34-0.3c-0.02-0.13,0.14-0.05,0.07-0.18
			c-0.15-0.02-0.17,0.09-0.33,0.07l0-0.04c-0.09-0.07-0.32,0.09-0.24,0.29c0.07,0.02,0.01-0.2,0.09-0.09
			c-0.1,0.18-0.29,0.2-0.44,0.17c0.06-0.04,0.07-0.13,0.11-0.22c-0.25,0.21-0.49,0.25-0.74,0.31c-0.04,0.15,0.15-0.26,0.16-0.17
			c-0.24-0.27-0.68,0.16-0.84-0.21c0.05-0.02-0.03,0.22-0.03,0.18c-0.14-0.05-0.07-0.27-0.19-0.22c0.03-0.13-0.13,0.01-0.23,0.02
			c-0.07,0.08-0.01-0.07,0.08-0.06c-0.16,0.08-0.75,0.12-0.99-0.17c-0.02,0.08-0.29,0.25-0.36,0.21l0.1-0.18
			c-0.02-0.14-0.24-0.07-0.19-0.24c-0.23,0.18,0.63,0,0.37,0.11c0.01-0.18-0.39,0.21-0.25-0.04c-0.14-0.04-0.36,0.13-0.42-0.11
			c0.03,0.05,0.21-0.22,0.1-0.25c-0.2-0.04-0.09,0.07-0.27,0.07l-0.13,0.04c-0.08,0.18-0.16-0.1-0.18,0.14
			c0.04-0.16-0.32-0.03-0.17-0.33l0.13-0.23c-0.09-0.02-0.25,0.19-0.36,0.27c0-0.03,0-0.09,0.02-0.12
			c-0.18,0.36-0.18-0.12-0.41,0.11c-0.11-0.21-0.43-0.24-0.39-0.5c-0.19,0.04-0.38,0.09-0.48-0.07c0.05-0.02,0.09,0,0.15-0.07
			c-0.03-0.15-0.11-0.07-0.22-0.07c0.05-0.04-0.06-0.31-0.08-0.49c-0.19,0.03-0.26,0.23-0.35,0.34c0.11-0.4-0.49-0.02-0.43-0.42
			c0.07-0.01,0.29-0.04,0.24-0.19c0.12-0.4-0.38,0.08-0.45-0.2l-0.15,0.29c0.04-0.22-0.37-0.05-0.15-0.3
			c-0.13,0.05-0.13-0.24-0.32,0.02c-0.1-0.43-0.78-0.47-0.54-1.04c-0.07,0-0.12-0.13-0.22,0.01c-0.07,0.19,0.17,0,0.11,0.1
			c-0.04-0.03-0.11,0.03-0.14,0.06c-0.03-0.13-0.07-0.21,0.19-0.32c-0.02-0.31-0.57,0.2-0.7-0.13c0.11-0.08,0.13-0.13,0.05-0.18
			l-0.29,0.01c-0.09-0.2,0.16-0.28,0.33-0.43c-0.1-0.06-0.17-0.17-0.33-0.1l0.14-0.28c-0.11,0.2-0.16,0.01-0.23,0l0.07,0.01
			c0.07-0.07-0.06-0.14-0.12-0.17c-0.1,0.09-0.07,0.23-0.06,0.31c-0.11,0.01-0.15-0.07-0.28-0.07c0.19-0.11,0.02-0.24-0.01-0.32
			c-0.02-0.11-0.23,0.01-0.24-0.02c0.09-0.06-0.08-0.15,0.1-0.17c0.05,0.01-0.05,0.13,0.07,0.12c0.03-0.1,0.21-0.2,0.01-0.24
			c-0.15-0.03-0.35,0.26-0.34,0.01c0.07,0.02,0.15-0.02,0.24-0.03l0-0.22l-0.18,0.1c0.03-0.05,0.06-0.04,0.07-0.07
			c-0.21,0.06-0.2-0.21-0.43-0.13c-0.06-0.07,0.03-0.24,0.01-0.33l0.02,0.01c0.06-0.15-0.08-0.24-0.24-0.27l0.04-0.01
			c-0.02-0.06-0.1-0.18-0.24-0.2c0.08-0.2,0.67-0.35,0.38-0.4c-0.06-0.13-0.43-0.08-0.53,0.03c0.03-0.3-0.39-0.49-0.17-0.83
			c-0.09-0.01-0.13,0.03-0.2-0.04c-0.05-0.4-0.46-0.76-0.15-1.16c0.11,0.09,0.2-0.04,0.31-0.06c-0.19-0.05,0.16-0.15-0.15-0.11
			c-0.18,0.05-0.26,0.06-0.31,0.18c-0.15-0.21-0.22-0.57-0.07-0.72c-0.07,0.08-0.13,0.04-0.2,0c0.29-0.03,0.3-0.21,0.18-0.32
			l-0.18,0.01l0.17-0.11c-0.06-0.04-0.37,0-0.22-0.15c0.07-0.02,0.13-0.03,0.18-0.06c-0.16-0.11-0.43-0.27-0.3-0.43l0.24-0.15
			c-0.03-0.06-0.2-0.14-0.26-0.03c0.13-0.26,0.13-0.42,0.34-0.52c-0.58-0.36-0.65-0.97-0.64-1.45L44.17,38
			c0.11-0.14-0.23-0.05-0.15-0.15c0.13,0.03,0.27-0.11,0.43-0.02c0.13-0.19-0.24-0.22-0.31-0.33c-0.17-0.01,0.12,0.09-0.1,0.08
			c-0.06-0.02,0.12-0.26-0.14-0.27c0.1-0.05,0.29-0.03,0.4-0.01l-0.13-0.1c0.3-0.15,0.56,0.28,0.93,0.11l-0.05-0.1
			c0.27-0.11,0.32,0.25,0.4-0.01c-0.14-0.1-0.52-0.17-0.63-0.07c-0.09-0.23-0.63-0.07-0.62-0.32c0.15-0.08,0.05,0.19,0.26,0.14
			c0.2-0.13-0.13-0.23-0.06-0.33c-0.09,0.12-0.36,0.04-0.41-0.03c0.12-0.13,0.25,0.07,0.27-0.11c-0.15-0.02-0.28-0.17-0.37-0.03
			c-0.35-0.04,0.08-0.19-0.19-0.27c0.24-0.07,0.57,0.15,0.68-0.05c-0.23,0.04-0.33-0.22-0.67-0.1c0.06-0.08,0.24-0.1,0.39-0.05
			c0.14-0.12-0.44-0.23,0.02-0.3l-0.24-0.02c0.07-0.04,0.13-0.09,0.25-0.15c0-0.1-0.34-0.28,0.02-0.29
			c-0.04-0.03-0.04-0.24-0.28-0.14c-0.14,0.14,0.19,0.13-0.14,0.23c0.26-0.11-0.05-0.18-0.15-0.25l0.14-0.02
			c-0.06-0.04-0.04-0.14-0.19-0.16c0.08,0.03,0.17,0,0.21-0.04l-0.21-0.03c-0.12-0.17,0.36-0.08,0.29-0.24l0.18,0.12
			c-0.04-0.03,0.15-0.11,0.08-0.18c-0.19-0.02-0.43-0.04-0.58-0.06c-0.09-0.09,0.21-0.07,0-0.14l0.24,0.1
			c0.06,0.01,0.31-0.12,0.29-0.25c-0.08-0.08-0.37-0.17-0.46-0.03c-0.01-0.06,0.09-0.17,0.24-0.14c-0.09-0.14-0.2,0.05-0.34-0.06
			c0.12-0.07,0.28-0.26,0.45-0.38l0.34,0.09l-0.01-0.09c0.27,0.08,0.18-0.09,0.46-0.06c0.03-0.07-0.07-0.13-0.15-0.18
			c-0.4,0.25-0.62-0.11-1,0.01c-0.14-0.22,0.93-0.32,0.27-0.46c-0.09,0.06-0.41,0-0.27,0.13c0.01-0.15-0.41-0.02-0.28-0.22
			c0.18,0.09,0.37-0.22,0.64-0.08c-0.13,0.01-0.08,0.12-0.04,0.15c0.14-0.09,0.4-0.06,0.37-0.22c-0.05-0.09-0.09-0.22-0.29-0.15
			c-0.22,0.05,0.05,0.14-0.18,0.12c-0.12-0.16,0.21-0.27-0.2-0.26c0.06,0.11-0.16,0.18-0.32,0.22l-0.12-0.11l0.15-0.01
			c0.06-0.23-0.28,0-0.29-0.2l0.27-0.17c0.26-0.02-0.04,0.32,0.36,0.19c-0.02-0.14-0.23-0.13-0.16-0.28
			c0.04,0.02,0.06,0.05,0.11,0.07c0-0.05,0.53-0.24,0.16-0.34c-0.15-0.06-0.15,0.01-0.3,0.05c-0.1-0.2-0.27-0.21-0.34-0.33
			c0.3-0.07-0.05-0.24,0.3-0.19c-0.15,0.12-0.04,0.41,0.26,0.41c0.33-0.18,0,0.18,0.36,0.13c-0.04-0.18,0.31-0.26,0.52-0.36
			c0-0.06-0.11-0.08-0.15-0.1c-0.22,0.04-0.2,0.1-0.41,0.17c0.01-0.21-0.18-0.36-0.41-0.4c0.08-0.1,0.3-0.15,0.34-0.08
			c-0.13-0.21-0.2-0.45-0.22-0.69c-0.28,0.27-0.17-0.2-0.41,0.01c-0.02,0.14-0.23,0.33-0.4,0.33c0-0.07,0.15-0.06,0.21-0.11
			c-0.21-0.01,0.23-0.25-0.09-0.21c0.19,0.14,0.42-0.14,0.69-0.21c-0.21-0.08,0.19-0.07,0.12-0.22c-0.21-0.08-0.4-0.2-0.54-0.33
			c0.14-0.32-0.26-0.48-0.37-0.63c0.07-0.16,0.37-0.28,0.35-0.41c-0.08-0.1-0.23,0.27-0.22,0.03l0.06-0.02
			c-0.09,0-0.04-0.42-0.43-0.19l0.31-0.16c0-0.05-0.08-0.03-0.13-0.03c0.09-0.07,0.14-0.17,0.24-0.17c0.1-0.25-0.2-0.18-0.3-0.27
			l-0.1,0.2c-0.26-0.07-0.22-0.31-0.43-0.41l0.14-0.14l-0.18-0.01c0.16-0.12,0.15-0.3-0.01-0.22c0.2-0.05,0.39-0.08,0.6-0.11
			c-0.01,0.16-0.25,0.09-0.34,0.28c-0.08,0.16,0.1,0.26,0.26,0.16c-0.04-0.07-0.08-0.05-0.17-0.04c0.18-0.21,0.26-0.12,0.44-0.2
			c-0.04-0.02-0.02-0.13-0.09-0.07c0.16-0.03,0.24,0.02,0.34,0.13c-0.15,0-0.09,0.16-0.18,0.18c0.19-0.15,0.34-0.09,0.41,0.09
			c-0.13,0.27,0.35,0.16,0.42,0.39c-0.25,0.07-0.48,0.1-0.63,0.06c-0.03,0.18,0.09,0.11,0.06,0.28c0.18-0.06,0.45-0.19,0.64-0.1
			l-0.15,0.11c0.16,0.08,0.39-0.06,0.45,0.14c0.1,0.34,0.26,0.66,0.35,0.9l-0.16,0.09c0.41-0.03,0.33,0.38,0.56,0.49
			c-0.04,0.37,0.41,0.63,0.16,0.88c0.3,0.51,0.57,0.98,0.61,1.58l-0.28-0.05c0.21,0.07-0.14,0.1-0.08,0.19
			c0.19-0.16,0.3,0.09,0.47,0.13c-0.16,0.3,0.12,0.59,0.34,0.81l-0.18,0.03c0.37,0.19,0.11,0.52,0.08,0.81
			c-0.07,0.04-0.24,0.11-0.21,0.2c0.31,0.13,0.29,0.22,0.5,0.43c0.02,0.17-0.04,0.45-0.14,0.63c0.46,0.6,0.22,1.26,0.51,1.89
			l-0.21,0.06c0.49,0.59,0.14,1.37,0.43,1.86l-0.37-0.01c-0.09,0.17,0.14,0.36,0.39,0.28c-0.1,0.17,0.22,0.37-0.06,0.51
			c-0.04,0.17,0.19,0.17,0.26,0.3c-0.08,0.33-0.04,0.45,0.1,0.73l0.01-0.08c-0.09-0.02-0.24,0.01-0.25,0.09
			c0.12,0.09-0.01,0.43,0.39,0.22c-0.17,0.37,0.37,0.64,0.14,1.02c0.11-0.06,0.15,0,0.24,0.01c0.09,0.24-0.04,0.59,0.23,0.7
			c-0.04,0.06-0.21,0.02-0.18,0.12c0.07,0.04,0.14-0.06,0.24-0.02c0.37,0.28,0.16,0.86,0.43,1.15c0.55,0.44,0.92,1.03,1.43,1.46
			l-0.07,0.06c0.38-0.1,0.17,0.61,0.63,0.33c-0.01,0.1,0.13,0.16,0,0.26c0.28-0.08,0.27,0.49,0.66,0.38c-0.02-0.02-0.04-0.01-0.08,0
			c0.11,0.31,0.45,0.21,0.6,0.5c-0.04,0.02-0.1,0.02-0.16,0.09c0.01,0.2,0.41-0.19,0.25,0.21c0.06,0.03,0.14-0.16,0.1-0.17
			c0.47,0.45,1.2,0.48,1.83,0.61c0.35,0.4-0.21,0.69,0.24,0.51c0,0.09,0.07-0.15,0.05-0.06c0.17-0.07,0.07,0.52,0.24,0.34
			c0.04-0.26,0.11-0.12,0.16-0.27c0.23,0.25,0.23,0.49,0.5,0.36l-0.05,0.13c0.36-0.3,0.62-0.03,0.94-0.41
			c1.47,0.24,2.93,0.14,4.42,0.16c0.75,0.08,1.57,0.08,2.45,0.19c0.88,0.1,1.87,0.37,2.69,0.86c0.26,0.51,0.27,0.51,0.76,0.61
			c-0.05,0.04-0.08,0.04-0.08,0.1c0.17-0.25,0.3,0.14,0.48-0.08c0.56,0.4,1.11,0.71,1.64,1.16c-0.11-0.05-0.3,0.1-0.19,0.17
			l0.23-0.06l-0.04,0.08c0.09,0.03,0.26-0.02,0.26-0.15c0.74,0.49,1.27,1.19,1.7,1.92c0.43,0.72,0.77,1.46,1.2,2.12
			c0.09,0.38,0.44,0.78,0.68,1.11c0.21,1.23,0.35,2.29,1.09,3.2C73.16,60.1,72.4,60.29,72.04,59.94z"/>
		<path class="st0" d="M42.46,26.54c-0.06,0.14-0.01,0.29-0.22,0.37C42.32,26.79,42.36,26.63,42.46,26.54z"/>
		<path class="st0" d="M43.24,30.13c0.04-0.01-0.04,0.06-0.05,0.08c-0.03-0.03-0.15-0.01-0.1-0.07
			C43.12,30.17,43.18,30.14,43.24,30.13z"/>
		<path class="st0" d="M43.46,30.91c-0.12,0.03-0.29-0.09-0.34-0.18L43.46,30.91z"/>
		<path class="st0" d="M43.16,31.78c-0.09,0.09-0.15,0.09-0.17,0.01C43.05,31.76,43.1,31.78,43.16,31.78z"/>
		<path class="st0" d="M43.46,31.75c0.02,0.06-0.05,0.11-0.11,0.16C43.46,31.88,43.25,31.79,43.46,31.75z"/>
		<path class="st0" d="M43.43,33.43c0.02,0.04,0.14,0.11,0,0.16C43.53,33.54,43.24,33.43,43.43,33.43z"/>
		<path class="st0" d="M43.74,34.17c-0.01,0.03-0.03,0.04,0.01,0.06c-0.05,0.05-0.15,0.02-0.17-0.02L43.74,34.17z"/>
		<polygon class="st0" points="49.41,48.61 49.29,48.61 49.38,48.51 		"/>
		<path class="st0" d="M55.94,51.29c0.11-0.06,0.04,0.13,0.05,0.16C55.9,51.44,56.05,51.29,55.94,51.29z"/>
		<polygon class="st0" points="59.67,51.08 59.64,51.08 59.67,50.81 		"/>
	</g>
	<g>
		<path class="st0" d="M42.89,26.87c-0.16,0.09,0.14,0.21-0.09,0.12C42.8,26.88,42.82,26.79,42.89,26.87z"/>
		<path class="st0" d="M71.87,53.26c-0.42,0.03-0.68-0.18-0.81-0.48c-0.15-0.29-0.27-0.59-0.63-0.73c-0.06-0.05,0.33-0.17,0.18-0.26
			c-0.36-0.13-0.57-0.45-0.68-0.83c-0.11-0.38-0.05-0.84,0.03-1.22l0.11,0.01c0.03-0.14-0.37-0.19-0.35-0.34
			c0.07-0.02,0.11,0.01,0.19-0.04c-0.21,0.03-0.16-0.22-0.33-0.23c0.07-0.08,0.23-0.12,0.3-0.21l-0.25-0.01
			c-0.61-0.07-0.11-0.53-0.46-0.77c0.06,0,0.11,0.02,0.16-0.01c-0.43-0.41-0.51-1.04-0.7-1.57c0.09,0.01,0.24,0,0.33-0.04
			c-0.26,0.01-0.34-0.15-0.42-0.29c0.25-0.1-0.27-0.22-0.16-0.41l0.06,0.01c-0.29-0.09,0.13-0.21-0.21-0.27l0.19-0.11
			c-0.37-0.01,0.17-0.21-0.03-0.29l-0.07,0.01c-0.1-0.09,0.08-0.16,0-0.25l0.04-0.01c-0.12-0.21,0.07-0.36-0.22-0.32
			c0.22-0.1,0.13,0.2,0.45,0.04c-0.39-0.68-0.4-1.42-0.5-2.14c0.11-0.09,0.13-0.15,0.24-0.18c-0.07-0.06-0.09-0.26-0.24-0.31
			c0.01,0.02,0.14-0.06,0.15-0.1c0.09-0.14-0.33-0.1-0.22-0.26c0.08,0.05,0.18,0.05,0.28,0.02c-0.24-0.09-0.22-0.26-0.32-0.39
			c0.05,0.02,0.09,0.05,0.17,0.03C67.89,41.17,68.18,41,68,40.88l0.17,0.03c0.17-0.25-0.35-0.02-0.26-0.22
			c0.06,0.04,0.12,0.01,0.19,0.01c-0.33-0.13-0.27-0.44-0.4-0.6c0.02,0.01,0.07,0,0.07,0c-0.07-0.19-0.02-0.4-0.19-0.59
			c0.06-0.09,0.4-0.05,0.3-0.24c-0.33,0.07-0.2-0.32-0.55-0.12c0.02-0.18,0.09-0.48-0.05-0.57c0.14,0.05,0.38-0.18,0.44-0.04
			l0.17-0.16c0.14-0.01-0.02,0.12,0.14,0.05c-0.03-0.07-0.22-0.25-0.18-0.33c-0.23-0.09-0.64-0.11-0.73-0.31
			c0.15,0.06,0.34-0.16,0.41-0.1l-0.69-0.12c-0.03-0.06,0.25-0.09,0.13-0.17c-0.08,0.03-0.15,0-0.23,0
			c0.03-0.04-0.18-0.25,0.12-0.39c0.11-0.07,0.1,0.09,0.19-0.02c-0.05-0.13-0.16-0.09-0.21-0.22l0.04-0.02
			c0.02-0.1-0.22-0.2-0.36-0.04c0.01,0.06,0.18-0.09,0.12,0.03c-0.2,0.01-0.3-0.11-0.34-0.23c0.06,0.02,0.14-0.02,0.24-0.03
			c-0.29-0.08-0.45-0.2-0.63-0.32c-0.14,0.06,0.29-0.05,0.23,0.01c0.09-0.32-0.5-0.32-0.3-0.64c0.04,0.02-0.19,0.12-0.15,0.1
			c-0.03-0.11,0.17-0.22,0.06-0.25c0.12-0.07-0.08-0.07-0.16-0.11c-0.1,0.02,0.04-0.05,0.09,0c-0.16-0.04-0.56-0.28-0.54-0.59
			c-0.07,0.05-0.34,0.06-0.36,0.01l0.18-0.1c0.07-0.12-0.12-0.15,0.01-0.26c-0.26,0.05,0.44,0.26,0.19,0.24
			c0.11-0.14-0.39,0-0.14-0.13c-0.07-0.09-0.33-0.03-0.24-0.24c-0.01,0.05,0.28-0.11,0.21-0.17c-0.14-0.11-0.11,0.03-0.25-0.03
			l-0.12-0.01c-0.15,0.13-0.07-0.13-0.2,0.06c0.11-0.13-0.23-0.11,0.02-0.32l0.21-0.16c-0.06-0.04-0.28,0.1-0.4,0.14
			c0.01-0.02,0.04-0.07,0.07-0.1c-0.3,0.27-0.1-0.15-0.38,0.01c-0.01-0.2-0.26-0.27-0.14-0.5c-0.17,0.01-0.34,0.05-0.38-0.1
			c0.04-0.01,0.08,0,0.14-0.06c0.01-0.14-0.07-0.08-0.17-0.08c0.05-0.03,0.03-0.29,0.04-0.46c-0.17,0.02-0.27,0.21-0.37,0.31
			c0.17-0.38-0.41,0-0.3-0.37c0.06-0.02,0.25-0.05,0.24-0.19c0.15-0.38-0.35,0.1-0.38-0.15l-0.16,0.29
			c0.06-0.21-0.31,0.01-0.11-0.25c-0.12,0.06-0.1-0.21-0.27,0.07c-0.08-0.39-0.66-0.24-0.5-0.82c-0.06,0.02-0.12-0.08-0.19,0.07
			c-0.04,0.19,0.15-0.06,0.11,0.06c-0.04-0.01-0.09,0.06-0.12,0.09c-0.04-0.11-0.09-0.17,0.13-0.35c-0.07-0.28-0.46,0.36-0.61,0.12
			c0.08-0.11,0.09-0.16,0.01-0.18l-0.24,0.13c-0.12-0.13,0.07-0.31,0.18-0.51c-0.1-0.01-0.19-0.07-0.3,0.06l0.04-0.3
			c-0.03,0.22-0.13,0.08-0.19,0.11l0.06-0.03c0.03-0.09-0.09-0.09-0.15-0.09c-0.05,0.13,0.01,0.23,0.04,0.29
			c-0.09,0.07-0.14,0.01-0.24,0.09c0.12-0.18-0.05-0.21-0.1-0.26c-0.05-0.08-0.17,0.13-0.19,0.11c0.05-0.1-0.11-0.08,0.02-0.19
			c0.04-0.02,0,0.13,0.09,0.06c-0.01-0.1,0.09-0.27-0.08-0.2c-0.12,0.06-0.18,0.4-0.25,0.2c0.06-0.03,0.11-0.1,0.17-0.16l-0.08-0.17
			l-0.1,0.18c0-0.05,0.03-0.06,0.03-0.09c-0.13,0.17-0.23-0.04-0.37,0.16c-0.08-0.01-0.08-0.19-0.13-0.24l0.02-0.01
			c-0.03-0.14-0.17-0.12-0.29-0.03l0.02-0.04c-0.04-0.03-0.15-0.05-0.25,0.03c-0.04-0.19,0.28-0.71,0.05-0.53
			c-0.12-0.04-0.32,0.26-0.33,0.4c-0.15-0.21-0.5,0-0.57-0.37c-0.06,0.06-0.06,0.12-0.14,0.14c-0.26-0.2-0.71-0.01-0.81-0.47
			c0.12-0.05,0.07-0.19,0.11-0.29c-0.13,0.14-0.02-0.21-0.15,0.07c-0.05,0.17-0.09,0.25-0.03,0.35c-0.21,0.03-0.48-0.07-0.53-0.26
			c0.02,0.09-0.03,0.14-0.09,0.17c0.1-0.27-0.02-0.35-0.15-0.29l-0.07,0.16l-0.01-0.19c-0.06,0.04-0.15,0.34-0.2,0.15
			c0.01-0.07,0.03-0.14,0.03-0.19c-0.15,0.1-0.36,0.29-0.43,0.11l-0.02-0.27c-0.06,0.01-0.18,0.14-0.12,0.23
			c-0.15-0.2-0.27-0.25-0.28-0.48c-0.48,0.42-0.96,0.33-1.35,0.21l0.04-0.13c-0.08-0.14-0.1,0.21-0.16,0.11
			c0.06-0.12-0.02-0.29,0.09-0.42c-0.12-0.17-0.24,0.18-0.35,0.22c-0.05,0.17,0.1-0.09,0.04,0.12c-0.03,0.05-0.18-0.18-0.26,0.08
			c-0.02-0.11,0.05-0.29,0.09-0.39l-0.12,0.11c-0.06-0.32,0.37-0.49,0.32-0.88l-0.1,0.02c-0.04-0.28,0.3-0.26,0.09-0.39
			c-0.12,0.11-0.27,0.47-0.21,0.6c-0.21,0.04-0.21,0.6-0.41,0.54c-0.03-0.16,0.17-0.01,0.17-0.23c-0.06-0.23-0.22,0.08-0.3-0.01
			c0.08,0.11-0.05,0.36-0.12,0.4c-0.09-0.14,0.11-0.23-0.04-0.29c-0.05,0.14-0.21,0.23-0.1,0.36c-0.11,0.33-0.14-0.12-0.26,0.13
			c-0.01-0.25,0.24-0.53,0.09-0.67c-0.01,0.23-0.25,0.29-0.21,0.64c-0.05-0.07-0.04-0.26,0.03-0.39c-0.07-0.15-0.28,0.39-0.25-0.07
			l-0.06,0.23c-0.02-0.08-0.05-0.14-0.08-0.28c-0.08-0.02-0.3,0.29-0.25-0.07c-0.03,0.03-0.22-0.01-0.17,0.25
			c0.1,0.17,0.15-0.16,0.18,0.18c-0.05-0.28-0.17,0.01-0.25,0.1l0-0.14c-0.05,0.05-0.13,0.01-0.17,0.16c0.04-0.08,0.03-0.17,0-0.21
			l-0.06,0.21c-0.17,0.09,0-0.37-0.17-0.32l0.14-0.15c-0.03,0.03-0.07-0.17-0.15-0.11c-0.05,0.19-0.12,0.42-0.16,0.56
			c-0.1,0.08-0.02-0.22-0.13-0.03l0.13-0.22c0.02-0.06-0.05-0.32-0.17-0.33c-0.08,0.06-0.22,0.33-0.11,0.44
			c-0.06,0-0.13-0.13-0.08-0.26c-0.14,0.05,0,0.21-0.12,0.32c-0.04-0.13-0.18-0.33-0.26-0.51l0.14-0.32l-0.08-0.01
			c0.12-0.25-0.04-0.2,0.03-0.47c-0.06-0.04-0.13,0.04-0.19,0.11c0.14,0.44-0.22,0.59-0.19,0.99c-0.23,0.1-0.1-0.97-0.36-0.36
			c0.03,0.11-0.08,0.4,0.06,0.29c-0.14-0.05-0.11,0.4-0.26,0.22c0.13-0.16-0.12-0.41,0.06-0.64c-0.01,0.13,0.1,0.1,0.12,0.07
			c-0.05-0.16,0.02-0.4-0.12-0.41c-0.09,0.03-0.21,0.04-0.2,0.25c0,0.23,0.13-0.02,0.07,0.21c-0.18,0.07-0.2-0.27-0.28,0.14
			c0.11-0.03,0.13,0.2,0.13,0.36l-0.13,0.1l0.03-0.15c-0.2-0.11-0.06,0.27-0.26,0.24l-0.09-0.3c0.05-0.26,0.29,0.11,0.25-0.31
			c-0.13-0.02-0.17,0.2-0.29,0.09c0.03-0.04,0.06-0.05,0.09-0.08c-0.05-0.01-0.1-0.57-0.28-0.24c-0.09,0.13-0.02,0.15-0.02,0.31
			c-0.21,0.05-0.26,0.2-0.39,0.24c0.02-0.31-0.24-0.02-0.1-0.34c0.07,0.17,0.37,0.15,0.44-0.14c-0.08-0.36,0.16,0.05,0.21-0.32
			c-0.17-0.01-0.17-0.36-0.2-0.6c-0.05-0.02-0.09,0.08-0.12,0.12c-0.02,0.22,0.05,0.22,0.05,0.44c-0.19-0.06-0.37,0.07-0.47,0.29
			c-0.07-0.11-0.06-0.33,0.02-0.35c-0.22,0.08-0.46,0.06-0.68,0c0.16,0.35-0.23,0.1-0.12,0.39c0.12,0.08,0.23,0.33,0.18,0.49
			c-0.07-0.02-0.01-0.16-0.04-0.23c-0.08,0.2-0.16-0.31-0.23,0.01c0.19-0.13,0.01-0.44,0.03-0.72c-0.14,0.17-0.01-0.2-0.16-0.19
			c-0.14,0.17-0.31,0.31-0.47,0.39c-0.23-0.24-0.52,0.04-0.7,0.08c-0.11-0.13-0.09-0.45-0.2-0.49c-0.12,0.02,0.14,0.33-0.07,0.21
			l0.01-0.07c-0.04,0.08-0.37-0.17-0.35,0.29l0.01-0.35c-0.04-0.03-0.06,0.06-0.08,0.1c-0.02-0.11-0.07-0.21-0.03-0.29
			c-0.15-0.22-0.24,0.07-0.36,0.1l0.11,0.19c-0.18,0.19-0.36,0.02-0.55,0.13l-0.03-0.2l-0.1,0.14c-0.01-0.2-0.14-0.3-0.17-0.13
			l0.23-0.54c0.11,0.1-0.05,0.26,0.04,0.44c0.08,0.16,0.26,0.07,0.25-0.12c-0.08-0.01-0.07,0.04-0.12,0.12
			c-0.07-0.27,0.04-0.28,0.06-0.47c-0.04,0.02-0.11-0.05-0.1,0.03c0.05-0.15,0.13-0.18,0.25-0.21c-0.07,0.12,0.07,0.16,0.06,0.25
			c-0.03-0.24,0.08-0.33,0.25-0.29c0.15,0.26,0.27-0.22,0.47-0.17c-0.04,0.26-0.11,0.47-0.2,0.58c0.13,0.11,0.12-0.02,0.25,0.08
			c0.03-0.19,0.03-0.48,0.17-0.61l0.03,0.18c0.12-0.11,0.09-0.38,0.27-0.35c0.31,0.06,0.62,0.03,0.85,0.03l0.02,0.18
			c0.1-0.41,0.41-0.18,0.57-0.36c0.3,0.16,0.63-0.21,0.79,0.1c0.51-0.14,0.97-0.29,1.5-0.21l-0.1,0.26c0.1-0.19,0.06,0.16,0.15,0.12
			c-0.1-0.22,0.14-0.27,0.21-0.43c0.23,0.22,0.55,0,0.77-0.17l0,0.18c0.24-0.32,0.48,0,0.73,0.08c0.02,0.08,0.06,0.25,0.14,0.24
			c0.17-0.28,0.25-0.26,0.48-0.41c0.16,0.02,0.4,0.13,0.54,0.26c0.64-0.34,1.19,0.04,1.85-0.1l0,0.22c0.68-0.33,1.31,0.25,1.85,0.16
			l-0.14,0.34c0.12,0.15,0.37,0,0.41-0.26c0.12,0.15,0.44-0.05,0.45,0.26c0.14,0.11,0.24-0.1,0.39-0.11
			c0.27,0.24,0.4,0.23,0.71,0.28l-0.07-0.05c-0.06,0.06-0.11,0.21-0.05,0.26c0.14-0.06,0.36,0.24,0.41-0.21
			c0.22,0.35,0.81,0.07,0.98,0.52c0.02-0.12,0.1-0.11,0.17-0.17c0.27,0.11,0.46,0.45,0.76,0.36c0.02,0.07-0.15,0.15-0.05,0.22
			c0.08-0.01,0.07-0.14,0.17-0.17c0.52,0.01,0.78,0.61,1.18,0.76c0.79,0.15,1.44,0.64,2.08,1.02l-0.05,0.07
			c0.4-0.15,0.3,0.61,0.75,0.31c0,0.1,0.16,0.16,0.03,0.28c0.31-0.07,0.32,0.51,0.73,0.45c-0.02-0.02-0.04-0.02-0.09-0.01
			c0.11,0.33,0.48,0.3,0.6,0.64c-0.05,0.01-0.11-0.01-0.18,0.05c-0.02,0.2,0.46-0.09,0.23,0.27c0.05,0.04,0.18-0.12,0.14-0.14
			c0.39,0.58,1.09,0.92,1.63,1.46c0.11,0.59-0.55,0.45-0.06,0.61c-0.05,0.08,0.15-0.07,0.08-0.02c0.19,0.07-0.25,0.47-0.01,0.44
			c0.19-0.18,0.16-0.02,0.3-0.1c0.04,0.36-0.13,0.53,0.17,0.64l-0.13,0.05c0.47,0.07,0.43,0.47,0.94,0.51
			c0.76,1.46,1.4,2.91,1.7,4.39c0.17,1.48,0.53,2.86,0.45,4.29c-0.32,0.37-0.31,0.4-0.12,0.74c-0.06-0.01-0.08-0.03-0.13,0
			c0.3-0.02,0.06,0.25,0.34,0.25c0,0.52,0.15,0.97,0.23,1.48c-0.04-0.08-0.29-0.08-0.25,0.01l0.2,0.07l-0.08,0.03
			c0.05,0.06,0.21,0.11,0.29,0.03c0.46,1.2,0.11,2.55,0.62,3.6c-0.04,0.32,0.26,0.6,0.43,0.83c-0.02,0.49,0.1,0.89,0.24,1.3
			c0.15,0.4,0.48,0.69,0.85,0.92C72.87,52.96,72.28,53.44,71.87,53.26z"/>
		<path class="st0" d="M43.09,26.8c0.07,0.14,0.2,0.19,0.14,0.41C43.2,27.07,43.1,26.93,43.09,26.8z"/>
		<path class="st0" d="M46.4,27.87c0-0.04,0.05,0.06,0.06,0.08c-0.04,0.01-0.06,0.14-0.1,0.07C46.4,28.01,46.38,27.94,46.4,27.87z"
			/>
		<path class="st0" d="M47.18,27.92c-0.01,0.13-0.17,0.24-0.26,0.26L47.18,27.92z"/>
		<path class="st0" d="M47.91,28.44c0.06,0.11,0.05,0.17-0.04,0.17C47.86,28.54,47.89,28.5,47.91,28.44z"/>
		<path class="st0" d="M47.95,28.14c0.06,0,0.09,0.07,0.12,0.15C48.07,28.18,47.94,28.36,47.95,28.14z"/>
		<path class="st0" d="M49.49,28.55c0.04-0.01,0.12-0.11,0.15,0.03C49.6,28.48,49.45,28.74,49.49,28.55z"/>
		<path class="st0" d="M50.21,28.4c0.02,0.01,0.03,0.04,0.06,0c0.04,0.06-0.02,0.15-0.05,0.16L50.21,28.4z"/>
		<polygon class="st0" points="62.61,32.29 62.51,32.3 62.6,32.2 		"/>
		<path class="st0" d="M66.04,36.54c0.1,0.04-0.1,0.1-0.11,0.11C65.9,36.59,66.09,36.62,66.04,36.54z"/>
		<polygon class="st0" points="67.52,39.37 67.51,39.35 67.78,39.3 		"/>
	</g>
</g>
</svg>
